<svg width="10" height="14" viewBox="0 0 10 14" fill="none" xmlns="http://www.w3.org/2000/svg">
<path fill-rule="evenodd" clip-rule="evenodd" d="M0.410925 4.99999C0.240993 4.99848 0.089114 4.89333 0.0279025 4.73474C-0.0334066 4.57626 0.00835242 4.39637 0.13317 4.28094L4.69278 0.108968C4.85126 -0.0363224 5.09464 -0.0363224 5.25313 0.108968L9.81275 4.28094C9.93768 4.39639 9.97933 4.5765 9.9179 4.73521C9.85648 4.89381 9.70436 4.99884 9.5342 5L0.410925 4.99999Z" fill="#3E4B5E" fill-opacity="0.5"/>
<path fill-rule="evenodd" clip-rule="evenodd" d="M0.410925 9.00001C0.240993 9.00152 0.089114 9.10667 0.0279025 9.26526C-0.0334066 9.42374 0.00835242 9.60363 0.13317 9.71906L4.69278 13.891C4.85126 14.0363 5.09464 14.0363 5.25313 13.891L9.81275 9.71906C9.93768 9.60361 9.97933 9.4235 9.9179 9.26479C9.85648 9.10619 9.70436 9.00116 9.5342 9L0.410925 9.00001Z" fill="#3E4B5E" fill-opacity="0.5"/>
</svg>
