<svg width="20" height="20" viewBox="0 0 20 20" fill="none" xmlns="http://www.w3.org/2000/svg">
<rect x="0.5" y="0.5" width="19" height="19" rx="3.5" fill="#FF2458" stroke="#FF2458"/>
<path d="M7.68816 12.954L4.42232 9.68816C4.26605 9.53193 4.05413 9.44417 3.83316 9.44417C3.61219 9.44417 3.40026 9.53193 3.24399 9.68816C3.08776 9.84443 3 10.0564 3 10.2773C3 10.4983 3.08776 10.7102 3.24399 10.8665L6.50982 14.1323C6.6646 14.2872 6.84836 14.41 7.05061 14.4938C7.25286 14.5776 7.46965 14.6207 7.68857 14.6207C7.9075 14.6207 8.12428 14.5776 8.32653 14.4938C8.52879 14.41 8.71255 14.2872 8.86732 14.1323L16.5773 6.42232C16.7335 6.26605 16.8213 6.05413 16.8213 5.83316C16.8213 5.61219 16.7335 5.40026 16.5773 5.24399C16.421 5.08776 16.2091 5 15.9882 5C15.7672 5 15.5553 5.08776 15.399 5.24399L7.68816 12.954Z" fill="white"/>
</svg>
