<?xml version="1.0" encoding="UTF-8"?>
<svg id="Layer_2" data-name="Layer 2" xmlns="http://www.w3.org/2000/svg" viewBox="0 0 351.36 229.96">
  <defs>
    <style>
      .cls-1 {
        fill: #fff;
        fill-rule: evenodd;
        stroke-width: 0px;
      }
    </style>
  </defs>
  <g id="Layer_1-2" data-name="Layer 1">
    <path class="cls-1" d="m320.48,0H30.83c-4.73,0-9.2,1-13.2,2.66l157.37,135.21,35.26-29.13v-.03L333.73,2.66c-4.05-1.66-8.52-2.66-13.25-2.66h0Zm27.81,15.16l-116.18,99.82,116.18,99.83c1.87-3.45,3.07-7.3,3.07-11.37V26.52c0-4.07-1.15-7.89-3.07-11.37h0ZM3.07,15.16c-1.92,3.48-3.07,7.3-3.07,11.37v176.92c0,4.07,1.15,7.89,3.07,11.37l116.18-99.83L3.07,15.16h0Zm214.48,112.35l-35.31,29.12c-2,1.72-4.64,2.6-7.24,2.6s-5.28-.88-7.29-2.6l-33.9-29.12L17.63,227.3c4,1.66,8.47,2.66,13.2,2.66h289.65c4.73,0,9.2-1,13.25-2.66l-116.18-99.79h0Z"/>
  </g>
</svg>