<svg width="19" height="19" viewBox="0 0 19 19" fill="none" xmlns="http://www.w3.org/2000/svg">
<path d="M18.1556 0H0.844444C0.38 0 0 0.38 0 0.844444V6.12222C0 6.35444 0.19 6.54444 0.422222 6.54444C0.654444 6.54444 0.844444 6.35444 0.844444 6.12222V0.844444H18.1556V18.1556H12.8778C12.6456 18.1556 12.4556 18.3456 12.4556 18.5778C12.4556 18.81 12.6456 19 12.8778 19H18.1556C18.62 19 19 18.62 19 18.1556V0.844444C19 0.38 18.62 0 18.1556 0Z" fill="#09589E"/>
<path d="M15.2 4.39105V7.59994C15.2 7.83216 15.39 8.02216 15.6222 8.02216C15.8544 8.02216 16.0444 7.83216 16.0444 7.59994V3.37771C16.0444 3.3566 16.0444 3.31438 16.0444 3.29327C16.0444 3.27216 16.0444 3.27216 16.0233 3.25105C16.0233 3.22994 16.0233 3.22994 16.0022 3.20882C16.0022 3.18771 15.9811 3.18771 15.9811 3.1666C15.9811 3.14549 15.96 3.14549 15.96 3.12438C15.9389 3.08216 15.8967 3.03994 15.8333 2.99771L15.8122 2.9766C15.7911 2.9766 15.7911 2.95549 15.77 2.95549C15.7489 2.95549 15.7489 2.95549 15.7278 2.93438C15.7067 2.93438 15.7067 2.93438 15.6856 2.91327C15.6433 2.91327 15.6011 2.91327 15.5589 2.91327C15.5378 2.91327 15.5167 2.91327 15.5167 2.91327H11.2944C11.0622 2.91327 10.8722 3.10327 10.8722 3.33549C10.8722 3.56771 11.0622 3.75771 11.2944 3.75771H14.6089L10.3444 8.04327C10.2811 8.02216 10.1967 8.02216 10.1333 8.02216H0.844444C0.38 8.02216 0 8.40216 0 8.8666V18.1555C0 18.6199 0.38 18.9999 0.844444 18.9999H10.1333C10.5978 18.9999 10.9778 18.6199 10.9778 18.1555V8.8666C10.9778 8.78216 10.9567 8.71882 10.9567 8.65549L15.2 4.39105ZM0.844444 18.1555V8.8666H10.1333V18.1555H0.844444Z" fill="#09589E"/>
</svg>
