<svg width="20" height="12" viewBox="0 0 20 12" fill="none" xmlns="http://www.w3.org/2000/svg">
<path fill-rule="evenodd" clip-rule="evenodd" d="M10 0C4.55985 0 0.130837 5.19681 0.130837 5.19681C-0.0436123 5.40349 -0.0436123 5.70793 0.130837 5.91461C0.130837 5.91461 4.55985 11.1114 10 11.1114C15.4402 11.1114 19.8692 5.91461 19.8692 5.91461C20.0436 5.70793 20.0436 5.40349 19.8692 5.19681C19.8692 5.19681 15.4402 0 10 0ZM10 1.11114C14.1501 1.11114 17.6424 4.44012 18.6958 5.55571C17.6424 6.6713 14.1501 10.0003 10 10.0003C5.84988 10.0003 2.35757 6.6713 1.3042 5.55571C2.35757 4.44012 5.84988 1.11114 10 1.11114ZM10 2.77785C8.46662 2.77785 7.22215 4.02233 7.22215 5.55571C7.22215 7.08909 8.46662 8.33356 10 8.33356C11.5334 8.33356 12.7779 7.08909 12.7779 5.55571C12.7779 4.02233 11.5334 2.77785 10 2.77785ZM10 3.889C10.92 3.889 11.6667 4.63568 11.6667 5.55571C11.6667 6.47574 10.92 7.22242 10 7.22242C9.07997 7.22242 8.33329 6.47574 8.33329 5.55571C8.33329 4.63568 9.07997 3.889 10 3.889Z" fill="#3E4B5E"/>
</svg>
