<svg width="20" height="17" viewBox="0 0 20 17" fill="none" xmlns="http://www.w3.org/2000/svg">
<path fill-rule="evenodd" clip-rule="evenodd" d="M9.99976 2C4.5596 2 0.130593 7.19681 0.130593 7.19681C-0.0438565 7.40349 -0.0438565 7.70793 0.130593 7.91461C0.130593 7.91461 4.5596 13.1114 9.99976 13.1114C15.4399 13.1114 19.8689 7.91461 19.8689 7.91461C20.0434 7.70793 20.0434 7.40349 19.8689 7.19681C19.8689 7.19681 15.4399 2 9.99976 2ZM9.99976 3.11114C14.1499 3.11114 17.6422 6.44012 18.6956 7.55571C17.6422 8.6713 14.1499 12.0003 9.99976 12.0003C5.84964 12.0003 2.35732 8.6713 1.30396 7.55571C2.35732 6.44012 5.84964 3.11114 9.99976 3.11114ZM9.99976 4.77785C8.46638 4.77785 7.2219 6.02233 7.2219 7.55571C7.2219 9.08909 8.46638 10.3336 9.99976 10.3336C11.5331 10.3336 12.7776 9.08909 12.7776 7.55571C12.7776 6.02233 11.5331 4.77785 9.99976 4.77785ZM9.99976 5.889C10.9198 5.889 11.6665 6.63568 11.6665 7.55571C11.6665 8.47574 10.9198 9.22242 9.99976 9.22242C9.07973 9.22242 8.33304 8.47574 8.33304 7.55571C8.33304 6.63568 9.07973 5.889 9.99976 5.889Z" fill="#3E4B5E"/>
<line x1="14.4307" y1="0.25351" x2="5.30436" y2="15.7683" stroke="#3E4B5E"/>
</svg>
