<svg width="17" height="16" viewBox="0 0 17 16" fill="none" xmlns="http://www.w3.org/2000/svg">
<path d="M4.72707 15.9996C4.59524 15.9996 4.46637 15.9605 4.35677 15.8872C4.24716 15.814 4.16173 15.7099 4.11129 15.5881C4.06084 15.4663 4.04764 15.3322 4.07335 15.2029C4.09906 15.0736 4.16253 14.9549 4.25574 14.8616L9.70374 9.41362C10.0787 9.03856 10.2893 8.52995 10.2893 7.99962C10.2893 7.46929 10.0787 6.96068 9.70374 6.58562L4.25574 1.13762C4.1343 1.01189 4.0671 0.843484 4.06862 0.668686C4.07014 0.493888 4.14025 0.32668 4.26386 0.203075C4.38746 0.0794693 4.55467 0.00935665 4.72947 0.0078377C4.90427 0.00631876 5.07267 0.073515 5.1984 0.194954L10.6464 5.64295C11.2705 6.26848 11.621 7.11601 11.621 7.99962C11.621 8.88323 11.2705 9.73076 10.6464 10.3563L5.1984 15.8043C5.07341 15.9293 4.90387 15.9996 4.72707 15.9996Z" fill="#3E4B5E" fill-opacity="0.4"/>
</svg>
