<svg width="29" height="18" viewBox="0 0 29 18" fill="none" xmlns="http://www.w3.org/2000/svg">
<path d="M23.1884 4.24392C23.2305 3.53901 22.9201 3.2076 22.2099 3.2076C22.0994 3.2076 21.9837 3.21286 21.8732 3.21812C21.7575 3.21286 21.647 3.2076 21.5313 3.2076C18.112 3.2076 14.6874 3.2076 11.268 3.21286C10.9945 3.21286 10.7472 3.17078 10.521 3.02874C10.3054 2.77624 10.2317 2.48691 10.237 2.1555C10.2422 1.71887 10.2264 1.28225 10.2054 0.840368C10.1844 0.324837 9.86873 0.00394539 9.3532 0.00394539C6.53883 -0.00131513 3.72971 -0.00131513 0.91533 0.00394539C0.526052 0.00394539 0.247244 0.193324 0.0841682 0.545779C0.00526044 0.724636 0 0.919276 0 1.11391C0 6.59011 0 12.0611 0 17.5373C0 17.6425 0.00526044 17.7477 0.00526044 17.8529C0.347194 16.5746 0.694389 15.2963 1.03632 14.018C1.7991 11.1562 2.55661 8.29452 3.31413 5.4328C3.48246 4.8068 3.85596 4.41226 4.50826 4.30705C6.40731 4.30705 8.3011 4.30705 10.2001 4.30705C11.5468 4.30705 12.8935 4.31231 14.2402 4.31757C14.256 4.31757 14.277 4.31757 14.2928 4.31757C14.4349 4.31757 14.5716 4.31757 14.7137 4.31757C14.8347 4.31757 14.9557 4.32283 15.0766 4.32283C15.1293 4.32283 15.1871 4.32283 15.2397 4.32283C15.2713 4.32283 15.3081 4.32283 15.3397 4.32283C15.3923 4.32283 15.4501 4.32283 15.5028 4.32283C15.6606 4.32283 15.8184 4.32283 15.9762 4.32283C16.0972 4.32283 16.2182 4.32283 16.3392 4.32283C16.3918 4.32283 16.4496 4.32283 16.5022 4.32283C16.5338 4.32283 16.5706 4.32283 16.6022 4.31757C16.76 4.31757 16.9178 4.31757 17.0756 4.31757C17.1072 4.31757 17.144 4.31757 17.1756 4.31757C17.3702 4.31757 17.5649 4.31231 17.7543 4.31231C17.77 4.31231 17.7911 4.31231 17.8069 4.31231C18.0015 4.31231 18.1961 4.31231 18.3855 4.31231C18.4223 4.31231 18.4539 4.31231 18.4907 4.31231C18.6117 4.31231 18.738 4.31231 18.859 4.31231C18.9484 4.31231 19.0326 4.31231 19.122 4.31231C19.2798 4.31231 19.4376 4.31757 19.5954 4.31757C19.6323 4.31757 19.6638 4.31757 19.7006 4.31757C19.8953 4.31757 20.0847 4.31757 20.2793 4.31757C20.3109 4.31757 20.3477 4.32283 20.3792 4.32283C20.4319 4.32283 20.4897 4.31757 20.5423 4.31757C20.6107 4.31757 20.6791 4.31757 20.7475 4.31757C20.8001 4.31757 20.858 4.31757 20.9106 4.31757C20.9632 4.31757 21.0105 4.31757 21.0631 4.31757C21.1525 4.31757 21.242 4.31231 21.3314 4.31231C21.4892 4.31231 21.647 4.31231 21.8049 4.31231C22.2678 4.27023 22.7307 4.33861 23.1884 4.28075C23.2041 4.2597 23.1989 4.24918 23.1884 4.24392Z" fill="#565AA4"/>
<path d="M28.5279 4.83282C28.3806 4.35937 27.9913 4.09635 27.4127 4.09109C26.0134 4.08583 24.6088 4.08583 23.2095 4.08057C22.7519 4.13843 22.2889 4.0753 21.826 4.11213C21.826 4.42776 21.826 4.74339 21.8207 5.05902C21.8207 4.74339 21.826 4.42776 21.826 4.11213C21.6682 4.11213 21.5104 4.11213 21.3526 4.11213C21.2631 4.11213 21.1737 4.11739 21.0843 4.11739C21.0317 4.11739 20.9843 4.11739 20.9317 4.11739C20.8791 4.11739 20.8212 4.11739 20.7686 4.11739C20.7003 4.11739 20.6319 4.11739 20.5635 4.11739C20.5109 4.11739 20.453 4.12265 20.4004 4.12265C20.3688 4.12265 20.332 4.11739 20.3005 4.11739C20.1058 4.11739 19.9112 4.11739 19.7218 4.11739C19.685 4.11739 19.6534 4.11739 19.6166 4.11739C19.4588 4.11739 19.301 4.11213 19.1431 4.11213C19.0537 4.11213 18.9695 4.11213 18.8801 4.11213C18.7591 4.11213 18.6329 4.11213 18.5119 4.11213C18.4751 4.11213 18.4435 4.11213 18.4067 4.11213C18.212 4.11213 18.0174 4.11213 17.828 4.11213C17.8122 4.11213 17.7912 4.11213 17.7754 4.11213C17.5808 4.11213 17.3861 4.11739 17.1967 4.11739C17.1652 4.11739 17.1284 4.11739 17.0968 4.11739C16.939 4.11739 16.7812 4.11739 16.6234 4.11739C16.5918 4.11739 16.555 4.11739 16.5234 4.12265C16.4708 4.12265 16.4129 4.12265 16.3603 4.12265C16.2393 4.12265 16.1183 4.12265 15.9974 4.12265C15.8395 4.12265 15.6817 4.12265 15.5239 4.12265C15.4713 4.12265 15.4134 4.12265 15.3608 4.12265C15.3293 4.12265 15.2924 4.12265 15.2609 4.12265C15.2083 4.12265 15.1504 4.12265 15.0978 4.12265C14.9768 4.12265 14.8558 4.11739 14.7348 4.11739C14.5928 4.11739 14.456 4.11739 14.314 4.11739C14.2982 4.11739 14.2772 4.11739 14.2614 4.11739C12.9147 4.11213 11.568 4.10687 10.2213 4.10687C8.32226 4.10687 6.42847 4.10687 4.52942 4.10687C3.87712 4.21208 3.50362 4.60662 3.33528 5.23262C2.57777 8.09434 1.82025 10.9561 1.05748 13.8178C0.715546 15.0961 0.368352 16.3744 0.0264184 17.6527C-0.0314473 17.9262 0.184234 17.8263 0.289444 17.8263C8.34856 17.8316 16.4129 17.8263 24.472 17.8263C25.2822 17.8263 25.7293 17.4844 25.9134 16.6953C26.7919 12.9393 27.6652 9.18327 28.5437 5.42726C28.5805 5.23262 28.5858 5.03272 28.5279 4.83282Z" fill="#FFB400"/>
<path d="M18.8398 8.70508C18.7482 8.57529 18.6726 8.43313 18.6163 8.28203L15.1602 10.1009C15.2518 10.2308 15.3272 10.3728 15.3837 10.5241L18.8398 8.70508ZM18.8398 13.6497L15.3838 11.8307C15.3274 11.982 15.2519 12.124 15.1605 12.2539L18.6163 14.0728C18.6728 13.9215 18.7482 13.7796 18.8398 13.6497ZM14.7806 10.0254C14.4859 9.7311 14.0785 9.54883 13.6286 9.54883C13.1787 9.54883 12.7714 9.7311 12.4767 10.0254C12.1823 10.3201 12 10.7275 12 11.1774C12 11.6273 12.1823 12.0347 12.4767 12.3294C12.7714 12.6237 13.1787 12.806 13.6286 12.806C14.0785 12.806 14.4859 12.6237 14.7806 12.3294C14.8148 12.2951 14.8476 12.2593 14.886 12.2133C15.118 11.9313 15.2573 11.5705 15.2573 11.1774C15.2573 10.7842 15.1181 10.4235 14.8797 10.1339C14.8476 10.0955 14.8148 10.0597 14.7806 10.0254ZM21.5233 13.5742C21.2286 13.2798 20.8213 13.0975 20.3714 13.0975C19.9215 13.0975 19.5141 13.2798 19.2194 13.5742C19.1845 13.6092 19.1509 13.6459 19.1165 13.6873C18.8828 13.9703 18.7427 14.332 18.7427 14.7262C18.7427 15.1761 18.925 15.5834 19.2194 15.8781C19.5141 16.1725 19.9215 16.3548 20.3714 16.3548C20.8213 16.3548 21.2286 16.1725 21.5233 15.8781C21.8177 15.5834 22 15.1761 22 14.7262C22 14.2763 21.8177 13.8689 21.5233 13.5742ZM21.5233 6.47671C21.2286 6.18227 20.8213 6 20.3714 6C19.9215 6 19.5141 6.18227 19.2194 6.47671C18.925 6.77142 18.7427 7.17869 18.7427 7.62857C18.7427 8.02283 18.8826 8.38447 19.1183 8.66984C19.151 8.7089 19.1845 8.74559 19.2194 8.78057C19.5141 9.07501 19.9215 9.25728 20.3714 9.25728C20.8213 9.25728 21.2286 9.07501 21.5233 8.78057C21.8177 8.48586 22 8.07846 22 7.62857C22 7.17869 21.8177 6.77142 21.5233 6.47671Z" fill="#565AA4"/>
</svg>
