<svg width="15" height="10" viewBox="0 0 15 10" fill="none" xmlns="http://www.w3.org/2000/svg">
<path d="M12.1739 2.22806C12.196 1.85798 12.033 1.68399 11.6602 1.68399C11.6022 1.68399 11.5414 1.68675 11.4834 1.68951C11.4227 1.68675 11.3647 1.68399 11.3039 1.68399C9.50878 1.68399 7.71087 1.68399 5.91572 1.68675C5.7721 1.68675 5.6423 1.66466 5.52354 1.59009C5.41031 1.45753 5.37165 1.30563 5.37441 1.13164C5.37717 0.902409 5.36889 0.673182 5.35784 0.441193C5.34679 0.17054 5.18109 0.00207133 4.91043 0.00207133C3.43288 -0.000690443 1.9581 -0.000690443 0.480548 0.00207133C0.276177 0.00207133 0.129803 0.101495 0.0441883 0.286534C0.00276173 0.380434 0 0.48262 0 0.584805C0 3.45981 0 6.33205 0 9.20706C0 9.26229 0.00276173 9.31753 0.00276173 9.37276C0.182277 8.70165 0.364554 8.03054 0.544069 7.35943C0.944526 5.85703 1.34222 4.35462 1.73992 2.85222C1.82829 2.52357 2.02438 2.31644 2.36684 2.2612C3.36384 2.2612 4.35808 2.2612 5.35508 2.2612C6.06209 2.2612 6.7691 2.26396 7.47612 2.26672C7.4844 2.26672 7.49545 2.26672 7.50374 2.26672C7.5783 2.26672 7.65011 2.26672 7.72468 2.26672C7.7882 2.26672 7.85172 2.26949 7.91524 2.26949C7.94286 2.26949 7.97324 2.26949 8.00085 2.26949C8.01743 2.26949 8.03676 2.26949 8.05333 2.26949C8.08095 2.26949 8.11133 2.26949 8.13894 2.26949C8.2218 2.26949 8.30465 2.26949 8.3875 2.26949C8.45102 2.26949 8.51454 2.26949 8.57806 2.26949C8.60568 2.26949 8.63606 2.26949 8.66368 2.26949C8.68025 2.26949 8.69958 2.26949 8.71615 2.26672C8.79901 2.26672 8.88186 2.26672 8.96471 2.26672C8.98128 2.26672 9.00062 2.26672 9.01719 2.26672C9.11937 2.26672 9.22156 2.26396 9.32098 2.26396C9.32927 2.26396 9.34031 2.26396 9.3486 2.26396C9.45078 2.26396 9.55297 2.26396 9.65239 2.26396C9.67173 2.26396 9.6883 2.26396 9.70763 2.26396C9.77115 2.26396 9.83743 2.26396 9.90095 2.26396C9.9479 2.26396 9.99209 2.26396 10.039 2.26396C10.1219 2.26396 10.2047 2.26672 10.2876 2.26672C10.3069 2.26672 10.3235 2.26672 10.3428 2.26672C10.445 2.26672 10.5444 2.26672 10.6466 2.26672C10.6632 2.26672 10.6825 2.26949 10.6991 2.26949C10.7267 2.26949 10.7571 2.26672 10.7847 2.26672C10.8206 2.26672 10.8565 2.26672 10.8924 2.26672C10.92 2.26672 10.9504 2.26672 10.978 2.26672C11.0057 2.26672 11.0305 2.26672 11.0581 2.26672C11.1051 2.26672 11.152 2.26396 11.199 2.26396C11.2818 2.26396 11.3647 2.26396 11.4475 2.26396C11.6906 2.24187 11.9336 2.27777 12.1739 2.24739C12.1822 2.23634 12.1794 2.23082 12.1739 2.22806Z" fill="#565AA4"/>
<path d="M14.9772 2.53727C14.8998 2.28871 14.6955 2.15062 14.3917 2.14786C13.657 2.1451 12.9196 2.1451 12.185 2.14233C11.9447 2.17271 11.7017 2.13957 11.4587 2.1589C11.4587 2.32461 11.4587 2.49032 11.4559 2.65602C11.4559 2.49032 11.4587 2.32461 11.4587 2.1589C11.3758 2.1589 11.293 2.1589 11.2101 2.1589C11.1632 2.1589 11.1162 2.16167 11.0693 2.16167C11.0416 2.16167 11.0168 2.16167 10.9892 2.16167C10.9615 2.16167 10.9312 2.16167 10.9035 2.16167C10.8676 2.16167 10.8317 2.16167 10.7958 2.16167C10.7682 2.16167 10.7378 2.16443 10.7102 2.16443C10.6937 2.16443 10.6743 2.16167 10.6577 2.16167C10.5556 2.16167 10.4534 2.16167 10.354 2.16167C10.3346 2.16167 10.318 2.16167 10.2987 2.16167C10.2159 2.16167 10.133 2.1589 10.0502 2.1589C10.0032 2.1589 9.95902 2.1589 9.91207 2.1589C9.84855 2.1589 9.78227 2.1589 9.71875 2.1589C9.69941 2.1589 9.68284 2.1589 9.66351 2.1589C9.56132 2.1589 9.45914 2.1589 9.35971 2.1589C9.35143 2.1589 9.34038 2.1589 9.3321 2.1589C9.22991 2.1589 9.12773 2.16167 9.0283 2.16167C9.01173 2.16167 8.9924 2.16167 8.97583 2.16167C8.89298 2.16167 8.81012 2.16167 8.72727 2.16167C8.7107 2.16167 8.69137 2.16167 8.6748 2.16443C8.64718 2.16443 8.6168 2.16443 8.58918 2.16443C8.52566 2.16443 8.46214 2.16443 8.39862 2.16443C8.31577 2.16443 8.23291 2.16443 8.15006 2.16443C8.12244 2.16443 8.09206 2.16443 8.06444 2.16443C8.04787 2.16443 8.02854 2.16443 8.01197 2.16443C7.98435 2.16443 7.95397 2.16443 7.92636 2.16443C7.86283 2.16443 7.79931 2.16167 7.73579 2.16167C7.66123 2.16167 7.58942 2.16167 7.51485 2.16167C7.50657 2.16167 7.49552 2.16167 7.48723 2.16167C6.78022 2.1589 6.07321 2.15614 5.36619 2.15614C4.36919 2.15614 3.37496 2.15614 2.37796 2.15614C2.0355 2.21138 1.83941 2.41851 1.75103 2.74716C1.35334 4.24957 0.955643 5.75197 0.555186 7.25437C0.375671 7.92548 0.193394 8.59659 0.0138788 9.26771C-0.0165007 9.41132 0.096732 9.35884 0.151967 9.35884C4.383 9.36161 8.6168 9.35884 12.8478 9.35884C13.2731 9.35884 13.5079 9.17933 13.6046 8.76506C14.0658 6.79316 14.5242 4.82125 14.9854 2.84935C15.0048 2.74716 15.0075 2.64221 14.9772 2.53727Z" fill="#FF2458"/>
</svg>
