<svg width="20" height="17" viewBox="0 0 20 17" fill="none" xmlns="http://www.w3.org/2000/svg">
<path fill-rule="evenodd" clip-rule="evenodd" d="M10 2C4.55985 2 0.130837 7.19681 0.130837 7.19681C-0.0436123 7.40349 -0.0436123 7.70793 0.130837 7.91461C0.130837 7.91461 4.55985 13.1114 10 13.1114C15.4402 13.1114 19.8692 7.91461 19.8692 7.91461C20.0436 7.70793 20.0436 7.40349 19.8692 7.19681C19.8692 7.19681 15.4402 2 10 2ZM10 3.11114C14.1501 3.11114 17.6424 6.44012 18.6958 7.55571C17.6424 8.6713 14.1501 12.0003 10 12.0003C5.84988 12.0003 2.35757 8.6713 1.3042 7.55571C2.35757 6.44012 5.84988 3.11114 10 3.11114ZM10 4.77785C8.46662 4.77785 7.22214 6.02233 7.22214 7.55571C7.22214 9.08909 8.46662 10.3336 10 10.3336C11.5334 10.3336 12.7779 9.08909 12.7779 7.55571C12.7779 6.02233 11.5334 4.77785 10 4.77785ZM10 5.889C10.92 5.889 11.6667 6.63568 11.6667 7.55571C11.6667 8.47574 10.92 9.22242 10 9.22242C9.07997 9.22242 8.33329 8.47574 8.33329 7.55571C8.33329 6.63568 9.07997 5.889 10 5.889Z" fill="#3E4B5E"/>
<line x1="14.431" y1="0.25351" x2="5.30461" y2="15.7683" stroke="#3E4B5E"/>
</svg>
