<svg width="105" height="105" viewBox="0 0 105 105" fill="none" xmlns="http://www.w3.org/2000/svg">
<g id="Group">
<path id="Vector" fill-rule="evenodd" clip-rule="evenodd" d="M21.0627 0H83.6996C95.3424 0 104.762 9.38249 104.762 20.9689V83.3269C104.762 94.9178 95.3378 104.296 83.6996 104.296H21.0627C9.41991 104.296 0 94.9133 0 83.3269V20.9689C0 9.38249 9.42446 0 21.0627 0Z" fill="#0B66C3"/>
<g id="Group_2">
<path id="Vector_2" d="M16.0384 27.5579H76.7895V31.8252H80.8754V25.023C80.8754 24.175 80.1831 23.4902 79.3267 23.4902H13.5012C12.6449 23.4902 11.9525 24.1795 11.9525 25.023V66.0538C11.9525 66.9064 12.6449 67.5957 13.5012 67.5957H62.8965V59.2788H16.0384V27.5579ZM46.4117 61.7503C47.4229 61.7503 48.2474 62.5711 48.2474 63.5778C48.2474 64.5845 47.4229 65.4008 46.4117 65.4008C45.4005 65.4008 44.576 64.5891 44.576 63.5778C44.576 62.5666 45.4005 61.7503 46.4117 61.7503Z" fill="white"/>
<path id="Vector_3" d="M59.0566 78.0892H55.9044L53.6542 70.3075H39.1782L36.928 78.0892H33.7759C33.4342 78.0892 33.1564 78.3658 33.1564 78.7059V80.1979C33.1564 80.538 33.4342 80.8146 33.7759 80.8146H59.0611C59.4028 80.8146 59.6806 80.538 59.6806 80.1979V78.7059C59.6806 78.3658 59.4028 78.0892 59.0611 78.0892H59.0566Z" fill="white"/>
<path id="Vector_4" d="M91.2701 36.1604H68.7999C67.9481 36.1604 67.2557 36.8497 67.2557 37.6977V79.2682C67.2557 80.1162 67.9481 80.8055 68.7999 80.8055H91.2701C92.1219 80.8055 92.8143 80.1162 92.8143 79.2682V37.6977C92.8143 36.8497 92.1219 36.1604 91.2701 36.1604ZM80.0327 79.2093C79.0215 79.2093 78.197 78.393 78.197 77.3817C78.197 76.3705 79.017 75.5542 80.0327 75.5542C81.0485 75.5542 81.8684 76.3705 81.8684 77.3817C81.8684 78.393 81.0485 79.2093 80.0327 79.2093ZM90.3136 74.6881H69.7519C69.2509 74.6881 68.8455 72.2121 68.8455 69.1556V43.1078C68.8455 40.0513 69.2509 37.5753 69.7519 37.5753H90.3136C90.8146 37.5753 91.22 40.0513 91.22 43.1078V69.1556C91.22 72.2121 90.8146 74.6881 90.3136 74.6881Z" fill="white"/>
</g>
</g>
</svg>
