<svg width="105" height="105" viewBox="0 0 105 105" fill="none" xmlns="http://www.w3.org/2000/svg">
<g id="Group">
<path id="Vector" fill-rule="evenodd" clip-rule="evenodd" d="M21.0627 0.699692H83.6996C95.3424 0.699692 104.762 10.0822 104.762 21.6686V84.0266C104.762 95.6175 95.3378 104.995 83.6996 104.995H21.0627C9.41991 104.995 0 95.613 0 84.0266V21.6686C0 10.0776 9.42446 0.699692 21.0627 0.699692Z" fill="#555555"/>
<g id="Group_2">
<path id="Vector_2" d="M16.0384 28.2622H76.7895V32.5294H80.8754V25.7272C80.8754 24.8792 80.1831 24.1945 79.3267 24.1945H13.5012C12.6449 24.1945 11.9525 24.8838 11.9525 25.7272V66.7581C11.9525 67.6106 12.6449 68.2999 13.5012 68.2999H62.8965V59.9831H16.0384V28.2622ZM46.4117 62.4545C47.4229 62.4545 48.2474 63.2753 48.2474 64.2821C48.2474 65.2888 47.4229 66.105 46.4117 66.105C45.4005 66.105 44.576 65.2933 44.576 64.2821C44.576 63.2708 45.4005 62.4545 46.4117 62.4545Z" fill="white"/>
<path id="Vector_3" d="M59.0566 78.7889H55.9044L53.6542 71.0072H39.1782L36.928 78.7889H33.7759C33.4342 78.7889 33.1564 79.0655 33.1564 79.4056V80.8975C33.1564 81.2377 33.4342 81.5143 33.7759 81.5143H59.0611C59.4028 81.5143 59.6806 81.2377 59.6806 80.8975V79.4056C59.6806 79.0655 59.4028 78.7889 59.0611 78.7889H59.0566Z" fill="white"/>
<path id="Vector_4" d="M91.2701 36.8647H68.7999C67.9481 36.8647 67.2557 37.554 67.2557 38.402V79.9725C67.2557 80.8205 67.9481 81.5098 68.7999 81.5098H91.2701C92.1219 81.5098 92.8143 80.8205 92.8143 79.9725V38.402C92.8143 37.554 92.1219 36.8647 91.2701 36.8647ZM80.0327 79.9135C79.0215 79.9135 78.197 79.0972 78.197 78.086C78.197 77.0747 79.017 76.2585 80.0327 76.2585C81.0485 76.2585 81.8684 77.0747 81.8684 78.086C81.8684 79.0972 81.0485 79.9135 80.0327 79.9135ZM90.3136 75.3923H69.7519C69.2509 75.3923 68.8455 72.9163 68.8455 69.8599V43.812C68.8455 40.7555 69.2509 38.2795 69.7519 38.2795H90.3136C90.8146 38.2795 91.22 40.7555 91.22 43.812V69.8599C91.22 72.9163 90.8146 75.3923 90.3136 75.3923Z" fill="white"/>
</g>
</g>
</svg>
