<svg width="36" height="36" viewBox="0 0 36 36" fill="none" xmlns="http://www.w3.org/2000/svg">
<rect width="36" height="36" rx="12" fill="#E9FDF3"/>
<rect x="18.1421" y="4" width="20" height="20" rx="4" transform="rotate(45 18.1421 4)" fill="#2ECD8E"/>
<g clip-path="url(#clip0_1269_9303)">
<path d="M23.1595 14.1471L16.25 21.0561C16.2035 21.1028 16.1483 21.1398 16.0875 21.165C16.0268 21.1903 15.9616 21.2033 15.8957 21.2033C15.8299 21.2033 15.7647 21.1903 15.704 21.165C15.6432 21.1398 15.588 21.1028 15.5415 21.0561L12.8695 18.3816C12.823 18.335 12.7678 18.298 12.707 18.2727C12.6463 18.2475 12.5811 18.2345 12.5152 18.2345C12.4494 18.2345 12.3842 18.2475 12.3235 18.2727C12.2627 18.298 12.2075 18.335 12.161 18.3816C12.1144 18.4281 12.0774 18.4833 12.0521 18.5441C12.0269 18.6049 12.0139 18.6701 12.0139 18.7359C12.0139 18.8017 12.0269 18.8669 12.0521 18.9277C12.0774 18.9885 12.1144 19.0437 12.161 19.0901L14.834 21.7626C15.116 22.0441 15.4981 22.2022 15.8965 22.2022C16.2949 22.2022 16.677 22.0441 16.959 21.7626L23.868 14.8551C23.9146 14.8087 23.9515 14.7535 23.9767 14.6928C24.0019 14.632 24.0149 14.5669 24.0149 14.5011C24.0149 14.4354 24.0019 14.3703 23.9767 14.3095C23.9515 14.2488 23.9146 14.1936 23.868 14.1471C23.8215 14.1005 23.7663 14.0635 23.7055 14.0382C23.6448 14.013 23.5796 14 23.5138 14C23.4479 14 23.3827 14.013 23.322 14.0382C23.2612 14.0635 23.206 14.1005 23.1595 14.1471Z" fill="white"/>
</g>
<defs>
<clipPath id="clip0_1269_9303">
<rect width="12" height="12" fill="white" transform="translate(12 12)"/>
</clipPath>
</defs>
</svg>
