<svg width="106" height="105" viewBox="0 0 106 105" fill="none" xmlns="http://www.w3.org/2000/svg">
<g id="Group">
<path id="Vector" fill-rule="evenodd" clip-rule="evenodd" d="M21.9948 0.699692H84.8185C96.4613 0.699692 105.881 10.0822 105.881 21.6686V84.2125C105.881 95.6175 96.4567 105 84.8185 105H21.9948C10.5388 105 0.932129 95.6175 0.932129 84.2125V21.6686C0.932129 10.0776 10.5388 0.699692 21.9948 0.699692Z" fill="#555555"/>
<path id="Vector_2" fill-rule="evenodd" clip-rule="evenodd" d="M20.3323 35.6539L36.5939 25.1694L52.8555 35.6539L36.5939 45.9569L20.3323 35.6539ZM20.3323 56.4414L36.5939 45.9569L52.8555 56.4414L36.5939 66.7444L20.3323 56.4414ZM53.9624 35.6539L70.2241 25.1694L86.4857 35.6539L70.2241 45.9569L53.9624 35.6539ZM53.9624 56.4414L70.2241 45.9569L86.4857 56.4414L70.2241 66.7444L53.9624 56.4414ZM37.1496 70.2362L53.4113 59.7518L69.6729 70.2362L53.4113 80.5393L37.1496 70.2362Z" fill="white"/>
</g>
</svg>
