<svg width="20" height="12" viewBox="0 0 20 12" fill="none" xmlns="http://www.w3.org/2000/svg">
<path fill-rule="evenodd" clip-rule="evenodd" d="M10.0003 0C4.5601 0 0.131089 5.19681 0.131089 5.19681C-0.0433606 5.40349 -0.0433606 5.70793 0.131089 5.91461C0.131089 5.91461 4.5601 11.1114 10.0003 11.1114C15.4404 11.1114 19.8694 5.91461 19.8694 5.91461C20.0439 5.70793 20.0439 5.40349 19.8694 5.19681C19.8694 5.19681 15.4404 0 10.0003 0ZM10.0003 1.11114C14.1504 1.11114 17.6427 4.44012 18.696 5.55571C17.6427 6.6713 14.1504 10.0003 10.0003 10.0003C5.85014 10.0003 2.35782 6.6713 1.30445 5.55571C2.35782 4.44012 5.85014 1.11114 10.0003 1.11114ZM10.0003 2.77785C8.46688 2.77785 7.2224 4.02233 7.2224 5.55571C7.2224 7.08909 8.46688 8.33356 10.0003 8.33356C11.5336 8.33356 12.7781 7.08909 12.7781 5.55571C12.7781 4.02233 11.5336 2.77785 10.0003 2.77785ZM10.0003 3.889C10.9203 3.889 11.667 4.63568 11.667 5.55571C11.667 6.47574 10.9203 7.22242 10.0003 7.22242C9.08023 7.22242 8.33354 6.47574 8.33354 5.55571C8.33354 4.63568 9.08023 3.889 10.0003 3.889Z" fill="#3E4B5E"/>
</svg>
