<svg width="16" height="16" viewBox="0 0 16 16" fill="none" xmlns="http://www.w3.org/2000/svg">
<g clip-path="url(#clip0_416_7813)">
<path d="M12.7896 1.75H12.1646V1.125C12.1646 0.95924 12.0987 0.800269 11.9815 0.683058C11.8643 0.565848 11.7053 0.5 11.5396 0.5C11.3738 0.5 11.2148 0.565848 11.0976 0.683058C10.9804 0.800269 10.9146 0.95924 10.9146 1.125V1.75H5.91455V1.125C5.91455 0.95924 5.8487 0.800269 5.73149 0.683058C5.61428 0.565848 5.45531 0.5 5.28955 0.5C5.12379 0.5 4.96482 0.565848 4.84761 0.683058C4.7304 0.800269 4.66455 0.95924 4.66455 1.125V1.75H4.03955C3.21105 1.75099 2.41677 2.08055 1.83094 2.66639C1.2451 3.25222 0.915543 4.0465 0.914551 4.875L0.914551 12.375C0.915543 13.2035 1.2451 13.9978 1.83094 14.5836C2.41677 15.1694 3.21105 15.499 4.03955 15.5H12.7896C13.618 15.499 14.4123 15.1694 14.9982 14.5836C15.584 13.9978 15.9136 13.2035 15.9146 12.375V4.875C15.9136 4.0465 15.584 3.25222 14.9982 2.66639C14.4123 2.08055 13.618 1.75099 12.7896 1.75ZM2.16455 4.875C2.16455 4.37772 2.36209 3.90081 2.71373 3.54917C3.06536 3.19754 3.54227 3 4.03955 3H12.7896C13.2868 3 13.7637 3.19754 14.1154 3.54917C14.467 3.90081 14.6646 4.37772 14.6646 4.875V5.5H2.16455V4.875ZM12.7896 14.25H4.03955C3.54227 14.25 3.06536 14.0525 2.71373 13.7008C2.36209 13.3492 2.16455 12.8723 2.16455 12.375V6.75H14.6646V12.375C14.6646 12.8723 14.467 13.3492 14.1154 13.7008C13.7637 14.0525 13.2868 14.25 12.7896 14.25Z" fill="#3E4B5E" fill-opacity="0.8"/>
<path d="M8.41455 10.8125C8.93232 10.8125 9.35205 10.3928 9.35205 9.875C9.35205 9.35723 8.93232 8.9375 8.41455 8.9375C7.89678 8.9375 7.47705 9.35723 7.47705 9.875C7.47705 10.3928 7.89678 10.8125 8.41455 10.8125Z" fill="#3E4B5E" fill-opacity="0.8"/>
<path d="M5.28955 10.8125C5.80732 10.8125 6.22705 10.3928 6.22705 9.875C6.22705 9.35723 5.80732 8.9375 5.28955 8.9375C4.77178 8.9375 4.35205 9.35723 4.35205 9.875C4.35205 10.3928 4.77178 10.8125 5.28955 10.8125Z" fill="#3E4B5E" fill-opacity="0.8"/>
<path d="M11.5396 10.8125C12.0573 10.8125 12.4771 10.3928 12.4771 9.875C12.4771 9.35723 12.0573 8.9375 11.5396 8.9375C11.0218 8.9375 10.6021 9.35723 10.6021 9.875C10.6021 10.3928 11.0218 10.8125 11.5396 10.8125Z" fill="#3E4B5E" fill-opacity="0.8"/>
</g>
<defs>
<clipPath id="clip0_416_7813">
<rect width="15" height="15" fill="white" transform="translate(0.914551 0.5)"/>
</clipPath>
</defs>
</svg>
