<svg width="106" height="105" viewBox="0 0 106 105" fill="none" xmlns="http://www.w3.org/2000/svg">
<g id="Group">
<path id="Vector" fill-rule="evenodd" clip-rule="evenodd" d="M21.9948 0H84.8185C96.4613 0 105.881 9.38249 105.881 20.9689V83.5128C105.881 94.9178 96.4567 104.3 84.8185 104.3H21.9948C10.5388 104.3 0.932129 94.9178 0.932129 83.5128V20.9689C0.932129 9.37796 10.5388 0 21.9948 0Z" fill="#0161FE"/>
<path id="Vector_2" fill-rule="evenodd" clip-rule="evenodd" d="M20.3323 34.9497L36.5939 24.4652L52.8555 34.9497L36.5939 45.2527L20.3323 34.9497ZM20.3323 55.7372L36.5939 45.2527L52.8555 55.7372L36.5939 66.0402L20.3323 55.7372ZM53.9624 34.9497L70.2241 24.4652L86.4857 34.9497L70.2241 45.2527L53.9624 34.9497ZM53.9624 55.7372L70.2241 45.2527L86.4857 55.7372L70.2241 66.0402L53.9624 55.7372ZM37.1496 69.532L53.4113 59.0476L69.6729 69.532L53.4113 79.8351L37.1496 69.532Z" fill="white"/>
</g>
</svg>
