<svg width="36" height="36" viewBox="0 0 36 36" fill="none" xmlns="http://www.w3.org/2000/svg">
<rect width="36" height="36" rx="12" fill="#FEF0F0"/>
<rect x="18.1421" y="4" width="20" height="20" rx="4" transform="rotate(45 18.1421 4)" fill="#F76666"/>
<g clip-path="url(#clip0_1011_15575)">
<path d="M20 16C19.9062 15.9063 19.7791 15.8536 19.6465 15.8536C19.5139 15.8536 19.3868 15.9063 19.293 16L18 17.293L16.707 16C16.6127 15.9089 16.4864 15.8585 16.3553 15.8597C16.2242 15.8608 16.0988 15.9134 16.0061 16.0061C15.9134 16.0988 15.8608 16.2242 15.8597 16.3553C15.8585 16.4864 15.9089 16.6127 16 16.707L17.293 18L16 19.293C15.9089 19.3873 15.8585 19.5136 15.8597 19.6447C15.8608 19.7758 15.9134 19.9012 16.0061 19.9939C16.0988 20.0866 16.2242 20.1392 16.3553 20.1403C16.4864 20.1415 16.6127 20.0911 16.707 20L18 18.707L19.293 20C19.3873 20.0911 19.5136 20.1415 19.6447 20.1403C19.7758 20.1392 19.9012 20.0866 19.9939 19.9939C20.0866 19.9012 20.1392 19.7758 20.1403 19.6447C20.1415 19.5136 20.0911 19.3873 20 19.293L18.707 18L20 16.707C20.0937 16.6132 20.1464 16.4861 20.1464 16.3535C20.1464 16.2209 20.0937 16.0938 20 16Z" fill="white"/>
<path d="M18 12C16.8133 12 15.6533 12.3519 14.6666 13.0112C13.6799 13.6705 12.9108 14.6075 12.4567 15.7039C12.0026 16.8003 11.8838 18.0067 12.1153 19.1705C12.3468 20.3344 12.9182 21.4035 13.7574 22.2426C14.5965 23.0818 15.6656 23.6532 16.8295 23.8847C17.9933 24.1162 19.1997 23.9974 20.2961 23.5433C21.3925 23.0892 22.3295 22.3201 22.9888 21.3334C23.6481 20.3467 24 19.1867 24 18C23.9983 16.4092 23.3656 14.8841 22.2407 13.7593C21.1159 12.6344 19.5908 12.0017 18 12ZM18 23C17.0111 23 16.0444 22.7068 15.2221 22.1573C14.3999 21.6079 13.759 20.827 13.3806 19.9134C13.0022 18.9998 12.9031 17.9945 13.0961 17.0245C13.289 16.0546 13.7652 15.1637 14.4645 14.4645C15.1637 13.7652 16.0546 13.289 17.0245 13.0961C17.9944 12.9031 18.9998 13.0022 19.9134 13.3806C20.827 13.759 21.6079 14.3999 22.1573 15.2221C22.7067 16.0444 23 17.0111 23 18C22.9985 19.3256 22.4713 20.5966 21.5339 21.5339C20.5966 22.4713 19.3256 22.9985 18 23Z" fill="white"/>
</g>
<defs>
<clipPath id="clip0_1011_15575">
<rect width="12" height="12" fill="white" transform="translate(12 12)"/>
</clipPath>
</defs>
</svg>
