<svg width="24" height="24" viewBox="0 0 24 24" fill="none" xmlns="http://www.w3.org/2000/svg">
<path fill-rule="evenodd" clip-rule="evenodd" d="M6.8499 8.9999C6.8499 7.68101 7.29049 6.38991 8.1352 5.43961C8.96601 4.50496 10.2306 3.8499 11.9999 3.8499C13.7693 3.8499 15.0338 4.50496 15.8646 5.43961C16.7093 6.38991 17.1499 7.68101 17.1499 8.9999C17.1499 10.2595 17.7765 11.1981 18.2541 11.9136L18.2927 11.9714C18.8109 12.7488 19.1499 13.2937 19.1499 13.9999C19.1499 14.9742 18.4562 15.7577 17.0163 16.3362C15.5989 16.9057 13.7184 17.1499 11.9999 17.1499C10.2814 17.1499 8.4009 16.9057 6.98347 16.3362C5.54363 15.7577 4.8499 14.9742 4.8499 13.9999C4.8499 13.3064 5.17412 12.8296 5.69801 12.0753C6.20164 11.3503 6.8499 10.4078 6.8499 8.9999ZM11.9999 2.1499C9.76925 2.1499 8.0338 2.99485 6.86461 4.31019C5.70932 5.60989 5.1499 7.31879 5.1499 8.9999C5.1499 9.83343 4.79817 10.3909 4.30179 11.1055L4.23206 11.2056C3.76246 11.8784 3.1499 12.756 3.1499 13.9999C3.1499 16.0257 4.6784 17.2421 6.34968 17.9136C8.04336 18.5941 10.1628 18.8499 11.9999 18.8499C13.837 18.8499 15.9564 18.5941 17.6501 17.9136C19.3214 17.2421 20.8499 16.0257 20.8499 13.9999C20.8499 12.7403 20.2233 11.8017 19.7457 11.0862L19.7071 11.0284C19.1889 10.251 18.8499 9.70612 18.8499 8.9999C18.8499 7.31879 18.2905 5.60989 17.1352 4.31019C15.966 2.99485 14.2306 2.1499 11.9999 2.1499ZM9.52841 19.2927C9.91593 19.0343 10.4384 19.1362 10.7009 19.5192L10.7073 19.5277C10.7163 19.5396 10.734 19.562 10.7602 19.5914C10.8131 19.651 10.8969 19.7351 11.0099 19.8199C11.2334 19.9876 11.5589 20.1499 11.9999 20.1499C12.4409 20.1499 12.7664 19.9876 12.9899 19.8199C13.1029 19.7351 13.1867 19.651 13.2396 19.5914C13.2658 19.562 13.2835 19.5396 13.2925 19.5277L13.2989 19.5192C13.5614 19.1362 14.0839 19.0343 14.4714 19.2927C14.862 19.5531 14.9675 20.0808 14.7071 20.4714L13.9999 19.9999C14.7071 20.4714 14.7069 20.4717 14.7067 20.472L14.7063 20.4727L14.7053 20.4741L14.7032 20.4773L14.6982 20.4846L14.6848 20.5037C14.6744 20.5183 14.6611 20.5366 14.6448 20.558C14.6122 20.6008 14.5674 20.6565 14.5102 20.7209C14.3964 20.8488 14.2302 21.0147 14.0099 21.1799C13.5668 21.5122 12.8922 21.8499 11.9999 21.8499C11.1076 21.8499 10.433 21.5122 9.9899 21.1799C9.76961 21.0147 9.60336 20.8488 9.4896 20.7209C9.43243 20.6565 9.38763 20.6008 9.35504 20.558C9.33871 20.5366 9.32537 20.5183 9.315 20.5037L9.30164 20.4846L9.2966 20.4773L9.2945 20.4741L9.29354 20.4727L9.29309 20.472C9.29287 20.4717 9.29266 20.4714 9.9999 19.9999L9.29266 20.4714C9.03226 20.0808 9.13781 19.5531 9.52841 19.2927Z" fill="#3E4B5E"/>
</svg>
