<svg width="36" height="36" viewBox="0 0 36 36" fill="none" xmlns="http://www.w3.org/2000/svg">
<rect width="36" height="36" rx="12" fill="#EEF8FF"/>
<rect x="18.1421" y="4" width="20" height="20" rx="4" transform="rotate(45 18.1421 4)" fill="#31B5F7"/>
<g clip-path="url(#clip0_1269_9338)">
<path d="M18 12C16.8133 12 15.6533 12.3519 14.6666 13.0112C13.6799 13.6705 12.9108 14.6075 12.4567 15.7039C12.0026 16.8003 11.8838 18.0067 12.1153 19.1705C12.3468 20.3344 12.9182 21.4035 13.7574 22.2426C14.5965 23.0818 15.6656 23.6532 16.8295 23.8847C17.9933 24.1162 19.1997 23.9974 20.2961 23.5433C21.3925 23.0892 22.3295 22.3201 22.9888 21.3334C23.6481 20.3467 24 19.1867 24 18C23.9983 16.4092 23.3656 14.8841 22.2407 13.7593C21.1159 12.6344 19.5908 12.0017 18 12ZM18 23C17.0111 23 16.0444 22.7068 15.2221 22.1573C14.3999 21.6079 13.759 20.827 13.3806 19.9134C13.0022 18.9998 12.9031 17.9945 13.0961 17.0245C13.289 16.0546 13.7652 15.1637 14.4645 14.4645C15.1637 13.7652 16.0546 13.289 17.0245 13.0961C17.9944 12.9031 18.9998 13.0022 19.9134 13.3806C20.827 13.759 21.6079 14.3999 22.1573 15.2221C22.7067 16.0444 23 17.0111 23 18C22.9985 19.3256 22.4713 20.5966 21.5339 21.5339C20.5966 22.4713 19.3256 22.9985 18 23Z" fill="white"/>
<path d="M18 17H17.5C17.3674 17 17.2402 17.0527 17.1464 17.1464C17.0527 17.2402 17 17.3674 17 17.5C17 17.6326 17.0527 17.7598 17.1464 17.8536C17.2402 17.9473 17.3674 18 17.5 18H18V21C18 21.1326 18.0527 21.2598 18.1464 21.3536C18.2402 21.4473 18.3674 21.5 18.5 21.5C18.6326 21.5 18.7598 21.4473 18.8535 21.3536C18.9473 21.2598 19 21.1326 19 21V18C19 17.7348 18.8946 17.4804 18.7071 17.2929C18.5196 17.1054 18.2652 17 18 17Z" fill="white"/>
<path d="M18 16C18.4142 16 18.75 15.6642 18.75 15.25C18.75 14.8358 18.4142 14.5 18 14.5C17.5858 14.5 17.25 14.8358 17.25 15.25C17.25 15.6642 17.5858 16 18 16Z" fill="white"/>
</g>
<defs>
<clipPath id="clip0_1269_9338">
<rect width="12" height="12" fill="white" transform="translate(12 12)"/>
</clipPath>
</defs>
</svg>
