<svg width="105" height="105" viewBox="0 0 105 105" fill="none" xmlns="http://www.w3.org/2000/svg">
<g id="Group">
<path id="Vector" fill-rule="evenodd" clip-rule="evenodd" d="M21.1136 0H83.9373C95.3933 0 105 9.38249 105 20.9689V83.3269C105 94.9178 95.3933 104.296 83.9373 104.296H21.1136C9.47081 104.296 0.0509033 94.9133 0.0509033 83.3269V20.9689C0.0509033 9.37796 9.47536 0 21.1136 0Z" fill="white"/>
<g id="Group_2">
<path id="Vector_2" fill-rule="evenodd" clip-rule="evenodd" d="M52.5256 40.1012L65.8309 63.0972H88.1873C88.374 62.3625 88.1873 61.6233 87.6316 60.7073L66.3821 23.5492C65.4574 22.0754 64.5328 21.5267 63.2391 21.1594C59.7271 27.4128 56.033 33.8523 52.521 40.1057L52.5256 40.1012Z" fill="#FFBA00"/>
<path id="Vector_3" fill-rule="evenodd" clip-rule="evenodd" d="M52.5255 40.1012L39.2201 63.0972H16.677C16.677 62.3625 16.8638 61.6233 17.4149 60.7073L38.6644 23.5492C39.5891 22.0754 40.5137 21.5267 41.8074 21.1594C45.3193 27.4128 48.8268 33.8523 52.5255 40.1057V40.1012Z" fill="#31A653"/>
<path id="Vector_4" fill-rule="evenodd" clip-rule="evenodd" d="M52.5254 40.1012C56.0374 33.8477 59.7316 27.4083 63.2435 21.1548C62.5056 20.9689 61.581 20.9689 60.4741 20.9689H44.3992C43.4745 20.9689 42.5498 20.9689 41.8119 21.1548C45.3239 27.4083 48.8313 33.8477 52.53 40.1012H52.5254Z" fill="#008627"/>
<path id="Vector_5" fill-rule="evenodd" clip-rule="evenodd" d="M39.2201 63.0972C35.5259 69.5366 31.8272 76.1574 28.133 82.5968C27.3951 82.0435 26.8394 81.123 26.2837 80.021L17.046 64.571C16.8592 64.0177 16.8592 63.6504 16.677 63.0972H39.2201Z" fill="#0165DF"/>
<path id="Vector_6" fill-rule="evenodd" clip-rule="evenodd" d="M65.8263 63.0972C69.5205 69.5366 73.2192 76.1574 76.9133 82.5968C77.838 81.8621 78.3937 80.7556 79.1317 79.6537L88.0004 64.571C88.1872 64.0177 88.1872 63.6504 88.1872 63.0972H65.8308H65.8263Z" fill="#EE4132"/>
<path id="Vector_7" fill-rule="evenodd" clip-rule="evenodd" d="M65.8264 63.0972H39.2201C35.5259 69.5366 31.8272 76.1574 28.1331 82.5968C28.871 83.15 29.7956 83.3314 30.9025 83.3314H74.1394C75.2463 83.3314 76.1709 82.9641 76.9088 82.5968C73.2147 76.1574 69.516 69.5366 65.8218 63.0972H65.8264Z" fill="#2286FF"/>
</g>
</g>
</svg>
