<svg width="105" height="105" viewBox="0 0 105 105" fill="none" xmlns="http://www.w3.org/2000/svg">
<g id="Group">
<path id="Vector" fill-rule="evenodd" clip-rule="evenodd" d="M21.1136 0.699692H83.9373C95.3933 0.699692 105 10.0822 105 21.6686V84.0266C105 95.6175 95.3933 104.995 83.9373 104.995H21.1136C9.47081 104.995 0.0509033 95.613 0.0509033 84.0266V21.6686C0.0509033 10.0776 9.47536 0.699692 21.1136 0.699692Z" fill="white"/>
<g id="Group_2">
<path id="Vector_2" fill-rule="evenodd" clip-rule="evenodd" d="M52.5256 40.8009L65.8309 63.7968H88.1873C88.374 63.0622 88.1873 62.323 87.6316 61.407L66.3821 24.2489C65.4574 22.7751 64.5328 22.2264 63.2391 21.8591C59.7271 28.1125 56.033 34.5519 52.521 40.8054L52.5256 40.8009Z" fill="#BABABA"/>
<path id="Vector_3" fill-rule="evenodd" clip-rule="evenodd" d="M52.5255 40.8009L39.2201 63.7968H16.677C16.677 63.0622 16.8638 62.323 17.4149 61.407L38.6644 24.2489C39.5891 22.7751 40.5137 22.2264 41.8074 21.8591C45.3193 28.1125 48.8268 34.5519 52.5255 40.8054V40.8009Z" fill="#7A7A7A"/>
<path id="Vector_4" fill-rule="evenodd" clip-rule="evenodd" d="M52.5254 40.8009C56.0374 34.5474 59.7316 28.108 63.2435 21.8545C62.5056 21.6686 61.581 21.6686 60.4741 21.6686H44.3992C43.4745 21.6686 42.5498 21.6686 41.8119 21.8545C45.3239 28.108 48.8313 34.5474 52.53 40.8009H52.5254Z" fill="#535353"/>
<path id="Vector_5" fill-rule="evenodd" clip-rule="evenodd" d="M39.2201 63.7968C35.5259 70.2362 31.8272 76.857 28.133 83.2965C27.3951 82.7432 26.8394 81.8227 26.2837 80.7207L17.046 65.2706C16.8592 64.7174 16.8592 64.3501 16.677 63.7968H39.2201Z" fill="#545454"/>
<path id="Vector_6" fill-rule="evenodd" clip-rule="evenodd" d="M65.8263 63.7968C69.5205 70.2362 73.2192 76.857 76.9133 83.2965C77.838 82.5618 78.3937 81.4553 79.1317 80.3534L88.0004 65.2706C88.1872 64.7174 88.1872 64.3501 88.1872 63.7968H65.8308H65.8263Z" fill="#737373"/>
<path id="Vector_7" fill-rule="evenodd" clip-rule="evenodd" d="M65.8264 63.7968H39.2201C35.5259 70.2362 31.8272 76.857 28.1331 83.2965C28.871 83.8497 29.7956 84.0311 30.9025 84.0311H74.1394C75.2463 84.0311 76.1709 83.6638 76.9088 83.2965C73.2147 76.857 69.516 70.2362 65.8218 63.7968H65.8264Z" fill="#757575"/>
</g>
</g>
</svg>
