<svg width="12" height="12" viewBox="0 0 12 12" fill="none" xmlns="http://www.w3.org/2000/svg">
<path d="M3.49989 12.0002C3.40102 12.0002 3.30437 11.9708 3.22216 11.9159C3.13996 11.861 3.07589 11.7829 3.03805 11.6915C3.00022 11.6002 2.99032 11.4997 3.0096 11.4027C3.02889 11.3057 3.07649 11.2166 3.14639 11.1467L7.23239 7.0607C7.5136 6.77941 7.67157 6.39795 7.67157 6.0002C7.67157 5.60246 7.5136 5.22099 7.23239 4.9397L3.14639 0.853704C3.05531 0.759402 3.00492 0.633101 3.00606 0.502003C3.0072 0.370905 3.05978 0.245498 3.15248 0.152794C3.24519 0.0600902 3.37059 0.00750577 3.50169 0.00636656C3.63279 0.00522735 3.75909 0.0556246 3.85339 0.146704L7.93939 4.2327C8.40746 4.70185 8.67033 5.3375 8.67033 6.0002C8.67033 6.66291 8.40746 7.29856 7.93939 7.7677L3.85339 11.8537C3.75965 11.9475 3.63249 12.0002 3.49989 12.0002Z" fill="#3E4B5E"/>
</svg>
