<svg width="250" height="282" viewBox="0 0 250 282" fill="none" xmlns="http://www.w3.org/2000/svg">
<path d="M141.726 216.547C201.524 216.547 250 168.071 250 108.273C250 48.4756 201.524 0 141.726 0C81.9288 0 33.4531 48.4756 33.4531 108.273C33.4531 168.071 81.9288 216.547 141.726 216.547Z" fill="#F2F2F2"/>
<path d="M212.481 48.4197H14.1396C13.7143 48.4106 13.3768 48.0584 13.3859 47.6331C13.3947 47.2206 13.7271 46.8883 14.1396 46.8795H212.481C212.907 46.8886 213.244 47.2407 213.235 47.666C213.226 48.0786 212.894 48.4109 212.481 48.4197Z" fill="#CACACA"/>
<path d="M144.887 74.373H90.0575C85.9391 74.373 82.6006 77.7115 82.6006 81.8299V81.8299C82.6006 85.9482 85.9391 89.2867 90.0575 89.2867H144.887C149.005 89.2867 152.344 85.9482 152.344 81.8299C152.344 77.7115 149.005 74.373 144.887 74.373Z" fill="white"/>
<path d="M54.6375 104.2H180.307C184.426 104.2 187.764 107.539 187.764 111.657C187.764 115.776 184.426 119.114 180.307 119.114H54.6375C50.5192 119.114 47.1807 115.776 47.1807 111.657C47.1807 107.539 50.5192 104.2 54.6375 104.2Z" fill="white"/>
<path d="M54.6375 134.028H180.307C184.426 134.028 187.764 137.367 187.764 141.485C187.764 145.603 184.426 148.942 180.307 148.942H54.6375C50.5192 148.942 47.1807 145.603 47.1807 141.485C47.1807 137.367 50.5192 134.028 54.6375 134.028Z" fill="white"/>
<path d="M39.0642 280.385L38.7684 280.356C28.7336 279.321 19.6623 273.924 13.9642 265.599C12.4035 263.28 11.141 260.773 10.2066 258.138L10.1168 257.886L10.3827 257.865C13.5572 257.609 16.8183 257.071 18.267 256.815L8.92533 253.649L8.86757 253.372C8.31373 250.77 9.39876 248.093 11.6079 246.611C13.823 245.057 16.7604 245.007 19.0267 246.485C20.0438 247.135 21.1076 247.778 22.1364 248.401C25.6715 250.539 29.3271 252.75 32.0678 255.776C36.2237 260.455 38.0454 266.761 37.0253 272.936L39.0642 280.385Z" fill="#F2F2F2"/>
<path d="M73.0208 275.739L77.6246 275.739L79.8152 257.98L73.0195 257.98L73.0208 275.739Z" fill="#A0616A"/>
<path d="M72.8586 280.542L87.017 280.542V280.363C87.0168 277.319 84.5496 274.852 81.5062 274.852L78.9196 272.89L74.0943 274.852L72.8584 274.852L72.8586 280.542Z" fill="#2F2E41"/>
<path d="M36.123 262.987L39.8056 265.75L52.2157 252.859L46.7799 248.781L36.123 262.987Z" fill="#A0616A"/>
<path d="M33.1104 266.732L44.436 275.228L44.5435 275.085C46.3697 272.65 45.8768 269.196 43.4425 267.37L42.551 264.248L37.5135 262.922L36.5249 262.18L33.1104 266.732Z" fill="#2F2E41"/>
<path d="M51.4274 192.4C51.4274 192.4 51.6816 199.333 52.0022 204.892C52.0548 205.804 49.9185 206.795 49.9738 207.787C50.0105 208.445 50.412 209.085 50.4493 209.771C50.4887 210.495 49.9343 211.136 49.9738 211.885C50.0124 212.617 50.6448 213.456 50.683 214.205C51.0936 222.266 52.5819 231.915 51.0915 234.613C50.3571 235.942 40.9951 254.36 40.9951 254.36C40.9951 254.36 46.2113 262.184 47.7016 259.576C49.67 256.131 64.8404 240.015 64.8404 236.938C64.8404 233.864 68.3501 210.827 68.3501 210.827L70.7974 224.46L71.9195 227.161L71.5669 228.747L72.292 230.887L72.3312 233.005L73.0372 236.938C73.0372 236.938 70.9135 267.579 72.1095 268.432C73.3092 269.289 79.1178 270.828 79.8033 269.289C80.4852 267.75 84.9232 237.31 84.9232 237.31C84.9232 237.31 85.6385 223.361 86.4135 210.395C86.4582 209.642 86.9873 208.733 87.0283 207.992C87.0768 207.131 86.7414 206.013 86.7861 205.179C86.8346 204.221 87.2593 203.547 87.3003 202.63C87.617 195.548 85.8392 186.923 85.2729 186.073C83.5627 183.51 82.0239 181.46 82.0239 181.46C82.0239 181.46 58.99 173.892 52.8349 181.582L51.4274 192.4Z" fill="#2F2E41"/>
<path d="M74.4003 121.106L65.2691 119.28L61.0079 125.063C53.0568 132.881 52.937 139.781 54.3564 150.841V166.364L53.3291 176.77C53.3291 176.77 49.6924 184.377 53.4433 186.148C57.1943 187.919 81.8325 187.768 84.1849 187.061C86.5372 186.354 84.4982 185.486 83.8805 182.191C82.7201 176.002 83.4963 178.988 83.5761 177.017C84.7211 148.749 82.0543 137.144 81.7835 134.094L77.1397 125.671L74.4003 121.106Z" fill="#3F3D56"/>
<path d="M122.528 143.897C121.576 145.701 119.343 146.391 117.54 145.439C117.347 145.338 117.164 145.22 116.993 145.086L97.2734 157.607L97.3303 150.79L116.486 139.673C117.851 138.143 120.197 138.009 121.727 139.374C123.007 140.515 123.338 142.386 122.528 143.897Z" fill="#A0616A"/>
<path d="M67.191 129.001L64.9459 128.763C62.8715 128.548 60.8363 129.436 59.5836 131.103C59.1039 131.736 58.7593 132.46 58.5713 133.231L58.5699 133.237C58.0068 135.559 58.89 137.991 60.8113 139.41L68.5653 145.127C74.0069 152.48 84.2336 157.358 96.2297 161.321L114.876 149.741L108.281 141.753L95.4912 148.607L76.4802 133.891L76.4692 133.882L69.2335 129.22L67.191 129.001Z" fill="#3F3D56"/>
<path d="M71.3152 116.622C77.1961 116.622 81.9634 111.855 81.9634 105.974C81.9634 100.093 77.1961 95.3255 71.3152 95.3255C65.4344 95.3255 60.667 100.093 60.667 105.974C60.667 111.855 65.4344 116.622 71.3152 116.622Z" fill="#A0616A"/>
<path d="M71.5617 116.624C71.4759 116.627 71.3898 116.629 71.3039 116.631C71.2671 116.727 71.2274 116.821 71.1816 116.914L71.5617 116.624Z" fill="#2F2E41"/>
<path d="M74.4834 106.269C74.5001 106.374 74.5256 106.477 74.5598 106.578C74.5457 106.473 74.5201 106.369 74.4834 106.269Z" fill="#2F2E41"/>
<path d="M82.099 95.7811C81.6607 97.1421 81.2695 95.4157 79.8277 95.7262C78.0933 96.0998 76.0749 95.9715 74.6545 94.9083C72.5382 93.3555 69.7956 92.9375 67.3127 93.7893C64.8823 94.6491 60.8105 95.2554 60.1773 97.7544C59.9571 98.6231 59.8697 99.5658 59.3362 100.286C58.8697 100.915 58.1334 101.274 57.5176 101.758C55.4386 103.394 57.0276 108.042 58.0116 110.497C58.9956 112.953 61.2528 114.742 63.7344 115.658C66.1355 116.545 68.7416 116.701 71.303 116.631C71.7486 115.476 71.5561 114.141 71.1885 112.943C70.7905 111.647 70.2013 110.395 70.035 109.049C69.8688 107.703 70.2338 106.174 71.3626 105.422C72.4001 104.73 74.0885 105.151 74.4832 106.269C74.2529 104.872 75.6685 103.519 77.1283 103.281C78.6955 103.026 80.2626 103.592 81.8253 103.874C83.388 104.155 82.8333 97.5762 82.099 95.7811Z" fill="#2F2E41"/>
<path d="M141.652 123.588C142.645 111.594 133.726 101.066 121.732 100.074C109.739 99.0812 99.2109 107.999 98.2182 119.993C97.2256 131.987 106.144 142.515 118.138 143.508C130.132 144.5 140.659 135.582 141.652 123.588Z" fill="#FF2458"/>
<path d="M125.66 112.711L119.936 118.435L114.212 112.711C113.285 111.784 111.783 111.784 110.856 112.711C109.929 113.638 109.929 115.14 110.856 116.067L116.58 121.791L110.856 127.515C109.93 128.442 109.932 129.945 110.859 130.87C111.785 131.795 113.285 131.795 114.212 130.87L119.936 125.146L125.66 130.87C126.587 131.796 128.09 131.795 129.015 130.867C129.94 129.941 129.94 128.441 129.015 127.515L123.291 121.791L129.015 116.067C129.942 115.14 129.942 113.638 129.015 112.711C128.089 111.784 126.586 111.784 125.66 112.711Z" fill="white"/>
<path d="M111.349 103.475C111.991 105.41 110.943 107.5 109.008 108.142C108.802 108.21 108.59 108.261 108.375 108.292L103.758 131.19L98.8779 126.429L104.118 104.91C103.959 102.866 105.486 101.081 107.53 100.921C109.24 100.788 110.819 101.844 111.349 103.475Z" fill="#A0616A"/>
<path d="M62.2888 133.093L60.5629 134.548C58.9716 135.896 58.2036 137.98 58.5396 140.038C58.6638 140.822 58.9479 141.572 59.3742 142.242L59.3777 142.247C60.6629 144.261 63.0297 145.307 65.3838 144.903L74.8772 143.266C83.9503 144.429 94.5504 140.427 105.715 134.514L110.268 113.042L99.9377 112.271L96.0296 126.245L72.2486 129.775L72.2346 129.777L63.8614 131.771L62.2888 133.093Z" fill="#3F3D56"/>
<path d="M116.346 280.91L0.505916 281.041C0.225604 281.04 -0.000905242 280.812 2.72016e-06 280.532C0.000902156 280.253 0.226878 280.027 0.505916 280.026L116.346 279.895C116.626 279.896 116.852 280.124 116.852 280.404C116.851 280.683 116.625 280.909 116.346 280.91Z" fill="#CACACA"/>
<path d="M24.2025 38.6644C26.1934 38.6644 27.8073 37.0145 27.8073 34.9793C27.8073 32.944 26.1934 31.2941 24.2025 31.2941C22.2116 31.2941 20.5977 32.944 20.5977 34.9793C20.5977 37.0145 22.2116 38.6644 24.2025 38.6644Z" fill="#3F3D56"/>
<path d="M36.6556 38.6644C38.6465 38.6644 40.2604 37.0145 40.2604 34.9793C40.2604 32.944 38.6465 31.2941 36.6556 31.2941C34.6647 31.2941 33.0508 32.944 33.0508 34.9793C33.0508 37.0145 34.6647 38.6644 36.6556 38.6644Z" fill="#3F3D56"/>
<path d="M49.1087 38.6644C51.0996 38.6644 52.7136 37.0145 52.7136 34.9793C52.7136 32.944 51.0996 31.2941 49.1087 31.2941C47.1178 31.2941 45.5039 32.944 45.5039 34.9793C45.5039 37.0145 47.1178 38.6644 49.1087 38.6644Z" fill="#3F3D56"/>
<path d="M63.3079 37.8919C63.1971 37.8919 63.0866 37.849 63.0032 37.7637L60.5708 35.2772C60.4087 35.1116 60.4087 34.8468 60.5708 34.6811L63.0032 32.1949C63.1682 32.0267 63.4384 32.024 63.6059 32.1882C63.7743 32.3528 63.7772 32.6228 63.6126 32.791L61.4719 34.9792L63.6126 37.1676C63.7772 37.3357 63.7743 37.6057 63.6059 37.7703C63.5231 37.8515 63.4155 37.8919 63.3079 37.8919Z" fill="#3F3D56"/>
<path d="M67.396 37.8919C67.2884 37.8919 67.1808 37.8515 67.098 37.7704C66.9296 37.6057 66.9267 37.336 67.0913 37.1676L69.2318 34.9792L67.0913 32.791C66.9267 32.6228 66.9296 32.3529 67.098 32.1882C67.2659 32.0234 67.5361 32.0265 67.7007 32.1949L70.1329 34.6811C70.295 34.8468 70.295 35.1116 70.1329 35.2772L67.7007 37.7637C67.6173 37.849 67.5068 37.8919 67.396 37.8919Z" fill="#3F3D56"/>
<path d="M194.642 31.7208H190.119C189.603 31.7208 189.186 32.1385 189.186 32.6543V37.1814C189.186 37.6972 189.603 38.1149 190.119 38.1149H194.642C195.158 38.1149 195.58 37.6972 195.58 37.1814V32.6543C195.58 32.1385 195.158 31.7208 194.642 31.7208Z" fill="#3F3D56"/>
<path d="M183.56 31.7208H179.037C178.521 31.7208 178.104 32.1385 178.104 32.6543V37.1814C178.104 37.6972 178.521 38.1149 179.037 38.1149H183.56C184.076 38.1149 184.498 37.6972 184.498 37.1814V32.6543C184.498 32.1385 184.076 31.7208 183.56 31.7208Z" fill="#3F3D56"/>
<path d="M205.086 31.9339H200.563C200.048 31.9339 199.63 32.3517 199.63 32.8675V37.3945C199.63 37.9103 200.048 38.328 200.563 38.328H205.086C205.602 38.328 206.024 37.9103 206.024 37.3945V32.8675C206.024 32.3517 205.602 31.9339 205.086 31.9339Z" fill="#3F3D56"/>
<path d="M136.915 33.6561H100.763C100.132 33.6561 99.625 34.1676 99.625 34.7943C99.625 35.4209 100.132 35.9324 100.763 35.9324H136.915C137.542 35.9324 138.054 35.4209 138.054 34.7943C138.054 34.1677 137.542 33.6561 136.915 33.6561Z" fill="#3F3D56"/>
</svg>
