<?xml version="1.0" encoding="UTF-8"?>
<svg id="Layer_2" data-name="Layer 2" xmlns="http://www.w3.org/2000/svg" viewBox="0 0 304.51 303.51">
  <defs>
    <style>
      .cls-1 {
        fill: #fff;
        fill-rule: evenodd;
        stroke-width: 0px;
      }
    </style>
  </defs>
  <g id="Layer_1-2" data-name="Layer 1">
    <path class="cls-1" d="m52.08,1.35C14.22,1.35-11.6,60.48,5.26,105.01c20.92,72.17,120.48,186.74,212.02,197.63,27.11,4.62,82.84-9.06,87.23-46.58-2.28-29.57-72.77-72.77-91.58-61.51-27.04,18.7-38.05,34.22-81.26-8.99-15.92-15.92-43.21-50.03-41.02-72.38,1.24-12.68,25.45-7.61,22.94-31.97C111.47,60.53,73.65,1.35,52.08,1.35h0Zm235.06,149.54c-1.65-1.65-2.7-3.89-2.81-6.4-1.41-32.79-15.01-63.67-38.28-86.94-23.27-23.27-54.15-36.87-86.94-38.28-5.32-.23-9.44-4.73-9.22-10.05.23-5.32,4.73-9.45,10.05-9.22,37.63,1.62,73.05,17.22,99.74,43.91,26.7,26.7,42.29,62.12,43.91,99.75.23,5.32-3.9,9.81-9.22,10.04-2.81.12-5.39-.97-7.23-2.82h0Zm-58.57,4.91c-1.4-1.4-2.31-3.28-2.44-5.41-1.17-18.35-8.99-35.62-22.01-48.64-13.02-13.02-30.29-20.83-48.64-22.01-4.63-.3-8.15-4.3-7.85-8.93.3-4.63,4.29-8.15,8.93-7.86,22.43,1.43,43.55,10.99,59.46,26.9,15.91,15.91,25.46,37.03,26.9,59.46.3,4.64-3.22,8.63-7.85,8.93-2.51.16-4.84-.8-6.49-2.45h0Z"/>
  </g>
</svg>