<svg width="200" height="196" viewBox="0 0 200 196" fill="none" xmlns="http://www.w3.org/2000/svg">
<g clip-path="url(#clip0_864_15307)">
<path d="M126.968 43.9054H73.077C71.849 43.9069 70.6716 44.3954 69.8032 45.2638C68.9348 46.1322 68.4463 47.3096 68.4448 48.5377V168.312L67.8272 168.5L54.6068 172.549C53.9802 172.74 53.3035 172.674 52.7251 172.367C52.1467 172.059 51.7139 171.535 51.5218 170.909L12.1972 42.4571C12.0058 41.8305 12.071 41.1536 12.3785 40.5751C12.686 39.9966 13.2106 39.5639 13.837 39.372L34.2096 33.134L93.2705 15.0559L113.643 8.81783C113.953 8.72241 114.279 8.68907 114.602 8.71971C114.925 8.75035 115.238 8.84437 115.525 8.9964C115.812 9.14842 116.065 9.35546 116.272 9.60567C116.478 9.85588 116.633 10.1443 116.728 10.4546L126.78 43.2878L126.968 43.9054Z" fill="#F2F2F2"/>
<path d="M138.728 43.2878L126.613 3.71622C126.412 3.05688 126.082 2.44372 125.644 1.91178C125.205 1.37984 124.666 0.939543 124.057 0.616046C123.448 0.292549 122.781 0.0921907 122.095 0.0264289C121.409 -0.039333 120.716 0.0307899 120.057 0.232783L91.4145 9.00005L32.3567 27.0812L3.71411 35.8515C2.38352 36.2601 1.26941 37.1799 0.616305 38.4091C-0.0367959 39.6383 -0.175524 41.0764 0.230578 42.4077L41.6366 177.647C41.9665 178.722 42.6321 179.663 43.5359 180.331C44.4396 181 45.5338 181.361 46.658 181.362C47.1783 181.363 47.6957 181.284 48.1927 181.131L67.8272 175.121L68.4448 174.93V174.284L67.8272 174.473L48.0106 180.541C46.8361 180.899 45.5675 180.776 44.4832 180.2C43.3989 179.624 42.5873 178.642 42.2265 177.468L0.823631 42.2255C0.644854 41.644 0.582546 41.0329 0.640271 40.4273C0.697997 39.8216 0.874618 39.2333 1.16003 38.696C1.44544 38.1587 1.83404 37.683 2.30357 37.2962C2.77309 36.9093 3.31431 36.6188 3.89625 36.4414L32.5389 27.671L91.5968 9.59298L120.239 0.822626C120.681 0.687921 121.14 0.619237 121.601 0.618807C122.592 0.621031 123.555 0.940333 124.351 1.52994C125.147 2.11955 125.733 2.94849 126.024 3.89534L138.083 43.2878L138.274 43.9055H138.917L138.728 43.2878Z" fill="#3F3D56"/>
<path d="M37.8858 39.473C37.2905 39.4726 36.7111 39.2814 36.2325 38.9276C35.7539 38.5737 35.4013 38.0758 35.2264 37.5069L31.2488 24.5145C31.1419 24.1655 31.1048 23.7988 31.1396 23.4355C31.1745 23.0722 31.2805 22.7192 31.4518 22.3969C31.623 22.0746 31.8561 21.7891 32.1376 21.5569C32.4192 21.3246 32.7438 21.1501 33.0928 21.0433L87.4254 4.40934C88.1303 4.19426 88.8916 4.26762 89.5424 4.6133C90.1933 4.95899 90.6803 5.54877 90.8968 6.25319L94.8744 19.2457C95.0894 19.9506 95.0159 20.7119 94.6703 21.3627C94.3246 22.0134 93.7349 22.5005 93.0306 22.7171L38.6977 39.351C38.4346 39.4318 38.161 39.4729 37.8858 39.473Z" fill="#6C63FF"/>
<path d="M58.7222 13.8827C62.1333 13.8827 64.8985 11.1175 64.8985 7.7064C64.8985 4.29532 62.1333 1.53009 58.7222 1.53009C55.3111 1.53009 52.5459 4.29532 52.5459 7.7064C52.5459 11.1175 55.3111 13.8827 58.7222 13.8827Z" fill="#6C63FF"/>
<path d="M58.7225 11.6174C60.8826 11.6174 62.6336 9.86638 62.6336 7.70638C62.6336 5.54638 60.8826 3.79535 58.7225 3.79535C56.5625 3.79535 54.8115 5.54638 54.8115 7.70638C54.8115 9.86638 56.5625 11.6174 58.7225 11.6174Z" fill="white"/>
<path d="M186.103 179.784H81.7236C81.0276 179.783 80.3604 179.507 79.8683 179.014C79.3762 178.522 79.0994 177.855 79.0986 177.159V52.089C79.0994 51.3931 79.3762 50.7259 79.8683 50.2338C80.3604 49.7417 81.0276 49.4649 81.7236 49.4641H186.103C186.799 49.4649 187.466 49.7417 187.958 50.2338C188.45 50.7259 188.727 51.3931 188.728 52.089V177.159C188.727 177.855 188.45 178.522 187.958 179.014C187.466 179.507 186.799 179.783 186.103 179.784Z" fill="#E6E6E6"/>
<path d="M138.083 43.2878H73.077C71.6853 43.2898 70.3511 43.8436 69.367 44.8277C68.3829 45.8118 67.8291 47.146 67.8271 48.5377V174.473L68.4448 174.284V48.5377C68.4463 47.3096 68.9348 46.1323 69.8032 45.2639C70.6716 44.3955 71.8489 43.907 73.077 43.9055H138.274L138.083 43.2878ZM194.75 43.2878H73.077C71.6853 43.2898 70.3511 43.8436 69.367 44.8277C68.3829 45.8118 67.8291 47.146 67.8271 48.5377V189.975C67.8291 191.367 68.3829 192.701 69.367 193.685C70.3511 194.669 71.6853 195.223 73.077 195.225H194.75C196.142 195.223 197.476 194.669 198.46 193.685C199.444 192.701 199.998 191.367 200 189.975V48.5377C199.998 47.146 199.444 45.8118 198.46 44.8277C197.476 43.8436 196.142 43.2898 194.75 43.2878ZM199.382 189.975C199.381 191.203 198.892 192.381 198.024 193.249C197.156 194.117 195.978 194.606 194.75 194.607H73.077C71.8489 194.606 70.6716 194.117 69.8032 193.249C68.9348 192.381 68.4463 191.203 68.4448 189.975V48.5377C68.4463 47.3096 68.9348 46.1323 69.8032 45.2639C70.6716 44.3955 71.8489 43.907 73.077 43.9055H194.75C195.978 43.907 197.156 44.3955 198.024 45.2639C198.892 46.1323 199.381 47.3096 199.382 48.5377V189.975Z" fill="#3F3D56"/>
<path d="M162.325 56.8757H105.502C104.766 56.8748 104.059 56.5818 103.538 56.0607C103.017 55.5397 102.724 54.8332 102.723 54.0963V40.5085C102.724 39.7716 103.017 39.0651 103.538 38.5441C104.059 38.023 104.766 37.73 105.502 37.7291H162.325C163.061 37.73 163.768 38.023 164.289 38.5441C164.81 39.0651 165.103 39.7716 165.104 40.5085V54.0963C165.103 54.8332 164.81 55.5397 164.289 56.0607C163.768 56.5818 163.061 56.8748 162.325 56.8757Z" fill="#6C63FF"/>
<path d="M133.914 38.6556C137.325 38.6556 140.09 35.8904 140.09 32.4793C140.09 29.0682 137.325 26.303 133.914 26.303C130.503 26.303 127.737 29.0682 127.737 32.4793C127.737 35.8904 130.503 38.6556 133.914 38.6556Z" fill="#6C63FF"/>
<path d="M133.913 36.2412C135.991 36.2412 137.675 34.557 137.675 32.4793C137.675 30.4016 135.991 28.7173 133.913 28.7173C131.836 28.7173 130.151 30.4016 130.151 32.4793C130.151 34.557 131.836 36.2412 133.913 36.2412Z" fill="white"/>
</g>
<defs>
<clipPath id="clip0_864_15307">
<rect width="200" height="195.225" fill="white"/>
</clipPath>
</defs>
</svg>
