<svg width="12" height="12" viewBox="0 0 12 12" fill="none" xmlns="http://www.w3.org/2000/svg">
<path d="M8.58553 12.0002C8.45293 12.0002 8.32578 11.9475 8.23203 11.8537L4.14603 7.7677C3.67735 7.29888 3.41406 6.66311 3.41406 6.0002C3.41406 5.33729 3.67735 4.70152 4.14603 4.2327L8.23203 0.146704C8.32633 0.0556246 8.45263 0.00522735 8.58373 0.00636656C8.71483 0.00750577 8.84023 0.0600902 8.93294 0.152794C9.02564 0.245498 9.07823 0.370905 9.07937 0.502003C9.0805 0.633101 9.03011 0.759402 8.93903 0.853704L4.85303 4.9397C4.57182 5.22099 4.41385 5.60246 4.41385 6.0002C4.41385 6.39795 4.57182 6.77941 4.85303 7.0607L8.93903 11.1467C9.00893 11.2166 9.05654 11.3057 9.07582 11.4027C9.0951 11.4997 9.0852 11.6002 9.04737 11.6915C9.00953 11.7829 8.94546 11.861 8.86326 11.9159C8.78105 11.9708 8.6844 12.0002 8.58553 12.0002Z" fill="#3E4B5E"/>
</svg>
