<svg width="165" height="118" viewBox="0 0 165 118" fill="none" xmlns="http://www.w3.org/2000/svg">
<g clip-path="url(#clip0_3032_8152)">
<path d="M136.5 42.6499C136.578 42.5696 136.622 42.462 136.622 42.3499C136.622 42.2378 136.578 42.1302 136.5 42.0499H136.44L136.31 41.9699L135.95 41.7299L134.67 40.8999L130.75 38.3699L130.66 38.3099C128.23 36.7399 126.43 35.5999 125.51 35.0399L124.33 34.2899L123.08 33.4699C121.694 32.4941 120.205 31.6726 118.64 31.0199C118.097 30.8036 117.534 30.6395 116.96 30.5299C113.96 29.9699 111.96 33.3999 113.08 36.1199C113.445 36.9151 113.908 37.661 114.46 38.3399C115.238 39.315 116.083 40.2339 116.99 41.0899C117.81 41.8899 118.37 42.3899 119.79 43.6399C120.61 44.3599 121.79 45.3399 123.28 46.5299L123.57 46.7699C125.07 47.9566 126.573 49.1366 128.08 50.3099L128.4 50.5599L128.5 50.6499C128.576 50.7238 128.679 50.7652 128.785 50.7652C128.891 50.7652 128.994 50.7238 129.07 50.6499L136.5 42.6499Z" fill="#FFB2C4"/>
<path d="M127.27 53.1901C127.48 51.7919 127.767 50.4065 128.13 49.0401C128.21 48.7401 128.23 48.6801 128.42 47.9401C129.63 43.2701 131.79 41.5101 136.21 41.9401C139.58 42.2801 142.5 43.0201 148.06 44.7401L149.9 45.3001C153.81 46.4601 155.63 47.1501 157.46 48.3001C158.646 49.0244 159.66 49.9979 160.431 51.1531C161.203 52.3083 161.715 53.6176 161.93 54.9901C162.392 57.863 162.603 60.7706 162.56 63.6801C162.56 64.4701 162.56 65.0901 162.56 66.4901C162.56 67.8901 162.56 68.3101 162.56 69.0101C162.56 70.0101 162.56 71.2501 162.56 74.7901V74.8801C162.56 78.3001 162.61 79.7601 162.61 80.7401V117.1C162.61 117.156 162.599 117.212 162.577 117.263C162.555 117.315 162.524 117.362 162.483 117.401C162.443 117.44 162.396 117.471 162.344 117.491C162.292 117.512 162.236 117.521 162.18 117.52H122.88C122.824 117.521 122.768 117.512 122.716 117.491C122.664 117.471 122.617 117.44 122.577 117.401C122.536 117.362 122.505 117.315 122.483 117.263C122.461 117.212 122.45 117.156 122.45 117.1V63.9701C122.424 62.6785 122.471 61.3864 122.59 60.1001C122.92 57.0301 123.87 54.9001 125.81 53.9001C126.252 53.6566 126.738 53.5037 127.24 53.4501V53.1901H127.27Z" fill="#FFB2C4"/>
<path d="M156.04 56.99C155.563 57.2715 155.12 57.607 154.72 57.99L154.39 58.31L154.04 58.65C153.96 58.7281 153.852 58.7719 153.74 58.7719C153.628 58.7719 153.52 58.7281 153.44 58.65C153.4 58.6109 153.368 58.5642 153.347 58.5127C153.325 58.4611 153.314 58.4058 153.314 58.35C153.314 58.2941 153.325 58.2388 153.347 58.1873C153.368 58.1357 153.4 58.0891 153.44 58.05L153.79 57.7L154.13 57.37C154.575 56.9349 155.068 56.5524 155.6 56.23C155.647 56.2008 155.7 56.1813 155.754 56.1726C155.809 56.1638 155.865 56.166 155.919 56.1791C155.973 56.1921 156.024 56.2157 156.069 56.2484C156.113 56.2812 156.151 56.3225 156.18 56.37C156.239 56.4668 156.258 56.5833 156.232 56.6938C156.205 56.8044 156.137 56.9001 156.04 56.96V56.99ZM142.24 44.11C140.645 44.6139 139.288 45.68 138.42 47.11C137.24 49.626 136.38 52.28 135.86 55.01C135.81 55.24 135.76 55.47 135.72 55.71C135.68 55.95 135.62 56.24 135.58 56.44C135.54 56.64 135.53 56.67 135.5 56.77C135.474 56.8794 135.406 56.9743 135.31 57.0341C135.215 57.0939 135.1 57.114 134.99 57.09C134.88 57.0615 134.785 56.9915 134.725 56.8945C134.665 56.7975 134.646 56.6812 134.67 56.57C134.67 56.47 134.72 56.37 134.74 56.26C134.76 56.15 134.81 55.93 134.88 55.55C134.95 55.17 134.98 55.03 135.03 54.83C135.567 52.0281 136.451 49.3039 137.66 46.72C138.645 45.0371 140.238 43.7954 142.11 43.25C142.165 43.2367 142.221 43.2345 142.277 43.2435C142.332 43.2524 142.385 43.2724 142.433 43.3023C142.48 43.3321 142.521 43.3712 142.553 43.4171C142.586 43.4631 142.608 43.5151 142.62 43.57C142.644 43.6813 142.622 43.7976 142.56 43.8932C142.499 43.9888 142.401 44.056 142.29 44.08L142.24 44.11ZM143.5 67.71C141.67 66.11 141.66 59.71 143.5 53.19C144.37 50.02 147.11 46.68 149.96 45.68C150.013 45.6616 150.068 45.6537 150.124 45.6568C150.179 45.6599 150.234 45.674 150.284 45.6981C150.334 45.7223 150.379 45.756 150.416 45.7975C150.453 45.839 150.482 45.8874 150.5 45.94C150.518 45.9925 150.526 46.0481 150.523 46.1037C150.52 46.1593 150.506 46.2137 150.482 46.2638C150.458 46.3139 150.424 46.3588 150.382 46.3959C150.341 46.433 150.293 46.4616 150.24 46.48C147.68 47.38 145.13 50.48 144.32 53.41C142.5 59.65 142.5 65.77 144.02 67.08C144.06 67.1182 144.091 67.164 144.113 67.2147C144.134 67.2654 144.145 67.3199 144.145 67.375C144.145 67.43 144.134 67.4845 144.113 67.5352C144.091 67.5859 144.06 67.6317 144.02 67.67C143.94 67.7481 143.832 67.7919 143.72 67.7919C143.608 67.7919 143.5 67.7481 143.42 67.67L143.5 67.71ZM141.37 85.48C142.432 85.1483 143.578 85.2086 144.6 85.65C144.702 85.6996 144.78 85.7872 144.817 85.8939C144.854 86.0006 144.848 86.1177 144.8 86.22C144.776 86.2703 144.741 86.3153 144.699 86.3522C144.657 86.3891 144.608 86.4173 144.555 86.435C144.502 86.4527 144.446 86.4596 144.39 86.4553C144.334 86.451 144.28 86.4356 144.23 86.41C143.387 86.0631 142.449 86.0242 141.58 86.3C141.526 86.3134 141.47 86.316 141.415 86.3076C141.36 86.2993 141.308 86.2801 141.26 86.2513C141.213 86.2225 141.172 86.1845 141.139 86.1397C141.106 86.0948 141.083 86.0439 141.07 85.99C141.042 85.8813 141.058 85.7661 141.114 85.6689C141.17 85.5718 141.262 85.5004 141.37 85.47V85.48Z" fill="#CF8596"/>
<path d="M131.66 65.7501C131.565 65.7085 131.488 65.634 131.444 65.5403C131.4 65.4466 131.391 65.34 131.419 65.2401C131.447 65.1403 131.51 65.054 131.596 64.997C131.683 64.94 131.787 64.9163 131.89 64.9301C132.467 65.0643 133.032 65.2449 133.58 65.4701C134.51 65.7574 135.424 66.0911 136.32 66.4701C136.728 66.5897 137.147 66.67 137.57 66.7101C138.78 66.8201 139.26 66.3301 139.94 64.7101L140.16 64.1801C140.443 63.6292 140.563 63.0086 140.505 62.3918C140.446 61.775 140.212 61.1879 139.83 60.7001C138.945 59.674 137.872 58.8256 136.67 58.2001L136.43 58.0401L136.15 57.8701C135.22 57.2901 134.28 56.7201 133.32 56.1901L132.32 55.6001L131.32 55.0301C130.156 54.3227 128.853 53.8758 127.5 53.7201C127.444 53.7201 127.389 53.7089 127.337 53.6872C127.285 53.6655 127.239 53.6337 127.199 53.5936C127.16 53.5535 127.13 53.506 127.109 53.4539C127.089 53.4018 127.079 53.3461 127.08 53.2901C127.083 53.1778 127.129 53.071 127.209 52.9925C127.29 52.914 127.398 52.8701 127.51 52.8701C128.992 53.026 130.422 53.5039 131.7 54.2701L132.7 54.8401L133.75 55.4301C134.75 55.9701 135.68 56.5401 136.62 57.1301L136.89 57.3101L137.14 57.4601C138.423 58.1408 139.563 59.0607 140.5 60.1701C140.971 60.7747 141.262 61.4997 141.339 62.2619C141.417 63.0241 141.279 63.7929 140.94 64.4801C140.94 64.5901 140.74 64.9701 140.72 65.0101C140.515 65.6878 140.174 66.317 139.72 66.8601C139.36 67.236 138.885 67.4821 138.37 67.5601C138.61 67.7301 138.86 67.9001 139.11 68.1001C141.6 70.0201 142.91 72.1001 144.58 76.0101C144.612 76.1123 144.604 76.2227 144.559 76.3196C144.514 76.4166 144.434 76.4932 144.335 76.5344C144.236 76.5757 144.126 76.5786 144.025 76.5427C143.924 76.5067 143.84 76.4345 143.79 76.3401C142.18 72.5201 140.93 70.5801 138.59 68.7701C137.821 68.1674 136.973 67.6728 136.07 67.3001C135.55 67.1401 134.94 66.9101 134.12 66.5801L133.33 66.2701L131.66 65.7501Z" fill="#CF8596"/>
<path d="M139.86 65.7499C143.22 67.0899 145.95 67.5699 148.58 67.0699C150.72 66.6499 152.09 64.8699 152.82 61.9899C153.362 59.5564 153.538 57.0554 153.34 54.5699C153.334 54.4575 153.373 54.3474 153.448 54.2633C153.523 54.1791 153.628 54.1277 153.74 54.1199C153.852 54.1144 153.963 54.1533 154.047 54.228C154.131 54.3028 154.182 54.4076 154.19 54.5199C154.392 57.093 154.206 59.6818 153.64 62.1999C152.85 65.3599 151.27 67.4099 148.74 67.8999C145.92 68.4399 143.04 67.8999 139.54 66.5399C139.488 66.5201 139.44 66.49 139.4 66.4514C139.359 66.4128 139.327 66.3666 139.304 66.3154C139.282 66.2642 139.27 66.209 139.269 66.1531C139.269 66.0972 139.279 66.0417 139.3 65.9899C139.344 65.8855 139.428 65.8028 139.533 65.7597C139.638 65.7166 139.755 65.7167 139.86 65.7599V65.7499ZM135.33 41.9099C131.64 41.9099 129.59 43.3899 128.69 47.0099C128.62 47.2599 128.53 47.6499 128.38 48.2599L128.23 48.8599L128.1 49.3799C128.088 49.4346 128.066 49.4863 128.033 49.5319C128.001 49.5775 127.96 49.616 127.912 49.645C127.864 49.6741 127.811 49.693 127.756 49.7008C127.7 49.7085 127.644 49.7048 127.59 49.6899C127.481 49.6637 127.386 49.5956 127.326 49.5003C127.266 49.4049 127.246 49.2899 127.27 49.1799L127.4 48.6599L127.55 48.0599C127.7 47.4499 127.79 47.0599 127.86 46.8099C128.86 42.8099 131.26 41.0299 135.33 41.0599C135.444 41.0599 135.553 41.1052 135.634 41.1859C135.715 41.2665 135.76 41.3759 135.76 41.4899C135.755 41.6014 135.708 41.7068 135.628 41.7848C135.548 41.8628 135.442 41.9075 135.33 41.9099Z" fill="#CF8596"/>
<path d="M121.16 105.1C121.16 98.6201 121.95 92.0301 121.97 85.5901C123.598 86.8125 125.43 87.7368 127.38 88.3201C138.48 92.2601 152.49 92.5901 163 87.3801C163 90.7401 163 94.1401 162.84 97.4701C162.79 98.9901 163.1 103.58 162.35 104.47C162.35 105.72 152.15 107.02 150.57 107.15C145.885 107.585 141.167 107.545 136.49 107.03C131.34 106.41 125.5 107.11 121.16 105.1Z" fill="white"/>
<path fill-rule="evenodd" clip-rule="evenodd" d="M157.14 106.65C160.67 106.01 162.54 105.46 162.76 104.65C163.15 104.06 163.28 102.83 163.29 100.82C163.29 100.33 163.29 99.8901 163.29 99.1501C163.29 98.1501 163.29 97.8301 163.29 97.5101C163.4 94.3001 163.45 90.9101 163.45 87.4101C163.451 87.3537 163.441 87.2976 163.42 87.2454C163.399 87.1931 163.367 87.1457 163.327 87.1063C163.286 87.0669 163.238 87.0362 163.185 87.0162C163.133 86.9962 163.076 86.9873 163.02 86.9901C162.957 86.976 162.893 86.976 162.83 86.9901C152.95 91.8901 139.22 92.0601 127.54 87.9101C125.633 87.3566 123.843 86.4585 122.26 85.2601C122.18 85.1819 122.072 85.1382 121.96 85.1382C121.848 85.1382 121.74 85.1819 121.66 85.2601C121.601 85.3377 121.569 85.4326 121.57 85.5301C121.57 88.1801 121.46 90.3101 121.16 95.1701L121.06 96.8601C120.85 100.34 120.75 102.68 120.75 105.04C120.75 105.122 120.774 105.203 120.818 105.272C120.862 105.341 120.925 105.396 121 105.43C122.588 106.121 124.276 106.557 126 106.72C127.45 106.9 128.65 106.97 131.38 107.06H131.5C133.91 107.14 135.1 107.2 136.44 107.36C141.144 107.883 145.888 107.923 150.6 107.48C151.79 107.45 154.83 107.04 157.14 106.65ZM131.5 106.28H131.31C126.13 106.11 123.84 105.84 121.55 104.84C121.55 102.59 121.66 100.31 121.86 96.9801L121.96 95.2901C122.23 90.9501 122.34 88.7701 122.36 86.4601C123.863 87.4389 125.496 88.203 127.21 88.7301C138.85 92.8601 152.49 92.7801 162.55 88.0701C162.55 91.3201 162.49 94.4701 162.39 97.4601C162.39 97.8001 162.39 98.0701 162.39 99.1401C162.39 99.8801 162.39 100.32 162.39 100.79C162.493 101.939 162.357 103.097 161.99 104.19C161.933 104.25 161.898 104.328 161.89 104.41C161.822 104.467 161.748 104.518 161.67 104.56C161.32 104.732 160.955 104.873 160.58 104.98C159.386 105.319 158.174 105.592 156.95 105.8C154.66 106.21 151.66 106.62 150.49 106.72C145.831 107.154 141.141 107.114 136.49 106.6C135.12 106.44 133.91 106.37 131.49 106.29L131.5 106.28Z" fill="#C6C9D7"/>
<path d="M164.32 88.9999C164.684 89.7922 164.851 90.661 164.806 91.5319C164.76 92.4028 164.505 93.2497 164.06 93.9999C164.031 94.0546 163.99 94.1023 163.941 94.1398C163.891 94.1772 163.834 94.2036 163.774 94.217C163.713 94.2304 163.651 94.2306 163.59 94.2175C163.529 94.2044 163.472 94.1784 163.423 94.1412C163.373 94.104 163.332 94.0565 163.303 94.002C163.273 93.9475 163.256 93.8872 163.252 93.8254C163.248 93.7635 163.257 93.7015 163.279 93.6436C163.301 93.5857 163.336 93.5333 163.38 93.4899C163.727 92.8617 163.922 92.161 163.95 91.4439C163.978 90.7267 163.837 90.0131 163.54 89.3599C163.513 89.2603 163.523 89.1543 163.567 89.0612C163.612 88.9681 163.688 88.8942 163.783 88.853C163.878 88.8117 163.984 88.8059 164.083 88.8365C164.181 88.8672 164.265 88.9323 164.32 89.0199V88.9999Z" fill="#C6C9D7"/>
<path d="M119.65 104.96C119.75 102.66 119.92 99.1601 119.92 99.1601C119.926 99.0806 119.953 99.0043 119.999 98.9391C120.045 98.8739 120.107 98.8224 120.18 98.7901C120.255 98.7609 120.337 98.7529 120.416 98.767C120.496 98.7812 120.569 98.8168 120.63 98.8701C121.819 99.7925 123.178 100.472 124.63 100.87L124.99 101C132.31 103.62 140.67 103.73 147.15 103.55C152.84 103.37 157.51 102.44 164.36 100.1C164.413 100.081 164.47 100.073 164.526 100.075C164.582 100.078 164.638 100.092 164.689 100.116C164.74 100.14 164.786 100.174 164.824 100.216C164.862 100.258 164.891 100.307 164.91 100.36C164.915 100.39 164.915 100.42 164.91 100.45C165.1 102.58 165.02 108.86 164.97 113.45C164.97 115.04 164.97 116.45 164.97 117.25C164.97 117.306 164.959 117.362 164.937 117.413C164.915 117.465 164.884 117.511 164.843 117.551C164.803 117.59 164.756 117.62 164.704 117.641C164.652 117.662 164.596 117.671 164.54 117.67H120.04C119.984 117.671 119.928 117.662 119.876 117.641C119.824 117.62 119.777 117.59 119.737 117.551C119.696 117.511 119.665 117.465 119.643 117.413C119.621 117.362 119.61 117.306 119.61 117.25V113.98C119.61 112.04 119.61 109.84 119.61 109.67C119.61 108.34 119.61 106.19 119.66 104.98L119.65 104.96Z" fill="#951730"/>
<path d="M132.86 26.65C132.836 26.76 132.856 26.875 132.916 26.9704C132.976 27.0657 133.071 27.1338 133.18 27.16C133.216 27.1651 133.254 27.1651 133.29 27.16L135.12 27.08C136.12 27.03 141.8 26.72 143.35 26.65L145.35 26.57C145.462 26.5648 145.568 26.5159 145.645 26.4336C145.721 26.3514 145.763 26.2424 145.76 26.13C145.758 26.0638 145.74 25.9989 145.71 25.94C143.82 22.5 143.08 21.28 141.06 18.19L140.78 17.76L140.23 16.9C139.576 15.8588 138.862 14.857 138.09 13.9C138.01 13.8218 137.902 13.7781 137.79 13.7781C137.678 13.7781 137.57 13.8218 137.49 13.9C137.442 13.9367 137.404 13.9849 137.38 14.04C135.41 18.0625 133.894 22.2919 132.86 26.65Z" fill="#4B5480"/>
<path d="M97.61 31.8L98.52 31.71L99.5 31.65C100.357 31.5621 101.208 31.4286 102.05 31.25C102.15 31.2306 102.239 31.1749 102.3 31.0936C102.361 31.0123 102.389 30.9112 102.38 30.81V30.51L102.32 29.72C102.26 28.92 102.19 28.12 102.11 27.32C102.04 26.56 101.94 25.81 101.82 25.06L101.67 24.12C101.61 23.69 101.55 23.21 101.48 22.68C101.35 21.62 101.23 20.56 101.11 19.5V19.28V19.21C101.106 19.1561 101.092 19.1035 101.068 19.0552C101.043 19.0069 101.01 18.9639 100.969 18.9286C100.928 18.8932 100.881 18.8664 100.829 18.8495C100.778 18.8325 100.724 18.8259 100.67 18.83H100.47H99.93L98.01 18.93L95.56 19.03C94.63 19.03 93.74 19.09 92.46 19.2L91.74 19.26C90.97 19.33 90.2 19.39 89.43 19.43C89.3213 19.4376 89.2195 19.4863 89.1452 19.5661C89.0709 19.6459 89.0298 19.751 89.03 19.86C89.0603 21.7543 89.2106 23.6448 89.48 25.52C89.63 26.71 89.66 26.98 89.72 27.52C89.78 28.06 89.86 28.71 89.97 29.52V29.79C90.04 30.35 90.12 30.93 90.2 31.5L90.27 32.05V32.26C90.2867 32.3494 90.33 32.4316 90.3942 32.4958C90.4585 32.5601 90.5407 32.6034 90.63 32.62C91.8311 32.5505 93.0267 32.4069 94.21 32.19H94.33C95.33 32.05 96.33 31.93 97.33 31.82H97.61V31.8Z" fill="#FF5177"/>
<path d="M146.09 27.8H145.88C144.94 27.85 144 27.89 143.07 27.95C140.8 28.07 138.53 28.2 136.41 28.34C134.01 28.49 131.97 28.64 130.41 28.78L129.65 28.85C125.65 29.24 121.65 29.72 116.81 30.37L110.23 31.28L109.57 31.37L108.9 31.46L104.71 32.04L100.99 32.56L99.99 32.69C96.99 33.12 93.99 33.55 90.99 34L90.38 34.09H90.16C90.0159 34.1053 89.871 34.0697 89.7504 33.9893C89.6298 33.909 89.5412 33.7889 89.5 33.65C89.4858 33.5671 89.4883 33.4823 89.5074 33.4004C89.5264 33.3185 89.5617 33.2413 89.6111 33.1733C89.6605 33.1052 89.723 33.0478 89.7949 33.0043C89.8669 32.9608 89.9468 32.9321 90.03 32.92H90.25L90.86 32.83C95.4133 32.1633 99.97 31.4967 104.53 30.83L108.73 30.25L109.39 30.16L110.05 30.07L111.38 29.88L116.64 29.16C121.5 28.47 125.5 27.99 129.5 27.59L130.26 27.52C131.87 27.38 133.92 27.23 136.33 27.08C139.49 26.8667 142.65 26.6867 145.81 26.54H146.03C146.119 26.5253 146.21 26.5297 146.298 26.5528C146.385 26.5759 146.466 26.6172 146.536 26.674C146.607 26.7307 146.664 26.8017 146.705 26.8823C146.746 26.9628 146.769 27.0511 146.773 27.1413C146.777 27.2315 146.763 27.3216 146.73 27.4056C146.697 27.4896 146.646 27.5657 146.582 27.6289C146.517 27.692 146.44 27.7408 146.355 27.772C146.27 27.8032 146.18 27.8162 146.09 27.81V27.8Z" fill="#2B376E"/>
<path d="M44.3601 34.29C44.3731 34.2177 44.405 34.1501 44.4523 34.094C44.4997 34.0378 44.561 33.9951 44.6301 33.97C45.6918 33.5916 46.7775 33.2843 47.8801 33.05H48.0601C48.6038 32.8823 49.1713 32.8046 49.7401 32.82C50.063 32.8358 50.3784 32.9229 50.6637 33.0751C50.949 33.2272 51.197 33.4406 51.3901 33.7C52.082 34.6069 52.5358 35.6727 52.7101 36.8C52.8391 37.5898 52.7093 38.4001 52.3401 39.11C51.819 39.8729 51.1361 40.5114 50.3401 40.98L49.5001 41.45L49.2501 41.6C48.8701 41.84 48.5501 42.05 47.9201 42.48L47.7801 42.57C47.1096 43.0503 46.4118 43.491 45.6901 43.89C44.6865 44.3935 43.738 45.0001 42.8601 45.7C42.7918 45.7538 42.7088 45.7856 42.6221 45.7913C42.5354 45.797 42.449 45.7763 42.3743 45.7319C42.2996 45.6875 42.2401 45.6216 42.2036 45.5427C42.1672 45.4638 42.1555 45.3757 42.1701 45.29L44.3601 34.29Z" fill="#FFCDD8"/>
<path d="M47.11 59.4301C49.92 58.9401 55.11 57.3401 56.11 56.3001C56.6186 55.7275 57.0044 55.0567 57.2434 54.3292C57.4825 53.6016 57.5698 52.8327 57.5 52.0701C57.5 51.4601 57.45 50.8401 57.4 50.2301V49.9601C57.2369 48.2049 56.902 46.4699 56.4 44.7801C55.81 42.7801 54.9 42.2701 52.4 42.4101C49.801 42.5814 47.2177 42.939 44.67 43.4801C44.6167 43.4897 44.5658 43.5098 44.5203 43.5392C44.4748 43.5686 44.4356 43.6067 44.4049 43.6513C44.3742 43.6959 44.3527 43.7462 44.3415 43.7992C44.3304 43.8522 44.3299 43.9069 44.34 43.9601L46.66 59.0701C46.6672 59.1265 46.6858 59.1808 46.7147 59.2298C46.7436 59.2788 46.7821 59.3214 46.8279 59.355C46.8737 59.3887 46.9259 59.4127 46.9812 59.4256C47.0366 59.4385 47.094 59.44 47.15 59.4301H47.11Z" fill="#FFCDD8"/>
<path d="M56.37 49.33C55.73 49.42 54.98 49.51 54.08 49.61L51.72 49.87C48.84 50.17 48.26 50.24 47.19 50.37C47.0776 50.3802 46.9738 50.4341 46.9008 50.5202C46.8279 50.6062 46.7917 50.7175 46.8 50.83C46.805 50.8853 46.8209 50.939 46.8468 50.988C46.8727 51.0371 46.908 51.0806 46.9508 51.1159C46.9936 51.1512 47.0429 51.1777 47.096 51.1939C47.1491 51.21 47.2048 51.2155 47.26 51.21C48.33 51.08 48.91 51.02 51.78 50.71L54.15 50.45C55.05 50.35 55.8 50.26 56.45 50.17C56.5061 50.1663 56.5609 50.1513 56.6111 50.1259C56.6614 50.1006 56.706 50.0655 56.7424 50.0225C56.7787 49.9796 56.8061 49.9299 56.8229 49.8762C56.8397 49.8225 56.8455 49.766 56.84 49.71C56.8274 49.5976 56.771 49.4946 56.683 49.4235C56.5951 49.3524 56.4826 49.3188 56.37 49.33Z" fill="#FFB2C4"/>
<path d="M41.24 54.23C39.9496 52.5059 38.3151 51.0689 36.44 50.01C34.1443 48.8229 31.6211 48.141 29.04 48.01C27.7244 47.8971 26.4 48.0751 25.1609 48.5314C23.9218 48.9876 22.7982 49.7109 21.87 50.65C21.4401 51.1316 21.1012 51.6873 20.87 52.29L19.63 48.29C19.613 48.2363 19.5855 48.1865 19.5489 48.1436C19.5124 48.1008 19.4676 48.0657 19.4172 48.0405C19.3668 48.0153 19.3119 48.0005 19.2557 47.997C19.1995 47.9935 19.1431 48.0013 19.09 48.02C19.0388 48.0331 18.9911 48.0569 18.95 48.09C17.6007 49.4927 16.4408 51.0661 15.5 52.77C14.5 54.37 13.57 56.02 12.62 57.77C12.38 58.21 12.13 58.71 11.87 59.26C11.24 60.6 10.57 62.26 9.86997 64.19C9.52997 65.12 9.17997 66.08 8.75997 67.25C8.58997 67.73 7.94997 69.55 7.75997 69.96C5.69997 75.7 4.49997 82.02 3.09997 92.06C2.82997 94.06 2.60997 96.96 2.43997 100.6C2.31997 103.05 2.22997 110.98 2.15997 113.6C2.15997 114.74 2.10997 115.89 2.08997 117.03V117.1C2.08994 117.212 2.13386 117.32 2.21235 117.401C2.29084 117.481 2.39766 117.527 2.50997 117.53H2.49997H36.41C36.466 117.531 36.5216 117.521 36.5738 117.501C36.6259 117.48 36.6734 117.45 36.7134 117.411C36.7535 117.371 36.7853 117.325 36.8071 117.273C36.8288 117.221 36.84 117.166 36.84 117.11C36.84 108.11 37.32 91.01 38.18 87.02C39.0119 83.3952 40.1356 79.8437 41.54 76.4C42.21 74.75 43 72.96 44.06 70.67C44.38 70.67 44.7 70.55 45.06 70.48C46.58 70.11 47.06 69.99 47.81 69.74C50.81 68.74 52.66 67.38 52.98 65.13C53.063 64.1346 52.9369 63.1328 52.6097 62.189C52.2825 61.2452 51.7614 60.3804 51.08 59.65C50.5288 59.1995 49.8812 58.8821 49.1875 58.7225C48.4937 58.563 47.7726 58.5655 47.08 58.73C46.56 58.79 46.08 58.88 45.33 59.03L44.81 59.14H44.61C43.5888 57.4355 42.4633 55.7957 41.24 54.23Z" fill="#FFCDD8"/>
<path d="M41.76 62.8601C41.1898 62.8698 40.63 63.0145 40.1265 63.2823C39.623 63.55 39.1901 63.9333 38.8632 64.4006C38.5364 64.868 38.3249 65.4061 38.2462 65.9709C38.1674 66.5357 38.2235 67.1112 38.41 67.6501C38.41 67.6501 38.69 68.6001 38.79 68.9101C38.958 69.5823 39.3034 70.197 39.79 70.6901C40.2976 71.1415 40.9161 71.4498 41.5821 71.5833C42.2481 71.7169 42.9377 71.6709 43.58 71.4501C43.634 71.4372 43.6849 71.4138 43.7298 71.3811C43.7746 71.3484 43.8126 71.3072 43.8414 71.2597C43.8702 71.2123 43.8893 71.1597 43.8977 71.1048C43.906 71.0499 43.9034 70.994 43.89 70.9401C43.8784 70.8854 43.8557 70.8337 43.8234 70.7881C43.791 70.7425 43.7497 70.704 43.702 70.675C43.6542 70.646 43.601 70.627 43.5456 70.6193C43.4903 70.6116 43.4339 70.6152 43.38 70.6301C42.873 70.8097 42.327 70.8498 41.7992 70.746C41.2714 70.6422 40.7813 70.3984 40.38 70.0401C40.0126 69.6458 39.7451 69.1691 39.6 68.6501C39.5 68.3601 39.23 67.4301 39.22 67.3901C39.0725 66.971 39.0279 66.5226 39.09 66.0826C39.1521 65.6427 39.3192 65.2241 39.5771 64.8623C39.835 64.5005 40.1761 64.206 40.5717 64.0038C40.9673 63.8015 41.4057 63.6973 41.85 63.7001C41.9515 63.6845 42.0441 63.633 42.111 63.5551C42.1779 63.4771 42.2146 63.3778 42.2146 63.2751C42.2146 63.1724 42.1779 63.0731 42.111 62.9951C42.0441 62.9172 41.9515 62.8657 41.85 62.8501L41.76 62.8601Z" fill="#FFB2C4"/>
<path d="M39.65 64.0999C35.8343 64.5599 31.9933 64.777 28.15 64.7499H27.15H26.89C24.09 64.7499 22.89 64.6399 21.6 64.1499C20.7146 63.8304 19.9316 63.2782 19.3333 62.5515C18.735 61.8247 18.3436 60.9502 18.2 60.0199C17.6251 57.3804 17.2077 54.709 16.95 52.0199C16.8 50.5799 16.66 49.1399 16.53 47.6899L16.41 46.4799C16.11 43.3399 15.84 39.8599 15.46 34.3999C15.46 34.9199 15.09 29.2099 14.98 27.7199C14.83 25.6499 14.7 23.9599 14.58 22.4399C14.27 18.5999 14.22 14.7599 14.74 13.2199C15.0465 12.2777 15.6143 11.4419 16.3774 10.8099C17.1404 10.1779 18.0673 9.77559 19.05 9.64989C23.9851 8.88696 28.9669 8.46596 33.96 8.38989H35.11C36.83 8.38989 37.64 8.38989 38.65 8.49989C41.86 8.76989 44.1 9.57989 45.39 11.3399C46.1816 12.6193 46.6548 14.0698 46.77 15.5699C46.83 16.0299 46.89 16.5199 46.94 17.0899L47.01 17.8099L47.06 18.4899V18.9699V19.1899C47.49 23.8499 47.51 23.9899 47.68 25.7299C47.8 26.9099 47.92 28.0099 48.05 29.0599C49.16 38.4499 49.83 46.3599 50.05 54.0599C50.16 57.5299 49.65 59.8899 47.84 61.4299C46.6167 62.3077 45.2237 62.9207 43.75 63.2299C43 63.4399 42.2 63.6099 41.34 63.7799L40.34 63.9699L39.65 64.0999Z" fill="#3A4679"/>
<path d="M38.71 62.3301C36.1799 62.6082 33.6352 62.7317 31.09 62.7001C27.37 62.6201 24.24 63.1101 23.23 58.7001C22.4317 54.3662 21.894 49.9883 21.62 45.5901C20.99 38.9901 20.5 29.8601 19.95 23.2501C19.8 21.4701 19.38 15.3401 20.07 13.7301C20.76 12.1201 22.5 11.6501 23.69 11.4001C26.9427 10.7504 30.2532 10.4354 33.57 10.4601C36.63 10.5301 41.63 10.2101 43.67 13.0101C44.87 14.6501 44.97 18.6701 45.17 20.6101C45.46 23.6101 45.73 26.7401 46.09 29.8101C46.99 37.3501 47.7 45.9401 47.94 53.5801C48.01 55.7001 47.88 58.4301 46.06 59.9801C44.24 61.5301 40.17 62.1501 38.71 62.3301Z" fill="white"/>
<path d="M18.43 10.94C17.43 11.64 17.05 13.41 17.1 16.21C17.1 16.92 17.1 17.62 17.2 18.59L17.26 19.45C17.26 19.75 17.26 19.98 17.26 20.18C17.35 21.99 17.47 24.09 17.67 27L17.76 28.32L17.95 31.08C18.02 32.08 18.07 32.92 18.12 33.66C18.56 40.6 19.22 48.01 20.12 56.23C20.2779 58.264 20.7924 60.2543 21.64 62.11C21.6951 62.2087 21.786 62.2826 21.894 62.3161C22.002 62.3496 22.1187 62.3402 22.22 62.29C22.2695 62.2646 22.3135 62.2297 22.3494 62.1872C22.3853 62.1448 22.4124 62.0956 22.4291 62.0426C22.4459 61.9896 22.4519 61.9337 22.4469 61.8784C22.4419 61.823 22.426 61.7691 22.4 61.72C21.6045 59.9566 21.1207 58.0686 20.97 56.14C20.08 47.94 19.42 40.54 18.97 33.6C18.92 32.86 18.87 32.05 18.8 31.02L18.61 28.26L18.52 26.94C18.36 24.68 18.2267 22.4133 18.12 20.14C18.12 19.93 18.12 19.7 18.07 19.4L18.02 18.54C17.96 17.76 17.93 16.98 17.91 16.19C17.91 13.71 18.17 12.11 18.91 11.65C19.0017 11.5854 19.0644 11.4875 19.085 11.3773C19.1055 11.2671 19.0822 11.1532 19.02 11.06C18.957 10.9667 18.8598 10.9019 18.7495 10.8795C18.6392 10.857 18.5245 10.8788 18.43 10.94Z" fill="#1C2963"/>
<path d="M12.9801 71.23C12.924 71.23 12.8686 71.2188 12.817 71.1971C12.7654 71.1754 12.7186 71.1435 12.6795 71.1035C12.6403 71.0634 12.6096 71.0159 12.5891 70.9638C12.5686 70.9117 12.5587 70.856 12.5601 70.8C12.5612 70.726 12.5819 70.6535 12.6201 70.59C13.2401 69.51 13.9001 68.45 14.6201 67.4L15.7201 65.73L16.9501 63.87C17.4001 63.17 17.7801 62.59 18.1201 62.05C20.3446 58.2554 23.2065 54.8725 26.5801 52.05C26.95 51.7321 27.3851 51.4991 27.8548 51.3673C28.3244 51.2356 28.8173 51.2083 29.2986 51.2874C29.7799 51.3665 30.2381 51.5501 30.6409 51.8252C31.0437 52.1004 31.3813 52.4604 31.6301 52.88C31.9527 53.3616 32.1462 53.9181 32.1917 54.496C32.2372 55.0739 32.1333 55.6538 31.8901 56.18C31.6733 56.7752 31.4126 57.3535 31.1101 57.91C30.6201 58.91 30.6201 58.91 30.4801 59.19C29.8981 60.7941 29.5872 62.4839 29.5601 64.19C29.5432 65.1135 29.6304 66.036 29.8201 66.94C29.9801 67.74 30.2001 68.58 30.4901 69.61L30.7001 70.32L30.9101 71C30.9385 71.1087 30.9243 71.2241 30.8704 71.3227C30.8165 71.4212 30.7269 71.4954 30.6201 71.53L30.5001 71.65L12.9801 71.23Z" fill="#FFCDD8"/>
<path d="M16.6001 25.6501C16.5201 24.4801 16.4601 23.3001 16.4201 22.1301C16.4149 22.0151 16.3648 21.9068 16.2807 21.8283C16.1966 21.7498 16.0851 21.7074 15.9701 21.7101C15.9136 21.7127 15.8581 21.7263 15.8069 21.7503C15.7558 21.7744 15.7098 21.8082 15.6717 21.85C15.6336 21.8918 15.6042 21.9407 15.585 21.9939C15.5658 22.0471 15.5574 22.1036 15.5601 22.1601C15.5601 23.3201 15.6601 24.5101 15.7501 25.7101C15.7713 25.8119 15.8288 25.9025 15.9117 25.9652C15.9947 26.0279 16.0975 26.0584 16.2012 26.0511C16.305 26.0437 16.4025 25.9991 16.4758 25.9254C16.5492 25.8516 16.5933 25.7538 16.6001 25.6501ZM17.0301 31.5001C16.9201 30.2901 16.8401 29.0801 16.7801 27.8601C16.7644 27.7586 16.713 27.666 16.635 27.5991C16.5571 27.5322 16.4578 27.4955 16.3551 27.4955C16.2523 27.4955 16.153 27.5322 16.0751 27.5991C15.9971 27.666 15.9457 27.7586 15.9301 27.8601C15.9901 29.1701 16.0701 30.3901 16.1801 31.5401C16.2024 31.6428 16.2616 31.7337 16.3464 31.7957C16.4313 31.8577 16.5359 31.8865 16.6405 31.8767C16.7451 31.8669 16.8425 31.819 16.9143 31.7423C16.9861 31.6655 17.0272 31.5651 17.0301 31.4601V31.5001Z" fill="#1C2963"/>
<path d="M29.42 65.1601C29.5791 66.6316 29.9777 68.0672 30.6 69.4101L30.73 69.7201L30.79 69.8701L30.86 70.0201C30.96 70.2501 31.03 70.4301 31.1 70.6001C31.1496 70.7017 31.2373 70.7796 31.3439 70.8171C31.4506 70.8545 31.5678 70.8484 31.67 70.8001C31.7618 70.753 31.8342 70.6751 31.8744 70.58C31.9146 70.485 31.9201 70.3788 31.89 70.2801L31.64 69.6501L31.58 69.5001L31.5 69.3901L31.37 69.0801C30.7798 67.8172 30.4014 66.4658 30.25 65.0801C30.2276 64.9774 30.1684 64.8865 30.0836 64.8245C29.9988 64.7625 29.8942 64.7336 29.7895 64.7435C29.6849 64.7533 29.5875 64.8012 29.5157 64.8779C29.444 64.9547 29.4028 65.0551 29.4 65.1601H29.42ZM12.99 69.9701C13.61 68.9101 14.25 67.8601 14.92 66.8401C15.24 66.3401 15.57 65.8401 16.02 65.1601L17.25 63.2901C17.71 62.5901 18.09 62.0101 18.44 61.4601C18.4977 61.3638 18.5164 61.249 18.4922 61.1393C18.4681 61.0296 18.4029 60.9333 18.31 60.8701C18.2152 60.8129 18.1019 60.7945 17.9939 60.8188C17.8859 60.843 17.7913 60.9079 17.73 61.0001C17.34 61.6201 16.95 62.2201 16.55 62.8301C16.15 63.4401 15.73 64.0801 15.31 64.7001L14.21 66.3801C13.53 67.3801 12.88 68.4701 12.26 69.5501C12.2317 69.5985 12.2133 69.6521 12.2061 69.7077C12.1988 69.7633 12.2027 69.8198 12.2176 69.8739C12.2326 69.9279 12.2581 69.9784 12.2929 70.0225C12.3276 70.0665 12.3709 70.1031 12.42 70.1301C12.5179 70.1791 12.6305 70.1899 12.7359 70.1603C12.8413 70.1307 12.9319 70.0629 12.99 69.9701ZM30.72 82.3701C31.1574 82.4706 31.5856 82.6078 32 82.7801C32.0512 82.8013 32.1061 82.8122 32.1615 82.8121C32.2169 82.812 32.2717 82.801 32.3229 82.7796C32.374 82.7582 32.4204 82.7269 32.4594 82.6876C32.4983 82.6482 32.5291 82.6015 32.55 82.5501C32.5932 82.4453 32.5933 82.3277 32.5502 82.2228C32.5072 82.1179 32.4244 82.0343 32.32 81.9901C31.862 81.8075 31.3906 81.6604 30.91 81.5501C30.8 81.5261 30.685 81.5461 30.5896 81.606C30.4943 81.6658 30.4262 81.7606 30.4 81.8701C30.3762 81.9788 30.3965 82.0926 30.4565 82.1863C30.5165 82.2801 30.6113 82.3462 30.72 82.3701Z" fill="#FFB2C4"/>
<path d="M38.75 90.59C38.56 94.2 38.22 100.19 38.22 105.03H1.57C1.3671 102.618 1.42074 100.191 1.73 97.79C1.98919 94.768 2.41988 91.7632 3.02 88.79C4.09395 89.3934 5.2102 89.9181 6.36 90.36C10.1634 91.8876 14.1624 92.8739 18.24 93.29C23.87 93.99 30.09 94.29 35.55 92.6C36.5 92.31 38.37 91.41 38.75 90.59Z" fill="white"/>
<path fill-rule="evenodd" clip-rule="evenodd" d="M39.18 90.6501C39.1847 90.5505 39.1545 90.4524 39.0947 90.3725C39.035 90.2927 38.9493 90.2361 38.8524 90.2125C38.7555 90.1889 38.6534 90.1996 38.5636 90.243C38.4738 90.2863 38.4018 90.3596 38.36 90.4501C37.574 91.3189 36.5527 91.9407 35.42 92.2401C30.73 93.7101 25.33 93.8001 18.3 92.9201C14.2473 92.5041 10.2742 91.5142 6.50005 89.9801L5.50005 89.5801C4.69176 89.2685 3.91215 88.887 3.17005 88.4401C3.07251 88.3833 2.95689 88.3662 2.84708 88.3923C2.73727 88.4183 2.64167 88.4856 2.58005 88.5801C2.55744 88.6245 2.54064 88.6715 2.53005 88.7201C1.92326 91.6925 1.4892 94.6975 1.23005 97.7201L1.11005 99.0201C1.06005 100.55 1.00005 101.65 1.00005 102.65C0.995438 103.456 1.04555 104.261 1.15005 105.06C1.16436 105.162 1.21457 105.255 1.2916 105.323C1.36863 105.391 1.4674 105.429 1.57005 105.43H38.22C38.2765 105.43 38.3324 105.419 38.3846 105.397C38.4368 105.376 38.4842 105.344 38.5241 105.304C38.564 105.264 38.5957 105.217 38.6173 105.165C38.6389 105.113 38.65 105.057 38.65 105C38.65 103.52 38.68 101.853 38.74 100C38.8 98.2301 38.88 96.3701 38.98 94.2801C39.04 93.2301 39.05 92.9301 39.18 90.6501ZM18.18 93.7601C25.33 94.6501 30.83 94.5601 35.67 93.0501C36.5938 92.7616 37.465 92.326 38.25 91.7601C38.18 93.0701 38.16 93.4401 38.12 94.3201C38.02 96.2335 37.94 98.1435 37.88 100.05C37.8334 101.583 37.8034 103.113 37.79 104.64H1.95005C1.88157 103.999 1.84819 103.355 1.85005 102.71C1.85005 101.71 1.91005 100.64 2.04005 99.1601C2.04005 99.1601 2.14005 98.1601 2.16005 97.8601C2.39991 95.0578 2.79048 92.2704 3.33005 89.5101C3.85005 89.7901 4.42005 90.0501 5.25005 90.4001L5.63005 90.5601H5.72005L6.19005 90.7601C10.027 92.3183 14.0686 93.3152 18.19 93.7201L18.18 93.7601Z" fill="#C6C9D7"/>
<path d="M41.08 100.05C41.08 99.994 41.0688 99.9385 41.0471 99.8869C41.0253 99.8353 40.9935 99.7886 40.9534 99.7494C40.9134 99.7103 40.8659 99.6796 40.8138 99.6591C40.7617 99.6385 40.706 99.6287 40.65 99.63L40.5 99.65C39.22 100.04 37.57 100.53 36.33 100.78C30.56 102.014 24.6511 102.471 18.76 102.14C15.04 101.98 9.90997 101.48 6.46997 101.04C4.59727 100.837 2.75675 100.403 0.989971 99.75C0.929128 99.7207 0.862482 99.7056 0.794971 99.7056C0.72746 99.7056 0.660814 99.7207 0.599971 99.75C0.542685 99.785 0.494628 99.8332 0.459829 99.8907C0.42503 99.9481 0.404504 100.013 0.399971 100.08C0.159971 103.27 -0.0300293 106.17 -0.0300293 109.45V117.65H40.97C40.77 114.13 40.9 108.65 40.97 105.02C41.05 103.02 41.1 101.3 41.08 100.05Z" fill="#1C2964"/>
<path d="M39.2 95.0601C39.47 95.3701 39.33 96.4501 38.97 97.3001C38.9487 97.3513 38.9378 97.4062 38.9379 97.4616C38.938 97.517 38.9491 97.5718 38.9705 97.623C38.9918 97.6741 39.0231 97.7205 39.0625 97.7595C39.1019 97.7984 39.1486 97.8292 39.2 97.8501C39.3048 97.8933 39.4224 97.8934 39.5273 97.8503C39.6322 97.8073 39.7158 97.7245 39.76 97.6201C40.24 96.4901 40.41 95.1501 39.86 94.5001C39.7853 94.4183 39.6821 94.3685 39.5716 94.361C39.4612 94.3534 39.3521 94.3888 39.2671 94.4596C39.182 94.5305 39.1276 94.6314 39.1151 94.7414C39.1026 94.8514 39.133 94.9619 39.2 95.0501V95.0601ZM38.03 90.0601C38.11 90.1107 38.1783 90.178 38.2301 90.2574C38.2818 90.3368 38.3159 90.4264 38.33 90.5201C38.323 90.5761 38.3274 90.6329 38.3429 90.6871C38.3584 90.7413 38.3847 90.7919 38.4202 90.8358C38.4556 90.8796 38.4996 90.9159 38.5494 90.9424C38.5991 90.9689 38.6538 90.9851 38.71 90.9901C38.7654 90.9985 38.8219 90.9955 38.8761 90.9811C38.9303 90.9668 38.981 90.9416 39.0251 90.9069C39.0691 90.8722 39.1056 90.8289 39.1322 90.7795C39.1589 90.7302 39.1751 90.6759 39.18 90.6201C39.1878 90.3285 39.107 90.0413 38.948 89.7966C38.7891 89.552 38.5596 89.3614 38.29 89.2501C38.2345 89.2228 38.1738 89.2077 38.1121 89.206C38.0503 89.2042 37.9889 89.2158 37.932 89.24C37.8751 89.2641 37.8241 89.3002 37.7824 89.3458C37.7407 89.3915 37.7094 89.4456 37.6905 89.5044C37.6716 89.5632 37.6656 89.6255 37.673 89.6868C37.6803 89.7482 37.7008 89.8072 37.733 89.86C37.7652 89.9127 37.8084 89.9579 37.8596 89.9924C37.9109 90.0269 37.969 90.05 38.03 90.0601Z" fill="#C6C9D7"/>
<path d="M23.95 22.32C22.7271 24.1358 22.1399 26.3053 22.28 28.49C22.4472 30.4015 22.9552 32.2675 23.78 34C24.8928 36.17 26.7921 37.8332 29.09 38.65C31.5647 39.5551 34.2606 39.6635 36.8 38.96C39.0582 38.3278 41.016 36.9091 42.32 34.96C43.398 33.242 43.9539 31.2479 43.92 29.22C43.9901 26.3659 43.0794 23.5739 41.34 21.31C40.1138 20.0296 38.5907 19.0713 36.9058 18.5201C35.2208 17.9689 33.4258 17.8418 31.68 18.15C30.1661 18.2425 28.6905 18.6634 27.3556 19.3835C26.0207 20.1036 24.8586 21.1056 23.95 22.32Z" fill="#727686"/>
<path fill-rule="evenodd" clip-rule="evenodd" d="M32.16 22.8701C31.6554 22.995 31.1822 23.2231 30.7702 23.5402C30.3583 23.8572 30.0165 24.2561 29.7666 24.7119C29.5166 25.1677 29.3639 25.6703 29.318 26.1881C29.2721 26.7058 29.334 27.2275 29.5 27.7201C29.658 28.2611 29.9285 28.7626 30.2939 29.1917C30.6592 29.6208 31.1111 29.9678 31.62 30.2101C31.5103 30.2778 31.4065 30.3548 31.31 30.4401C29.3251 32.2608 27.806 34.5309 26.88 37.0601C26.8378 37.1528 26.8308 37.2577 26.8603 37.3552C26.8897 37.4527 26.9536 37.5362 27.04 37.5901C27.6709 37.9905 28.3411 38.3256 29.04 38.5901C31.5181 39.4953 34.2172 39.6037 36.76 38.9001C38.6025 38.3542 40.2618 37.3171 41.56 35.9001C41.616 35.8231 41.6463 35.7304 41.6463 35.6351C41.6463 35.5399 41.616 35.4471 41.56 35.3701C40.9669 34.4618 40.2978 33.6054 39.56 32.8101C38.3477 31.4852 36.8255 30.4818 35.13 29.8901C35.7285 29.5566 36.2201 29.06 36.5476 28.4581C36.875 27.8563 37.025 27.1738 36.98 26.4901C36.9798 25.9054 36.8437 25.3287 36.5823 24.8057C36.3209 24.2827 35.9415 23.8276 35.474 23.4764C35.0064 23.1253 34.4636 22.8877 33.8885 22.7825C33.3133 22.6773 32.7215 22.7073 32.16 22.8701ZM33.99 42.1901C31.77 42.3401 26.99 42.8101 25.84 43.0201C25.7375 43.0396 25.646 43.0964 25.5832 43.1796C25.5203 43.2627 25.4907 43.3663 25.5 43.4701C25.5 43.7801 25.58 44.2701 25.65 44.8901V45.0101C25.65 45.5101 25.76 46.0101 25.82 46.5101V46.6501C25.835 46.7607 25.8924 46.8612 25.9801 46.9302C26.0678 46.9993 26.1789 47.0315 26.29 47.0201H26.37L27.5 46.9101C28.91 46.7801 30.32 46.6501 31.73 46.5401L33.82 46.3901C34.72 46.3301 35.88 46.2301 37.23 46.1001C39.04 45.9201 40.84 45.7201 42.65 45.5101H42.74C42.8376 45.4947 42.9272 45.4468 42.9943 45.3743C43.0614 45.3017 43.1022 45.2087 43.11 45.1101C43.1148 44.3515 43.0714 43.5933 42.98 42.8401C42.98 42.4801 42.92 42.1201 42.9 41.7601C42.8974 41.704 42.8837 41.6491 42.8596 41.5984C42.8354 41.5477 42.8014 41.5024 42.7594 41.4651C42.7175 41.4278 42.6685 41.3993 42.6153 41.3813C42.5622 41.3632 42.5059 41.3561 42.45 41.3601C38.95 41.8101 36.75 42.0101 33.99 42.1901ZM26.5 44.8001C26.5 44.4001 26.42 44.0601 26.39 43.8001C27.92 43.5701 32.07 43.1801 34.05 43.0501C36.7 42.8801 38.85 42.6901 42.05 42.2601C42.05 42.4601 42.05 42.6601 42.05 42.9101C42.14 43.9101 42.17 44.4101 42.18 44.7101L38.32 45.1401L37.07 45.2601C35.73 45.4001 34.58 45.4901 33.68 45.5501L31.68 45.6501L30.27 45.7701C29.06 45.8701 27.86 45.9801 26.65 46.1001V46.0501C26.65 45.6701 26.57 45.2801 26.52 44.9201L26.5 44.8001Z" fill="#F0F1F5"/>
<path d="M29.84 49.54L31.33 49.42C31.4315 49.4044 31.5241 49.353 31.591 49.275C31.6579 49.1971 31.6946 49.0978 31.6946 48.995C31.6946 48.8923 31.6579 48.793 31.591 48.7151C31.5241 48.6371 31.4315 48.5857 31.33 48.57L29.77 48.65C29.6685 48.6657 29.5759 48.7171 29.509 48.7951C29.4422 48.873 29.4054 48.9723 29.4054 49.075C29.4054 49.1778 29.4422 49.2771 29.509 49.355C29.5759 49.433 29.6685 49.4844 29.77 49.5L29.84 49.54ZM33.94 49.21L35.43 49.1C35.5432 49.0949 35.65 49.0463 35.7283 48.9643C35.8065 48.8823 35.8501 48.7734 35.85 48.66C35.8448 48.5477 35.7959 48.442 35.7136 48.3653C35.6314 48.2887 35.5224 48.2473 35.41 48.25L33.91 48.37C33.7977 48.3778 33.6929 48.4292 33.6181 48.5134C33.5433 48.5975 33.5045 48.7076 33.51 48.82C33.5201 48.9314 33.5723 49.0348 33.6559 49.1091C33.7395 49.1834 33.8482 49.223 33.96 49.22L33.94 49.21ZM38.12 48.88L39.62 48.77C39.7323 48.7648 39.8381 48.7159 39.9147 48.6336C39.9914 48.5514 40.0327 48.4424 40.03 48.33C40.0287 48.2749 40.0166 48.2205 39.9942 48.1701C39.9719 48.1196 39.9399 48.074 39.9 48.036C39.86 47.9979 39.813 47.968 39.7615 47.9482C39.7101 47.9283 39.6552 47.9187 39.6 47.92H39.55L38.06 48.04C37.9486 48.048 37.845 48.0999 37.7718 48.1843C37.6987 48.2687 37.6621 48.3787 37.67 48.49C37.678 48.6014 37.7298 48.7051 37.8142 48.7782C37.8986 48.8514 38.0086 48.888 38.12 48.88Z" fill="#F0F1F5"/>
<path d="M46.1 5.41999L48.3 0.749992C48.3585 0.623843 48.3651 0.479765 48.3183 0.34882C48.2715 0.217876 48.1752 0.110553 48.05 0.0499919C47.9224 -0.00893462 47.7769 -0.0157848 47.6443 0.0308972C47.5117 0.0775791 47.4026 0.174114 47.34 0.299992L45.14 4.96999C45.0822 5.09737 45.0771 5.24243 45.1258 5.37356C45.1745 5.50468 45.2731 5.61124 45.4 5.66999C45.5262 5.72847 45.6703 5.73504 45.8012 5.68827C45.9321 5.64151 46.0395 5.54516 46.1 5.41999ZM54.77 3.17999L50.07 6.52999C50.0139 6.56978 49.9662 6.62031 49.9297 6.67866C49.8932 6.73701 49.8687 6.80203 49.8576 6.86993C49.8464 6.93783 49.8488 7.00727 49.8647 7.07423C49.8806 7.14119 49.9096 7.20433 49.95 7.25999C49.9907 7.31647 50.0422 7.36438 50.1014 7.40098C50.1606 7.43757 50.2264 7.46215 50.2952 7.47329C50.3639 7.48443 50.4341 7.48193 50.5019 7.46592C50.5696 7.44991 50.6336 7.42071 50.69 7.37999L55.39 4.03999C55.4997 3.9565 55.5725 3.83357 55.593 3.69729C55.6136 3.56101 55.5802 3.42209 55.5 3.30999C55.4601 3.25273 55.4092 3.20393 55.3504 3.16638C55.2915 3.12884 55.2258 3.10329 55.157 3.09121C55.0883 3.07913 55.0178 3.08076 54.9497 3.09599C54.8815 3.11123 54.8171 3.13977 54.76 3.17999H54.77ZM52.12 12.92L56.4 12.84C56.5415 12.8374 56.6763 12.7793 56.7754 12.6783C56.8745 12.5773 56.93 12.4415 56.93 12.3C56.9248 12.1585 56.8642 12.0248 56.7614 11.9275C56.6585 11.8302 56.5216 11.7773 56.38 11.78L52.1 11.86C52.0304 11.8559 51.9607 11.8657 51.8948 11.8886C51.8289 11.9116 51.7683 11.9473 51.7162 11.9937C51.6642 12.0402 51.6219 12.0965 51.5916 12.1593C51.5614 12.2222 51.5439 12.2904 51.54 12.36C51.536 12.4296 51.5457 12.4994 51.5687 12.5652C51.5916 12.6311 51.6273 12.6918 51.6738 12.7438C51.7202 12.7958 51.7765 12.8381 51.8393 12.8684C51.9022 12.8986 51.9704 12.9162 52.04 12.92H52.12Z" fill="#C6C9D7"/>
</g>
<defs>
<clipPath id="clip0_3032_8152">
<rect width="165" height="117.65" fill="white"/>
</clipPath>
</defs>
</svg>
