<svg width="61" height="60" viewBox="0 0 61 60" fill="none" xmlns="http://www.w3.org/2000/svg">
<ellipse cx="30.3877" cy="30" rx="30.3877" ry="30" fill="#FFC700" fill-opacity="0.15"/>
<path d="M47.6076 33.8755V47.0005H29.8814V33.8755H34.313V29.5005H43.176V33.8755H47.6076ZM36.5287 33.8755H40.9603V31.688H36.5287V33.8755ZM45.3918 40.438H43.176V42.6255H40.9603V40.438H36.5287V42.6255H34.313V40.438H32.0972V44.813H45.3918V40.438ZM45.3918 36.063H32.0972V38.2505H45.3918V36.063ZM39.2465 27.313C38.6233 26.618 37.8847 26.0826 37.0307 25.7066C36.1767 25.3306 35.2708 25.1369 34.313 25.1255C33.3897 25.1255 32.53 25.2964 31.7337 25.6382C30.9374 25.98 30.2334 26.4471 29.6218 27.0396C29.0101 27.632 28.5312 28.3327 28.185 29.1416C27.8388 29.9506 27.6657 30.7994 27.6657 31.688C27.6657 32.7362 27.4291 33.7217 26.9559 34.6446C26.4828 35.5674 25.8134 36.3422 24.9479 36.9688C25.4672 37.2308 25.9519 37.5328 26.402 37.8746C26.8521 38.2164 27.2733 38.6037 27.6657 39.0367V44.813C27.6657 43.913 27.4925 43.0642 27.1463 42.2666C26.8001 41.4691 26.327 40.7741 25.7269 40.1817C25.1268 39.5892 24.417 39.1164 23.5976 38.7632C22.7783 38.41 21.9185 38.2391 21.0183 38.2505C20.0951 38.2505 19.2353 38.4214 18.4391 38.7632C17.6428 39.105 16.9388 39.5721 16.3272 40.1646C15.7155 40.757 15.2366 41.4577 14.8904 42.2666C14.5441 43.0756 14.371 43.9244 14.371 44.813H12.1553C12.1553 43.9813 12.2707 43.1781 12.5015 42.4034C12.7323 41.6286 13.0612 40.8938 13.4882 40.1988C13.9152 39.5038 14.4345 38.8886 15.0462 38.3531C15.6578 37.8176 16.3387 37.3562 17.0888 36.9688C16.2348 36.3536 15.5712 35.5845 15.0981 34.6617C14.6249 33.7388 14.3826 32.7476 14.371 31.688C14.371 30.788 14.5441 29.9392 14.8904 29.1416C15.2366 28.3441 15.7097 27.6491 16.3098 27.0567C16.9099 26.4642 17.6139 25.9914 18.4217 25.6382C19.2296 25.285 20.0951 25.1141 21.0183 25.1255C22.0801 25.1255 23.0783 25.3591 24.0131 25.8262C24.9479 26.2933 25.7326 26.9541 26.3674 27.8086C26.8059 26.9541 27.3656 26.1908 28.0465 25.5186C28.7274 24.8464 29.5064 24.2881 30.3834 23.8438C29.5294 23.2286 28.8659 22.4595 28.3927 21.5367C27.9195 20.6138 27.6772 19.6226 27.6657 18.563C27.6657 17.663 27.8388 16.8142 28.185 16.0166C28.5312 15.2191 29.0043 14.5241 29.6045 13.9317C30.2046 13.3392 30.9085 12.8664 31.7164 12.5132C32.5242 12.16 33.3897 11.9891 34.313 12.0005C35.2247 12.0005 36.0844 12.1714 36.8923 12.5132C37.7001 12.855 38.4041 13.3221 39.0042 13.9146C39.6043 14.507 40.0832 15.2077 40.4409 16.0166C40.7987 16.8256 40.9718 17.6744 40.9603 18.563C40.9603 19.6112 40.7237 20.5967 40.2505 21.5196C39.7774 22.4424 39.108 23.2172 38.2425 23.8438C39.0272 24.2312 39.737 24.7154 40.3717 25.2964C41.0064 25.8775 41.5431 26.5497 41.9816 27.313H39.2465ZM21.0183 36.063C21.63 36.063 22.2012 35.9491 22.7321 35.7212C23.263 35.4934 23.7361 35.1801 24.1516 34.7813C24.567 34.3825 24.8844 33.9211 25.1037 33.397C25.3229 32.8729 25.4383 32.3033 25.4499 31.688C25.4499 31.0842 25.3345 30.5202 25.1037 29.9961C24.8729 29.4721 24.5555 29.0049 24.1516 28.5948C23.7477 28.1846 23.2803 27.8713 22.7494 27.6548C22.2186 27.4384 21.6415 27.3244 21.0183 27.313C20.4067 27.313 19.8355 27.427 19.3046 27.6548C18.7737 27.8827 18.3006 28.196 17.8851 28.5948C17.4697 28.9935 17.1523 29.455 16.933 29.979C16.7138 30.5031 16.5984 31.0728 16.5868 31.688C16.5868 32.2919 16.7022 32.8558 16.933 33.3799C17.1638 33.904 17.4812 34.3711 17.8851 34.7813C18.289 35.1915 18.7564 35.5048 19.2873 35.7212C19.8181 35.9377 20.3952 36.0516 21.0183 36.063ZM29.8814 18.563C29.8814 19.1669 29.9968 19.7308 30.2276 20.2549C30.4584 20.779 30.7758 21.2461 31.1797 21.6563C31.5836 22.0665 32.051 22.3798 32.5819 22.5962C33.1128 22.8127 33.6898 22.9266 34.313 22.938C34.9246 22.938 35.4959 22.8241 36.0267 22.5962C36.5576 22.3684 37.0307 22.0551 37.4462 21.6563C37.8617 21.2575 38.179 20.7961 38.3983 20.272C38.6176 19.7479 38.733 19.1783 38.7445 18.563C38.7445 17.9592 38.6291 17.3952 38.3983 16.8711C38.1675 16.3471 37.8501 15.8799 37.4462 15.4698C37.0423 15.0596 36.5749 14.7463 36.044 14.5298C35.5132 14.3134 34.9361 14.1994 34.313 14.188C33.7013 14.188 33.1301 14.302 32.5992 14.5298C32.0683 14.7577 31.5952 15.071 31.1797 15.4698C30.7643 15.8685 30.4469 16.33 30.2276 16.854C30.0084 17.3781 29.893 17.9478 29.8814 18.563Z" fill="#FFC700"/>
</svg>
