<svg width="61" height="60" viewBox="0 0 61 60" fill="none" xmlns="http://www.w3.org/2000/svg">
<ellipse cx="30.3877" cy="30" rx="30.3877" ry="30" fill="#FF2458" fill-opacity="0.15"/>
<g clip-path="url(#clip0_356_8966)">
<path d="M26.3767 30C27.9839 30 29.5506 29.5334 30.8741 28.6534C32.1977 27.7734 33.2511 26.52 33.8589 25.0667C34.4666 23.6134 34.6287 22 34.3181 20.44C34.0074 18.8934 33.2376 17.4667 32.1031 16.3467C30.9687 15.2267 29.5236 14.4667 27.9569 14.16C26.3902 13.84 24.7561 14 23.2704 14.6134C21.7848 15.2134 20.5288 16.24 19.6374 17.56C18.7461 18.88 18.2734 20.4267 18.2734 22C18.2734 24.12 19.1242 26.16 20.6504 27.6534C22.163 29.1467 24.2293 30 26.3767 30ZM22.5546 18.2267C23.5676 17.2267 24.9451 16.6667 26.3767 16.6667C27.4437 16.6667 28.4836 16.9734 29.375 17.56C30.2664 18.1467 30.9552 18.9734 31.3603 19.96C31.7655 20.9334 31.8735 22.0134 31.671 23.04C31.4684 24.08 30.9416 25.0267 30.1988 25.7734C29.4425 26.52 28.4836 27.0267 27.4302 27.2267C26.3767 27.4267 25.2963 27.3334 24.3104 26.92C23.3245 26.5067 22.4736 25.8267 21.8794 24.96C21.2851 24.08 20.9745 23.0534 20.9745 22C20.9745 20.5867 21.5417 19.2267 22.5546 18.2267ZM26.4983 32.6934C24.702 32.6667 22.9598 33.0534 21.3526 33.7734C21.2986 33.8 21.2446 33.8267 21.1906 33.84C20.9475 33.96 20.7044 34.0667 20.4613 34.2C20.3532 34.2534 20.2587 34.32 20.1506 34.3734C19.9481 34.4934 19.732 34.6134 19.5294 34.7467C19.4348 34.8 19.3538 34.8667 19.2593 34.9334C18.7596 35.28 18.2734 35.6667 17.8412 36.0934C15.5587 38.32 14.2352 41.36 14.1812 44.5334C14.1812 44.5334 14.1812 44.5867 14.1812 44.6134C14.1812 44.9734 14.3702 45.36 14.6133 45.6134C14.8699 45.8667 15.2076 46 15.5722 46C15.9369 46 16.2745 45.8534 16.5311 45.6134C16.7877 45.36 16.9228 45.0267 16.9228 44.6667C16.9228 43.44 17.1659 42.24 17.6386 41.12C17.6386 41.12 17.6386 41.1067 17.6386 41.0934C17.7331 40.88 17.8412 40.6667 17.9357 40.4667C18.0168 40.3067 18.1113 40.1467 18.2058 39.9867C18.3139 39.8 18.4354 39.6 18.557 39.4134C18.7461 39.1467 18.9486 38.88 19.1647 38.6267C19.2593 38.52 19.3673 38.4134 19.4619 38.2934C19.6104 38.1334 19.786 37.9734 19.9481 37.8267C20.2047 37.5867 20.4748 37.36 20.7584 37.1467C20.8394 37.08 20.9205 37.0267 21.0015 36.96C21.3391 36.7334 21.6903 36.5334 22.0549 36.3467C22.217 36.2667 22.3926 36.1867 22.5546 36.1067C22.8383 35.9867 23.1354 35.88 23.4325 35.7734C23.7026 35.68 23.9862 35.6134 24.2699 35.5467C24.3104 35.5467 24.3374 35.52 24.3779 35.52C25.0397 35.3867 25.7285 35.3067 26.4173 35.32C26.7819 35.32 27.1196 35.1867 27.3762 34.9467C27.6328 34.6934 27.7813 34.36 27.7813 34.0134C27.7813 33.6534 27.6463 33.32 27.4032 33.0667C27.1466 32.8134 26.8089 32.6667 26.4578 32.6667L26.4983 32.6934ZM46.5272 35.5734C46.2435 34.6934 45.4062 34.0934 44.4743 34.0934H41.0169L39.9499 30.8534C39.6663 29.9734 38.8289 29.3734 37.897 29.3734C36.9652 29.3734 36.1278 29.9734 35.8442 30.8534L34.7772 34.0934H31.3198C30.3879 34.0934 29.5506 34.6934 29.2669 35.5734C28.9698 36.4534 29.294 37.4134 30.0503 37.96L32.8459 39.96L31.779 43.2C31.4819 44.08 31.806 45.04 32.5623 45.5867C33.3186 46.1334 34.3451 46.1334 35.1014 45.5867L37.897 43.5867L40.6927 45.5867C41.449 46.1334 42.4755 46.1334 43.2318 45.5867C43.9881 45.04 44.3122 44.08 44.0151 43.2L42.9482 39.96L45.7438 37.96C46.5001 37.4134 46.8243 36.4534 46.5272 35.5734ZM40.9358 38.6267C40.5306 38.92 40.3686 39.4267 40.5171 39.88L41.7327 43.56L38.5588 41.28C38.1537 40.9867 37.6134 40.9867 37.2218 41.28L34.0479 43.56L35.2635 39.88C35.412 39.4134 35.2499 38.9067 34.8448 38.6267L31.671 36.3467H35.5876C36.0873 36.3467 36.5195 36.0267 36.668 35.5734L37.8835 31.8934L39.0991 35.5734C39.2476 36.04 39.6933 36.3467 40.1795 36.3467H44.0961L40.9223 38.6267H40.9358Z" fill="#FF2458"/>
</g>
<defs>
<clipPath id="clip0_356_8966">
<rect width="32.4135" height="32" fill="white" transform="translate(14.1812 14)"/>
</clipPath>
</defs>
</svg>
