<svg width="61" height="60" viewBox="0 0 61 60" fill="none" xmlns="http://www.w3.org/2000/svg">
<ellipse cx="30.3877" cy="30" rx="30.3877" ry="30" fill="#50CD89" fill-opacity="0.15"/>
<path d="M33.2578 23.3333H30.7255V31.6667L37.951 35.9L39.1665 33.8833L33.2578 30.4167V23.3333ZM32.4137 15C28.3841 15 24.5195 16.5804 21.6701 19.3934C18.8207 22.2064 17.2199 26.0218 17.2199 30H12.1553L18.8406 36.7167L25.6609 30H20.5963C20.5963 26.9058 21.8413 23.9383 24.0575 21.7504C26.2737 19.5625 29.2796 18.3333 32.4137 18.3333C35.5479 18.3333 38.5537 19.5625 40.7699 21.7504C42.9861 23.9383 44.2312 26.9058 44.2312 30C44.2312 33.0942 42.9861 36.0617 40.7699 38.2496C38.5537 40.4375 35.5479 41.6667 32.4137 41.6667C29.1555 41.6667 26.2011 40.35 24.074 38.2333L21.6767 40.6C23.0804 42.001 24.753 43.1117 26.5965 43.8672C28.4401 44.6227 30.4177 45.0078 32.4137 45C36.4434 45 40.308 43.4196 43.1574 40.6066C46.0068 37.7936 47.6076 33.9782 47.6076 30C47.6076 26.0218 46.0068 22.2064 43.1574 19.3934C40.308 16.5804 36.4434 15 32.4137 15Z" fill="#50CD89"/>
</svg>
