<svg width="61" height="60" viewBox="0 0 61 60" fill="none" xmlns="http://www.w3.org/2000/svg">
<ellipse cx="30.3877" cy="30" rx="30.3877" ry="30" fill="#09589E" fill-opacity="0.15"/>
<path d="M45.3753 41.2741C43.3821 37.8204 40.2697 35.1294 36.5391 33.6342C38.3943 32.2606 39.7646 30.3455 40.4561 28.1603C41.1475 25.9751 41.125 23.6304 40.3917 21.4585C39.6583 19.2866 38.2514 17.3976 36.3702 16.059C34.4889 14.7203 32.2288 14 29.9098 14C27.5908 14 25.3306 14.7203 23.4494 16.059C21.5682 17.3976 20.1612 19.2866 19.4279 21.4585C18.6946 23.6304 18.672 25.9751 19.3635 28.1603C20.0549 30.3455 21.4253 32.2606 23.2805 33.6342C19.5499 35.1294 16.4375 37.8204 14.4443 41.2741C14.3208 41.4701 14.2385 41.6887 14.2022 41.9168C14.166 42.1449 14.1766 42.3779 14.2334 42.6018C14.2901 42.8258 14.392 43.0362 14.5328 43.2206C14.6736 43.4049 14.8505 43.5594 15.053 43.6749C15.2555 43.7905 15.4794 43.8646 15.7115 43.8929C15.9436 43.9213 16.1791 43.9033 16.404 43.84C16.6289 43.7767 16.8386 43.6694 17.0207 43.5244C17.2028 43.3795 17.3535 43.1999 17.4638 42.9964C20.0981 38.5012 24.7503 35.8201 29.9098 35.8201C35.0693 35.8201 39.7215 38.5026 42.3558 42.9964C42.5949 43.3761 42.9743 43.649 43.4136 43.7576C43.8529 43.8661 44.3178 43.8018 44.7099 43.5781C45.1021 43.3545 45.3907 42.989 45.5149 42.559C45.6391 42.1291 45.589 41.6683 45.3753 41.2741ZM22.35 24.9122C22.35 23.4361 22.7934 21.9932 23.6241 20.7658C24.4548 19.5385 25.6354 18.5819 27.0168 18.017C28.3982 17.4521 29.9182 17.3043 31.3846 17.5923C32.8511 17.8803 34.1981 18.5911 35.2553 19.6349C36.3126 20.6786 37.0326 22.0085 37.3243 23.4562C37.616 24.9039 37.4663 26.4046 36.8941 27.7683C36.3219 29.132 35.353 30.2977 34.1098 31.1177C32.8666 31.9378 31.405 32.3755 29.9098 32.3755C27.9055 32.3732 25.984 31.5862 24.5668 30.1871C23.1496 28.7879 22.3523 26.8909 22.35 24.9122Z" fill="#09589E"/>
</svg>
