<svg width="12" height="13" viewBox="0 0 12 13" fill="none" xmlns="http://www.w3.org/2000/svg">
<g id="fi-rr-angle-small-right">
<path id="Vector" d="M7.70006 5.4397L5.40556 3.1467C5.31036 3.06062 5.1857 3.01445 5.05739 3.01774C4.92908 3.02104 4.80696 3.07355 4.7163 3.1644C4.62564 3.25525 4.57339 3.37749 4.57036 3.50581C4.56734 3.63412 4.61378 3.75868 4.70006 3.8537L6.99306 6.1467C7.0868 6.24047 7.13946 6.36762 7.13946 6.5002C7.13946 6.63278 7.0868 6.75994 6.99306 6.8537L4.70006 9.1467C4.60631 9.24052 4.55366 9.36774 4.55371 9.50038C4.55376 9.63301 4.60649 9.7602 4.70031 9.85395C4.79413 9.94771 4.92135 10.0003 5.05399 10.0003C5.18662 10.0003 5.31381 9.94752 5.40756 9.8537L7.70006 7.5607C7.98127 7.27941 8.13924 6.89795 8.13924 6.5002C8.13924 6.10246 7.98127 5.72099 7.70006 5.4397Z" fill="#CCC8DA"/>
</g>
</svg>
