<svg width="40" height="32" viewBox="0 0 40 32" fill="none" xmlns="http://www.w3.org/2000/svg">
<path d="M9.87974 31.3044C7.80759 31.3044 6.25347 30.7123 5.14338 29.5652C4.0333 28.4181 3.51526 26.79 3.51526 24.7549V11.5079H1.11008C0.814061 11.5079 0.55504 11.3969 0.333023 11.2118C0.111006 11.0268 0 10.6938 0 10.3238V8.0666L3.81129 7.43756L4.99538 0.962075C5.06938 0.666052 5.21739 0.407024 5.43941 0.259013C5.66142 0.0739988 5.92044 0 6.25347 0H9.2137V7.47456H15.5042V11.5449H9.2137V24.3848C9.2137 25.1249 9.39871 25.7169 9.73173 26.124C10.1018 26.531 10.5828 26.753 11.2118 26.753C11.5449 26.753 11.8779 26.716 12.0999 26.605C12.3219 26.531 12.5439 26.42 12.729 26.346C12.914 26.272 13.062 26.161 13.21 26.087C13.358 26.013 13.469 25.939 13.617 25.939C13.802 25.939 13.913 25.976 14.0241 26.087C14.1351 26.161 14.2461 26.309 14.3571 26.457L16.0592 29.2322C15.2452 29.9353 14.2831 30.4533 13.21 30.7863C12.1369 31.0823 11.0268 31.3044 9.87974 31.3044Z" fill="#252C64"/>
<path d="M38.557 11.8408C38.409 12.0998 38.224 12.2478 38.076 12.3588C37.891 12.4699 37.669 12.5069 37.41 12.5069C37.1509 12.5069 36.8179 12.4328 36.5219 12.2848C36.1889 12.1368 35.8558 11.9518 35.4118 11.7668C35.0048 11.5818 34.5237 11.3968 34.0057 11.2488C33.4877 11.1008 32.8586 11.0267 32.1186 11.0267C31.0085 11.0267 30.1204 11.2858 29.4914 11.7298C28.8623 12.2108 28.5293 12.8399 28.5293 13.5799C28.5293 14.098 28.6773 14.505 29.0103 14.875C29.3434 15.2081 29.7874 15.5411 30.3054 15.8001C30.8605 16.0591 31.4895 16.2811 32.1556 16.5032C32.8586 16.6882 33.5247 16.9472 34.2647 17.1692C34.9678 17.4282 35.6708 17.6872 36.3739 18.0203C37.0769 18.3533 37.669 18.7233 38.224 19.2044C38.7421 19.6854 39.2231 20.2774 39.5191 20.9435C39.8521 21.6095 40.0002 22.4236 40.0002 23.3857C40.0002 24.5328 39.8151 25.5688 39.4081 26.5309C39.0011 27.493 38.409 28.344 37.595 29.0101C36.8179 29.7132 35.8188 30.2682 34.6347 30.6382C33.4507 31.0453 32.1186 31.2303 30.5644 31.2303C29.7504 31.2303 28.9733 31.1563 28.1963 31.0082C27.4192 30.8602 26.6792 30.6752 25.9761 30.4162C25.273 30.1572 24.607 29.8612 24.015 29.4911C23.4229 29.1581 22.8679 28.7511 22.4238 28.3441L23.7189 26.1609C23.9039 25.9019 24.089 25.6799 24.311 25.5688C24.533 25.4208 24.829 25.3838 25.199 25.3838C25.5691 25.3838 25.9021 25.4948 26.1981 25.6798C26.5311 25.8649 26.8642 26.0869 27.3082 26.3459C27.7522 26.6049 28.1963 26.7899 28.7513 27.012C29.3063 27.197 30.0094 27.308 30.8975 27.308C31.5635 27.308 32.1556 27.234 32.6366 27.049C33.1176 26.9009 33.5247 26.6789 33.8207 26.4199C34.1537 26.1609 34.3757 25.8649 34.5237 25.4948C34.6718 25.1618 34.7458 24.7918 34.7458 24.4218C34.7458 23.8667 34.5977 23.4227 34.2647 23.0527C33.9317 22.7196 33.4877 22.3866 32.9696 22.1276C32.4146 21.8686 31.7855 21.6465 31.1195 21.4245C30.4164 21.2025 29.7134 20.9805 28.9733 20.7585C28.2333 20.4995 27.5302 20.2404 26.8272 19.9074C26.1241 19.5744 25.5321 19.1674 24.977 18.6493C24.422 18.1313 23.9779 17.5022 23.6819 16.7992C23.3489 16.0591 23.2009 15.1711 23.2009 14.135C23.2009 13.1729 23.3859 12.2478 23.7929 11.3598C24.2 10.4717 24.755 9.73165 25.4951 9.0656C26.2351 8.39955 27.1602 7.88151 28.2703 7.51148C29.3804 7.10445 30.6755 6.91943 32.1186 6.91943C33.7467 6.91943 35.2268 7.17846 36.5589 7.7335C37.891 8.25154 39.0011 8.99159 39.8891 9.87966L38.557 11.8408Z" fill="#09589E"/>
<path d="M14.3574 19.4266C14.3574 19.0195 14.4314 18.6865 14.5794 18.3535C14.7275 18.0205 14.9125 17.7244 15.1715 17.4654C15.4305 17.2064 15.7265 17.0214 16.0596 16.8734C16.3926 16.7254 16.7626 16.6514 17.1696 16.6514C17.5767 16.6514 17.9467 16.7254 18.2797 16.8734C18.6127 17.0214 18.9458 17.2064 19.2048 17.4654C19.4638 17.7244 19.6488 18.0205 19.7968 18.3535C19.9448 18.6865 20.0188 19.0565 20.0188 19.4266C20.0188 19.7966 19.9448 20.2036 19.7968 20.5367C19.6488 20.8697 19.4638 21.1657 19.2048 21.4247C18.9458 21.6837 18.6497 21.8688 18.2797 22.0168C17.9467 22.1648 17.5397 22.2018 17.1696 22.2018C16.7996 22.2018 16.3926 22.1278 16.0596 22.0168C15.7265 21.8688 15.4305 21.6837 15.1715 21.4247C14.9125 21.1657 14.7275 20.8697 14.5794 20.5367C14.4314 20.2036 14.3574 19.8336 14.3574 19.4266Z" fill="#E7335D"/>
</svg>
