<svg width="30" height="31" viewBox="0 0 30 31" fill="none" xmlns="http://www.w3.org/2000/svg">
<g clip-path="url(#clip0_3098_17331)">
<mask id="mask0_3098_17331" style="mask-type:luminance" maskUnits="userSpaceOnUse" x="0" y="0" width="30" height="31">
<path d="M30 0.299805H0V30.2998H30V0.299805Z" fill="white"/>
</mask>
<g mask="url(#mask0_3098_17331)">
<path d="M7.50012 0.299805C6.47012 0.299805 5.62012 1.1398 5.62012 2.1798V28.4298C5.62012 29.4598 6.46012 30.3098 7.50012 30.3098H26.2501C27.2801 30.3098 28.1301 29.4698 28.1301 28.4298V7.7998L20.6301 0.299805H7.50012Z" fill="#E2E5E7"/>
<path d="M22.4999 7.7998H28.1199L20.6299 0.299805V5.9298C20.6299 6.9598 21.4699 7.8098 22.5099 7.8098L22.4999 7.7998Z" fill="#B0B7BD"/>
<path d="M28.1303 13.4198L22.5103 7.7998H28.1303V13.4198Z" fill="#CAD1D8"/>
<path d="M24.5002 11.2499C24.5002 11.3099 24.1802 11.3499 23.7902 11.3499H8.1602C7.7702 11.3499 7.4502 11.2999 7.4502 11.2499V10.2299C7.4502 10.1699 7.7702 10.1299 8.1602 10.1299H23.7902C24.1802 10.1299 24.5002 10.1799 24.5002 10.2299V11.2499Z" fill="#7F7F7F"/>
<path d="M24.5002 16.7699C24.5002 16.8299 24.1802 16.8699 23.7902 16.8699H8.1602C7.7702 16.8699 7.4502 16.8199 7.4502 16.7699V15.7499C7.4502 15.6899 7.7702 15.6499 8.1602 15.6499H23.7902C24.1802 15.6499 24.5002 15.6999 24.5002 15.7499V16.7699Z" fill="#7F7F7F"/>
<path d="M24.5002 14.0096C24.5002 14.0696 24.1802 14.1096 23.7902 14.1096H8.1602C7.7702 14.1096 7.4502 14.0596 7.4502 14.0096V12.9896C7.4502 12.9296 7.7702 12.8896 8.1602 12.8896H23.7902C24.1802 12.8896 24.5002 12.9396 24.5002 12.9896V14.0096Z" fill="#7F7F7F"/>
<path d="M24.5002 19.5297C24.5002 19.5897 24.1802 19.6297 23.7902 19.6297H8.1602C7.7702 19.6297 7.4502 19.5797 7.4502 19.5297V18.5097C7.4502 18.4497 7.7702 18.4097 8.1602 18.4097H23.7902C24.1802 18.4097 24.5002 18.4597 24.5002 18.5097V19.5297Z" fill="#7F7F7F"/>
<path d="M23.4399 25.6099H5.62988V26.5499H23.4399C23.9599 26.5499 24.3799 26.1299 24.3799 25.6099V24.6699C24.3799 25.1899 23.9599 25.6099 23.4399 25.6099Z" fill="#CAD1D8"/>
</g>
<path d="M7.0102 21.6299C7.1602 21.6299 7.3002 21.6399 7.4502 21.6399C12.6002 21.6399 17.7502 21.6399 22.9002 21.6399C23.0502 21.6399 23.1902 21.6399 23.3402 21.6399C23.3402 23.1899 23.3402 24.7399 23.3402 26.2899C18.0602 26.2899 12.7702 26.2899 7.4902 26.2899C7.3302 26.2899 7.1702 26.2899 7.0202 26.2999C6.2502 26.2999 5.4702 26.2899 4.7002 26.2799C4.7002 24.7299 4.7002 23.1799 4.7002 21.6299C5.4702 21.6299 6.2502 21.6199 7.0202 21.6099L7.0102 21.6299Z" fill="#00A0C8"/>
<path d="M3.50018 26.2998C2.66018 26.2998 1.83018 26.2998 0.990177 26.2998C0.590177 26.2998 0.0101772 25.7198 0.0101772 25.3198C0.0101772 24.4998 0.0501772 23.6698 0.000177243 22.8498C-0.0598228 21.8998 0.550177 21.6798 1.25018 21.6398C2.00018 21.5998 2.75018 21.6398 3.50018 21.6398C3.50018 23.1898 3.50018 24.7398 3.50018 26.2998Z" fill="#0A5078"/>
<path d="M5.72021 26.3098C5.89021 26.3098 6.06021 26.2998 6.22021 26.2998C11.8402 26.2998 17.4602 26.2998 23.0802 26.2998C23.1502 26.2898 23.2402 26.2998 23.3002 26.2598C24.0602 25.8798 24.8202 25.4998 25.5802 25.1298C26.1102 24.8698 26.6402 24.5998 27.1702 24.3398C27.3302 24.7098 27.2602 24.9198 26.9102 25.0898C25.6902 25.6698 24.4702 26.2498 23.2402 26.8098C23.1202 26.8698 22.9702 26.8898 22.8302 26.8898C17.1502 26.8898 11.4802 26.8898 5.80022 26.8898C5.77022 26.6998 5.74021 26.5098 5.72021 26.3198V26.3098Z" fill="#7B8084"/>
<path d="M3.5 26.2996C3.5 24.7496 3.5 23.1996 3.5 21.6396C3.89 21.6396 4.29 21.6396 4.68 21.6396C4.68 23.1896 4.68 24.7396 4.68 26.2896C4.29 26.2896 3.89 26.2896 3.5 26.2896V26.2996Z" fill="#F0F0F0"/>
<path d="M25.6801 25.1196C24.9701 25.4996 24.2601 25.8796 23.5401 26.2496C23.4801 26.2796 23.4001 26.2696 23.3301 26.2896C23.3301 24.7396 23.3301 23.1896 23.3301 21.6396C24.1101 22.0296 24.8901 22.4196 25.6801 22.8096C25.6801 23.5796 25.6801 24.3496 25.6801 25.1196Z" fill="#F0C8A0"/>
<path d="M25.6802 25.1196C25.6802 24.3496 25.6802 23.5796 25.6802 22.8096C26.0302 22.9896 26.3902 23.1596 26.7402 23.3396C27.2802 23.6096 27.3402 23.7496 27.1802 24.3296C26.6802 24.5896 26.1802 24.8596 25.6802 25.1196Z" fill="#0D5279"/>
</g>
<defs>
<clipPath id="clip0_3098_17331">
<rect width="30" height="30" fill="white" transform="translate(0 0.299805)"/>
</clipPath>
</defs>
</svg>
