<svg width="30" height="31" viewBox="0 0 30 31" fill="none" xmlns="http://www.w3.org/2000/svg">
<g clip-path="url(#clip0_989_13918)">
<path d="M7.5 0.700195C6.46875 0.700195 5.625 1.54395 5.625 2.5752V28.8252C5.625 29.8564 6.46875 30.7002 7.5 30.7002H26.25C27.2812 30.7002 28.125 29.8564 28.125 28.8252V8.2002L20.625 0.700195H7.5Z" fill="#E2E5E7"/>
<path d="M22.5 8.2002H28.125L20.625 0.700195V6.3252C20.625 7.35645 21.4688 8.2002 22.5 8.2002Z" fill="#B0B7BD"/>
<path d="M28.125 13.8252L22.5 8.2002H28.125V13.8252Z" fill="#CAD1D8"/>
<path d="M24.375 25.0752C24.375 25.5908 23.9531 26.0127 23.4375 26.0127H2.8125C2.29688 26.0127 1.875 25.5908 1.875 25.0752V15.7002C1.875 15.1846 2.29688 14.7627 2.8125 14.7627H23.4375C23.9531 14.7627 24.375 15.1846 24.375 15.7002V25.0752Z" fill="#F15642"/>
<path d="M5.96143 18.4628C5.96143 18.2153 6.15643 17.9453 6.47049 17.9453H8.20205C9.17705 17.9453 10.0546 18.5978 10.0546 19.8484C10.0546 21.0334 9.17705 21.6934 8.20205 21.6934H6.95049V22.6834C6.95049 23.0134 6.74049 23.2 6.47049 23.2C6.22299 23.2 5.96143 23.0134 5.96143 22.6834V18.4628ZM6.95049 18.8894V20.7569H8.20205C8.70455 20.7569 9.10205 20.3134 9.10205 19.8484C9.10205 19.3244 8.70455 18.8894 8.20205 18.8894H6.95049Z" fill="white"/>
<path d="M11.5229 23.1999C11.2754 23.1999 11.0054 23.0649 11.0054 22.7358V18.4777C11.0054 18.2086 11.2754 18.0127 11.5229 18.0127H13.2394C16.6651 18.0127 16.5901 23.1999 13.3069 23.1999H11.5229ZM11.9954 18.9277V22.2858H13.2394C15.2635 22.2858 15.3535 18.9277 13.2394 18.9277H11.9954Z" fill="white"/>
<path d="M17.8048 18.9877V20.1792H19.7164C19.9864 20.1792 20.2564 20.4492 20.2564 20.7108C20.2564 20.9583 19.9864 21.1608 19.7164 21.1608H17.8048V22.7348C17.8048 22.9973 17.6183 23.1989 17.3558 23.1989C17.0258 23.1989 16.8242 22.9973 16.8242 22.7348V18.4767C16.8242 18.2077 17.0267 18.0117 17.3558 18.0117H19.9873C20.3173 18.0117 20.5123 18.2077 20.5123 18.4767C20.5123 18.7167 20.3173 18.9867 19.9873 18.9867H17.8048V18.9877Z" fill="white"/>
<path d="M23.4375 26.0127H5.625V26.9502H23.4375C23.9531 26.9502 24.375 26.5283 24.375 26.0127V25.0752C24.375 25.5908 23.9531 26.0127 23.4375 26.0127Z" fill="#CAD1D8"/>
</g>
<defs>
<clipPath id="clip0_989_13918">
<rect width="30" height="30" fill="white" transform="translate(0 0.700195)"/>
</clipPath>
</defs>
</svg>
