<svg width="24" height="28" viewBox="0 0 24 28" fill="none" xmlns="http://www.w3.org/2000/svg">
<path d="M5.25 0.700195C4.32187 0.700195 3.5625 1.45957 3.5625 2.3877V26.0127C3.5625 26.9408 4.32187 27.7002 5.25 27.7002H22.125C23.0531 27.7002 23.8125 26.9408 23.8125 26.0127V7.4502L17.0625 0.700195H5.25Z" fill="#E2E5E7"/>
<path d="M18.75 7.4502H23.8125L17.0625 0.700195V5.7627C17.0625 6.69082 17.8219 7.4502 18.75 7.4502Z" fill="#B0B7BD"/>
<path d="M23.8125 12.5127L18.75 7.4502H23.8125V12.5127Z" fill="#CAD1D8"/>
<path d="M20.4375 22.6377C20.4375 23.1018 20.0578 23.4814 19.5938 23.4814H1.03125C0.567187 23.4814 0.1875 23.1018 0.1875 22.6377V14.2002C0.1875 13.7361 0.567187 13.3564 1.03125 13.3564H19.5938C20.0578 13.3564 20.4375 13.7361 20.4375 14.2002V22.6377Z" fill="#84BD5A"/>
<path d="M6.11128 17.9019L7.28494 16.4312C7.63594 15.9722 8.31769 16.5586 7.93294 16.9974C7.52878 17.4766 7.10353 17.9964 6.69853 18.5288L8.07469 20.2425C8.44594 20.7487 7.70428 21.2339 7.33978 20.7344L6.09778 19.1422L4.87688 20.769C4.53263 21.2609 3.76988 20.7082 4.15463 20.2492L5.51053 18.5288C5.08528 17.9956 4.67353 17.4766 4.26263 16.9974C3.83822 16.4911 4.62713 15.9722 4.93763 16.4456L6.11128 17.9019Z" fill="white"/>
<path d="M8.90723 16.6867C8.90723 16.4639 9.09623 16.2749 9.33248 16.2749C9.54848 16.2749 9.73073 16.4647 9.73073 16.6867V20.0667H11.5659C12.2265 20.0667 12.2409 20.9501 11.5659 20.9501H9.33332C9.09707 20.9501 8.90807 20.7822 8.90807 20.5392V16.6867H8.90723Z" fill="white"/>
<path d="M12.8454 17.2942C13.0007 15.9847 14.9767 15.7493 15.9082 16.4648C16.3672 16.8352 15.8812 17.4225 15.4762 17.1255C14.9767 16.8091 13.8436 16.6606 13.7018 17.3609C13.5196 18.4679 16.4541 17.8342 16.4069 19.6289C16.3596 21.3425 13.8773 21.3822 12.9458 20.6135C12.7222 20.4313 12.7298 20.1351 12.8513 19.952C13.0268 19.7774 13.2217 19.7166 13.4521 19.9056C14.0047 20.2828 15.429 20.5663 15.5294 19.6078C15.4425 18.6105 12.6362 19.2104 12.8454 17.2942Z" fill="white"/>
<path d="M19.5938 23.4814H3.5625V24.3252H19.5938C20.0578 24.3252 20.4375 23.9455 20.4375 23.4814V22.6377C20.4375 23.1018 20.0578 23.4814 19.5938 23.4814Z" fill="#CAD1D8"/>
</svg>
