<svg width="24" height="28" viewBox="0 0 24 28" fill="none" xmlns="http://www.w3.org/2000/svg">
<path d="M5.25 0.700195C4.32187 0.700195 3.5625 1.45957 3.5625 2.3877V26.0127C3.5625 26.9408 4.32187 27.7002 5.25 27.7002H22.125C23.0531 27.7002 23.8125 26.9408 23.8125 26.0127V7.4502L17.0625 0.700195H5.25Z" fill="#E2E5E7"/>
<path d="M18.75 7.4502H23.8125L17.0625 0.700195V5.7627C17.0625 6.69082 17.8219 7.4502 18.75 7.4502Z" fill="#B0B7BD"/>
<path d="M23.8125 12.5127L18.75 7.4502H23.8125V12.5127Z" fill="#CAD1D8"/>
<path d="M20.4375 22.6377C20.4375 23.1018 20.0578 23.4814 19.5938 23.4814H1.03125C0.567187 23.4814 0.1875 23.1018 0.1875 22.6377V14.2002C0.1875 13.7361 0.567187 13.3564 1.03125 13.3564H19.5938C20.0578 13.3564 20.4375 13.7361 20.4375 14.2002V22.6377Z" fill="#50BEE8"/>
<path d="M3.38177 20.9502C3.15902 20.9502 2.91602 20.8279 2.91602 20.5317V16.7002C2.91602 16.4572 3.15902 16.2817 3.38177 16.2817H4.92667C8.00973 16.2817 7.94139 20.9502 4.98658 20.9502H3.38177ZM3.80702 17.1044V20.1267H4.92667C6.74833 20.1267 6.82848 17.1044 4.92667 17.1044H3.80702Z" fill="white"/>
<path d="M10.5234 21.0175C9.27549 21.0715 7.97949 20.2413 7.97949 18.5884C7.97949 16.9287 9.27465 16.1128 10.5234 16.1128C11.7038 16.1727 12.9382 16.9894 12.9382 18.5884C12.9382 20.1881 11.7038 21.0175 10.5234 21.0175ZM10.4491 16.9903C9.69315 16.9903 8.87049 17.5235 8.87049 18.5892C8.87049 19.6489 9.69399 20.1889 10.4491 20.1889C11.2254 20.1889 12.0548 19.6489 12.0548 18.5892C12.0548 17.5227 11.2254 16.9903 10.4491 16.9903Z" fill="white"/>
<path d="M13.7319 18.5817C13.7319 17.2798 14.5487 16.1602 16.1003 16.1602C16.6876 16.1602 17.1533 16.3357 17.6452 16.7609C17.8275 16.9288 17.8477 17.2258 17.6655 17.4148C17.4832 17.576 17.2065 17.5566 17.0445 17.3946C16.7686 17.1043 16.4851 17.0242 16.1003 17.0242C15.0617 17.0242 14.563 17.7599 14.563 18.5826C14.563 19.4196 15.0549 20.1882 16.1003 20.1882C16.4851 20.1882 16.8428 20.0321 17.1533 19.7562C17.3617 19.5942 17.652 19.6744 17.7735 19.8372C17.8815 19.9857 17.9347 20.2355 17.6992 20.4709C17.2267 20.9105 16.6606 20.9982 16.0995 20.9982C14.4677 20.9982 13.7319 19.8836 13.7319 18.5817Z" fill="white"/>
<path d="M19.5938 23.4814H3.5625V24.3252H19.5938C20.0578 24.3252 20.4375 23.9455 20.4375 23.4814V22.6377C20.4375 23.1018 20.0578 23.4814 19.5938 23.4814Z" fill="#CAD1D8"/>
</svg>
