<svg width="36" height="36" viewBox="0 0 36 36" fill="none" xmlns="http://www.w3.org/2000/svg">
<rect width="36" height="36" rx="12" fill="#FFFAE8"/>
<rect x="18.1421" y="4" width="20" height="20" rx="4" transform="rotate(45 18.1421 4)" fill="#FAB721"/>
<g clip-path="url(#clip0_1011_15587)">
<path d="M18 12C16.8133 12 15.6533 12.3519 14.6666 13.0112C13.6799 13.6705 12.9108 14.6075 12.4567 15.7039C12.0026 16.8003 11.8838 18.0067 12.1153 19.1705C12.3468 20.3344 12.9182 21.4035 13.7574 22.2426C14.5965 23.0818 15.6656 23.6532 16.8295 23.8847C17.9933 24.1162 19.1997 23.9974 20.2961 23.5433C21.3925 23.0892 22.3295 22.3201 22.9888 21.3334C23.6481 20.3467 24 19.1867 24 18C23.9983 16.4092 23.3656 14.8841 22.2407 13.7593C21.1159 12.6344 19.5908 12.0017 18 12ZM18 23C17.0111 23 16.0444 22.7068 15.2221 22.1573C14.3999 21.6079 13.759 20.827 13.3806 19.9134C13.0022 18.9998 12.9031 17.9945 13.0961 17.0245C13.289 16.0546 13.7652 15.1637 14.4645 14.4645C15.1637 13.7652 16.0546 13.289 17.0245 13.0961C17.9944 12.9031 18.9998 13.0022 19.9134 13.3806C20.827 13.759 21.6079 14.3999 22.1573 15.2221C22.7067 16.0444 23 17.0111 23 18C22.9985 19.3256 22.4713 20.5966 21.5339 21.5339C20.5966 22.4713 19.3256 22.9985 18 23Z" fill="white"/>
<path d="M18 14.5C17.8674 14.5 17.7402 14.5527 17.6464 14.6464C17.5527 14.7402 17.5 14.8674 17.5 15V19C17.5 19.1326 17.5527 19.2598 17.6464 19.3536C17.7402 19.4473 17.8674 19.5 18 19.5C18.1326 19.5 18.2598 19.4473 18.3535 19.3536C18.4473 19.2598 18.5 19.1326 18.5 19V15C18.5 14.8674 18.4473 14.7402 18.3535 14.6464C18.2598 14.5527 18.1326 14.5 18 14.5Z" fill="white"/>
<path d="M18.5 21C18.5 20.7239 18.2761 20.5 18 20.5C17.7239 20.5 17.5 20.7239 17.5 21C17.5 21.2761 17.7239 21.5 18 21.5C18.2761 21.5 18.5 21.2761 18.5 21Z" fill="white"/>
</g>
<defs>
<clipPath id="clip0_1011_15587">
<rect width="12" height="12" fill="white" transform="translate(12 12)"/>
</clipPath>
</defs>
</svg>
