<?xml version="1.0" standalone="no"?>
<!DOCTYPE svg PUBLIC "-//W3C//DTD SVG 1.1//EN" "http://www.w3.org/Graphics/SVG/1.1/DTD/svg11.dtd" >
<svg xmlns="http://www.w3.org/2000/svg" xmlns:xlink="http://www.w3.org/1999/xlink" version="1.1">
<metadata>
Created by FontForge 20190801 at Mon Dec  5 12:46:19 2016
 By www-data
Copyright (c) 2016 by Radomir Tinkov. All rights reserved.
</metadata>
<defs>
<font id="SVN-Gilroy" horiz-adv-x="636" >
  <font-face 
    font-family="SVN-Gilroy"
    font-weight="400"
    font-stretch="normal"
    units-per-em="1000"
    panose-1="0 0 5 0 0 0 0 0 0 0"
    ascent="800"
    descent="-200"
    x-height="500"
    cap-height="700"
    bbox="-317 -240 1009 1063"
    underline-thickness="50"
    underline-position="-100"
    unicode-range="U+0020-FB02"
  />
<missing-glyph horiz-adv-x="500" 
d="M93 800h317v-1000h-317v1000zM333 700v33h-165v-33h65v-37h-66v-33h166v33h-66v37h66zM267 534v70h-100v-104h166v34h-66zM200 570h33v-36h-33v36zM333 440v33h-166v-33h66v-37h-66v-33h100v70h66zM333 313v100h-33v-66h-133v-34h166zM333 178v113h-100v-56h34v23h33v-47
h-100v80h-33v-113h166zM333 5v113h-166v-113h166zM200 85h100v-47h-100v47zM333 -51v33h-166v-33h70l-70 -47v-33h166v33h-102l70 47h32z" />
    <glyph glyph-name="fi" unicode="fi" horiz-adv-x="516" 
d="M176 500h270v-500h-66v436h-204v-436h-66v436h-85v64h85v20c0 128 70 192 210 192c28 0 60 -4 96 -12v-60c-31 5 -63 8 -96 8c-100 0 -144 -35 -144 -128v-20z" />
    <glyph glyph-name="fl" unicode="fl" horiz-adv-x="516" 
d="M320 712c39 0 81 -4 126 -12v-700h-66v649c-21 2 -41 3 -60 3c-99 0 -144 -37 -144 -132v-20h114v-64h-114v-436h-66v436h-85v64h85v20c0 128 70 192 210 192z" />
    <glyph glyph-name="f_f" unicode="ff" horiz-adv-x="590" 
d="M590 722v-64c-97 8 -144 -32 -144 -128v-30h144v-64h-144v-436h-66v436h-204v-436h-66v436h-85v64h85v20c0 131 75 201 210 192v-64c-97 8 -144 -32 -144 -128v-20h204v30c0 131 75 201 210 192z" />
    <glyph glyph-name="f_f_i" unicode="ffi" horiz-adv-x="786" 
d="M446 500h270v-500h-66v436h-204v-436h-66v436h-204v-436h-66v436h-85v64h85v20c0 131 75 201 210 192v-64c-97 8 -144 -32 -144 -128v-20h204v30c0 128 70 192 210 192c28 0 60 -4 96 -12v-60c-31 5 -63 8 -96 8c-100 0 -144 -35 -144 -128v-30z" />
    <glyph glyph-name="f_f_l" unicode="ffl" horiz-adv-x="786" 
d="M590 722c39 0 81 -4 126 -12v-710h-66v659c-21 2 -41 3 -60 3c-99 0 -144 -37 -144 -132v-30h114v-64h-114v-436h-66v436h-204v-436h-66v436h-85v64h85v20c0 131 75 201 210 192v-64c-97 8 -144 -32 -144 -128v-20h204v30c0 128 70 192 210 192z" />
    <glyph glyph-name=".notdef" horiz-adv-x="500" 
d="M93 800h317v-1000h-317v1000zM333 700v33h-165v-33h65v-37h-66v-33h166v33h-66v37h66zM267 534v70h-100v-104h166v34h-66zM200 570h33v-36h-33v36zM333 440v33h-166v-33h66v-37h-66v-33h100v70h66zM333 313v100h-33v-66h-133v-34h166zM333 178v113h-100v-56h34v23h33v-47
h-100v80h-33v-113h166zM333 5v113h-166v-113h166zM200 85h100v-47h-100v47zM333 -51v33h-166v-33h70l-70 -47v-33h166v33h-102l70 47h32z" />
    <glyph glyph-name="NULL" horiz-adv-x="0" 
 />
    <glyph glyph-name="CR" horiz-adv-x="333" 
 />
    <glyph glyph-name="space" unicode=" " horiz-adv-x="250" 
 />
    <glyph glyph-name="exclam" unicode="!" horiz-adv-x="230" 
d="M140 190h-50l-15 310v200h80v-200zM154 6c-21 -21 -57 -21 -78 0s-21 57 0 78s57 21 78 0s21 -57 0 -78z" />
    <glyph glyph-name="quotedbl" unicode="&#x22;" horiz-adv-x="310" 
d="M110 500h-50l-10 200h70zM250 500h-50l-10 200h70z" />
    <glyph glyph-name="numbersign" unicode="#" horiz-adv-x="599" 
d="M569 470l-10 -60h-119l-20 -120h120l-10 -60h-120l-30 -180h-64l30 180h-132l-30 -180h-64l30 180h-120l10 60h120l20 120h-121l10 60h121l30 180h64l-30 -180h132l30 180h64l-30 -180h119zM224 290h132l20 120h-132z" />
    <glyph glyph-name="dollar" unicode="$" horiz-adv-x="550" 
d="M510 182c0 -52 -18 -96 -53 -131s-81 -55 -137 -61v-90h-60v89c-108 7 -187 60 -220 145l60 35c25 -68 78 -105 160 -112v276c-60 21 -90 35 -129 64s-56 72 -56 129c0 52 17 94 52 127s80 53 133 58v89h60v-90c79 -9 143 -54 175 -129l-59 -33c-21 53 -60 84 -116 93
v-260c59 -20 92 -35 131 -66c40 -31 59 -74 59 -133zM145 526c0 -61 36 -92 115 -123v239c-69 -8 -115 -51 -115 -116zM320 312v-254c75 11 120 57 120 124c0 65 -40 98 -120 130z" />
    <glyph glyph-name="percent" unicode="%" horiz-adv-x="709" 
d="M213 412c-43 0 -80 14 -109 43s-44 65 -44 107s15 77 44 106s66 44 109 44s80 -15 109 -44s44 -64 44 -106s-14 -78 -43 -107s-65 -43 -110 -43zM149 498c33 -35 95 -35 128 0s33 93 0 128s-95 35 -128 0s-33 -93 0 -128zM137 71l-42 24l469 527l43 -24zM605 31
c-29 -29 -66 -43 -109 -43s-80 14 -109 43s-44 65 -44 107s15 77 44 106s66 44 109 44s80 -15 109 -44s44 -64 44 -106s-15 -78 -44 -107zM432 74c33 -35 95 -35 128 0s33 93 0 128s-95 35 -128 0s-33 -93 0 -128z" />
    <glyph glyph-name="ampersand" unicode="&#x26;" horiz-adv-x="657" 
d="M538 123l94 -100l-62 -35l-74 79c-53 -53 -121 -79 -206 -79c-69 0 -124 18 -167 53c-42 36 -63 84 -63 145c0 88 46 162 135 203c-35 39 -52 83 -52 132c0 58 20 104 60 139s87 52 140 52c89 0 170 -54 202 -139l-59 -34c-20 65 -75 105 -142 105c-36 0 -67 -11 -93 -33
c-25 -22 -38 -51 -38 -86c0 -47 22 -80 65 -125l211 -225c19 38 32 82 38 133l62 -36c-9 -58 -26 -108 -51 -149zM288 56c67 0 120 21 160 62l-206 219c-79 -29 -112 -88 -112 -149c0 -81 61 -132 158 -132z" />
    <glyph glyph-name="quotesingle" unicode="'" horiz-adv-x="170" 
d="M110 500h-50l-10 200h70z" />
    <glyph glyph-name="parenleft" unicode="(" horiz-adv-x="266" 
d="M236 -100h-66c-147 293 -147 607 0 900h66c-147 -293 -147 -607 0 -900z" />
    <glyph glyph-name="parenright" unicode=")" horiz-adv-x="266" 
d="M96 -100h-66c147 293 147 607 0 900h66c147 -293 147 -607 0 -900z" />
    <glyph glyph-name="asterisk" unicode="*" horiz-adv-x="392" 
d="M241 607l91 3v-56l-91 3l52 -75l-51 -30l-46 81l-46 -81l-51 30l52 75l-91 -3v56l91 -3l-52 75l51 30l46 -81l46 81l51 -30z" />
    <glyph glyph-name="plus" unicode="+" horiz-adv-x="540" 
d="M302 382h178v-64h-178v-178h-64v178h-178v64h178v178h64v-178z" />
    <glyph glyph-name="comma" unicode="," horiz-adv-x="240" 
d="M100 85h80l-60 -225h-60z" />
    <glyph glyph-name="hyphen" unicode="-" horiz-adv-x="520" 
d="M440 277h-360v64h360v-64z" />
    <glyph glyph-name="period" unicode="." horiz-adv-x="230" 
d="M154 6c-21 -21 -57 -21 -78 0s-21 57 0 78s57 21 78 0s21 -57 0 -78z" />
    <glyph glyph-name="slash" unicode="/" horiz-adv-x="530" 
d="M490 800l-400 -900h-50l400 900h50z" />
    <glyph glyph-name="zero" unicode="0" horiz-adv-x="630" 
d="M510 86c-46 -65 -111 -98 -195 -98s-149 33 -196 98c-46 66 -69 154 -69 264s23 198 69 263c47 66 112 99 196 99s149 -33 195 -99c47 -65 70 -153 70 -263s-23 -198 -70 -264zM171 133c35 -51 83 -77 144 -77s109 26 143 77c35 51 52 124 52 217s-17 166 -52 217
c-34 51 -82 77 -143 77s-109 -26 -144 -77c-34 -51 -51 -124 -51 -217s17 -166 51 -217z" />
    <glyph glyph-name="one" unicode="1" horiz-adv-x="340" 
d="M15 636l185 64h60v-700h-70v623l-157 -47z" />
    <glyph glyph-name="two" unicode="2" horiz-adv-x="525" 
d="M485 0h-445v63l252 254c72 72 108 134 108 185c0 89 -64 142 -141 142c-72 0 -124 -33 -157 -99l-59 35c44 87 124 132 216 132c56 0 105 -19 147 -57c43 -37 64 -88 64 -153c0 -81 -47 -152 -130 -235l-200 -199h345v-68z" />
    <glyph glyph-name="three" unicode="3" horiz-adv-x="530" 
d="M460 634l-163 -225c56 -7 102 -29 138 -65c37 -35 55 -82 55 -141c0 -67 -23 -119 -69 -158c-45 -38 -101 -57 -166 -57c-104 0 -192 50 -225 139l58 34c23 -69 84 -105 167 -105c96 0 165 54 165 147s-69 147 -165 147v1l-1 -1h-19l-30 46l174 238h-329v66h410v-66z" />
    <glyph glyph-name="four" unicode="4" horiz-adv-x="580" 
d="M465 206h90v-66h-90v-140h-70v140h-370v66l260 494h77l-260 -494h293v214h70v-214z" />
    <glyph glyph-name="five" unicode="5" horiz-adv-x="540" 
d="M147 418h118c65 0 121 -19 166 -58c46 -38 69 -90 69 -157s-23 -119 -69 -158c-45 -38 -101 -57 -166 -57c-105 0 -196 53 -225 149l59 34c20 -75 83 -115 166 -115c96 0 165 54 165 147s-69 147 -165 147h-190l25 350h375v-66h-313z" />
    <glyph glyph-name="six" unicode="6" horiz-adv-x="530" 
d="M265 450c69 0 125 -22 169 -65s66 -98 66 -166s-22 -124 -66 -167s-100 -64 -169 -64s-125 21 -169 64s-66 99 -66 167c0 53 14 99 43 140l229 341h79l-172 -256c18 4 37 6 56 6zM145 101c31 -30 71 -45 120 -45s89 15 119 45c31 30 46 69 46 118s-15 88 -46 118
c-30 30 -70 45 -119 45s-89 -15 -120 -45c-30 -30 -45 -69 -45 -118s15 -88 45 -118z" />
    <glyph glyph-name="seven" unicode="7" horiz-adv-x="490" 
d="M20 634v66h430v-66l-264 -634h-73l264 634h-357z" />
    <glyph glyph-name="eight" unicode="8" horiz-adv-x="548" 
d="M392 361c71 -33 116 -95 116 -171c0 -63 -22 -113 -67 -149c-45 -35 -100 -53 -167 -53s-122 18 -167 53c-45 36 -67 86 -67 149c0 76 45 138 116 171c-62 35 -93 88 -93 157c0 63 21 111 62 144c42 33 92 50 149 50s107 -17 148 -50c42 -33 63 -81 63 -144
c0 -69 -31 -122 -93 -157zM133 518c0 -80 64 -126 141 -126s141 46 141 126c0 85 -61 126 -141 126s-141 -41 -141 -126zM155 90c30 -23 70 -34 119 -34s89 11 119 34s45 57 45 100s-15 76 -45 99s-70 35 -119 35s-89 -12 -119 -35s-45 -56 -45 -99s15 -77 45 -100z" />
    <glyph glyph-name="nine" unicode="9" horiz-adv-x="530" 
d="M500 481c0 -53 -14 -99 -43 -140l-229 -341h-79l172 256c-18 -4 -37 -6 -56 -6c-69 0 -125 21 -169 64s-66 99 -66 167s22 123 66 166s100 65 169 65s125 -22 169 -65s66 -98 66 -166zM145 599c-30 -30 -45 -69 -45 -118s15 -88 45 -118c31 -30 71 -45 120 -45
s89 15 119 45c31 30 46 69 46 118s-15 88 -46 118c-30 30 -70 45 -119 45s-89 -15 -120 -45z" />
    <glyph glyph-name="colon" unicode=":" horiz-adv-x="230" 
d="M154 416c-21 -21 -57 -21 -78 0s-21 57 0 78s57 21 78 0s21 -57 0 -78zM154 6c-21 -21 -57 -21 -78 0s-21 57 0 78s57 21 78 0s21 -57 0 -78z" />
    <glyph glyph-name="semicolon" unicode=";" horiz-adv-x="245" 
d="M169 416c-21 -21 -57 -21 -78 0s-21 57 0 78s57 21 78 0s21 -57 0 -78zM100 85h80l-60 -225h-60z" />
    <glyph glyph-name="less" unicode="&#x3c;" horiz-adv-x="520" 
d="M60 385l400 175v-74l-325 -136l325 -136v-74l-400 175v70z" />
    <glyph glyph-name="equal" unicode="=" horiz-adv-x="540" 
d="M480 418h-420v64h420v-64zM480 218h-420v64h420v-64z" />
    <glyph glyph-name="greater" unicode="&#x3e;" horiz-adv-x="520" 
d="M60 486v74l400 -175v-70l-400 -175v74l325 136z" />
    <glyph glyph-name="question" unicode="?" horiz-adv-x="532" 
d="M280 190h-70c0 65 31 121 68 158c54 54 124 105 124 179c0 77 -58 117 -141 117c-82 0 -133 -34 -152 -101l-59 33c31 89 114 136 211 136c59 0 108 -16 149 -49c41 -32 62 -77 62 -136c0 -57 -31 -108 -68 -145c-54 -52 -124 -108 -124 -192zM284 6
c-21 -21 -57 -21 -78 0s-21 57 0 78s57 21 78 0s21 -57 0 -78z" />
    <glyph glyph-name="at" unicode="@" horiz-adv-x="794" 
d="M404 612c71 0 133 -17 188 -52c109 -68 162 -177 162 -290c0 -71 -14 -124 -43 -159s-62 -53 -101 -53c-56 0 -99 29 -112 86c-29 -36 -66 -54 -111 -54c-46 0 -85 15 -116 46s-46 69 -46 114s15 83 46 114s70 46 116 46c43 0 78 -16 106 -48v41h62v-216
c0 -64 22 -96 65 -96c59 0 104 56 104 179c0 89 -31 164 -93 224c-61 60 -137 90 -227 90c-93 0 -172 -32 -237 -96s-97 -143 -97 -238c0 -97 33 -177 100 -240s151 -94 252 -94c67 0 125 10 174 29v-30c-50 -18 -108 -27 -174 -27c-109 0 -200 34 -273 103
c-73 68 -109 154 -109 259c0 101 35 186 104 256c70 71 157 106 260 106zM317 177c21 -18 45 -27 74 -27s53 9 72 27c20 19 30 43 30 73s-10 54 -30 72c-19 19 -43 28 -72 28s-53 -9 -74 -28c-20 -18 -30 -42 -30 -72s10 -54 30 -73z" />
    <glyph glyph-name="A" unicode="A" horiz-adv-x="630" 
d="M620 0h-74l-65 172h-332l-65 -172h-74l269 700h72zM315 613l-141 -375h282z" />
    <glyph glyph-name="B" unicode="B" horiz-adv-x="620" 
d="M468 363c68 -29 112 -92 112 -168c0 -54 -19 -100 -57 -138s-84 -57 -138 -57h-305v700h282c52 0 96 -19 133 -56s55 -81 55 -132c0 -65 -27 -115 -82 -149zM362 634h-212v-244h212c33 0 60 12 83 35c23 24 35 53 35 87c0 33 -12 62 -35 86s-50 36 -83 36zM150 66h235
c35 0 64 12 88 37c25 25 37 56 37 92c0 35 -12 66 -37 91c-24 25 -53 38 -88 38h-235v-258z" />
    <glyph glyph-name="C" unicode="C" horiz-adv-x="745" 
d="M407 -12c-106 0 -194 35 -263 105s-104 156 -104 257s35 187 104 257s157 105 263 105c129 0 244 -67 303 -172l-62 -36c-44 85 -137 140 -241 140c-87 0 -159 -28 -214 -85s-83 -126 -83 -209s28 -152 83 -209s127 -85 214 -85c104 0 197 55 241 140l62 -35
c-57 -105 -174 -173 -303 -173z" />
    <glyph glyph-name="D" unicode="D" horiz-adv-x="720" 
d="M80 700h270c95 0 174 -34 236 -102c63 -67 94 -150 94 -248s-31 -181 -94 -249c-62 -67 -141 -101 -236 -101h-270v700zM150 66h200c77 0 139 27 188 82s74 122 74 202s-25 147 -74 202s-111 82 -188 82h-200v-568z" />
    <glyph glyph-name="E" unicode="E" horiz-adv-x="530" 
d="M150 320v-254h340v-66h-410v700h405v-66h-335v-248h310v-66h-310z" />
    <glyph glyph-name="F" unicode="F" horiz-adv-x="515" 
d="M475 700v-66h-325v-258h310v-66h-310v-310h-70v700h395z" />
    <glyph glyph-name="G" unicode="G" horiz-adv-x="789" 
d="M399 333h350v-36c0 -87 -31 -160 -93 -220c-62 -59 -145 -89 -249 -89c-106 0 -194 35 -263 105s-104 156 -104 257s35 187 104 257s157 105 263 105c65 0 124 -16 178 -47s96 -73 125 -125l-62 -36c-44 85 -137 140 -241 140c-87 0 -159 -28 -214 -85s-83 -126 -83 -209
s28 -152 83 -209s127 -85 214 -85c79 0 142 20 189 59c47 40 74 91 81 152h-278v66z" />
    <glyph glyph-name="H" unicode="H" horiz-adv-x="680" 
d="M530 393v307h70v-700h-70v327h-380v-327h-70v700h70v-307h380z" />
    <glyph glyph-name="I" unicode="I" horiz-adv-x="230" 
d="M80 0v700h70v-700h-70z" />
    <glyph glyph-name="J" unicode="J" horiz-adv-x="553" 
d="M253 -12c-97 0 -180 41 -213 120l59 35c22 -58 73 -87 154 -87c97 0 160 46 160 142v502h70v-502c0 -68 -22 -120 -66 -156c-43 -36 -98 -54 -164 -54z" />
    <glyph glyph-name="K" unicode="K" horiz-adv-x="580" 
d="M224 360l346 -360h-92l-328 339v-339h-70v700h70v-320l318 320h92z" />
    <glyph glyph-name="L" unicode="L" horiz-adv-x="490" 
d="M150 700v-634h320v-66h-390v700h70z" />
    <glyph glyph-name="M" unicode="M" horiz-adv-x="800" 
d="M633 700h87v-700h-70v594l-245 -410h-10l-245 410v-594h-70v700h87l233 -390z" />
    <glyph glyph-name="N" unicode="N" horiz-adv-x="680" 
d="M530 130v570h70v-700h-60l-390 570v-570h-70v700h60z" />
    <glyph glyph-name="O" unicode="O" horiz-adv-x="804" 
d="M659 93c-70 -70 -156 -105 -257 -105s-187 35 -257 105c-70 71 -105 156 -105 257s35 186 105 256c70 71 156 106 257 106s187 -35 257 -106c70 -70 105 -155 105 -256s-35 -186 -105 -257zM194 141c56 -57 125 -85 208 -85s152 28 208 85s84 127 84 209s-28 151 -84 208
s-125 86 -208 86s-152 -29 -208 -86s-84 -126 -84 -208s28 -152 84 -209z" />
    <glyph glyph-name="P" unicode="P" horiz-adv-x="590" 
d="M80 700h250c63 0 115 -21 157 -63s63 -94 63 -157s-21 -115 -63 -157s-94 -63 -157 -63h-180v-260h-70v700zM150 326h180c43 0 79 14 107 43c29 29 43 66 43 111s-14 81 -43 110c-28 29 -64 44 -107 44h-180v-308z" />
    <glyph glyph-name="Q" unicode="Q" horiz-adv-x="809" 
d="M658 94l80 -78l-47 -43l-81 80c-63 -43 -132 -65 -208 -65c-100 0 -185 35 -256 106s-106 156 -106 256s35 185 106 256s156 106 256 106s185 -35 256 -106s106 -156 106 -256s-35 -185 -106 -256zM402 56c57 0 109 15 158 46l-152 150l47 43l155 -152
c56 57 84 126 84 207s-29 151 -86 208s-125 86 -206 86s-150 -29 -207 -86s-85 -127 -85 -208s28 -151 85 -208s126 -86 207 -86z" />
    <glyph glyph-name="R" unicode="R" horiz-adv-x="610" 
d="M590 0h-80l-164 280h-196v-280h-70v700h280c58 0 107 -21 148 -62s62 -90 62 -148c0 -47 -14 -90 -43 -127c-28 -37 -64 -61 -108 -74zM360 634h-210v-288h210c39 0 72 14 99 42c27 29 41 63 41 102c0 40 -14 74 -41 102s-60 42 -99 42z" />
    <glyph glyph-name="S" unicode="S" horiz-adv-x="576" 
d="M300 -12c-128 0 -224 64 -260 171l60 35c25 -87 94 -138 201 -138c104 0 165 50 165 126c0 37 -13 64 -40 83s-71 38 -132 58c-73 24 -121 43 -144 58c-53 32 -80 78 -80 139c0 59 21 106 62 140c41 35 92 52 153 52c109 0 192 -63 231 -151l-59 -33
c-32 77 -89 116 -172 116c-87 0 -145 -45 -145 -121c0 -35 12 -61 36 -78s64 -35 119 -53l54 -19c11 -3 27 -9 48 -18c21 -8 37 -15 47 -22c20 -12 55 -36 67 -59c13 -21 25 -54 25 -90c0 -59 -22 -107 -65 -143c-43 -35 -100 -53 -171 -53z" />
    <glyph glyph-name="T" unicode="T" horiz-adv-x="540" 
d="M20 700h500v-66h-215v-634h-70v634h-215v66z" />
    <glyph glyph-name="U" unicode="U" horiz-adv-x="660" 
d="M70 238v462h70v-462c0 -112 70 -182 190 -182s190 70 190 182v462h70v-462c0 -76 -24 -137 -72 -182s-111 -68 -188 -68s-140 23 -188 68s-72 106 -72 182z" />
    <glyph glyph-name="V" unicode="V" horiz-adv-x="608" 
d="M340 0h-72l-258 700h76l218 -607l218 607h76z" />
    <glyph glyph-name="W" unicode="W" horiz-adv-x="1000" 
d="M317 0h-84l-203 700h74l173 -605l182 605h82l182 -605l173 605h74l-203 -700h-84l-183 608z" />
    <glyph glyph-name="X" unicode="X" horiz-adv-x="580" 
d="M330 361l230 -361h-80l-190 299l-190 -299h-80l230 361l-215 339h79l176 -276l176 276h79z" />
    <glyph glyph-name="Y" unicode="Y" horiz-adv-x="595" 
d="M506 700h79l-253 -413v-287h-70v289l-252 411h79l209 -343z" />
    <glyph glyph-name="Z" unicode="Z" horiz-adv-x="520" 
d="M480 634l-362 -568h372v-66h-450v66l362 568h-352v66h430v-66z" />
    <glyph glyph-name="bracketleft" unicode="[" horiz-adv-x="280" 
d="M260 800v-64h-134v-772h134v-64h-200v900h200z" />
    <glyph glyph-name="backslash" unicode="\" horiz-adv-x="530" 
d="M490 -100h-50l-400 900h50z" />
    <glyph glyph-name="bracketright" unicode="]" horiz-adv-x="280" 
d="M20 800h200v-900h-200v64h134v772h-134v64z" />
    <glyph glyph-name="asciicircum" unicode="^" horiz-adv-x="500" 
d="M216 700h68l176 -300h-77l-133 227l-133 -227h-77z" />
    <glyph glyph-name="underscore" unicode="_" horiz-adv-x="520" 
d="M480 -141h-440v64h440v-64z" />
    <glyph glyph-name="grave" unicode="`" horiz-adv-x="200" 
d="M180 570h-64l-96 130h80z" />
    <glyph glyph-name="a" unicode="a" 
d="M500 402v98h66v-500h-66v98c-46 -73 -113 -110 -202 -110c-71 0 -132 25 -183 76c-50 51 -75 113 -75 186s25 135 75 186c51 51 112 76 183 76c89 0 156 -37 202 -110zM163 109c38 -38 85 -57 140 -57s102 19 140 57c38 39 57 86 57 141s-19 102 -57 140
c-38 39 -85 58 -140 58s-102 -19 -140 -58c-38 -38 -57 -85 -57 -140s19 -102 57 -141z" />
    <glyph glyph-name="b" unicode="b" 
d="M338 512c71 0 132 -25 182 -76c51 -51 76 -113 76 -186s-25 -135 -76 -186c-50 -51 -111 -76 -182 -76c-89 0 -156 37 -202 110v-98h-66v700h66v-298c46 73 113 110 202 110zM193 109c38 -38 85 -57 140 -57s102 19 140 57c38 39 57 86 57 141s-19 102 -57 140
c-38 39 -85 58 -140 58s-102 -19 -140 -58c-38 -38 -57 -85 -57 -140s19 -102 57 -141z" />
    <glyph glyph-name="c" unicode="c" horiz-adv-x="552" 
d="M303 -12c-75 0 -138 25 -188 75c-50 51 -75 113 -75 187s25 136 75 186c50 51 113 76 188 76c99 0 183 -51 219 -131l-54 -31c-27 60 -90 98 -165 98c-55 0 -102 -19 -140 -58c-38 -38 -57 -85 -57 -140s19 -102 57 -141c38 -38 85 -57 140 -57c75 0 136 38 169 98
l55 -32c-41 -80 -127 -130 -224 -130z" />
    <glyph glyph-name="d" unicode="d" 
d="M500 402v298h66v-700h-66v98c-46 -73 -113 -110 -202 -110c-71 0 -132 25 -183 76c-50 51 -75 113 -75 186s25 135 75 186c51 51 112 76 183 76c89 0 156 -37 202 -110zM163 109c38 -38 85 -57 140 -57s102 19 140 57c38 39 57 86 57 141s-19 102 -57 140
c-38 39 -85 58 -140 58s-102 -19 -140 -58c-38 -38 -57 -85 -57 -140s19 -102 57 -141z" />
    <glyph glyph-name="e" unicode="e" horiz-adv-x="584" 
d="M301 512c74 0 134 -26 179 -79c46 -52 69 -114 69 -185c0 -7 -1 -18 -2 -31h-439c13 -101 92 -165 199 -165c76 0 133 34 161 85l58 -34c-44 -71 -123 -115 -220 -115c-79 0 -143 25 -192 74s-74 112 -74 188c0 75 24 137 73 187s111 75 188 75zM301 448
c-104 0 -180 -68 -193 -167h373c-7 53 -27 94 -61 123s-74 44 -119 44z" />
    <glyph glyph-name="f" unicode="f" horiz-adv-x="320" 
d="M320 712v-64c-97 8 -144 -32 -144 -128v-20h144v-64h-144v-436h-66v436h-85v64h85v20c0 131 75 201 210 192z" />
    <glyph glyph-name="g" unicode="g" 
d="M500 402v98h66v-480c0 -72 -25 -129 -74 -170s-108 -62 -177 -62c-117 0 -196 41 -237 122l58 33c30 -61 90 -91 179 -91c115 0 185 65 185 168v78c-46 -73 -113 -110 -202 -110c-71 0 -132 25 -183 76c-50 51 -75 113 -75 186s25 135 75 186c51 51 112 76 183 76
c89 0 156 -37 202 -110zM163 109c38 -38 85 -57 140 -57s102 19 140 57c38 39 57 86 57 141s-19 102 -57 140c-38 39 -85 58 -140 58s-102 -19 -140 -58c-38 -38 -57 -85 -57 -140s19 -102 57 -141z" />
    <glyph glyph-name="h" unicode="h" horiz-adv-x="558" 
d="M304 512c121 0 196 -80 196 -205v-307h-66v307c0 89 -49 141 -136 141c-96 0 -162 -59 -162 -186v-262h-66v700h66v-278c37 60 93 90 168 90z" />
    <glyph glyph-name="i" unicode="i" horiz-adv-x="206" 
d="M137 587c-19 -19 -49 -19 -68 0s-19 49 0 68s49 19 68 0s19 -49 0 -68zM136 0h-66v500h66v-500z" />
    <glyph glyph-name="j" unicode="j" horiz-adv-x="230" 
d="M94 -40v540h66v-540c0 -120 -65 -183 -180 -172v64c79 -8 114 23 114 108zM161 587c-19 -19 -49 -19 -68 0s-19 49 0 68s49 19 68 0s19 -49 0 -68z" />
    <glyph glyph-name="k" unicode="k" horiz-adv-x="494" 
d="M206 260l268 -260h-88l-250 241v-241h-66v700h66v-421l238 221h90z" />
    <glyph glyph-name="l" unicode="l" horiz-adv-x="206" 
d="M136 0h-66v730h66v-730z" />
    <glyph glyph-name="m" unicode="m" horiz-adv-x="848" 
d="M603 512c112 0 187 -77 187 -200v-312h-66v312c0 87 -49 136 -122 136c-83 0 -139 -54 -139 -171v-277h-66v312c0 88 -45 136 -117 136c-80 0 -144 -55 -144 -171v-277h-66v500h66v-73c36 57 87 85 153 85c72 0 123 -30 152 -91c36 61 90 91 162 91z" />
    <glyph glyph-name="n" unicode="n" horiz-adv-x="558" 
d="M304 512c121 0 196 -80 196 -205v-307h-66v307c0 89 -49 141 -136 141c-96 0 -162 -59 -162 -186v-262h-66v500h66v-78c37 60 93 90 168 90z" />
    <glyph glyph-name="o" unicode="o" horiz-adv-x="606" 
d="M489 63c-51 -50 -113 -75 -186 -75s-136 25 -187 75c-51 51 -76 113 -76 187s25 136 76 186c51 51 114 76 187 76s135 -25 186 -76c51 -50 77 -112 77 -186s-26 -136 -77 -187zM163 109c38 -38 85 -57 140 -57s102 19 140 57c38 39 57 86 57 141s-19 102 -57 140
c-38 39 -85 58 -140 58s-102 -19 -140 -58c-38 -38 -57 -85 -57 -140s19 -102 57 -141z" />
    <glyph glyph-name="p" unicode="p" 
d="M338 512c71 0 132 -25 182 -76c51 -51 76 -113 76 -186s-25 -135 -76 -186c-50 -51 -111 -76 -182 -76c-89 0 -156 37 -202 110v-298h-66v700h66v-98c46 73 113 110 202 110zM193 109c38 -38 85 -57 140 -57s102 19 140 57c38 39 57 86 57 141s-19 102 -57 140
c-38 39 -85 58 -140 58s-102 -19 -140 -58c-38 -38 -57 -85 -57 -140s19 -102 57 -141z" />
    <glyph glyph-name="q" unicode="q" 
d="M500 402v98h66v-700h-66v298c-46 -73 -113 -110 -202 -110c-71 0 -132 25 -183 76c-50 51 -75 113 -75 186s25 135 75 186c51 51 112 76 183 76c89 0 156 -37 202 -110zM163 109c38 -38 85 -57 140 -57s102 19 140 57c38 39 57 86 57 141s-19 102 -57 140
c-38 39 -85 58 -140 58s-102 -19 -140 -58c-38 -38 -57 -85 -57 -140s19 -102 57 -141z" />
    <glyph glyph-name="r" unicode="r" horiz-adv-x="314" 
d="M136 500v-83c31 61 83 91 158 91v-64c-91 0 -158 -51 -158 -166v-278h-66v500h66z" />
    <glyph glyph-name="s" unicode="s" horiz-adv-x="454" 
d="M122 369c0 -45 46 -70 103 -85c84 -21 189 -44 189 -152c0 -43 -17 -77 -51 -104c-33 -27 -77 -40 -130 -40c-96 0 -166 47 -193 115l56 33c19 -52 70 -84 137 -84c65 0 115 25 115 80c0 45 -46 70 -103 85c-84 21 -189 44 -189 152c0 41 16 75 48 102
c33 27 74 41 123 41c81 0 146 -39 175 -102l-55 -32c-19 47 -59 70 -120 70c-57 0 -105 -28 -105 -79z" />
    <glyph glyph-name="t" unicode="t" horiz-adv-x="375" 
d="M335 500v-64h-144v-303c0 -86 48 -79 144 -75v-58c-140 -21 -210 17 -210 133v303h-105v64h105v120l66 20v-140h144z" />
    <glyph glyph-name="u" unicode="u" horiz-adv-x="558" 
d="M422 238v262h66v-500h-66v78c-37 -60 -93 -90 -168 -90c-121 0 -196 80 -196 205v307h66v-307c0 -89 49 -141 136 -141c96 0 162 59 162 186z" />
    <glyph glyph-name="v" unicode="v" horiz-adv-x="510" 
d="M255 69l175 431h70l-205 -500h-80l-205 500h70z" />
    <glyph glyph-name="w" unicode="w" horiz-adv-x="770" 
d="M549 85l123 415h68l-154 -500h-72l-129 403l-129 -403h-72l-154 500h68l123 -415l131 415h66z" />
    <glyph glyph-name="x" unicode="x" horiz-adv-x="510" 
d="M295 259l195 -259h-79l-156 206l-156 -206h-79l196 259l-183 241h79l143 -189l143 189h79z" />
    <glyph glyph-name="y" unicode="y" horiz-adv-x="510" 
d="M268 81l162 419h70l-214 -546c-39 -99 -114 -161 -202 -154v62c60 -7 106 28 137 104l13 31l-224 503h70z" />
    <glyph glyph-name="z" unicode="z" horiz-adv-x="470" 
d="M420 456l-278 -392h288v-64h-380v44l278 392h-268v64h360v-44z" />
    <glyph glyph-name="braceleft" unicode="{" horiz-adv-x="354" 
d="M334 -44v-64c-116 -11 -180 43 -180 162v167c0 80 -29 98 -104 98v64c75 0 104 18 104 98v167c0 119 64 173 180 162v-64c-80 8 -114 -15 -114 -98v-167c0 -71 -26 -115 -78 -130c52 -15 78 -59 78 -130v-167c0 -83 34 -106 114 -98z" />
    <glyph glyph-name="bar" unicode="|" horiz-adv-x="226" 
d="M146 -200h-66v920h66v-920z" />
    <glyph glyph-name="braceright" unicode="}" horiz-adv-x="354" 
d="M20 -108v64c80 -8 114 15 114 98v167c0 71 26 115 78 130c-52 15 -78 59 -78 130v167c0 83 -34 106 -114 98v64c116 11 180 -43 180 -162v-167c0 -80 29 -98 104 -98v-64c-75 0 -104 -18 -104 -98v-167c0 -119 -64 -173 -180 -162z" />
    <glyph glyph-name="asciitilde" unicode="~" horiz-adv-x="594" 
d="M474 414l60 -28c-35 -113 -116 -143 -252 -64c-51 29 -89 40 -112 33s-39 -30 -50 -69l-60 28c35 112 120 141 252 64c103 -64 141 -37 162 36z" />
    <glyph glyph-name="exclamdown" unicode="&#xa1;" horiz-adv-x="230" 
d="M76 494c21 21 57 21 78 0s21 -57 0 -78s-57 -21 -78 0s-21 57 0 78zM75 0l15 310h50l15 -310v-200h-80v200z" />
    <glyph glyph-name="cent" unicode="&#xa2;" horiz-adv-x="552" 
d="M472 250l55 -32c-41 -80 -127 -130 -224 -130c-22 0 -45 3 -68 8l-31 -96h-50l36 112c-92 40 -150 131 -150 238c0 74 25 136 75 186c50 51 113 76 188 76c18 0 34 -1 47 -4l30 92h50l-34 -105c59 -22 101 -60 126 -114l-54 -31c-19 39 -49 67 -91 84l-122 -376
c15 -4 31 -6 48 -6c75 0 136 38 169 98zM106 350c0 -76 41 -143 104 -176l120 372c-12 1 -21 2 -27 2c-55 0 -102 -19 -140 -58c-38 -38 -57 -85 -57 -140z" />
    <glyph glyph-name="sterling" unicode="&#xa3;" horiz-adv-x="585" 
d="M204 289v-221h366v-68h-530v68h94v221h-74v62h74v151c0 67 20 119 61 155c41 37 89 55 144 55c91 0 155 -45 191 -134l-57 -32c-24 65 -69 98 -134 98c-76 0 -135 -47 -135 -142v-151h231v-62h-231z" />
    <glyph glyph-name="currency" unicode="&#xa4;" horiz-adv-x="552" 
d="M442 216l70 -70l-32 -32l-70 70c-39 -31 -84 -46 -134 -46s-95 15 -134 46l-70 -70l-32 32l70 70c-31 39 -47 83 -47 134s16 95 47 134l-70 70l32 32l70 -70c39 31 84 46 134 46s95 -15 134 -46l70 70l32 -32l-70 -70c31 -37 47 -82 47 -134s-16 -97 -47 -134zM171 455
c-28 -29 -42 -64 -42 -105s14 -76 42 -105c29 -29 64 -43 105 -43s76 14 104 43c29 29 43 64 43 105s-14 76 -43 105c-28 29 -63 43 -104 43s-76 -14 -105 -43z" />
    <glyph glyph-name="yen" unicode="&#xa5;" horiz-adv-x="575" 
d="M506 700h79l-216 -353h134v-58h-170l-1 -2v-58h171v-58h-171v-171h-70v171h-189v58h189v60h-189v58h153l-216 353h79l209 -343z" />
    <glyph glyph-name="brokenbar" unicode="&#xa6;" horiz-adv-x="226" 
d="M146 350h-66v370h66v-370zM146 -200h-66v370h66v-370z" />
    <glyph glyph-name="section" unicode="&#xa7;" horiz-adv-x="510" 
d="M406 139c29 -28 44 -62 44 -103c0 -42 -17 -77 -50 -105c-33 -29 -76 -43 -130 -43c-105 0 -177 49 -209 133l56 32c21 -67 72 -101 153 -101c67 0 114 31 114 84c0 19 -8 37 -24 53c-32 32 -63 45 -128 72l-15 6c-45 19 -75 35 -108 62c-32 28 -49 65 -49 110
c0 49 24 91 71 125c-27 27 -41 61 -41 100c0 41 16 76 48 105s73 43 123 43c87 0 150 -44 181 -120l-54 -31c-23 58 -65 87 -127 87c-57 0 -105 -31 -105 -84c0 -19 7 -36 22 -52c15 -15 31 -27 47 -36c16 -8 40 -19 72 -33l16 -7c97 -44 157 -90 157 -175
c0 -49 -21 -89 -64 -122zM126 339c0 -55 43 -87 116 -115c51 -19 89 -35 113 -49c33 23 49 52 49 86c0 56 -43 87 -119 118c-47 18 -82 34 -105 48c-36 -22 -54 -51 -54 -88z" />
    <glyph glyph-name="dieresis" unicode="&#xa8;" horiz-adv-x="320" 
d="M97 588c-17 -17 -47 -17 -64 0s-17 47 0 64s47 17 64 0s17 -47 0 -64zM287 588c-17 -17 -47 -17 -64 0s-17 47 0 64s47 17 64 0s17 -47 0 -64z" />
    <glyph glyph-name="copyright" unicode="&#xa9;" horiz-adv-x="804" 
d="M658 94c-71 -71 -156 -106 -256 -106s-185 35 -256 106s-106 156 -106 256s35 185 106 256s156 106 256 106s185 -35 256 -106s106 -156 106 -256s-35 -185 -106 -256zM167 113c65 -65 144 -97 235 -97s169 32 234 97s98 144 98 237s-33 171 -98 236s-143 98 -234 98
s-170 -33 -235 -98s-97 -143 -97 -236s32 -172 97 -237zM405 158c-55 0 -101 19 -138 56s-56 83 -56 136s19 99 56 136s83 56 138 56c71 0 132 -36 164 -93l-55 -32c-19 41 -62 63 -109 63c-39 0 -70 -13 -94 -39c-23 -25 -35 -56 -35 -91s12 -66 35 -92
c24 -25 55 -38 94 -38c48 0 91 23 110 64l55 -33c-32 -57 -94 -93 -165 -93z" />
    <glyph glyph-name="guillemotleft" unicode="&#xab;" horiz-adv-x="492" 
d="M180 489h82l-110 -180l110 -180h-82l-110 180zM340 489h82l-110 -180l110 -180h-82l-110 180z" />
    <glyph glyph-name="logicalnot" unicode="&#xac;" horiz-adv-x="520" 
d="M60 318v64h400v-180h-66v116h-334z" />
    <glyph glyph-name="registered" unicode="&#xae;" horiz-adv-x="804" 
d="M146 606c71 71 156 106 256 106s185 -35 256 -106s106 -156 106 -256s-35 -185 -106 -256s-156 -106 -256 -106s-185 35 -256 106s-106 156 -106 256s35 185 106 256zM167 113c65 -65 144 -97 235 -97s169 32 234 97s98 144 98 237s-33 171 -98 236s-143 98 -234 98
s-170 -33 -235 -98s-97 -143 -97 -236s32 -172 97 -237zM546 416c0 -53 -23 -89 -68 -107l78 -144h-69l-71 132h-10h-52v-132h-62v370h114c88 0 140 -52 140 -119zM410 475h-56v-118h56c47 0 74 23 74 59s-27 59 -74 59z" />
    <glyph glyph-name="overscore" unicode="&#xaf;" horiz-adv-x="300" 
d="M280 580h-260v58h260v-58z" />
    <glyph glyph-name="degree" unicode="&#xb0;" horiz-adv-x="386" 
d="M193 510c-43 0 -80 14 -109 43s-44 65 -44 107s15 77 44 106s66 44 109 44s80 -15 109 -44s44 -64 44 -106s-14 -78 -43 -107s-65 -43 -110 -43zM129 596c33 -35 95 -35 128 0s33 93 0 128s-95 35 -128 0s-33 -93 0 -128z" />
    <glyph glyph-name="plusminus" unicode="&#xb1;" horiz-adv-x="540" 
d="M302 610v-163h178v-64h-178v-163h-64v163h-178v64h178v163h64zM480 90h-420v64h420v-64z" />
    <glyph glyph-name="acute" unicode="&#xb4;" horiz-adv-x="200" 
d="M20 570l80 130h80l-96 -130h-64z" />
    <glyph glyph-name="uni00B5" unicode="&#xb5;" horiz-adv-x="606" 
d="M537 64h39v-64h-47c-51 0 -86 32 -94 81c-37 -62 -93 -93 -169 -93c-57 0 -100 17 -130 51v-239h-66v700h66v-307c0 -89 49 -141 136 -141c96 0 162 59 162 186v262h66v-400c0 -21 14 -36 37 -36z" />
    <glyph glyph-name="paragraph" unicode="&#xb6;" horiz-adv-x="580" 
d="M240 700h300v-62h-60v-838h-64v838h-112v-838h-64v500c-55 0 -103 19 -142 58s-58 87 -58 142s19 102 58 141s87 59 142 59z" />
    <glyph glyph-name="middot" unicode="&#xb7;" horiz-adv-x="230" 
d="M154 311c-21 -21 -57 -21 -78 0s-21 57 0 78s57 21 78 0s21 -57 0 -78z" />
    <glyph glyph-name="cedilla" unicode="&#xb8;" horiz-adv-x="245" 
d="M132 0v-45c57 -11 93 -40 93 -81c0 -68 -68 -98 -205 -90v54c98 -8 147 4 147 36c0 25 -31 39 -93 41v85h58z" />
    <glyph glyph-name="guillemotright" unicode="&#xbb;" horiz-adv-x="492" 
d="M70 489h82l110 -180l-110 -180h-82l110 180zM230 489h82l110 -180l-110 -180h-82l110 180z" />
    <glyph glyph-name="onequarter" unicode="&#xbc;" horiz-adv-x="821" 
d="M179 700v-400h-62v332l-91 -27l-16 53l116 42h53zM127 0l400 700h60l-400 -700h-60zM750 133h51v-58h-51v-75h-62v75h-206v58l149 267h67l-148 -267h138v96h62v-96z" />
    <glyph glyph-name="onehalf" unicode="&#xbd;" horiz-adv-x="807" 
d="M179 700v-400h-62v332l-91 -27l-16 53l116 42h53zM127 0l400 700h60l-400 -700h-60zM708 165l-118 -105h188v-60h-280v51l168 154c28 25 42 53 42 85c0 37 -28 62 -72 62c-41 0 -70 -21 -87 -62l-52 29c25 62 72 93 139 93c80 0 134 -53 134 -122c0 -46 -21 -88 -62 -125
z" />
    <glyph glyph-name="threequarters" unicode="&#xbe;" horiz-adv-x="926" 
d="M313 417c0 -77 -58 -129 -146 -129c-68 0 -115 28 -142 84l52 30c17 -36 47 -54 90 -54c53 0 84 26 84 69c0 41 -32 69 -84 69h-4l-31 47l90 107h-184v60h258v-60l-89 -106c67 -13 106 -56 106 -117zM232 0l400 700h60l-400 -700h-60zM855 133h51v-58h-51v-75h-62v75
h-206v58l149 267h67l-148 -267h138v96h62v-96z" />
    <glyph glyph-name="questiondown" unicode="&#xbf;" horiz-adv-x="532" 
d="M248 494c21 21 57 21 78 0s21 -57 0 -78s-57 -21 -78 0s-21 57 0 78zM252 310h70c0 -65 -31 -121 -68 -158c-54 -54 -124 -105 -124 -179c0 -77 58 -117 141 -117c82 0 133 34 152 101l59 -33c-31 -89 -114 -136 -211 -136c-59 0 -109 16 -150 49c-41 32 -61 77 -61 136
c0 57 31 108 68 144c54 54 124 109 124 193z" />
    <glyph glyph-name="Agrave" unicode="&#xc0;" horiz-adv-x="630" 
d="M295 900l80 -130h-64l-96 130h80zM620 0h-74l-65 172h-332l-65 -172h-74l269 700h72zM315 613l-141 -375h282z" />
    <glyph glyph-name="Aacute" unicode="&#xc1;" horiz-adv-x="630" 
d="M345 900h80l-96 -130h-64zM620 0h-74l-65 172h-332l-65 -172h-74l269 700h72zM315 613l-141 -375h282z" />
    <glyph glyph-name="Acircumflex" unicode="&#xc2;" horiz-adv-x="630" 
d="M385 770l-70 87l-70 -87h-75l106 130h78l106 -130h-75zM620 0h-74l-65 172h-332l-65 -172h-74l269 700h72zM315 613l-141 -375h282z" />
    <glyph glyph-name="Atilde" unicode="&#xc3;" horiz-adv-x="630" 
d="M315 803c-31 23 -44 32 -60 33s-22 -17 -22 -56h-58c0 121 72 140 141 87c53 -41 81 -55 81 23h58c0 -121 -71 -140 -140 -87zM620 0h-74l-65 172h-332l-65 -172h-74l269 700h72zM315 613l-141 -375h282z" />
    <glyph glyph-name="Adieresis" unicode="&#xc4;" horiz-adv-x="630" 
d="M252 788c-17 -17 -47 -17 -64 0s-17 47 0 64s47 17 64 0s17 -47 0 -64zM442 788c-17 -17 -47 -17 -64 0s-17 47 0 64s47 17 64 0s17 -47 0 -64zM620 0h-74l-65 172h-332l-65 -172h-74l269 700h72zM315 613l-141 -375h282z" />
    <glyph glyph-name="Aring" unicode="&#xc5;" horiz-adv-x="630" 
d="M620 0h-74l-65 172h-332l-65 -172h-74l257 669c-39 17 -58 48 -58 91c0 57 43 100 106 100s106 -43 106 -100c0 -43 -19 -74 -58 -91zM315 809c-67 6 -67 -104 0 -98c69 -6 69 104 0 98zM315 613l-141 -375h282z" />
    <glyph glyph-name="AE" unicode="&#xc6;" horiz-adv-x="880" 
d="M520 320v-254h320v-66h-390v172h-265l-105 -172h-80l145 237v1h1l283 462h406v-66h-315v-248h300v-66h-300zM450 607l-225 -369h225v369z" />
    <glyph glyph-name="Ccedilla" unicode="&#xc7;" horiz-adv-x="745" 
d="M407 56c104 0 197 55 241 140l62 -35c-53 -97 -157 -163 -276 -172v-34c57 -11 93 -40 93 -81c0 -68 -68 -98 -205 -90v54c98 -8 147 4 147 36c0 25 -31 39 -93 41v74c-98 7 -179 45 -242 114s-94 151 -94 247c0 101 35 187 104 257s157 105 263 105
c129 0 244 -67 303 -172l-62 -36c-44 85 -137 140 -241 140c-87 0 -159 -28 -214 -85s-83 -126 -83 -209s28 -152 83 -209s127 -85 214 -85z" />
    <glyph glyph-name="Egrave" unicode="&#xc8;" horiz-adv-x="530" 
d="M263 900l80 -130h-64l-96 130h80zM150 320v-254h340v-66h-410v700h405v-66h-335v-248h310v-66h-310z" />
    <glyph glyph-name="Eacute" unicode="&#xc9;" horiz-adv-x="530" 
d="M313 900h80l-96 -130h-64zM150 320v-254h340v-66h-410v700h405v-66h-335v-248h310v-66h-310z" />
    <glyph glyph-name="Ecircumflex" unicode="&#xca;" horiz-adv-x="530" 
d="M353 770l-70 87l-70 -87h-75l106 130h78l106 -130h-75zM150 320v-254h340v-66h-410v700h405v-66h-335v-248h310v-66h-310z" />
    <glyph glyph-name="Edieresis" unicode="&#xcb;" horiz-adv-x="530" 
d="M220 788c-17 -17 -47 -17 -64 0s-17 47 0 64s47 17 64 0s17 -47 0 -64zM410 788c-17 -17 -47 -17 -64 0s-17 47 0 64s47 17 64 0s17 -47 0 -64zM150 320v-254h340v-66h-410v700h405v-66h-335v-248h310v-66h-310z" />
    <glyph glyph-name="Igrave" unicode="&#xcc;" horiz-adv-x="230" 
d="M175 770h-64l-96 130h80zM80 700v-700h70v700h-70z" />
    <glyph glyph-name="Iacute" unicode="&#xcd;" horiz-adv-x="230" 
d="M65 770l80 130h80l-96 -130h-64zM80 700v-700h70v700h-70z" />
    <glyph glyph-name="Icircumflex" unicode="&#xce;" horiz-adv-x="230" 
d="M76 900h78l106 -130h-75l-70 87l-70 -87h-75zM150 0h-70v700h70v-700z" />
    <glyph glyph-name="Idieresis" unicode="&#xcf;" horiz-adv-x="230" 
d="M52 788c-17 -17 -47 -17 -64 0s-17 47 0 64s47 17 64 0s17 -47 0 -64zM242 788c-17 -17 -47 -17 -64 0s-17 47 0 64s47 17 64 0s17 -47 0 -64zM80 0v700h70v-700h-70z" />
    <glyph glyph-name="Eth" unicode="&#xd0;" horiz-adv-x="740" 
d="M100 700h270c95 0 174 -34 236 -102c63 -67 94 -150 94 -248s-31 -181 -94 -249c-62 -67 -141 -101 -236 -101h-270v318h-70v64h70v318zM170 66h200c77 0 139 27 188 82s74 122 74 202s-25 147 -74 202s-111 82 -188 82h-200v-252h220v-64h-220v-252z" />
    <glyph glyph-name="Ntilde" unicode="&#xd1;" horiz-adv-x="680" 
d="M258 780h-58c0 121 72 140 141 87c53 -41 81 -55 81 23h58c0 -121 -71 -140 -140 -87c-31 23 -44 32 -60 33s-22 -17 -22 -56zM530 130v570h70v-700h-60l-390 570v-570h-70v700h60z" />
    <glyph glyph-name="Ograve" unicode="&#xd2;" horiz-adv-x="804" 
d="M462 770h-64l-96 130h80zM659 93c70 71 105 156 105 257s-35 186 -105 256c-70 71 -156 106 -257 106s-187 -35 -257 -106c-70 -70 -105 -155 -105 -256s35 -186 105 -257c70 -70 156 -105 257 -105s187 35 257 105zM194 141c-56 57 -84 127 -84 209s28 151 84 208
s125 86 208 86s152 -29 208 -86s84 -126 84 -208s-28 -152 -84 -209s-125 -85 -208 -85s-152 28 -208 85z" />
    <glyph glyph-name="Oacute" unicode="&#xd3;" horiz-adv-x="804" 
d="M352 770l80 130h80l-96 -130h-64zM659 93c70 71 105 156 105 257s-35 186 -105 256c-70 71 -156 106 -257 106s-187 -35 -257 -106c-70 -70 -105 -155 -105 -256s35 -186 105 -257c70 -70 156 -105 257 -105s187 35 257 105zM194 141c-56 57 -84 127 -84 209
s28 151 84 208s125 86 208 86s152 -29 208 -86s84 -126 84 -208s-28 -152 -84 -209s-125 -85 -208 -85s-152 28 -208 85z" />
    <glyph glyph-name="Ocircumflex" unicode="&#xd4;" horiz-adv-x="804" 
d="M472 770l-70 87l-70 -87h-75l106 130h78l106 -130h-75zM145 606c70 71 156 106 257 106s187 -35 257 -106c70 -70 105 -155 105 -256s-35 -186 -105 -257c-70 -70 -156 -105 -257 -105s-187 35 -257 105c-70 71 -105 156 -105 257s35 186 105 256zM194 141
c56 -57 125 -85 208 -85s152 28 208 85s84 127 84 209s-28 151 -84 208s-125 86 -208 86s-152 -29 -208 -86s-84 -126 -84 -208s28 -152 84 -209z" />
    <glyph glyph-name="Otilde" unicode="&#xd5;" horiz-adv-x="804" 
d="M320 780h-58c0 121 72 140 141 87c53 -41 81 -55 81 23h58c0 -121 -71 -140 -140 -87c-31 23 -44 32 -60 33s-22 -17 -22 -56zM659 93c-70 -70 -156 -105 -257 -105s-187 35 -257 105c-70 71 -105 156 -105 257s35 186 105 256c70 71 156 106 257 106s187 -35 257 -106
c70 -70 105 -155 105 -256s-35 -186 -105 -257zM194 141c56 -57 125 -85 208 -85s152 28 208 85s84 127 84 209s-28 151 -84 208s-125 86 -208 86s-152 -29 -208 -86s-84 -126 -84 -208s28 -152 84 -209z" />
    <glyph glyph-name="Odieresis" unicode="&#xd6;" horiz-adv-x="804" 
d="M339 788c-17 -17 -47 -17 -64 0s-17 47 0 64s47 17 64 0s17 -47 0 -64zM529 788c-17 -17 -47 -17 -64 0s-17 47 0 64s47 17 64 0s17 -47 0 -64zM659 93c-70 -70 -156 -105 -257 -105s-187 35 -257 105c-70 71 -105 156 -105 257s35 186 105 256c70 71 156 106 257 106
s187 -35 257 -106c70 -70 105 -155 105 -256s-35 -186 -105 -257zM194 141c56 -57 125 -85 208 -85s152 28 208 85s84 127 84 209s-28 151 -84 208s-125 86 -208 86s-152 -29 -208 -86s-84 -126 -84 -208s28 -152 84 -209z" />
    <glyph glyph-name="multiply" unicode="&#xd7;" horiz-adv-x="471" 
d="M376 534l45 -42l-142 -142l142 -142l-45 -42l-140 141l-141 -141l-45 42l142 142l-142 142l45 42l141 -140z" />
    <glyph glyph-name="Oslash" unicode="&#xd8;" horiz-adv-x="814" 
d="M724 673l-56 -65c71 -71 106 -157 106 -258s-35 -186 -105 -257c-70 -70 -156 -105 -257 -105c-79 0 -151 23 -215 69l-49 -57l-47 27l56 65c-71 70 -107 156 -107 258c0 101 35 186 105 256c70 71 156 106 257 106c81 0 153 -23 216 -70l49 58zM120 350
c0 -80 27 -149 81 -206l382 446c-51 36 -108 54 -171 54c-83 0 -152 -29 -208 -86s-84 -126 -84 -208zM412 56c83 0 152 28 208 85s84 127 84 209c0 81 -27 149 -81 205l-381 -446c50 -35 107 -53 170 -53z" />
    <glyph glyph-name="Ugrave" unicode="&#xd9;" horiz-adv-x="660" 
d="M390 770h-64l-96 130h80zM70 238c0 -76 24 -137 72 -182s111 -68 188 -68s140 23 188 68s72 106 72 182v462h-70v-462c0 -112 -70 -182 -190 -182s-190 70 -190 182v462h-70v-462z" />
    <glyph glyph-name="Uacute" unicode="&#xda;" horiz-adv-x="660" 
d="M298 770l80 130h80l-96 -130h-64zM70 238c0 -76 24 -137 72 -182s111 -68 188 -68s140 23 188 68s72 106 72 182v462h-70v-462c0 -112 -70 -182 -190 -182s-190 70 -190 182v462h-70v-462z" />
    <glyph glyph-name="Ucircumflex" unicode="&#xdb;" horiz-adv-x="660" 
d="M400 770l-70 87l-70 -87h-75l106 130h78l106 -130h-75zM520 238v462h70v-462c0 -76 -24 -137 -72 -182s-111 -68 -188 -68s-140 23 -188 68s-72 106 -72 182v462h70v-462c0 -112 70 -182 190 -182s190 70 190 182z" />
    <glyph glyph-name="Udieresis" unicode="&#xdc;" horiz-adv-x="660" 
d="M267 788c-17 -17 -47 -17 -64 0s-17 47 0 64s47 17 64 0s17 -47 0 -64zM457 788c-17 -17 -47 -17 -64 0s-17 47 0 64s47 17 64 0s17 -47 0 -64zM70 238v462h70v-462c0 -112 70 -182 190 -182s190 70 190 182v462h70v-462c0 -76 -24 -137 -72 -182s-111 -68 -188 -68
s-140 23 -188 68s-72 106 -72 182z" />
    <glyph glyph-name="Yacute" unicode="&#xdd;" horiz-adv-x="595" 
d="M324 900h80l-96 -130h-64zM506 700h79l-253 -413v-287h-70v289l-252 411h79l209 -343z" />
    <glyph glyph-name="Thorn" unicode="&#xde;" horiz-adv-x="590" 
d="M150 570h180c63 0 115 -21 157 -63s63 -94 63 -157s-21 -115 -63 -157s-94 -63 -157 -63h-180v-130h-70v700h70v-130zM150 196h180c43 0 79 14 107 43c29 29 43 66 43 111s-14 81 -43 110c-28 29 -64 44 -107 44h-180v-308z" />
    <glyph glyph-name="germandbls" unicode="&#xdf;" horiz-adv-x="516" 
d="M289 -3v60c94 -5 141 23 141 84c0 43 -36 95 -72 130c-36 36 -72 84 -72 123c-4 49 92 111 88 161c0 59 -44 93 -109 93c-72 0 -129 -41 -129 -133v-515h-66v515c0 61 18 109 54 144c37 35 84 53 141 53c54 0 97 -15 128 -45s47 -67 47 -112c4 -67 -92 -129 -88 -161
c0 -29 36 -71 72 -104s72 -92 72 -149c0 -95 -76 -153 -207 -144z" />
    <glyph glyph-name="agrave" unicode="&#xe0;" 
d="M325 700l80 -130h-64l-96 130h80zM500 402v98h66v-500h-66v98c-46 -73 -113 -110 -202 -110c-71 0 -132 25 -183 76c-50 51 -75 113 -75 186s25 135 75 186c51 51 112 76 183 76c89 0 156 -37 202 -110zM163 109c38 -38 85 -57 140 -57s102 19 140 57c38 39 57 86 57 141
s-19 102 -57 140c-38 39 -85 58 -140 58s-102 -19 -140 -58c-38 -38 -57 -85 -57 -140s19 -102 57 -141z" />
    <glyph glyph-name="aacute" unicode="&#xe1;" 
d="M399 700h80l-96 -130h-64zM500 402v98h66v-500h-66v98c-46 -73 -113 -110 -202 -110c-71 0 -132 25 -183 76c-50 51 -75 113 -75 186s25 135 75 186c51 51 112 76 183 76c89 0 156 -37 202 -110zM163 109c38 -38 85 -57 140 -57s102 19 140 57c38 39 57 86 57 141
s-19 102 -57 140c-38 39 -85 58 -140 58s-102 -19 -140 -58c-38 -38 -57 -85 -57 -140s19 -102 57 -141z" />
    <glyph glyph-name="acircumflex" unicode="&#xe2;" 
d="M413 570l-70 87l-70 -87h-75l106 130h78l106 -130h-75zM500 402v98h66v-500h-66v98c-46 -73 -113 -110 -202 -110c-71 0 -132 25 -183 76c-50 51 -75 113 -75 186s25 135 75 186c51 51 112 76 183 76c89 0 156 -37 202 -110zM163 109c38 -38 85 -57 140 -57
s102 19 140 57c38 39 57 86 57 141s-19 102 -57 140c-38 39 -85 58 -140 58s-102 -19 -140 -58c-38 -38 -57 -85 -57 -140s19 -102 57 -141z" />
    <glyph glyph-name="atilde" unicode="&#xe3;" 
d="M331 603c-31 23 -44 32 -60 33s-22 -17 -22 -56h-58c0 121 72 140 141 87c53 -41 81 -55 81 23h58c0 -121 -71 -140 -140 -87zM500 402v98h66v-500h-66v98c-46 -73 -113 -110 -202 -110c-71 0 -132 25 -183 76c-50 51 -75 113 -75 186s25 135 75 186c51 51 112 76 183 76
c89 0 156 -37 202 -110zM163 109c38 -38 85 -57 140 -57s102 19 140 57c38 39 57 86 57 141s-19 102 -57 140c-38 39 -85 58 -140 58s-102 -19 -140 -58c-38 -38 -57 -85 -57 -140s19 -102 57 -141z" />
    <glyph glyph-name="adieresis" unicode="&#xe4;" 
d="M242 588c-17 -17 -47 -17 -64 0s-17 47 0 64s47 17 64 0s17 -47 0 -64zM432 588c-17 -17 -47 -17 -64 0s-17 47 0 64s47 17 64 0s17 -47 0 -64zM500 402v98h66v-500h-66v98c-46 -73 -113 -110 -202 -110c-71 0 -132 25 -183 76c-50 51 -75 113 -75 186s25 135 75 186
c51 51 112 76 183 76c89 0 156 -37 202 -110zM163 109c38 -38 85 -57 140 -57s102 19 140 57c38 39 57 86 57 141s-19 102 -57 140c-38 39 -85 58 -140 58s-102 -19 -140 -58c-38 -38 -57 -85 -57 -140s19 -102 57 -141z" />
    <glyph glyph-name="aring" unicode="&#xe5;" 
d="M381 578c-19 -19 -45 -28 -76 -28s-57 9 -77 28c-19 19 -29 43 -29 72s10 52 29 71c20 19 46 29 77 29s57 -10 76 -29c20 -19 30 -42 30 -71s-10 -53 -30 -72zM305 699c-67 6 -67 -104 0 -98c69 -6 69 104 0 98zM500 402v98h66v-500h-66v98c-46 -73 -113 -110 -202 -110
c-71 0 -132 25 -183 76c-50 51 -75 113 -75 186s25 135 75 186c51 51 112 76 183 76c89 0 156 -37 202 -110zM163 109c38 -38 85 -57 140 -57s102 19 140 57c38 39 57 86 57 141s-19 102 -57 140c-38 39 -85 58 -140 58s-102 -19 -140 -58c-38 -38 -57 -85 -57 -140
s19 -102 57 -141z" />
    <glyph glyph-name="ae" unicode="&#xe6;" horiz-adv-x="1042" 
d="M763 512c75 0 135 -26 178 -78c44 -51 66 -113 66 -186c0 -7 -1 -18 -2 -31h-437c13 -101 88 -165 193 -165c78 0 133 28 165 85l58 -34c-43 -71 -122 -115 -214 -115c-94 0 -162 36 -204 109v-97h-66v98c-46 -73 -113 -110 -202 -110c-71 0 -132 25 -183 76
c-50 51 -75 113 -75 186s25 135 75 186c51 51 112 76 183 76c89 0 156 -37 202 -110v98h66v-100c42 75 108 112 197 112zM163 109c38 -38 85 -57 140 -57s102 19 140 57c38 39 57 86 57 141s-19 102 -57 140c-38 39 -85 58 -140 58s-102 -19 -140 -58
c-38 -38 -57 -85 -57 -140s19 -102 57 -141zM760 448c-107 0 -180 -67 -192 -167h371c-12 105 -86 167 -179 167z" />
    <glyph glyph-name="ccedilla" unicode="&#xe7;" horiz-adv-x="552" 
d="M472 150l55 -32c-37 -72 -111 -121 -198 -129v-34c57 -11 93 -40 93 -81c0 -68 -68 -98 -205 -90v54c98 -8 147 4 147 36c0 25 -31 39 -93 41v75c-67 7 -123 35 -166 84s-65 107 -65 176c0 74 25 136 75 186c50 51 113 76 188 76c99 0 183 -51 219 -131l-54 -31
c-27 60 -90 98 -165 98c-55 0 -102 -19 -140 -58c-38 -38 -57 -85 -57 -140s19 -102 57 -141c38 -38 85 -57 140 -57c75 0 136 38 169 98z" />
    <glyph glyph-name="egrave" unicode="&#xe8;" horiz-adv-x="584" 
d="M285 700l80 -130h-64l-96 130h80zM301 512c74 0 134 -26 179 -79c46 -52 69 -114 69 -185c0 -7 -1 -18 -2 -31h-439c13 -101 92 -165 199 -165c76 0 133 34 161 85l58 -34c-44 -71 -123 -115 -220 -115c-79 0 -143 25 -192 74s-74 112 -74 188c0 75 24 137 73 187
s111 75 188 75zM301 448c-104 0 -180 -68 -193 -167h373c-7 53 -27 94 -61 123s-74 44 -119 44z" />
    <glyph glyph-name="eacute" unicode="&#xe9;" horiz-adv-x="584" 
d="M344 700h80l-96 -130h-64zM301 512c74 0 134 -26 179 -79c46 -52 69 -114 69 -185c0 -7 -1 -18 -2 -31h-439c13 -101 92 -165 199 -165c76 0 133 34 161 85l58 -34c-44 -71 -123 -115 -220 -115c-79 0 -143 25 -192 74s-74 112 -74 188c0 75 24 137 73 187s111 75 188 75
zM301 448c-104 0 -180 -68 -193 -167h373c-7 53 -27 94 -61 123s-74 44 -119 44z" />
    <glyph glyph-name="ecircumflex" unicode="&#xea;" horiz-adv-x="584" 
d="M375 570l-70 87l-70 -87h-75l106 130h78l106 -130h-75zM301 512c74 0 134 -26 179 -79c46 -52 69 -114 69 -185c0 -7 -1 -18 -2 -31h-439c13 -101 92 -165 199 -165c76 0 133 34 161 85l58 -34c-44 -71 -123 -115 -220 -115c-79 0 -143 25 -192 74s-74 112 -74 188
c0 75 24 137 73 187s111 75 188 75zM301 448c-104 0 -180 -68 -193 -167h373c-7 53 -27 94 -61 123s-74 44 -119 44z" />
    <glyph glyph-name="edieresis" unicode="&#xeb;" horiz-adv-x="584" 
d="M232 588c-17 -17 -47 -17 -64 0s-17 47 0 64s47 17 64 0s17 -47 0 -64zM422 588c-17 -17 -47 -17 -64 0s-17 47 0 64s47 17 64 0s17 -47 0 -64zM301 512c74 0 134 -26 179 -79c46 -52 69 -114 69 -185c0 -7 -1 -18 -2 -31h-439c13 -101 92 -165 199 -165
c76 0 133 34 161 85l58 -34c-44 -71 -123 -115 -220 -115c-79 0 -143 25 -192 74s-74 112 -74 188c0 75 24 137 73 187s111 75 188 75zM301 448c-104 0 -180 -68 -193 -167h373c-7 53 -27 94 -61 123s-74 44 -119 44z" />
    <glyph glyph-name="igrave" unicode="&#xec;" horiz-adv-x="206" 
d="M159 570h-64l-66 130h80zM136 0v500h-66v-500h66z" />
    <glyph glyph-name="iacute" unicode="&#xed;" horiz-adv-x="206" 
d="M50 570l50 130h80l-66 -130h-64zM70 0h66v500h-66v-500z" />
    <glyph glyph-name="icircumflex" unicode="&#xee;" horiz-adv-x="206" 
d="M64 700h78l86 -130h-75l-50 76l-50 -76h-75zM136 0h-66v500h66v-500z" />
    <glyph glyph-name="idieresis" unicode="&#xef;" horiz-adv-x="206" 
d="M65 588c-17 -17 -47 -17 -64 0s-17 47 0 64s47 17 64 0s17 -47 0 -64zM205 588c-17 -17 -47 -17 -64 0s-17 47 0 64s47 17 64 0s17 -47 0 -64zM136 0h-66v500h66v-500z" />
    <glyph glyph-name="eth" unicode="&#xf0;" horiz-adv-x="586" 
d="M327 602l173 -232c31 -41 46 -88 46 -140c0 -72 -25 -130 -75 -175c-49 -45 -109 -67 -178 -67s-129 22 -179 67c-49 45 -74 103 -74 175c0 69 24 126 72 170c49 44 106 66 171 66c29 0 55 -5 80 -16l-89 119l-112 -69v60l82 50l-67 90h77l43 -57l112 69v-60zM480 230
c0 42 -10 76 -30 103c-35 47 -87 71 -155 71c-55 0 -100 -16 -136 -48c-35 -32 -53 -74 -53 -126c0 -53 18 -96 55 -129s81 -49 132 -49s95 16 132 49s55 76 55 129z" />
    <glyph glyph-name="ntilde" unicode="&#xf1;" horiz-adv-x="558" 
d="M290 603c-31 23 -44 32 -60 33s-22 -17 -22 -56h-58c0 121 72 140 141 87c53 -41 81 -55 81 23h58c0 -121 -71 -140 -140 -87zM304 512c121 0 196 -80 196 -205v-307h-66v307c0 89 -49 141 -136 141c-96 0 -162 -59 -162 -186v-262h-66v500h66v-78c37 60 93 90 168 90z
" />
    <glyph glyph-name="ograve" unicode="&#xf2;" horiz-adv-x="606" 
d="M377 570h-64l-96 130h80zM489 63c51 51 77 113 77 187s-26 136 -77 186c-51 51 -113 76 -186 76s-136 -25 -187 -76c-51 -50 -76 -112 -76 -186s25 -136 76 -187c51 -50 114 -75 187 -75s135 25 186 75zM163 109c-38 39 -57 86 -57 141s19 102 57 140c38 39 85 58 140 58
s102 -19 140 -58c38 -38 57 -85 57 -140s-19 -102 -57 -141c-38 -38 -85 -57 -140 -57s-102 19 -140 57z" />
    <glyph glyph-name="oacute" unicode="&#xf3;" horiz-adv-x="606" 
d="M277 570l80 130h80l-96 -130h-64zM489 63c51 51 77 113 77 187s-26 136 -77 186c-51 51 -113 76 -186 76s-136 -25 -187 -76c-51 -50 -76 -112 -76 -186s25 -136 76 -187c51 -50 114 -75 187 -75s135 25 186 75zM163 109c-38 39 -57 86 -57 141s19 102 57 140
c38 39 85 58 140 58s102 -19 140 -58c38 -38 57 -85 57 -140s-19 -102 -57 -141c-38 -38 -85 -57 -140 -57s-102 19 -140 57z" />
    <glyph glyph-name="ocircumflex" unicode="&#xf4;" horiz-adv-x="606" 
d="M373 570l-70 87l-70 -87h-75l106 130h78l106 -130h-75zM116 436c51 51 114 76 187 76s135 -25 186 -76c51 -50 77 -112 77 -186s-26 -136 -77 -187c-51 -50 -113 -75 -186 -75s-136 25 -187 75c-51 51 -76 113 -76 187s25 136 76 186zM163 109c38 -38 85 -57 140 -57
s102 19 140 57c38 39 57 86 57 141s-19 102 -57 140c-38 39 -85 58 -140 58s-102 -19 -140 -58c-38 -38 -57 -85 -57 -140s19 -102 57 -141z" />
    <glyph glyph-name="otilde" unicode="&#xf5;" horiz-adv-x="606" 
d="M221 580h-58c0 121 72 140 141 87c53 -41 81 -55 81 23h58c0 -121 -71 -140 -140 -87c-31 23 -44 32 -60 33s-22 -17 -22 -56zM489 63c-51 -50 -113 -75 -186 -75s-136 25 -187 75c-51 51 -76 113 -76 187s25 136 76 186c51 51 114 76 187 76s135 -25 186 -76
c51 -50 77 -112 77 -186s-26 -136 -77 -187zM163 109c38 -38 85 -57 140 -57s102 19 140 57c38 39 57 86 57 141s-19 102 -57 140c-38 39 -85 58 -140 58s-102 -19 -140 -58c-38 -38 -57 -85 -57 -140s19 -102 57 -141z" />
    <glyph glyph-name="odieresis" unicode="&#xf6;" horiz-adv-x="606" 
d="M240 588c-17 -17 -47 -17 -64 0s-17 47 0 64s47 17 64 0s17 -47 0 -64zM430 588c-17 -17 -47 -17 -64 0s-17 47 0 64s47 17 64 0s17 -47 0 -64zM489 63c-51 -50 -113 -75 -186 -75s-136 25 -187 75c-51 51 -76 113 -76 187s25 136 76 186c51 51 114 76 187 76
s135 -25 186 -76c51 -50 77 -112 77 -186s-26 -136 -77 -187zM163 109c38 -38 85 -57 140 -57s102 19 140 57c38 39 57 86 57 141s-19 102 -57 140c-38 39 -85 58 -140 58s-102 -19 -140 -58c-38 -38 -57 -85 -57 -140s19 -102 57 -141z" />
    <glyph glyph-name="divide" unicode="&#xf7;" horiz-adv-x="580" 
d="M329 498c-21 -21 -57 -21 -78 0s-21 57 0 78s57 21 78 0s21 -57 0 -78zM520 318h-460v64h460v-64zM329 124c-21 -21 -57 -21 -78 0s-21 57 0 78s57 21 78 0s21 -57 0 -78z" />
    <glyph glyph-name="oslash" unicode="&#xf8;" horiz-adv-x="606" 
d="M540 482l-45 -51c47 -51 71 -111 71 -181c0 -74 -26 -136 -77 -187c-51 -50 -113 -75 -186 -75c-59 0 -111 17 -158 51l-39 -44l-40 23l45 51c-47 51 -71 111 -71 181c0 74 25 136 76 186c51 51 114 76 187 76c59 0 111 -17 158 -51l39 44zM106 250c0 -51 16 -95 49 -132
l262 294c-33 24 -71 36 -114 36c-55 0 -102 -19 -140 -58c-38 -38 -57 -85 -57 -140zM303 52c55 0 102 19 140 57c38 39 57 86 57 141c0 51 -16 95 -49 132l-262 -294c33 -24 71 -36 114 -36z" />
    <glyph glyph-name="ugrave" unicode="&#xf9;" horiz-adv-x="558" 
d="M251 700l80 -130h-64l-96 130h80zM422 238v262h66v-500h-66v78c-37 -60 -93 -90 -168 -90c-121 0 -196 80 -196 205v307h66v-307c0 -89 49 -141 136 -141c96 0 162 59 162 186z" />
    <glyph glyph-name="uacute" unicode="&#xfa;" horiz-adv-x="558" 
d="M322 700h80l-96 -130h-64zM422 238v262h66v-500h-66v78c-37 -60 -93 -90 -168 -90c-121 0 -196 80 -196 205v307h66v-307c0 -89 49 -141 136 -141c96 0 162 59 162 186z" />
    <glyph glyph-name="ucircumflex" unicode="&#xfb;" horiz-adv-x="558" 
d="M341 570l-70 87l-70 -87h-75l106 130h78l106 -130h-75zM422 238v262h66v-500h-66v78c-37 -60 -93 -90 -168 -90c-121 0 -196 80 -196 205v307h66v-307c0 -89 49 -141 136 -141c96 0 162 59 162 186z" />
    <glyph glyph-name="udieresis" unicode="&#xfc;" horiz-adv-x="558" 
d="M208 588c-17 -17 -47 -17 -64 0s-17 47 0 64s47 17 64 0s17 -47 0 -64zM398 588c-17 -17 -47 -17 -64 0s-17 47 0 64s47 17 64 0s17 -47 0 -64zM422 238v262h66v-500h-66v78c-37 -60 -93 -90 -168 -90c-121 0 -196 80 -196 205v307h66v-307c0 -89 49 -141 136 -141
c96 0 162 59 162 186z" />
    <glyph glyph-name="yacute" unicode="&#xfd;" horiz-adv-x="510" 
d="M306 700h80l-96 -130h-64zM268 81l162 419h70l-214 -546c-39 -99 -114 -161 -202 -154v62c60 -7 106 28 137 104l13 31l-224 503h70z" />
    <glyph glyph-name="thorn" unicode="&#xfe;" 
d="M338 512c71 0 132 -25 182 -76c51 -51 76 -113 76 -186s-25 -135 -76 -186c-50 -51 -111 -76 -182 -76c-89 0 -156 37 -202 110v-298h-66v900h66v-298c46 73 113 110 202 110zM193 109c38 -38 85 -57 140 -57s102 19 140 57c38 39 57 86 57 141s-19 102 -57 140
c-38 39 -85 58 -140 58s-102 -19 -140 -58c-38 -38 -57 -85 -57 -140s19 -102 57 -141z" />
    <glyph glyph-name="ydieresis" unicode="&#xff;" horiz-adv-x="510" 
d="M190 588c-17 -17 -47 -17 -64 0s-17 47 0 64s47 17 64 0s17 -47 0 -64zM380 588c-17 -17 -47 -17 -64 0s-17 47 0 64s47 17 64 0s17 -47 0 -64zM268 81l162 419h70l-214 -546c-39 -99 -114 -161 -202 -154v62c60 -7 106 28 137 104l13 31l-224 503h70z" />
    <glyph glyph-name="Amacron" unicode="&#x100;" horiz-adv-x="630" 
d="M185 838h260v-58h-260v58zM620 0h-74l-65 172h-332l-65 -172h-74l269 700h72zM315 613l-141 -375h282z" />
    <glyph glyph-name="amacron" unicode="&#x101;" 
d="M175 638h260v-58h-260v58zM500 402v98h66v-500h-66v98c-46 -73 -113 -110 -202 -110c-71 0 -132 25 -183 76c-50 51 -75 113 -75 186s25 135 75 186c51 51 112 76 183 76c89 0 156 -37 202 -110zM163 109c38 -38 85 -57 140 -57s102 19 140 57c38 39 57 86 57 141
s-19 102 -57 140c-38 39 -85 58 -140 58s-102 -19 -140 -58c-38 -38 -57 -85 -57 -140s19 -102 57 -141z" />
    <glyph glyph-name="Abreve" unicode="&#x102;" horiz-adv-x="630" 
d="M315 762c-79 0 -130 46 -130 120h60c0 -44 23 -66 70 -66s70 22 70 66h60c0 -76 -49 -120 -130 -120zM620 0h-74l-65 172h-332l-65 -172h-74l269 700h72zM315 613l-141 -375h282z" />
    <glyph glyph-name="abreve" unicode="&#x103;" 
d="M500 402v98h66v-500h-66v98c-46 -73 -113 -110 -202 -110c-71 0 -132 25 -183 76c-50 51 -75 113 -75 186s25 135 75 186c51 51 112 76 183 76c89 0 156 -37 202 -110zM163 109c38 -38 85 -57 140 -57s102 19 140 57c38 39 57 86 57 141s-19 102 -57 140
c-38 39 -85 58 -140 58s-102 -19 -140 -58c-38 -38 -57 -85 -57 -140s19 -102 57 -141zM348 561c-79 0 -130 46 -130 120h60c0 -44 23 -66 70 -66s70 22 70 66h60c0 -76 -49 -120 -130 -120z" />
    <glyph glyph-name="Aogonek" unicode="&#x104;" horiz-adv-x="630" 
d="M544 -124c0 -21 11 -31 34 -31c14 0 28 3 42 9v-55c-18 -7 -38 -11 -59 -11c-52 0 -82 31 -82 76c0 44 24 89 72 136h-5l-65 172h-332l-65 -172h-74l269 700h72l269 -700c-45 -41 -76 -91 -76 -124zM315 613l-141 -375h282z" />
    <glyph glyph-name="aogonek" unicode="&#x105;" 
d="M566 500v-500c-45 -41 -76 -91 -76 -124c0 -21 11 -31 34 -31c14 0 28 3 42 9v-55c-18 -7 -38 -11 -59 -11c-52 0 -82 31 -82 76c0 43 25 92 75 148v86c-46 -73 -113 -110 -202 -110c-71 0 -132 25 -183 76c-50 51 -75 113 -75 186s25 135 75 186c51 51 112 76 183 76
c89 0 156 -37 202 -110v98h66zM163 109c38 -38 85 -57 140 -57s102 19 140 57c38 39 57 86 57 141s-19 102 -57 140c-38 39 -85 58 -140 58s-102 -19 -140 -58c-38 -38 -57 -85 -57 -140s19 -102 57 -141z" />
    <glyph glyph-name="Cacute" unicode="&#x106;" horiz-adv-x="745" 
d="M357 770l80 130h80l-96 -130h-64zM407 -12c129 0 246 68 303 173l-62 35c-44 -85 -137 -140 -241 -140c-87 0 -159 28 -214 85s-83 126 -83 209s28 152 83 209s127 85 214 85c104 0 197 -55 241 -140l62 36c-59 105 -174 172 -303 172c-106 0 -194 -35 -263 -105
s-104 -156 -104 -257s35 -187 104 -257s157 -105 263 -105z" />
    <glyph glyph-name="cacute" unicode="&#x107;" horiz-adv-x="552" 
d="M242 570l80 130h80l-96 -130h-64zM303 -12c97 0 183 50 224 130l-55 32c-33 -60 -94 -98 -169 -98c-55 0 -102 19 -140 57c-38 39 -57 86 -57 141s19 102 57 140c38 39 85 58 140 58c75 0 138 -38 165 -98l54 31c-36 80 -120 131 -219 131c-75 0 -138 -25 -188 -76
c-50 -50 -75 -112 -75 -186s25 -136 75 -187c50 -50 113 -75 188 -75z" />
    <glyph glyph-name="Cdotaccent" unicode="&#x10a;" horiz-adv-x="745" 
d="M446 786c-21 -21 -57 -21 -78 0s-21 57 0 78s57 21 78 0s21 -57 0 -78zM407 -12c-106 0 -194 35 -263 105s-104 156 -104 257s35 187 104 257s157 105 263 105c129 0 244 -67 303 -172l-62 -36c-44 85 -137 140 -241 140c-87 0 -159 -28 -214 -85s-83 -126 -83 -209
s28 -152 83 -209s127 -85 214 -85c104 0 197 55 241 140l62 -35c-57 -105 -174 -173 -303 -173z" />
    <glyph glyph-name="cdotaccent" unicode="&#x10b;" horiz-adv-x="552" 
d="M331 586c-21 -21 -57 -21 -78 0s-21 57 0 78s57 21 78 0s21 -57 0 -78zM303 -12c-75 0 -138 25 -188 75c-50 51 -75 113 -75 187s25 136 75 186c50 51 113 76 188 76c99 0 183 -51 219 -131l-54 -31c-27 60 -90 98 -165 98c-55 0 -102 -19 -140 -58
c-38 -38 -57 -85 -57 -140s19 -102 57 -141c38 -38 85 -57 140 -57c75 0 136 38 169 98l55 -32c-41 -80 -127 -130 -224 -130z" />
    <glyph glyph-name="Ccaron" unicode="&#x10c;" horiz-adv-x="745" 
d="M446 770h-78l-106 130h75l70 -87l70 87h75zM407 56c104 0 197 55 241 140l62 -35c-57 -105 -174 -173 -303 -173c-106 0 -194 35 -263 105s-104 156 -104 257s35 187 104 257s157 105 263 105c129 0 244 -67 303 -172l-62 -36c-44 85 -137 140 -241 140
c-87 0 -159 -28 -214 -85s-83 -126 -83 -209s28 -152 83 -209s127 -85 214 -85z" />
    <glyph glyph-name="ccaron" unicode="&#x10d;" horiz-adv-x="552" 
d="M331 570h-78l-106 130h75l70 -87l70 87h75zM472 150l55 -32c-41 -80 -127 -130 -224 -130c-75 0 -138 25 -188 75c-50 51 -75 113 -75 187s25 136 75 186c50 51 113 76 188 76c99 0 183 -51 219 -131l-54 -31c-27 60 -90 98 -165 98c-55 0 -102 -19 -140 -58
c-38 -38 -57 -85 -57 -140s19 -102 57 -141c38 -38 85 -57 140 -57c75 0 136 38 169 98z" />
    <glyph glyph-name="Dcaron" unicode="&#x10e;" horiz-adv-x="720" 
d="M389 770h-78l-106 130h75l70 -87l70 87h75zM80 700h270c95 0 174 -34 236 -102c63 -67 94 -150 94 -248s-31 -181 -94 -249c-62 -67 -141 -101 -236 -101h-270v700zM150 66h200c77 0 139 27 188 82s74 122 74 202s-25 147 -74 202s-111 82 -188 82h-200v-568z" />
    <glyph glyph-name="dcaron" unicode="&#x10f;" horiz-adv-x="702" 
d="M500 402v298h66v-700h-66v98c-46 -73 -113 -110 -202 -110c-71 0 -132 25 -183 76c-50 51 -75 113 -75 186s25 135 75 186c51 51 112 76 183 76c89 0 156 -37 202 -110zM636 530l10 170h66l-30 -170h-46zM163 109c38 -38 85 -57 140 -57s102 19 140 57
c38 39 57 86 57 141s-19 102 -57 140c-38 39 -85 58 -140 58s-102 -19 -140 -58c-38 -38 -57 -85 -57 -140s19 -102 57 -141z" />
    <glyph glyph-name="Dcroat" unicode="&#x110;" horiz-adv-x="740" 
d="M100 700h270c95 0 174 -34 236 -102c63 -67 94 -150 94 -248s-31 -181 -94 -249c-62 -67 -141 -101 -236 -101h-270v314h-64v60h64v326zM170 66h200c77 0 139 27 188 82s74 122 74 202s-25 147 -74 202s-111 82 -188 82h-200v-260h178v-60h-178v-248z" />
    <glyph glyph-name="dslash" unicode="&#x111;" horiz-adv-x="646" 
d="M566 630h70v-54h-70v-576h-66v98c-46 -73 -113 -110 -202 -110c-71 0 -132 25 -183 76c-50 51 -75 113 -75 186s25 135 75 186c51 51 112 76 183 76c89 0 156 -37 202 -110v174h-184v54h184v70h66v-70zM163 109c38 -38 85 -57 140 -57s102 19 140 57c38 39 57 86 57 141
s-19 102 -57 140c-38 39 -85 58 -140 58s-102 -19 -140 -58c-38 -38 -57 -85 -57 -140s19 -102 57 -141z" />
    <glyph glyph-name="Emacron" unicode="&#x112;" horiz-adv-x="530" 
d="M153 838h260v-58h-260v58zM150 320v-254h340v-66h-410v700h405v-66h-335v-248h310v-66h-310z" />
    <glyph glyph-name="emacron" unicode="&#x113;" horiz-adv-x="584" 
d="M165 638h260v-58h-260v58zM301 512c74 0 134 -26 179 -79c46 -52 69 -114 69 -185c0 -7 -1 -18 -2 -31h-439c13 -101 92 -165 199 -165c76 0 133 34 161 85l58 -34c-44 -71 -123 -115 -220 -115c-79 0 -143 25 -192 74s-74 112 -74 188c0 75 24 137 73 187s111 75 188 75
zM301 448c-104 0 -180 -68 -193 -167h373c-7 53 -27 94 -61 123s-74 44 -119 44z" />
    <glyph glyph-name="Edotaccent" unicode="&#x116;" horiz-adv-x="530" 
d="M322 786c-21 -21 -57 -21 -78 0s-21 57 0 78s57 21 78 0s21 -57 0 -78zM150 320v-254h340v-66h-410v700h405v-66h-335v-248h310v-66h-310z" />
    <glyph glyph-name="edotaccent" unicode="&#x117;" horiz-adv-x="584" 
d="M334 586c-21 -21 -57 -21 -78 0s-21 57 0 78s57 21 78 0s21 -57 0 -78zM301 512c74 0 134 -26 179 -79c46 -52 69 -114 69 -185c0 -7 -1 -18 -2 -31h-439c13 -101 92 -165 199 -165c76 0 133 34 161 85l58 -34c-44 -71 -123 -115 -220 -115c-79 0 -143 25 -192 74
s-74 112 -74 188c0 75 24 137 73 187s111 75 188 75zM301 448c-104 0 -180 -68 -193 -167h373c-7 53 -27 94 -61 123s-74 44 -119 44z" />
    <glyph glyph-name="Eogonek" unicode="&#x118;" horiz-adv-x="530" 
d="M490 66v-66c-45 -41 -76 -91 -76 -124c0 -21 11 -31 34 -31c14 0 28 3 42 9v-55c-18 -7 -38 -11 -59 -11c-52 0 -82 31 -82 76c0 44 24 89 72 136h-341v700h405v-66h-335v-248h310v-66h-310v-254h340z" />
    <glyph glyph-name="eogonek" unicode="&#x119;" horiz-adv-x="584" 
d="M301 512c74 0 134 -26 179 -79c46 -52 69 -114 69 -185c0 -7 -1 -18 -2 -31h-439c13 -101 92 -165 199 -165c76 0 133 34 161 85l58 -34c-9 -15 -23 -32 -40 -49c-77 -83 -115 -142 -115 -178c0 -21 11 -31 34 -31c14 0 28 3 42 9v-55c-18 -7 -38 -11 -59 -11
c-52 0 -82 31 -82 76c0 43 22 87 65 131c-19 -5 -40 -7 -65 -7c-79 0 -143 25 -192 74s-74 112 -74 188c0 75 24 137 73 187s111 75 188 75zM301 448c-104 0 -180 -68 -193 -167h373c-7 53 -27 94 -61 123s-74 44 -119 44z" />
    <glyph glyph-name="Ecaron" unicode="&#x11a;" horiz-adv-x="530" 
d="M322 770h-78l-106 130h75l70 -87l70 87h75zM150 320v-254h340v-66h-410v700h405v-66h-335v-248h310v-66h-310z" />
    <glyph glyph-name="ecaron" unicode="&#x11b;" horiz-adv-x="584" 
d="M334 570h-78l-106 130h75l70 -87l70 87h75zM301 512c74 0 134 -26 179 -79c46 -52 69 -114 69 -185c0 -7 -1 -18 -2 -31h-439c13 -101 92 -165 199 -165c76 0 133 34 161 85l58 -34c-44 -71 -123 -115 -220 -115c-79 0 -143 25 -192 74s-74 112 -74 188
c0 75 24 137 73 187s111 75 188 75zM301 448c-104 0 -180 -68 -193 -167h373c-7 53 -27 94 -61 123s-74 44 -119 44z" />
    <glyph glyph-name="Gbreve" unicode="&#x11e;" horiz-adv-x="789" 
d="M392 762c-85 0 -140 49 -140 130h64c0 -48 25 -72 76 -72s76 24 76 72h64c0 -83 -53 -130 -140 -130zM399 333h350v-36c0 -87 -31 -160 -93 -220c-62 -59 -145 -89 -249 -89c-106 0 -194 35 -263 105s-104 156 -104 257s35 187 104 257s157 105 263 105
c65 0 124 -16 178 -47s96 -73 125 -125l-62 -36c-44 85 -137 140 -241 140c-87 0 -159 -28 -214 -85s-83 -126 -83 -209s28 -152 83 -209s127 -85 214 -85c79 0 142 20 189 59c47 40 74 91 81 152h-278v66z" />
    <glyph glyph-name="gbreve" unicode="&#x11f;" 
d="M308 562c-85 0 -140 49 -140 130h64c0 -48 25 -72 76 -72s76 24 76 72h64c0 -83 -53 -130 -140 -130zM500 402v98h66v-480c0 -72 -25 -129 -74 -170s-108 -62 -177 -62c-117 0 -196 41 -237 122l58 33c30 -61 90 -91 179 -91c115 0 185 65 185 168v78
c-46 -73 -113 -110 -202 -110c-71 0 -132 25 -183 76c-50 51 -75 113 -75 186s25 135 75 186c51 51 112 76 183 76c89 0 156 -37 202 -110zM163 109c38 -38 85 -57 140 -57s102 19 140 57c38 39 57 86 57 141s-19 102 -57 140c-38 39 -85 58 -140 58s-102 -19 -140 -58
c-38 -38 -57 -85 -57 -140s19 -102 57 -141z" />
    <glyph glyph-name="Gdotaccent" unicode="&#x120;" horiz-adv-x="789" 
d="M431 786c-21 -21 -57 -21 -78 0s-21 57 0 78s57 21 78 0s21 -57 0 -78zM399 333h350v-36c0 -87 -31 -160 -93 -220c-62 -59 -145 -89 -249 -89c-106 0 -194 35 -263 105s-104 156 -104 257s35 187 104 257s157 105 263 105c65 0 124 -16 178 -47s96 -73 125 -125l-62 -36
c-44 85 -137 140 -241 140c-87 0 -159 -28 -214 -85s-83 -126 -83 -209s28 -152 83 -209s127 -85 214 -85c79 0 142 20 189 59c47 40 74 91 81 152h-278v66z" />
    <glyph glyph-name="gdotaccent" unicode="&#x121;" 
d="M347 586c-21 -21 -57 -21 -78 0s-21 57 0 78s57 21 78 0s21 -57 0 -78zM500 402v98h66v-480c0 -72 -25 -129 -74 -170s-108 -62 -177 -62c-117 0 -196 41 -237 122l58 33c30 -61 90 -91 179 -91c115 0 185 65 185 168v78c-46 -73 -113 -110 -202 -110
c-71 0 -132 25 -183 76c-50 51 -75 113 -75 186s25 135 75 186c51 51 112 76 183 76c89 0 156 -37 202 -110zM163 109c38 -38 85 -57 140 -57s102 19 140 57c38 39 57 86 57 141s-19 102 -57 140c-38 39 -85 58 -140 58s-102 -19 -140 -58c-38 -38 -57 -85 -57 -140
s19 -102 57 -141z" />
    <glyph glyph-name="Gcommaaccent" unicode="&#x122;" horiz-adv-x="789" 
d="M399 333h350v-36c0 -87 -31 -160 -93 -220c-62 -59 -145 -89 -249 -89c-106 0 -194 35 -263 105s-104 156 -104 257s35 187 104 257s157 105 263 105c65 0 124 -16 178 -47s96 -73 125 -125l-62 -36c-44 85 -137 140 -241 140c-87 0 -159 -28 -214 -85s-83 -126 -83 -209
s28 -152 83 -209s127 -85 214 -85c79 0 142 20 189 59c47 40 74 91 81 152h-278v66zM431 -240h-46l10 170h66z" />
    <glyph glyph-name="gcommaaccent" unicode="&#x123;" 
d="M299 760h46l-10 -170h-66zM500 402v98h66v-480c0 -72 -25 -129 -74 -170s-108 -62 -177 -62c-117 0 -196 41 -237 122l58 33c30 -61 90 -91 179 -91c115 0 185 65 185 168v78c-46 -73 -113 -110 -202 -110c-71 0 -132 25 -183 76c-50 51 -75 113 -75 186s25 135 75 186
c51 51 112 76 183 76c89 0 156 -37 202 -110zM163 109c38 -38 85 -57 140 -57s102 19 140 57c38 39 57 86 57 141s-19 102 -57 140c-38 39 -85 58 -140 58s-102 -19 -140 -58c-38 -38 -57 -85 -57 -140s19 -102 57 -141z" />
    <glyph glyph-name="Hbar" unicode="&#x126;" horiz-adv-x="730" 
d="M625 568h65v-56h-65v-512h-70v327h-380v-327h-70v512h-65v56h65v132h70v-132h380v132h70v-132zM175 393h380v119h-380v-119z" />
    <glyph glyph-name="hbar" unicode="&#x127;" horiz-adv-x="568" 
d="M314 512c121 0 196 -80 196 -205v-307h-66v307c0 89 -49 141 -136 141c-96 0 -162 -59 -162 -186v-262h-66v576h-70v54h70v70h66v-70h144v-54h-144v-154c37 60 93 90 168 90z" />
    <glyph glyph-name="Imacron" unicode="&#x12a;" horiz-adv-x="230" 
d="M245 780h-260v58h260v-58zM80 0v700h70v-700h-70z" />
    <glyph glyph-name="imacron" unicode="&#x12b;" horiz-adv-x="206" 
d="M203 580h-200v58h200v-58zM136 0h-66v500h66v-500z" />
    <glyph glyph-name="Iogonek" unicode="&#x12e;" horiz-adv-x="230" 
d="M139 -155c14 0 28 3 42 9v-55c-18 -7 -38 -11 -59 -11c-52 0 -82 31 -82 76c0 41 13 86 40 137v699h70v-700l-24 -44c-9 -19 -21 -53 -21 -80c0 -21 11 -31 34 -31z" />
    <glyph glyph-name="iogonek" unicode="&#x12f;" horiz-adv-x="206" 
d="M137 620c-19 -19 -49 -19 -68 0s-19 49 0 68s49 19 68 0s19 -49 0 -68zM129 -155c14 0 28 3 42 9v-55c-18 -7 -38 -11 -59 -11c-51 0 -82 39 -82 86c0 37 13 81 40 131v495h66v-500c-27 -44 -41 -82 -41 -114c0 -23 14 -41 34 -41z" />
    <glyph glyph-name="Idot" unicode="&#x130;" horiz-adv-x="230" 
d="M154 786c-21 -21 -57 -21 -78 0s-21 57 0 78s57 21 78 0s21 -57 0 -78zM80 0v700h70v-700h-70z" />
    <glyph glyph-name="dotlessi" unicode="&#x131;" horiz-adv-x="206" 
d="M136 0h-66v500h66v-500z" />
    <glyph glyph-name="Kcommaaccent" unicode="&#x136;" horiz-adv-x="580" 
d="M560 700l-336 -340l346 -360h-92l-328 339v-339h-70v700h70v-320l318 320h92zM311 -240h-46l10 170h66z" />
    <glyph glyph-name="kcommaaccent" unicode="&#x137;" horiz-adv-x="494" 
d="M464 500l-258 -240l268 -260h-88l-250 241v-241h-66v700h66v-421l238 221h90zM269 -240h-46l10 170h66z" />
    <glyph glyph-name="Lacute" unicode="&#x139;" horiz-adv-x="490" 
d="M162 900h80l-96 -130h-64zM150 700v-634h320v-66h-390v700h70z" />
    <glyph glyph-name="lacute" unicode="&#x13a;" horiz-adv-x="206" 
d="M70 770l80 130h80l-96 -130h-64zM70 0h66v730h-66v-730z" />
    <glyph glyph-name="Lcommaaccent" unicode="&#x13b;" horiz-adv-x="490" 
d="M150 700v-634h320v-66h-390v700h70zM289 -240h-46l10 170h66z" />
    <glyph glyph-name="lcommaaccent" unicode="&#x13c;" horiz-adv-x="206" 
d="M136 0h-66v730h66v-730zM107 -240h-46l10 170h66z" />
    <glyph glyph-name="Lcaron" unicode="&#x13d;" horiz-adv-x="490" 
d="M150 700v-634h320v-66h-390v700h70zM266 700h66l-30 -170h-46z" />
    <glyph glyph-name="lcaron" unicode="&#x13e;" horiz-adv-x="272" 
d="M136 0h-66v730h66v-730zM252 560h-46l10 170h66z" />
    <glyph glyph-name="Lslash" unicode="&#x141;" horiz-adv-x="510" 
d="M170 286v-220h320v-66h-390v244l-60 -35v63l60 35v393h70v-351l170 100v-63z" />
    <glyph glyph-name="lslash" unicode="&#x142;" horiz-adv-x="240" 
d="M153 414l67 46v-63l-67 -46v-351h-66v306l-67 -46v63l67 46v361h66v-316z" />
    <glyph glyph-name="Nacute" unicode="&#x143;" horiz-adv-x="680" 
d="M290 770l80 130h80l-96 -130h-64zM530 700v-570l-390 570h-60v-700h70v570l390 -570h60v700h-70z" />
    <glyph glyph-name="nacute" unicode="&#x144;" horiz-adv-x="558" 
d="M320 700h80l-96 -130h-64zM304 512c121 0 196 -80 196 -205v-307h-66v307c0 89 -49 141 -136 141c-96 0 -162 -59 -162 -186v-262h-66v500h66v-78c37 60 93 90 168 90z" />
    <glyph glyph-name="Ncommaaccent" unicode="&#x145;" horiz-adv-x="680" 
d="M530 130v570h70v-700h-60l-390 570v-570h-70v700h60zM344 -240h-46l10 170h66z" />
    <glyph glyph-name="ncommaaccent" unicode="&#x146;" horiz-adv-x="558" 
d="M304 512c121 0 196 -80 196 -205v-307h-66v307c0 89 -49 141 -136 141c-96 0 -162 -59 -162 -186v-262h-66v500h66v-78c37 60 93 90 168 90zM297 -240h-46l10 170h66z" />
    <glyph glyph-name="Ncaron" unicode="&#x147;" horiz-adv-x="680" 
d="M379 770h-78l-106 130h75l70 -87l70 87h75zM530 130v570h70v-700h-60l-390 570v-570h-70v700h60z" />
    <glyph glyph-name="ncaron" unicode="&#x148;" horiz-adv-x="558" 
d="M329 570h-78l-106 130h75l70 -87l70 87h75zM304 512c121 0 196 -80 196 -205v-307h-66v307c0 89 -49 141 -136 141c-96 0 -162 -59 -162 -186v-262h-66v500h66v-78c37 60 93 90 168 90z" />
    <glyph glyph-name="Eng" unicode="&#x14a;" horiz-adv-x="680" 
d="M530 130v570h70v-700c0 -133 -70 -200 -210 -200v68c92 0 140 28 140 132v15l-380 555v-570h-70v700h60z" />
    <glyph glyph-name="eng" unicode="&#x14b;" horiz-adv-x="558" 
d="M304 512c121 0 196 -80 196 -205v-347c0 -120 -65 -183 -180 -172v64c79 -8 114 23 114 108v347c0 89 -49 141 -136 141c-96 0 -162 -59 -162 -186v-262h-66v500h66v-78c37 60 93 90 168 90z" />
    <glyph glyph-name="Omacron" unicode="&#x14c;" horiz-adv-x="804" 
d="M532 780h-260v58h260v-58zM659 93c-70 -70 -156 -105 -257 -105s-187 35 -257 105c-70 71 -105 156 -105 257s35 186 105 256c70 71 156 106 257 106s187 -35 257 -106c70 -70 105 -155 105 -256s-35 -186 -105 -257zM194 141c56 -57 125 -85 208 -85s152 28 208 85
s84 127 84 209s-28 151 -84 208s-125 86 -208 86s-152 -29 -208 -86s-84 -126 -84 -208s28 -152 84 -209z" />
    <glyph glyph-name="omacron" unicode="&#x14d;" horiz-adv-x="606" 
d="M433 580h-260v58h260v-58zM489 63c-51 -50 -113 -75 -186 -75s-136 25 -187 75c-51 51 -76 113 -76 187s25 136 76 186c51 51 114 76 187 76s135 -25 186 -76c51 -50 77 -112 77 -186s-26 -136 -77 -187zM163 109c38 -38 85 -57 140 -57s102 19 140 57
c38 39 57 86 57 141s-19 102 -57 140c-38 39 -85 58 -140 58s-102 -19 -140 -58c-38 -38 -57 -85 -57 -140s19 -102 57 -141z" />
    <glyph glyph-name="Ohungarumlaut" unicode="&#x150;" horiz-adv-x="804" 
d="M272 770l70 130h74l-76 -130h-68zM415 770l80 130h74l-86 -130h-68zM659 93c70 71 105 156 105 257s-35 186 -105 256c-70 71 -156 106 -257 106s-187 -35 -257 -106c-70 -70 -105 -155 -105 -256s35 -186 105 -257c70 -70 156 -105 257 -105s187 35 257 105zM194 141
c-56 57 -84 127 -84 209s28 151 84 208s125 86 208 86s152 -29 208 -86s84 -126 84 -208s-28 -152 -84 -209s-125 -85 -208 -85s-152 28 -208 85z" />
    <glyph glyph-name="ohungarumlaut" unicode="&#x151;" horiz-adv-x="606" 
d="M173 570l70 130h74l-76 -130h-68zM316 570l80 130h74l-86 -130h-68zM489 63c51 51 77 113 77 187s-26 136 -77 186c-51 51 -113 76 -186 76s-136 -25 -187 -76c-51 -50 -76 -112 -76 -186s25 -136 76 -187c51 -50 114 -75 187 -75s135 25 186 75zM163 109
c-38 39 -57 86 -57 141s19 102 57 140c38 39 85 58 140 58s102 -19 140 -58c38 -38 57 -85 57 -140s-19 -102 -57 -141c-38 -38 -85 -57 -140 -57s-102 19 -140 57z" />
    <glyph glyph-name="OE" unicode="&#x152;" horiz-adv-x="915" 
d="M555 320v-254h320v-66h-390c-29 -8 -60 -12 -93 -12c-101 0 -185 35 -252 105s-100 156 -100 257s33 187 100 257s151 105 252 105c33 0 64 -4 93 -12h385v-66h-315v-248h300v-66h-300zM485 71v558c-29 10 -60 15 -93 15c-82 0 -150 -28 -203 -85s-79 -126 -79 -209
s26 -152 79 -209s121 -85 203 -85c33 0 64 5 93 15z" />
    <glyph glyph-name="oe" unicode="&#x153;" horiz-adv-x="1044" 
d="M763 512c73 0 132 -26 177 -79c46 -52 69 -114 69 -185c0 -7 -1 -18 -2 -31h-439c13 -101 92 -165 199 -165c76 0 133 34 161 85l58 -34c-44 -71 -122 -115 -218 -115c-111 0 -197 56 -236 147c-40 -89 -125 -147 -229 -147c-75 0 -138 25 -188 75s-75 112 -75 187
s25 137 75 187s113 75 188 75c104 0 189 -57 230 -148c37 91 122 148 230 148zM303 52c55 0 102 19 140 57c38 39 57 86 57 141s-19 102 -57 140c-38 39 -85 58 -140 58c-58 0 -105 -19 -142 -57s-55 -85 -55 -141s18 -103 55 -141s84 -57 142 -57zM761 448
c-104 0 -180 -68 -193 -167h373c-7 53 -27 94 -61 123s-74 44 -119 44z" />
    <glyph glyph-name="Racute" unicode="&#x154;" horiz-adv-x="610" 
d="M340 900h80l-96 -130h-64zM590 0h-80l-164 280h-196v-280h-70v700h280c58 0 107 -21 148 -62s62 -90 62 -148c0 -47 -14 -90 -43 -127c-28 -37 -64 -61 -108 -74zM360 634h-210v-288h210c39 0 72 14 99 42c27 29 41 63 41 102c0 40 -14 74 -41 102s-60 42 -99 42z" />
    <glyph glyph-name="racute" unicode="&#x155;" horiz-adv-x="314" 
d="M212 700h80l-96 -130h-64zM136 500v-83c31 61 83 91 158 91v-64c-91 0 -158 -51 -158 -166v-278h-66v500h66z" />
    <glyph glyph-name="Rcommaaccent" unicode="&#x156;" horiz-adv-x="610" 
d="M419 289l171 -289h-80l-164 280h-196v-280h-70v700h280c58 0 107 -21 148 -62s62 -90 62 -148c0 -47 -14 -90 -43 -127c-28 -37 -64 -61 -108 -74zM360 634h-210v-288h210c39 0 72 14 99 42c27 29 41 63 41 102c0 40 -14 74 -41 102s-60 42 -99 42zM334 -240h-46l10 170
h66z" />
    <glyph glyph-name="rcommaaccent" unicode="&#x157;" horiz-adv-x="314" 
d="M136 500v-83c31 61 83 91 158 91v-64c-91 0 -158 -51 -158 -166v-278h-66v500h66zM107 -240h-46l10 170h66z" />
    <glyph glyph-name="Rcaron" unicode="&#x158;" horiz-adv-x="610" 
d="M349 770h-78l-106 130h75l70 -87l70 87h75zM590 0h-80l-164 280h-196v-280h-70v700h280c58 0 107 -21 148 -62s62 -90 62 -148c0 -47 -14 -90 -43 -127c-28 -37 -64 -61 -108 -74zM360 634h-210v-288h210c39 0 72 14 99 42c27 29 41 63 41 102c0 40 -14 74 -41 102
s-60 42 -99 42z" />
    <glyph glyph-name="rcaron" unicode="&#x159;" horiz-adv-x="314" 
d="M221 570h-78l-106 130h75l70 -87l70 87h75zM136 500v-83c31 61 83 91 158 91v-64c-91 0 -158 -51 -158 -166v-278h-66v500h66z" />
    <glyph glyph-name="Sacute" unicode="&#x15a;" horiz-adv-x="576" 
d="M232 770l80 130h80l-96 -130h-64zM300 -12c71 0 128 18 171 53c43 36 65 84 65 143c0 36 -12 69 -25 90c-12 23 -47 47 -67 59c-10 7 -26 14 -47 22c-21 9 -37 15 -48 18l-54 19c-55 18 -95 36 -119 53s-36 43 -36 78c0 76 58 121 145 121c83 0 140 -39 172 -116l59 33
c-39 88 -122 151 -231 151c-61 0 -112 -17 -153 -52c-41 -34 -62 -81 -62 -140c0 -61 27 -107 80 -139c23 -15 71 -34 144 -58c61 -20 105 -39 132 -58s40 -46 40 -83c0 -76 -61 -126 -165 -126c-107 0 -176 51 -201 138l-60 -35c36 -107 132 -171 260 -171z" />
    <glyph glyph-name="sacute" unicode="&#x15b;" horiz-adv-x="454" 
d="M259 700h80l-96 -130h-64zM122 369c0 -45 46 -70 103 -85c84 -21 189 -44 189 -152c0 -43 -17 -77 -51 -104c-33 -27 -77 -40 -130 -40c-96 0 -166 47 -193 115l56 33c19 -52 70 -84 137 -84c65 0 115 25 115 80c0 45 -46 70 -103 85c-84 21 -189 44 -189 152
c0 41 16 75 48 102c33 27 74 41 123 41c81 0 146 -39 175 -102l-55 -32c-19 47 -59 70 -120 70c-57 0 -105 -28 -105 -79z" />
    <glyph glyph-name="Scedilla" unicode="&#x15e;" horiz-adv-x="576" 
d="M536 184c0 -115 -87 -189 -219 -196v-33c57 -11 93 -40 93 -81c0 -68 -68 -98 -205 -90v54c98 -8 147 4 147 36c0 25 -31 39 -93 41v75c-108 13 -187 74 -219 169l60 35c25 -87 94 -138 201 -138c104 0 165 50 165 126c0 37 -13 64 -40 83s-71 38 -132 58
c-73 24 -121 43 -144 58c-53 32 -80 78 -80 139c0 59 21 106 62 140c41 35 92 52 153 52c109 0 192 -63 231 -151l-59 -33c-32 77 -89 116 -172 116c-87 0 -145 -45 -145 -121c0 -35 12 -61 36 -78s64 -35 119 -53l54 -19c11 -3 27 -9 48 -18c21 -8 37 -15 47 -22
c20 -12 55 -36 67 -59c13 -21 25 -54 25 -90z" />
    <glyph glyph-name="scedilla" unicode="&#x15f;" horiz-adv-x="454" 
d="M414 132c0 -77 -63 -134 -156 -143v-34c57 -11 93 -40 93 -81c0 -68 -68 -98 -205 -90v54c98 -8 147 4 147 36c0 25 -31 39 -93 41v75c-80 9 -137 54 -160 113l56 33c19 -52 70 -84 137 -84c65 0 115 25 115 80c0 45 -46 70 -103 85c-84 21 -189 44 -189 152
c0 41 16 75 48 102c33 27 74 41 123 41c81 0 146 -39 175 -102l-55 -32c-19 47 -59 70 -120 70c-57 0 -105 -28 -105 -79c0 -45 46 -70 103 -85c84 -21 189 -44 189 -152z" />
    <glyph glyph-name="Scaron" unicode="&#x160;" horiz-adv-x="576" 
d="M321 770h-78l-106 130h75l70 -87l70 87h75zM295 392l54 -19c11 -3 27 -9 48 -18c21 -8 37 -15 47 -22c20 -12 55 -36 67 -59c13 -21 25 -54 25 -90c0 -59 -22 -107 -65 -143c-43 -35 -100 -53 -171 -53c-128 0 -224 64 -260 171l60 35c25 -87 94 -138 201 -138
c104 0 165 50 165 126c0 37 -13 64 -40 83s-71 38 -132 58c-73 24 -121 43 -144 58c-53 32 -80 78 -80 139c0 59 21 106 62 140c41 35 92 52 153 52c109 0 192 -63 231 -151l-59 -33c-32 77 -89 116 -172 116c-87 0 -145 -45 -145 -121c0 -35 12 -61 36 -78s64 -35 119 -53z
" />
    <glyph glyph-name="scaron" unicode="&#x161;" horiz-adv-x="454" 
d="M268 570h-78l-106 130h75l70 -87l70 87h75zM122 369c0 -45 46 -70 103 -85c84 -21 189 -44 189 -152c0 -43 -17 -77 -51 -104c-33 -27 -77 -40 -130 -40c-96 0 -166 47 -193 115l56 33c19 -52 70 -84 137 -84c65 0 115 25 115 80c0 45 -46 70 -103 85
c-84 21 -189 44 -189 152c0 41 16 75 48 102c33 27 74 41 123 41c81 0 146 -39 175 -102l-55 -32c-19 47 -59 70 -120 70c-57 0 -105 -28 -105 -79z" />
    <glyph glyph-name="uni0162" unicode="&#x162;" horiz-adv-x="540" 
d="M20 700h500v-66h-215v-634h-70v634h-215v66zM274 -240h-46l10 170h66z" />
    <glyph glyph-name="uni0163" unicode="&#x163;" horiz-adv-x="375" 
d="M335 500v-64h-144v-303c0 -86 48 -79 144 -75v-58c-140 -21 -210 17 -210 133v303h-105v64h105v120l66 20v-140h144zM240 -240h-46l10 170h66z" />
    <glyph glyph-name="Tcaron" unicode="&#x164;" horiz-adv-x="540" 
d="M309 770h-78l-106 130h75l70 -87l70 87h75zM20 700h500v-66h-215v-634h-70v634h-215v66z" />
    <glyph glyph-name="tcaron" unicode="&#x165;" horiz-adv-x="375" 
d="M256 715h66l-30 -160h-46zM335 500v-64h-144v-303c0 -86 48 -79 144 -75v-58c-140 -21 -210 17 -210 133v303h-105v64h105v120l66 20v-140h144z" />
    <glyph glyph-name="Tbar" unicode="&#x166;" horiz-adv-x="540" 
d="M520 700v-66h-215v-252h145v-64h-145v-318h-70v318h-145v64h145v252h-215v66h500z" />
    <glyph glyph-name="tbar" unicode="&#x167;" horiz-adv-x="375" 
d="M335 500v-64h-144v-149h97v-54h-97v-100c0 -86 48 -79 144 -75v-58c-140 -21 -210 17 -210 133v100h-67v54h67v149h-105v64h105v120l66 20v-140h144z" />
    <glyph glyph-name="Umacron" unicode="&#x16a;" horiz-adv-x="660" 
d="M460 780h-260v58h260v-58zM70 238v462h70v-462c0 -112 70 -182 190 -182s190 70 190 182v462h70v-462c0 -76 -24 -137 -72 -182s-111 -68 -188 -68s-140 23 -188 68s-72 106 -72 182z" />
    <glyph glyph-name="umacron" unicode="&#x16b;" horiz-adv-x="558" 
d="M141 638h260v-58h-260v58zM422 238v262h66v-500h-66v78c-37 -60 -93 -90 -168 -90c-121 0 -196 80 -196 205v307h66v-307c0 -89 49 -141 136 -141c96 0 162 59 162 186z" />
    <glyph glyph-name="Uring" unicode="&#x16e;" horiz-adv-x="660" 
d="M406 748c-19 -19 -45 -28 -76 -28s-57 9 -77 28c-19 19 -29 43 -29 72s10 52 29 71c20 19 46 29 77 29s57 -10 76 -29c20 -19 30 -42 30 -71s-10 -53 -30 -72zM330 771c69 -6 69 104 0 98c-67 6 -67 -104 0 -98zM70 238v462h70v-462c0 -112 70 -182 190 -182
s190 70 190 182v462h70v-462c0 -76 -24 -137 -72 -182s-111 -68 -188 -68s-140 23 -188 68s-72 106 -72 182z" />
    <glyph glyph-name="uring" unicode="&#x16f;" horiz-adv-x="558" 
d="M347 578c-19 -19 -45 -28 -76 -28s-57 9 -77 28c-19 19 -29 43 -29 72s10 52 29 71c20 19 46 29 77 29s57 -10 76 -29c20 -19 30 -42 30 -71s-10 -53 -30 -72zM271 699c-67 6 -67 -104 0 -98c69 -6 69 104 0 98zM422 238v262h66v-500h-66v78c-37 -60 -93 -90 -168 -90
c-121 0 -196 80 -196 205v307h66v-307c0 -89 49 -141 136 -141c96 0 162 59 162 186z" />
    <glyph glyph-name="Uhungarumlaut" unicode="&#x170;" horiz-adv-x="660" 
d="M200 770l70 130h74l-76 -130h-68zM343 770l80 130h74l-86 -130h-68zM70 238c0 -76 24 -137 72 -182s111 -68 188 -68s140 23 188 68s72 106 72 182v462h-70v-462c0 -112 -70 -182 -190 -182s-190 70 -190 182v462h-70v-462z" />
    <glyph glyph-name="uhungarumlaut" unicode="&#x171;" horiz-adv-x="558" 
d="M211 700h74l-76 -130h-68zM438 700l-86 -130h-68l80 130h74zM422 238v262h66v-500h-66v78c-37 -60 -93 -90 -168 -90c-121 0 -196 80 -196 205v307h66v-307c0 -89 49 -141 136 -141c96 0 162 59 162 186z" />
    <glyph glyph-name="Uogonek" unicode="&#x172;" horiz-adv-x="660" 
d="M520 238v462h70v-462c0 -87 -31 -153 -92 -198c-87 -81 -118 -121 -118 -164c0 -21 11 -31 34 -31c14 0 28 3 42 9v-55c-18 -7 -38 -11 -59 -11c-52 0 -82 31 -82 76c0 41 21 83 64 127c-16 -2 -32 -3 -49 -3c-77 0 -140 23 -188 68s-72 106 -72 182v462h70v-462
c0 -112 70 -182 190 -182s190 70 190 182z" />
    <glyph glyph-name="uogonek" unicode="&#x173;" horiz-adv-x="558" 
d="M488 500v-500c-45 -41 -76 -91 -76 -124c0 -21 11 -31 34 -31c14 0 28 3 42 9v-55c-18 -7 -38 -11 -59 -11c-52 0 -82 31 -82 76c0 40 25 89 75 147v67c-37 -60 -93 -90 -168 -90c-121 0 -196 80 -196 205v307h66v-307c0 -89 49 -141 136 -141c96 0 162 59 162 186v262
h66z" />
    <glyph glyph-name="Wcircumflex" unicode="&#x174;" horiz-adv-x="1000" 
d="M570 770l-70 87l-70 -87h-75l106 130h78l106 -130h-75zM723 95l173 605h74l-203 -700h-84l-183 608l-183 -608h-84l-203 700h74l173 -605l182 605h82z" />
    <glyph glyph-name="wcircumflex" unicode="&#x175;" horiz-adv-x="770" 
d="M455 570l-70 87l-70 -87h-75l106 130h78l106 -130h-75zM549 85l123 415h68l-154 -500h-72l-129 403l-129 -403h-72l-154 500h68l123 -415l131 415h66z" />
    <glyph glyph-name="Ycircumflex" unicode="&#x176;" horiz-adv-x="595" 
d="M364 770l-70 87l-70 -87h-75l106 130h78l106 -130h-75zM506 700h79l-253 -413v-287h-70v289l-252 411h79l209 -343z" />
    <glyph glyph-name="ycircumflex" unicode="&#x177;" horiz-adv-x="510" 
d="M323 570l-70 87l-70 -87h-75l106 130h78l106 -130h-75zM268 81l162 419h70l-214 -546c-39 -99 -114 -161 -202 -154v62c60 -7 106 28 137 104l13 31l-224 503h70z" />
    <glyph glyph-name="Ydieresis" unicode="&#x178;" horiz-adv-x="595" 
d="M231 788c-17 -17 -47 -17 -64 0s-17 47 0 64s47 17 64 0s17 -47 0 -64zM421 788c-17 -17 -47 -17 -64 0s-17 47 0 64s47 17 64 0s17 -47 0 -64zM506 700h79l-253 -413v-287h-70v289l-252 411h79l209 -343z" />
    <glyph glyph-name="Zacute" unicode="&#x179;" horiz-adv-x="520" 
d="M295 900h80l-96 -130h-64zM480 634l-362 -568h372v-66h-450v66l362 568h-352v66h430v-66z" />
    <glyph glyph-name="zacute" unicode="&#x17a;" horiz-adv-x="470" 
d="M272 700h80l-96 -130h-64zM420 456l-278 -392h288v-64h-380v44l278 392h-268v64h360v-44z" />
    <glyph glyph-name="Zdotaccent" unicode="&#x17b;" horiz-adv-x="520" 
d="M304 786c-21 -21 -57 -21 -78 0s-21 57 0 78s57 21 78 0s21 -57 0 -78zM480 634l-362 -568h372v-66h-450v66l362 568h-352v66h430v-66z" />
    <glyph glyph-name="zdotaccent" unicode="&#x17c;" horiz-adv-x="470" 
d="M281 586c-21 -21 -57 -21 -78 0s-21 57 0 78s57 21 78 0s21 -57 0 -78zM420 456l-278 -392h288v-64h-380v44l278 392h-268v64h360v-44z" />
    <glyph glyph-name="Zcaron" unicode="&#x17d;" horiz-adv-x="520" 
d="M304 770h-78l-106 130h75l70 -87l70 87h75zM480 634l-362 -568h372v-66h-450v66l362 568h-352v66h430v-66z" />
    <glyph glyph-name="zcaron" unicode="&#x17e;" horiz-adv-x="470" 
d="M281 570h-78l-106 130h75l70 -87l70 87h75zM420 456l-278 -392h288v-64h-380v44l278 392h-268v64h360v-44z" />
    <glyph glyph-name="florin" unicode="&#x192;" horiz-adv-x="439" 
d="M439 703v-64c-72 27 -121 -1 -132 -68l-32 -188h115v-64h-126l-66 -388c-20 -117 -97 -163 -198 -132v64c72 -27 121 1 132 68l66 388h-109v64h120l32 188c20 117 97 163 198 132z" />
    <glyph glyph-name="Scommaaccent" unicode="&#x218;" horiz-adv-x="576" 
d="M300 -12c-128 0 -224 64 -260 171l60 35c25 -87 94 -138 201 -138c104 0 165 50 165 126c0 37 -13 64 -40 83s-71 38 -132 58c-73 24 -121 43 -144 58c-53 32 -80 78 -80 139c0 59 21 106 62 140c41 35 92 52 153 52c109 0 192 -63 231 -151l-59 -33
c-32 77 -89 116 -172 116c-87 0 -145 -45 -145 -121c0 -35 12 -61 36 -78s64 -35 119 -53l54 -19c11 -3 27 -9 48 -18c21 -8 37 -15 47 -22c20 -12 55 -36 67 -59c13 -21 25 -54 25 -90c0 -59 -22 -107 -65 -143c-43 -35 -100 -53 -171 -53zM309 -240h-46l10 170h66z" />
    <glyph glyph-name="scommaaccent" unicode="&#x219;" horiz-adv-x="454" 
d="M122 369c0 -45 46 -70 103 -85c84 -21 189 -44 189 -152c0 -43 -17 -77 -51 -104c-33 -27 -77 -40 -130 -40c-96 0 -166 47 -193 115l56 33c19 -52 70 -84 137 -84c65 0 115 25 115 80c0 45 -46 70 -103 85c-84 21 -189 44 -189 152c0 41 16 75 48 102
c33 27 74 41 123 41c81 0 146 -39 175 -102l-55 -32c-19 47 -59 70 -120 70c-57 0 -105 -28 -105 -79zM250 -240h-46l10 170h66z" />
    <glyph glyph-name="uni021A" unicode="&#x21a;" horiz-adv-x="540" 
d="M20 700h500v-66h-215v-634h-70v634h-215v66zM274 -240h-46l10 170h66z" />
    <glyph glyph-name="uni021B" unicode="&#x21b;" horiz-adv-x="375" 
d="M335 500v-64h-144v-303c0 -86 48 -79 144 -75v-58c-140 -21 -210 17 -210 133v303h-105v64h105v120l66 20v-140h144zM240 -240h-46l10 170h66z" />
    <glyph glyph-name="circumflex" unicode="&#x2c6;" horiz-adv-x="330" 
d="M204 700l106 -130h-75l-70 87l-70 -87h-75l106 130h78z" />
    <glyph glyph-name="caron" unicode="&#x2c7;" horiz-adv-x="330" 
d="M165 613l70 87h75l-106 -130h-78l-106 130h75z" />
    <glyph glyph-name="breve" unicode="&#x2d8;" horiz-adv-x="320" 
d="M160 562c-85 0 -140 49 -140 130h64c0 -48 25 -72 76 -72s76 24 76 72h64c0 -83 -53 -130 -140 -130z" />
    <glyph glyph-name="dotaccent" unicode="&#x2d9;" horiz-adv-x="150" 
d="M114 586c-21 -21 -57 -21 -78 0s-21 57 0 78s57 21 78 0s21 -57 0 -78z" />
    <glyph glyph-name="ring" unicode="&#x2da;" horiz-adv-x="252" 
d="M202 578c-19 -19 -45 -28 -76 -28s-57 9 -77 28c-19 19 -29 43 -29 72s10 52 29 71c20 19 46 29 77 29s57 -10 76 -29c20 -19 30 -42 30 -71s-10 -53 -30 -72zM126 601c69 -6 69 104 0 98c-67 6 -67 -104 0 -98z" />
    <glyph glyph-name="ogonek" unicode="&#x2db;" horiz-adv-x="181" 
d="M102 -212c-52 0 -82 31 -82 76c0 44 24 89 72 136h69c-45 -41 -76 -91 -76 -124c0 -21 11 -31 34 -31c14 0 28 3 42 9v-55c-18 -7 -38 -11 -59 -11z" />
    <glyph glyph-name="tilde" unicode="&#x2dc;" horiz-adv-x="320" 
d="M78 580h-58c0 121 72 140 141 87c53 -41 81 -55 81 23h58c0 -121 -71 -140 -140 -87c-31 23 -44 32 -60 33s-22 -17 -22 -56z" />
    <glyph glyph-name="hungarumlaut" unicode="&#x2dd;" horiz-adv-x="337" 
d="M20 570l70 130h74l-76 -130h-68zM163 570l80 130h74l-86 -130h-68z" />
    <glyph glyph-name="gravecomb" unicode="&#x300;" horiz-adv-x="0" 
d="M-20 570h-64l-96 130h80z" />
    <glyph glyph-name="acutecomb" unicode="&#x301;" horiz-adv-x="0" 
d="M-180 570l80 130h80l-96 -130h-64z" />
    <glyph glyph-name="uni0302" unicode="&#x302;" horiz-adv-x="0" 
d="M-126 700l106 -130h-75l-70 87l-70 -87h-75l106 130h78z" />
    <glyph glyph-name="tildecomb" unicode="&#x303;" horiz-adv-x="0" 
d="M-242 580h-58c0 121 72 140 141 87c53 -41 81 -55 81 23h58c0 -121 -71 -140 -140 -87c-31 23 -44 32 -60 33s-22 -17 -22 -56z" />
    <glyph glyph-name="uni0304" unicode="&#x304;" horiz-adv-x="0" 
d="M-20 580h-260v58h260v-58z" />
    <glyph glyph-name="uni0306" unicode="&#x306;" horiz-adv-x="0" 
d="M-160 562c-85 0 -140 49 -140 130h64c0 -48 25 -72 76 -72s76 24 76 72h64c0 -83 -53 -130 -140 -130z" />
    <glyph glyph-name="uni0307" unicode="&#x307;" horiz-adv-x="0" 
d="M-36 586c-21 -21 -57 -21 -78 0s-21 57 0 78s57 21 78 0s21 -57 0 -78z" />
    <glyph glyph-name="uni0308" unicode="&#x308;" horiz-adv-x="0" 
d="M-223 588c-17 -17 -47 -17 -64 0s-17 47 0 64s47 17 64 0s17 -47 0 -64zM-33 588c-17 -17 -47 -17 -64 0s-17 47 0 64s47 17 64 0s17 -47 0 -64z" />
    <glyph glyph-name="uni030A" unicode="&#x30a;" horiz-adv-x="0" 
d="M-49 578c-20 -19 -46 -28 -77 -28s-57 9 -76 28c-20 19 -30 43 -30 72s10 52 30 71c19 19 45 29 76 29s57 -10 77 -29c19 -19 29 -42 29 -71s-10 -53 -29 -72zM-126 601c69 -6 69 104 0 98c-67 6 -67 -104 0 -98z" />
    <glyph glyph-name="uni030B" unicode="&#x30b;" horiz-adv-x="0" 
d="M-317 570l70 130h74l-76 -130h-68zM-174 570l80 130h74l-86 -130h-68z" />
    <glyph glyph-name="uni030C" unicode="&#x30c;" horiz-adv-x="0" 
d="M-165 613l70 87h75l-106 -130h-78l-106 130h75z" />
    <glyph glyph-name="uni0312" unicode="&#x312;" horiz-adv-x="0" 
d="M-66 960h46l-10 -170h-66z" />
    <glyph glyph-name="uni0326" unicode="&#x326;" horiz-adv-x="0" 
d="M-50 -240h-46l10 170h66z" />
    <glyph glyph-name="uni0327" unicode="&#x327;" horiz-adv-x="0" 
d="M-113 0v-45c57 -11 93 -40 93 -81c0 -68 -68 -98 -205 -90v54c98 -8 147 4 147 36c0 25 -31 39 -93 41v85h58z" />
    <glyph glyph-name="uni0328" unicode="&#x328;" horiz-adv-x="0" 
d="M-79 -212c-52 0 -82 31 -82 76c0 44 24 89 72 136h69c-45 -41 -76 -91 -76 -124c0 -21 11 -31 34 -31c14 0 28 3 42 9v-55c-18 -7 -38 -11 -59 -11z" />
    <glyph glyph-name="uni0394" unicode="&#x394;" horiz-adv-x="630" 
d="M279 700h72l269 -700h-610zM315 613l-206 -547h412z" />
    <glyph glyph-name="uni03A9" unicode="&#x3a9;" horiz-adv-x="804" 
d="M764 350c0 -120 -58 -224 -151 -284h139v-66h-273v66c63 17 115 51 155 103c40 53 60 113 60 181c0 82 -28 151 -84 208s-125 86 -208 86s-152 -29 -208 -86s-84 -126 -84 -208c0 -68 20 -128 59 -181c40 -52 92 -86 156 -103v-66h-273v66h139c-95 60 -151 164 -151 284
c0 101 35 186 105 256c70 71 156 106 257 106s187 -35 257 -106c70 -70 105 -155 105 -256z" />
    <glyph glyph-name="pi" unicode="&#x3c0;" horiz-adv-x="650" 
d="M30 500h590v-64h-83v-436h-66v436h-288v-436h-66v436h-87v64z" />
    <glyph glyph-name="uni0401" unicode="&#x401;" horiz-adv-x="530" 
d="M220 788c-17 -17 -47 -17 -64 0s-17 47 0 64s47 17 64 0s17 -47 0 -64zM410 788c-17 -17 -47 -17 -64 0s-17 47 0 64s47 17 64 0s17 -47 0 -64zM150 320v-254h340v-66h-410v700h405v-66h-335v-248h310v-66h-310z" />
    <glyph glyph-name="uni0402" unicode="&#x402;" horiz-adv-x="698" 
d="M444 472c112 0 189 -67 189 -190v-118c0 -120 -65 -183 -180 -172v64c77 -8 110 23 110 108v118c0 84 -39 126 -118 126c-55 0 -109 -11 -160 -33v-375h-70v634h-195v66h490v-66h-225v-196c47 23 100 34 159 34z" />
    <glyph glyph-name="uni0403" unicode="&#x403;" horiz-adv-x="490" 
d="M306 899h80l-96 -130h-64zM80 700h390v-66h-320v-634h-70v700z" />
    <glyph glyph-name="uni0404" unicode="&#x404;" horiz-adv-x="740" 
d="M402 56c104 0 197 55 241 140l62 -35c-57 -105 -174 -173 -303 -173c-106 0 -193 35 -261 104c-67 70 -101 156 -101 258s34 188 101 257c68 70 155 105 261 105c129 0 244 -67 303 -172l-62 -36c-44 85 -137 140 -241 140c-81 0 -147 -25 -200 -74s-83 -112 -90 -187
h383v-66h-383c7 -75 37 -138 90 -187s119 -74 200 -74z" />
    <glyph glyph-name="uni0405" unicode="&#x405;" horiz-adv-x="576" 
d="M300 -12c-128 0 -224 64 -260 171l60 35c25 -87 94 -138 201 -138c104 0 165 50 165 126c0 37 -13 64 -40 83s-71 38 -132 58c-73 24 -121 43 -144 58c-53 32 -80 78 -80 139c0 59 21 106 62 140c41 35 92 52 153 52c109 0 192 -63 231 -151l-59 -33
c-32 77 -89 116 -172 116c-87 0 -145 -45 -145 -121c0 -35 12 -61 36 -78s64 -35 119 -53l54 -19c11 -3 27 -9 48 -18c21 -8 37 -15 47 -22c20 -12 55 -36 67 -59c13 -21 25 -54 25 -90c0 -59 -22 -107 -65 -143c-43 -35 -100 -53 -171 -53z" />
    <glyph glyph-name="uni0406" unicode="&#x406;" horiz-adv-x="230" 
d="M80 0v700h70v-700h-70z" />
    <glyph glyph-name="uni0407" unicode="&#x407;" horiz-adv-x="230" 
d="M52 788c-17 -17 -47 -17 -64 0s-17 47 0 64s47 17 64 0s17 -47 0 -64zM242 788c-17 -17 -47 -17 -64 0s-17 47 0 64s47 17 64 0s17 -47 0 -64zM80 0v700h70v-700h-70z" />
    <glyph glyph-name="uni0408" unicode="&#x408;" horiz-adv-x="553" 
d="M253 -12c-97 0 -180 41 -213 120l59 35c22 -58 73 -87 154 -87c97 0 160 46 160 142v502h70v-502c0 -68 -22 -120 -66 -156c-43 -36 -98 -54 -164 -54z" />
    <glyph glyph-name="uni0409" unicode="&#x409;" horiz-adv-x="995" 
d="M585 400h160c59 0 108 -19 149 -58c41 -38 61 -85 61 -142s-20 -105 -61 -143s-90 -57 -149 -57h-230v634h-284v-325c0 -123 -18 -207 -55 -252c-36 -45 -90 -64 -161 -58v62c49 -7 85 9 109 46c25 37 37 105 37 204v389h424v-300zM585 66h160c39 0 72 12 99 37
s41 58 41 97s-14 71 -41 96s-60 38 -99 38h-160v-268z" />
    <glyph glyph-name="uni040A" unicode="&#x40a;" horiz-adv-x="980" 
d="M570 400h160c59 0 108 -19 149 -58c41 -38 61 -85 61 -142s-20 -105 -61 -143s-90 -57 -149 -57h-230v334h-350v-334h-70v700h70v-300h350v300h70v-300zM570 66h160c39 0 72 12 99 37s41 58 41 97s-14 71 -41 96s-60 38 -99 38h-160v-268z" />
    <glyph glyph-name="uni040B" unicode="&#x40b;" horiz-adv-x="703" 
d="M444 472c112 0 189 -67 189 -190v-282h-70v282c0 84 -39 126 -118 126c-55 0 -109 -11 -160 -33v-375h-70v634h-195v66h490v-66h-225v-196c47 23 100 34 159 34z" />
    <glyph glyph-name="uni040C" unicode="&#x40c;" horiz-adv-x="580" 
d="M316 899h80l-96 -130h-64zM224 360l346 -360h-92l-328 339v-339h-70v700h70v-320l318 320h92z" />
    <glyph glyph-name="uni040E" unicode="&#x40e;" horiz-adv-x="570" 
d="M161 837h260v-58h-260v58zM304 270l184 430h72l-233 -547c-47 -112 -116 -160 -223 -153v64c75 -8 121 20 153 95l14 33l-241 508h72z" />
    <glyph glyph-name="uni040F" unicode="&#x40f;" horiz-adv-x="660" 
d="M510 66v634h70v-700h-215v-134h-70v134h-215v700h70v-634h360z" />
    <glyph glyph-name="uni0410" unicode="&#x410;" horiz-adv-x="630" 
d="M620 0h-74l-65 172h-332l-65 -172h-74l269 700h72zM315 613l-141 -375h282z" />
    <glyph glyph-name="uni0411" unicode="&#x411;" horiz-adv-x="585" 
d="M150 420h190c58 0 107 -21 148 -62s62 -91 62 -148c0 -58 -21 -108 -62 -149s-90 -61 -148 -61h-260v700h410v-66h-340v-214zM150 66h190c39 0 72 14 99 42s41 62 41 102c0 39 -14 73 -41 101c-27 29 -60 43 -99 43h-190v-288z" />
    <glyph glyph-name="uni0412" unicode="&#x412;" horiz-adv-x="620" 
d="M468 363c68 -29 112 -92 112 -168c0 -54 -19 -100 -57 -138s-84 -57 -138 -57h-305v700h282c52 0 96 -19 133 -56s55 -81 55 -132c0 -65 -27 -115 -82 -149zM362 634h-212v-244h212c33 0 60 12 83 35c23 24 35 53 35 87c0 33 -12 62 -35 86s-50 36 -83 36zM150 66h235
c35 0 64 12 88 37c25 25 37 56 37 92c0 35 -12 66 -37 91c-24 25 -53 38 -88 38h-235v-258z" />
    <glyph glyph-name="uni0413" unicode="&#x413;" horiz-adv-x="490" 
d="M80 700h390v-66h-320v-634h-70v700z" />
    <glyph glyph-name="uni0414" unicode="&#x414;" horiz-adv-x="690" 
d="M580 700v-634h75v-200h-70v134h-500v-134h-70v200h57c46 54 69 137 69 250v384h439zM155 66h355v568h-299v-320c0 -111 -19 -193 -56 -248z" />
    <glyph glyph-name="uni0415" unicode="&#x415;" horiz-adv-x="530" 
d="M150 320v-254h340v-66h-410v700h405v-66h-335v-248h310v-66h-310z" />
    <glyph glyph-name="uni0416" unicode="&#x416;" horiz-adv-x="850" 
d="M529 360l301 -360h-82l-288 342v-342h-70v342l-288 -342h-82l301 360l-291 340h82l278 -323v323h70v-323l278 323h82z" />
    <glyph glyph-name="uni0417" unicode="&#x417;" horiz-adv-x="565" 
d="M403 362c77 -29 122 -92 122 -173c0 -59 -22 -107 -66 -145c-43 -37 -102 -56 -176 -56c-133 0 -212 67 -243 158l60 34c17 -71 72 -126 183 -126c109 0 172 55 172 135s-59 135 -156 135h-80v66h55c95 0 155 53 155 129c0 75 -58 127 -151 127c-86 0 -143 -37 -170 -110
l-58 34c35 85 109 142 228 142c66 0 119 -19 160 -56s61 -83 61 -138c0 -70 -32 -122 -96 -156z" />
    <glyph glyph-name="uni0418" unicode="&#x418;" horiz-adv-x="680" 
d="M600 0h-70v570l-390 -570h-60v700h70v-570l390 570h60v-700z" />
    <glyph glyph-name="uni0419" unicode="&#x419;" horiz-adv-x="680" 
d="M470 780h-260v58h260v-58zM600 0h-70v570l-390 -570h-60v700h70v-570l390 570h60v-700z" />
    <glyph glyph-name="uni041A" unicode="&#x41a;" horiz-adv-x="580" 
d="M224 360l346 -360h-92l-328 339v-339h-70v700h70v-320l318 320h92z" />
    <glyph glyph-name="uni041B" unicode="&#x41b;" horiz-adv-x="695" 
d="M15 0v62c49 -7 85 8 109 45c25 37 37 105 37 204v389h454v-700h-70v634h-314v-325c0 -260 -85 -319 -216 -309z" />
    <glyph glyph-name="uni041C" unicode="&#x41c;" horiz-adv-x="800" 
d="M633 700h87v-700h-70v594l-245 -410h-10l-245 410v-594h-70v700h87l233 -390z" />
    <glyph glyph-name="uni041D" unicode="&#x41d;" horiz-adv-x="680" 
d="M530 393v307h70v-700h-70v327h-380v-327h-70v700h70v-307h380z" />
    <glyph glyph-name="uni041E" unicode="&#x41e;" horiz-adv-x="804" 
d="M659 93c-70 -70 -156 -105 -257 -105s-187 35 -257 105c-70 71 -105 156 -105 257s35 186 105 256c70 71 156 106 257 106s187 -35 257 -106c70 -70 105 -155 105 -256s-35 -186 -105 -257zM194 141c56 -57 125 -85 208 -85s152 28 208 85s84 127 84 209s-28 151 -84 208
s-125 86 -208 86s-152 -29 -208 -86s-84 -126 -84 -208s28 -152 84 -209z" />
    <glyph glyph-name="uni041F" unicode="&#x41f;" horiz-adv-x="660" 
d="M80 700h500v-700h-70v634h-360v-634h-70v700z" />
    <glyph glyph-name="uni0420" unicode="&#x420;" horiz-adv-x="590" 
d="M80 700h250c63 0 115 -21 157 -63s63 -94 63 -157s-21 -115 -63 -157s-94 -63 -157 -63h-180v-260h-70v700zM150 326h180c43 0 79 14 107 43c29 29 43 66 43 111s-14 81 -43 110c-28 29 -64 44 -107 44h-180v-308z" />
    <glyph glyph-name="uni0421" unicode="&#x421;" horiz-adv-x="745" 
d="M407 -12c-106 0 -194 35 -263 105s-104 156 -104 257s35 187 104 257s157 105 263 105c129 0 244 -67 303 -172l-62 -36c-44 85 -137 140 -241 140c-87 0 -159 -28 -214 -85s-83 -126 -83 -209s28 -152 83 -209s127 -85 214 -85c104 0 197 55 241 140l62 -35
c-57 -105 -174 -173 -303 -173z" />
    <glyph glyph-name="uni0422" unicode="&#x422;" horiz-adv-x="540" 
d="M20 700h500v-66h-215v-634h-70v634h-215v66z" />
    <glyph glyph-name="uni0423" unicode="&#x423;" horiz-adv-x="570" 
d="M304 270l184 430h72l-233 -547c-47 -112 -116 -160 -223 -153v64c75 -8 121 20 153 95l14 33l-241 508h72z" />
    <glyph glyph-name="uni0424" unicode="&#x424;" horiz-adv-x="804" 
d="M437 79v-79h-70v79c-101 5 -183 30 -245 77c-61 47 -92 111 -92 194s31 147 92 194c62 47 144 72 245 77v79h70v-79c101 -5 183 -30 244 -77c62 -47 93 -111 93 -194s-31 -147 -93 -194c-61 -47 -143 -72 -244 -77zM367 143v414c-164 -8 -267 -79 -267 -207
s103 -199 267 -207zM437 557v-414c164 8 267 79 267 207s-103 199 -267 207z" />
    <glyph glyph-name="uni0425" unicode="&#x425;" horiz-adv-x="580" 
d="M330 361l230 -361h-80l-190 299l-190 -299h-80l230 361l-215 339h79l176 -276l176 276h79z" />
    <glyph glyph-name="uni0426" unicode="&#x426;" horiz-adv-x="690" 
d="M580 700v-634h75v-200h-70v134h-505v700h70v-634h360v634h70z" />
    <glyph glyph-name="uni0427" unicode="&#x427;" horiz-adv-x="625" 
d="M475 361v339h70v-700h-70v295c-61 -30 -124 -45 -190 -45c-67 0 -120 19 -160 56s-60 85 -60 144v250h70v-250c0 -81 55 -134 150 -134c66 0 129 15 190 45z" />
    <glyph glyph-name="uni0428" unicode="&#x428;" horiz-adv-x="950" 
d="M800 66v634h70v-700h-790v700h70v-634h290v634h70v-634h290z" />
    <glyph glyph-name="uni0429" unicode="&#x429;" horiz-adv-x="980" 
d="M870 700v-634h75v-200h-70v134h-795v700h70v-634h290v634h70v-634h290v634h70z" />
    <glyph glyph-name="uni042A" unicode="&#x42a;" horiz-adv-x="700" 
d="M440 0h-250v634h-190v66h260v-260h180c63 0 115 -21 157 -63s63 -94 63 -157s-21 -115 -63 -157s-94 -63 -157 -63zM260 374v-308h180c43 0 79 14 107 43c29 29 43 66 43 111s-14 81 -43 110c-28 29 -64 44 -107 44h-180z" />
    <glyph glyph-name="uni042B" unicode="&#x42b;" horiz-adv-x="775" 
d="M330 0h-250v700h70v-260h180c63 0 115 -21 157 -63s63 -94 63 -157s-21 -115 -63 -157s-94 -63 -157 -63zM695 0h-70v700h70v-700zM150 374v-308h180c43 0 79 14 107 43c29 29 43 66 43 111s-14 81 -43 110c-28 29 -64 44 -107 44h-180z" />
    <glyph glyph-name="uni042C" unicode="&#x42c;" horiz-adv-x="590" 
d="M150 440h180c63 0 115 -21 157 -63s63 -94 63 -157s-21 -115 -63 -157s-94 -63 -157 -63h-250v700h70v-260zM150 66h180c43 0 79 14 107 43c29 29 43 66 43 111s-14 81 -43 110c-28 29 -64 44 -107 44h-180v-308z" />
    <glyph glyph-name="uni042D" unicode="&#x42d;" horiz-adv-x="740" 
d="M338 712c106 0 193 -35 260 -105c68 -69 102 -155 102 -257s-34 -188 -102 -258c-67 -69 -154 -104 -260 -104c-129 0 -246 68 -303 173l62 35c44 -85 137 -140 241 -140c81 0 147 25 200 74s83 112 90 187h-383v66h383c-7 75 -37 138 -90 187s-119 74 -200 74
c-104 0 -197 -55 -241 -140l-62 36c59 105 174 172 303 172z" />
    <glyph glyph-name="uni042E" unicode="&#x42e;" horiz-adv-x="1040" 
d="M638 712c101 0 187 -35 257 -106c70 -70 105 -155 105 -256s-35 -186 -105 -257c-70 -70 -156 -105 -257 -105c-97 0 -180 33 -248 98c-67 65 -104 146 -109 241h-131v-327h-70v700h70v-307h132c11 91 49 167 116 228s147 91 240 91zM430 141c56 -57 125 -85 208 -85
s152 28 208 85s84 127 84 209s-28 151 -84 208s-125 86 -208 86s-152 -29 -208 -86s-84 -126 -84 -208s28 -152 84 -209z" />
    <glyph glyph-name="uni042F" unicode="&#x42f;" horiz-adv-x="620" 
d="M260 700h280v-700h-70v280h-168l-192 -280h-80l195 283c-50 9 -92 32 -125 71s-50 85 -50 136c0 58 20 107 61 148s91 62 149 62zM260 346h210v288h-210c-39 0 -72 -14 -99 -42s-41 -62 -41 -102c0 -39 14 -73 41 -102c27 -28 60 -42 99 -42z" />
    <glyph glyph-name="uni0430" unicode="&#x430;" 
d="M500 402v98h66v-500h-66v98c-46 -73 -113 -110 -202 -110c-71 0 -132 25 -183 76c-50 51 -75 113 -75 186s25 135 75 186c51 51 112 76 183 76c89 0 156 -37 202 -110zM163 109c38 -38 85 -57 140 -57s102 19 140 57c38 39 57 86 57 141s-19 102 -57 140
c-38 39 -85 58 -140 58s-102 -19 -140 -58c-38 -38 -57 -85 -57 -140s19 -102 57 -141z" />
    <glyph glyph-name="uni0431" unicode="&#x431;" horiz-adv-x="567" 
d="M292 -12c-72 0 -132 24 -180 71c-48 48 -72 110 -72 186c0 85 13 151 38 196c25 46 77 88 154 125c15 7 34 16 58 26c25 10 43 18 55 24c41 19 87 50 88 99l52 -30c-3 -16 -8 -31 -16 -45c-16 -28 -28 -42 -64 -63c-17 -10 -31 -17 -41 -22l-50 -21l-47 -20
c-93 -40 -131 -78 -150 -147c45 60 122 88 189 88s122 -22 165 -66c44 -43 66 -99 66 -167c0 -67 -23 -123 -70 -168c-46 -44 -104 -66 -175 -66zM292 54c52 0 95 16 128 47c34 32 51 72 51 121s-16 90 -48 121c-31 32 -73 48 -126 48c-47 0 -90 -15 -129 -45
c-39 -29 -58 -69 -58 -118c0 -51 17 -92 52 -125s79 -49 130 -49z" />
    <glyph glyph-name="uni0432" unicode="&#x432;" horiz-adv-x="500" 
d="M388 257c55 -20 82 -59 82 -117c0 -81 -56 -140 -157 -140h-243v500h223c97 0 153 -55 153 -134c0 -50 -19 -86 -58 -109zM293 436h-157v-152h157c58 0 87 26 87 78c0 47 -31 74 -87 74zM136 64h177c59 0 91 29 91 80c0 47 -32 76 -91 76h-177v-156z" />
    <glyph glyph-name="uni0433" unicode="&#x433;" horiz-adv-x="400" 
d="M70 500h320v-64h-254v-436h-66v500z" />
    <glyph glyph-name="uni0434" unicode="&#x434;" horiz-adv-x="590" 
d="M490 500v-436h70v-198h-66v134h-408v-134h-66v198h61c34 45 51 108 51 189v247h358zM161 64h263v372h-226v-183c0 -77 -12 -140 -37 -189z" />
    <glyph glyph-name="uni0435" unicode="&#x435;" horiz-adv-x="584" 
d="M301 512c74 0 134 -26 179 -79c46 -52 69 -114 69 -185c0 -7 -1 -18 -2 -31h-439c13 -101 92 -165 199 -165c76 0 133 34 161 85l58 -34c-44 -71 -123 -115 -220 -115c-79 0 -143 25 -192 74s-74 112 -74 188c0 75 24 137 73 187s111 75 188 75zM301 448
c-104 0 -180 -68 -193 -167h373c-7 53 -27 94 -61 123s-74 44 -119 44z" />
    <glyph glyph-name="uni0436" unicode="&#x436;" horiz-adv-x="674" 
d="M430 260l224 -260h-80l-204 241v-241h-66v241l-204 -241h-80l224 260l-214 240h80l194 -222v222h66v-222l194 222h80z" />
    <glyph glyph-name="uni0437" unicode="&#x437;" horiz-adv-x="445" 
d="M328 257c58 -22 87 -62 87 -120c0 -41 -16 -77 -49 -106c-32 -29 -78 -43 -138 -43c-101 0 -167 40 -198 120l56 33c21 -59 68 -89 142 -89c77 0 121 37 121 89c0 47 -37 79 -96 79h-73v64h53c57 0 92 30 92 81c0 48 -42 83 -107 83c-63 0 -104 -25 -125 -75l-55 32
c33 71 93 107 180 107c53 0 95 -14 126 -42c31 -27 47 -61 47 -101c0 -51 -21 -89 -63 -112z" />
    <glyph glyph-name="uni0438" unicode="&#x438;" horiz-adv-x="560" 
d="M136 115l298 385h56v-500h-66v385l-298 -385h-56v500h66v-385z" />
    <glyph glyph-name="uni0439" unicode="&#x439;" horiz-adv-x="560" 
d="M410 580h-260v58h260v-58zM136 115l298 385h56v-500h-66v385l-298 -385h-56v500h66v-385z" />
    <glyph glyph-name="uni043A" unicode="&#x43a;" horiz-adv-x="494" 
d="M206 260l268 -260h-88l-250 241v-241h-66v500h66v-221l238 221h90z" />
    <glyph glyph-name="uni043B" unicode="&#x43b;" horiz-adv-x="550" 
d="M122 500h358v-500h-66v436h-226v-223c0 -83 -16 -141 -48 -172c-31 -31 -75 -45 -130 -41v62c76 -8 112 30 112 151v287z" />
    <glyph glyph-name="uni043C" unicode="&#x43c;" horiz-adv-x="630" 
d="M484 500h76v-500h-66v399l-175 -284h-8l-175 284v-399h-66v500h76l169 -274z" />
    <glyph glyph-name="uni043D" unicode="&#x43d;" horiz-adv-x="560" 
d="M424 282v218h66v-500h-66v218h-288v-218h-66v500h66v-218h288z" />
    <glyph glyph-name="uni043E" unicode="&#x43e;" horiz-adv-x="606" 
d="M489 63c-51 -50 -113 -75 -186 -75s-136 25 -187 75c-51 51 -76 113 -76 187s25 136 76 186c51 51 114 76 187 76s135 -25 186 -76c51 -50 77 -112 77 -186s-26 -136 -77 -187zM163 109c38 -38 85 -57 140 -57s102 19 140 57c38 39 57 86 57 141s-19 102 -57 140
c-38 39 -85 58 -140 58s-102 -19 -140 -58c-38 -38 -57 -85 -57 -140s19 -102 57 -141z" />
    <glyph glyph-name="uni043F" unicode="&#x43f;" horiz-adv-x="560" 
d="M70 500h420v-500h-66v436h-288v-436h-66v500z" />
    <glyph glyph-name="uni0440" unicode="&#x440;" 
d="M338 512c71 0 132 -25 182 -76c51 -51 76 -113 76 -186s-25 -135 -76 -186c-50 -51 -111 -76 -182 -76c-89 0 -156 37 -202 110v-298h-66v700h66v-98c46 73 113 110 202 110zM193 109c38 -38 85 -57 140 -57s102 19 140 57c38 39 57 86 57 141s-19 102 -57 140
c-38 39 -85 58 -140 58s-102 -19 -140 -58c-38 -38 -57 -85 -57 -140s19 -102 57 -141z" />
    <glyph glyph-name="uni0441" unicode="&#x441;" horiz-adv-x="552" 
d="M303 -12c-75 0 -138 25 -188 75c-50 51 -75 113 -75 187s25 136 75 186c50 51 113 76 188 76c99 0 183 -51 219 -131l-54 -31c-27 60 -90 98 -165 98c-55 0 -102 -19 -140 -58c-38 -38 -57 -85 -57 -140s19 -102 57 -141c38 -38 85 -57 140 -57c75 0 136 38 169 98
l55 -32c-41 -80 -127 -130 -224 -130z" />
    <glyph glyph-name="uni0442" unicode="&#x442;" horiz-adv-x="440" 
d="M10 500h420v-64h-177v-436h-66v436h-177v64z" />
    <glyph glyph-name="uni0443" unicode="&#x443;" horiz-adv-x="510" 
d="M268 81l162 419h70l-214 -546c-39 -99 -114 -161 -202 -154v62c60 -7 106 28 137 104l13 31l-224 503h70z" />
    <glyph glyph-name="uni0444" unicode="&#x444;" horiz-adv-x="670" 
d="M368 -11v-189h-66v189c-79 7 -142 34 -190 83s-72 108 -72 178s24 129 72 178s111 76 190 83v189h66v-189c79 -7 142 -34 190 -83s72 -108 72 -178s-24 -129 -72 -178s-111 -76 -190 -83zM302 54v392c-120 -12 -196 -92 -196 -196s76 -184 196 -196zM368 446v-392
c120 12 196 92 196 196s-76 184 -196 196z" />
    <glyph glyph-name="uni0445" unicode="&#x445;" horiz-adv-x="510" 
d="M295 259l195 -259h-79l-156 206l-156 -206h-79l196 259l-183 241h79l143 -189l143 189h79z" />
    <glyph glyph-name="uni0446" unicode="&#x446;" horiz-adv-x="590" 
d="M480 500v-436h80v-198h-66v134h-424v500h66v-436h278v436h66z" />
    <glyph glyph-name="uni0447" unicode="&#x447;" horiz-adv-x="530" 
d="M394 251v249h66v-500h-66v190c-39 -20 -86 -30 -143 -30c-131 0 -201 61 -201 180v160h66v-160c0 -84 44 -118 133 -118c52 0 100 10 145 29z" />
    <glyph glyph-name="uni0448" unicode="&#x448;" horiz-adv-x="810" 
d="M674 64v436h66v-500h-670v500h66v-436h236v436h66v-436h236z" />
    <glyph glyph-name="uni0449" unicode="&#x449;" horiz-adv-x="840" 
d="M740 500v-436h70v-198h-66v134h-674v500h66v-436h236v436h66v-436h236v436h66z" />
    <glyph glyph-name="uni044A" unicode="&#x44a;" horiz-adv-x="540" 
d="M206 310h137c47 0 86 -15 118 -44c33 -29 49 -66 49 -111s-16 -83 -49 -112c-32 -29 -71 -43 -118 -43h-203v436h-140v64h206v-190zM206 64h137c56 0 101 36 101 91s-45 91 -101 91h-137v-182z" />
    <glyph glyph-name="uni044B" unicode="&#x44b;" horiz-adv-x="646" 
d="M136 310h137c47 0 86 -15 118 -44c33 -29 49 -66 49 -111s-16 -83 -49 -112c-32 -29 -71 -43 -118 -43h-203v500h66v-190zM510 0v500h66v-500h-66zM136 64h137c56 0 101 36 101 91s-45 91 -101 91h-137v-182z" />
    <glyph glyph-name="uni044C" unicode="&#x44c;" horiz-adv-x="470" 
d="M136 310h137c47 0 86 -15 118 -44c33 -29 49 -66 49 -111s-16 -83 -49 -112c-32 -29 -71 -43 -118 -43h-203v500h66v-190zM136 64h137c56 0 101 36 101 91s-45 91 -101 91h-137v-182z" />
    <glyph glyph-name="uni044D" unicode="&#x44d;" horiz-adv-x="539" 
d="M248 512c75 0 136 -25 182 -75c46 -49 69 -112 69 -187s-23 -138 -70 -188c-46 -49 -107 -74 -183 -74c-108 0 -191 51 -226 132l57 33c23 -61 84 -101 169 -101c100 0 172 69 185 166h-249v64h249c-12 97 -83 166 -183 166c-76 0 -138 -39 -166 -100l-58 33
c40 81 124 131 224 131z" />
    <glyph glyph-name="uni044E" unicode="&#x44e;" horiz-adv-x="800" 
d="M497 512c73 0 135 -25 186 -76c51 -50 77 -112 77 -186s-26 -136 -77 -187c-51 -50 -113 -75 -186 -75c-67 0 -125 22 -174 65c-48 44 -76 99 -83 165h-104v-218h-66v500h66v-218h104c7 66 35 121 83 164c49 44 107 66 174 66zM357 109c38 -38 85 -57 140 -57
s102 19 140 57c38 39 57 86 57 141s-19 102 -57 140c-38 39 -85 58 -140 58s-102 -19 -140 -58c-38 -38 -57 -85 -57 -140s19 -102 57 -141z" />
    <glyph glyph-name="uni044F" unicode="&#x44f;" horiz-adv-x="500" 
d="M227 500h203v-500h-66v192h-86l-154 -192h-84l158 194c-80 12 -138 71 -138 151c0 45 16 82 48 111c33 29 72 44 119 44zM227 254h137v182h-137c-56 0 -101 -36 -101 -91s45 -91 101 -91z" />
    <glyph glyph-name="uni0451" unicode="&#x451;" horiz-adv-x="584" 
d="M232 588c-17 -17 -47 -17 -64 0s-17 47 0 64s47 17 64 0s17 -47 0 -64zM422 588c-17 -17 -47 -17 -64 0s-17 47 0 64s47 17 64 0s17 -47 0 -64zM301 512c74 0 134 -26 179 -79c46 -52 69 -114 69 -185c0 -7 -1 -18 -2 -31h-439c13 -101 92 -165 199 -165
c76 0 133 34 161 85l58 -34c-44 -71 -123 -115 -220 -115c-79 0 -143 25 -192 74s-74 112 -74 188c0 75 24 137 73 187s111 75 188 75zM301 448c-104 0 -180 -68 -193 -167h373c-7 53 -27 94 -61 123s-74 44 -119 44z" />
    <glyph glyph-name="uni0452" unicode="&#x452;" horiz-adv-x="568" 
d="M314 512c121 0 196 -80 196 -205v-347c0 -120 -65 -183 -180 -172v64c79 -8 114 23 114 108v347c0 89 -49 141 -136 141c-96 0 -162 -59 -162 -186v-262h-66v576h-70v54h70v70h66v-70h144v-54h-144v-154c37 60 93 90 168 90z" />
    <glyph glyph-name="uni0453" unicode="&#x453;" horiz-adv-x="400" 
d="M236 700h80l-96 -130h-64zM70 500h320v-64h-254v-436h-66v500z" />
    <glyph glyph-name="uni0454" unicode="&#x454;" horiz-adv-x="539" 
d="M462 153l57 -33c-35 -81 -118 -132 -226 -132c-76 0 -137 25 -184 74c-46 50 -69 113 -69 188s23 138 69 187c46 50 107 75 182 75c100 0 184 -50 224 -131l-58 -33c-28 61 -90 100 -166 100c-100 0 -171 -69 -183 -166h249v-64h-249c13 -97 85 -166 185 -166
c85 0 146 40 169 101z" />
    <glyph glyph-name="uni0455" unicode="&#x455;" horiz-adv-x="454" 
d="M122 369c0 -45 46 -70 103 -85c84 -21 189 -44 189 -152c0 -43 -17 -77 -51 -104c-33 -27 -77 -40 -130 -40c-96 0 -166 47 -193 115l56 33c19 -52 70 -84 137 -84c65 0 115 25 115 80c0 45 -46 70 -103 85c-84 21 -189 44 -189 152c0 41 16 75 48 102
c33 27 74 41 123 41c81 0 146 -39 175 -102l-55 -32c-19 47 -59 70 -120 70c-57 0 -105 -28 -105 -79z" />
    <glyph glyph-name="uni0456" unicode="&#x456;" horiz-adv-x="206" 
d="M137 620c-19 -19 -49 -19 -68 0s-19 49 0 68s49 19 68 0s19 -49 0 -68zM136 0h-66v500h66v-500z" />
    <glyph glyph-name="uni0457" unicode="&#x457;" horiz-adv-x="206" 
d="M40 588c-17 -17 -47 -17 -64 0s-17 47 0 64s47 17 64 0s17 -47 0 -64zM230 588c-17 -17 -47 -17 -64 0s-17 47 0 64s47 17 64 0s17 -47 0 -64zM136 0h-66v500h66v-500z" />
    <glyph glyph-name="uni0458" unicode="&#x458;" horiz-adv-x="230" 
d="M93 688c19 19 49 19 68 0s19 -49 0 -68s-49 -19 -68 0s-19 49 0 68zM94 -40v540h66v-540c0 -120 -65 -183 -180 -172v64c79 -8 114 23 114 108z" />
    <glyph glyph-name="uni0459" unicode="&#x459;" horiz-adv-x="789" 
d="M470 290h132c89 0 157 -56 157 -145s-68 -145 -157 -145h-198v436h-216v-223c0 -83 -16 -141 -48 -172c-31 -31 -75 -45 -130 -41v62c76 -8 112 30 112 151v287h348v-210zM470 64h132c53 0 91 28 91 81s-38 81 -91 81h-132v-162z" />
    <glyph glyph-name="uni045A" unicode="&#x45a;" horiz-adv-x="789" 
d="M470 290h132c89 0 157 -56 157 -145s-68 -145 -157 -145h-198v226h-268v-226h-66v500h66v-210h268v210h66v-210zM470 64h132c53 0 91 28 91 81s-38 81 -91 81h-132v-162z" />
    <glyph glyph-name="uni045B" unicode="&#x45b;" horiz-adv-x="568" 
d="M314 512c121 0 196 -80 196 -205v-307h-66v307c0 89 -49 141 -136 141c-96 0 -162 -59 -162 -186v-262h-66v576h-70v54h70v70h66v-70h144v-54h-144v-154c37 60 93 90 168 90z" />
    <glyph glyph-name="uni045C" unicode="&#x45c;" horiz-adv-x="494" 
d="M276 700h80l-96 -130h-64zM206 260l268 -260h-88l-250 241v-241h-66v500h66v-221l238 221h90z" />
    <glyph glyph-name="uni045E" unicode="&#x45e;" horiz-adv-x="510" 
d="M123 638h260v-58h-260v58zM268 81l162 419h70l-214 -546c-39 -99 -114 -161 -202 -154v62c60 -7 106 28 137 104l13 31l-224 503h70z" />
    <glyph glyph-name="uni045F" unicode="&#x45f;" horiz-adv-x="560" 
d="M424 64v436h66v-500h-177v-134h-66v134h-177v500h66v-436h288z" />
    <glyph glyph-name="uni0490" unicode="&#x490;" horiz-adv-x="490" 
d="M400 700v120h70v-186h-320v-634h-70v700h320z" />
    <glyph glyph-name="uni0491" unicode="&#x491;" horiz-adv-x="400" 
d="M324 500v104h66v-168h-254v-436h-66v500h254z" />
    <glyph glyph-name="Wgrave" unicode="&#x1e80;" horiz-adv-x="1000" 
d="M560 770h-64l-96 130h80zM233 0h84l183 608l183 -608h84l203 700h-74l-173 -605l-182 605h-82l-182 -605l-173 605h-74z" />
    <glyph glyph-name="wgrave" unicode="&#x1e81;" horiz-adv-x="770" 
d="M365 700l80 -130h-64l-96 130h80zM549 85l123 415h68l-154 -500h-72l-129 403l-129 -403h-72l-154 500h68l123 -415l131 415h66z" />
    <glyph glyph-name="Wacute" unicode="&#x1e82;" horiz-adv-x="1000" 
d="M450 770l80 130h80l-96 -130h-64zM233 0h84l183 608l183 -608h84l203 700h-74l-173 -605l-182 605h-82l-182 -605l-173 605h-74z" />
    <glyph glyph-name="wacute" unicode="&#x1e83;" horiz-adv-x="770" 
d="M415 700h80l-96 -130h-64zM549 85l123 415h68l-154 -500h-72l-129 403l-129 -403h-72l-154 500h68l123 -415l131 415h66z" />
    <glyph glyph-name="Wdieresis" unicode="&#x1e84;" horiz-adv-x="1000" 
d="M437 788c-17 -17 -47 -17 -64 0s-17 47 0 64s47 17 64 0s17 -47 0 -64zM627 788c-17 -17 -47 -17 -64 0s-17 47 0 64s47 17 64 0s17 -47 0 -64zM317 0h-84l-203 700h74l173 -605l182 605h82l182 -605l173 605h74l-203 -700h-84l-183 608z" />
    <glyph glyph-name="wdieresis" unicode="&#x1e85;" horiz-adv-x="770" 
d="M322 588c-17 -17 -47 -17 -64 0s-17 47 0 64s47 17 64 0s17 -47 0 -64zM512 588c-17 -17 -47 -17 -64 0s-17 47 0 64s47 17 64 0s17 -47 0 -64zM549 85l123 415h68l-154 -500h-72l-129 403l-129 -403h-72l-154 500h68l123 -415l131 415h66z" />
    <glyph glyph-name="Ygrave" unicode="&#x1ef2;" horiz-adv-x="595" 
d="M274 900l80 -130h-64l-96 130h80zM506 700h79l-253 -413v-287h-70v289l-252 411h79l209 -343z" />
    <glyph glyph-name="ygrave" unicode="&#x1ef3;" horiz-adv-x="510" 
d="M233 700l80 -130h-64l-96 130h80zM268 81l162 419h70l-214 -546c-39 -99 -114 -161 -202 -154v62c60 -7 106 28 137 104l13 31l-224 503h70z" />
    <glyph glyph-name="endash" unicode="&#x2013;" horiz-adv-x="660" 
d="M580 277h-500v64h500v-64z" />
    <glyph glyph-name="emdash" unicode="&#x2014;" horiz-adv-x="760" 
d="M680 277h-600v64h600v-64z" />
    <glyph glyph-name="quoteleft" unicode="&#x2018;" horiz-adv-x="240" 
d="M140 475h-80l60 225h60z" />
    <glyph glyph-name="quoteright" unicode="&#x2019;" horiz-adv-x="240" 
d="M100 700h80l-60 -225h-60z" />
    <glyph glyph-name="quotesinglbase" unicode="&#x201a;" horiz-adv-x="240" 
d="M100 85h80l-60 -225h-60z" />
    <glyph glyph-name="quotedblleft" unicode="&#x201c;" horiz-adv-x="380" 
d="M140 475h-80l60 225h60zM280 475h-80l60 225h60z" />
    <glyph glyph-name="quotedblright" unicode="&#x201d;" horiz-adv-x="380" 
d="M100 700h80l-60 -225h-60zM240 700h80l-60 -225h-60z" />
    <glyph glyph-name="quotedblbase" unicode="&#x201e;" horiz-adv-x="380" 
d="M100 85h80l-60 -225h-60zM240 85h80l-60 -225h-60z" />
    <glyph glyph-name="dagger" unicode="&#x2020;" horiz-adv-x="480" 
d="M273 535h147v-64h-147v-471h-66v471h-147v64h147v165h66v-165z" />
    <glyph glyph-name="daggerdbl" unicode="&#x2021;" horiz-adv-x="480" 
d="M420 535v-64h-147v-242h147v-64h-147v-165h-66v165h-147v64h147v242h-147v64h147v165h66v-165h147z" />
    <glyph glyph-name="bullet" unicode="&#x2022;" horiz-adv-x="300" 
d="M151 250c-56 0 -101 45 -101 101c0 55 45 99 101 99c55 0 99 -44 99 -99c0 -56 -44 -101 -99 -101z" />
    <glyph glyph-name="ellipsis" unicode="&#x2026;" horiz-adv-x="610" 
d="M154 6c-21 -21 -57 -21 -78 0s-21 57 0 78s57 21 78 0s21 -57 0 -78zM344 6c-21 -21 -57 -21 -78 0s-21 57 0 78s57 21 78 0s21 -57 0 -78zM534 6c-21 -21 -57 -21 -78 0s-21 57 0 78s57 21 78 0s21 -57 0 -78z" />
    <glyph glyph-name="perthousand" unicode="&#x2030;" horiz-adv-x="1064" 
d="M213 412c-43 0 -80 14 -109 43s-44 65 -44 107s15 77 44 106s66 44 109 44s80 -15 109 -44s44 -64 44 -106s-14 -78 -43 -107s-65 -43 -110 -43zM149 498c33 -35 95 -35 128 0s33 93 0 128s-95 35 -128 0s-33 -93 0 -128zM137 71l-42 24l469 527l43 -24zM605 31
c-29 -29 -66 -43 -109 -43s-80 14 -109 43s-44 65 -44 107s15 77 44 106s66 44 109 44s80 -15 109 -44s44 -64 44 -106s-15 -78 -44 -107zM960 31c-29 -29 -66 -43 -109 -43s-80 14 -109 43s-44 65 -44 107s15 77 44 106s66 44 109 44s80 -15 109 -44s44 -64 44 -106
s-15 -78 -44 -107zM432 74c33 -35 95 -35 128 0s33 93 0 128s-95 35 -128 0s-33 -93 0 -128zM787 74c33 -35 95 -35 128 0s33 93 0 128s-95 35 -128 0s-33 -93 0 -128z" />
    <glyph glyph-name="guilsinglleft" unicode="&#x2039;" horiz-adv-x="332" 
d="M180 489h82l-110 -180l110 -180h-82l-110 180z" />
    <glyph glyph-name="guilsinglright" unicode="&#x203a;" horiz-adv-x="332" 
d="M70 489h82l110 -180l-110 -180h-82l110 180z" />
    <glyph glyph-name="fraction" unicode="&#x2044;" horiz-adv-x="220" 
d="M340 700l-400 -700h-60l400 700h60z" />
    <glyph glyph-name="Euro" unicode="&#x20ac;" horiz-adv-x="594" 
d="M360 56c71 0 126 36 151 101l58 -33c-35 -87 -110 -136 -209 -136c-145 0 -241 106 -265 278h-75v58h70v26c0 15 0 27 1 34h-71v58h77c24 167 120 270 263 270c99 0 174 -50 209 -135l-58 -33c-28 67 -78 100 -151 100c-101 0 -172 -73 -193 -202h253v-58h-259
c-1 -7 -1 -19 -1 -34c0 -12 0 -21 1 -26h259v-58h-254c20 -135 90 -210 194 -210z" />
    <glyph glyph-name="uni20BD" unicode="&#x20bd;" horiz-adv-x="590" 
d="M360 280h-180v-94h260v-58h-260v-128h-70v128h-90v58h90v94h-90v66h90v354h250c58 0 107 -21 148 -62s62 -90 62 -148c0 -57 -21 -107 -62 -148s-90 -62 -148 -62zM360 634h-180v-288h180c39 0 72 14 99 42c27 29 41 63 41 102c0 40 -14 74 -41 102s-60 42 -99 42z" />
    <glyph glyph-name="uni2116" unicode="&#x2116;" horiz-adv-x="1016" 
d="M823 412c-43 0 -80 14 -109 43s-44 65 -44 107s15 77 44 106s66 44 109 44s80 -15 109 -44s44 -64 44 -106s-14 -78 -43 -107s-65 -43 -110 -43zM530 130v570h70v-700h-60l-390 570v-570h-70v700h60zM759 498c33 -35 95 -35 128 0s33 93 0 128s-95 35 -128 0
s-33 -93 0 -128zM964 278h-282v64h282v-64z" />
    <glyph glyph-name="trademark" unicode="&#x2122;" horiz-adv-x="465" 
d="M40 700h155v-37h-57v-163h-40v163h-58v37zM322 600l63 100h40v-200h-40v133l-61 -97h-4l-61 97v-133h-40v200h40z" />
    <glyph glyph-name="estimated" unicode="&#x212e;" horiz-adv-x="820" 
d="M780 350c0 -10 -5 -15 -15 -15h-560c-10 0 -15 -5 -15 -15v-192c0 -7 2 -14 7 -19c56 -59 134 -89 233 -89c97 0 174 32 231 97c5 6 11 9 18 9h37c13 0 18 -10 9 -19c-73 -78 -171 -117 -295 -117c-117 0 -212 34 -283 103s-107 155 -107 257c0 101 34 187 103 256
s158 104 267 104s197 -35 266 -104s104 -155 104 -256zM630 380v192c0 7 -2 14 -7 19c-56 59 -127 89 -213 89s-157 -30 -213 -89c-5 -5 -7 -12 -7 -19v-192c0 -10 5 -15 15 -15h410c10 0 15 5 15 15z" />
    <glyph glyph-name="oneeighth" unicode="&#x215b;" horiz-adv-x="802" 
d="M179 700v-400h-62v332l-91 -27l-16 53l116 42h53zM127 0l400 700h60l-400 -700h-60zM712 211c44 -23 66 -58 66 -105c0 -72 -58 -118 -143 -118s-144 46 -144 118c0 47 22 82 66 104c-35 21 -53 51 -53 88c0 71 56 114 131 114c73 0 130 -43 130 -114
c0 -37 -18 -66 -53 -87zM566 298c0 -36 25 -59 69 -59c43 0 68 23 68 59c0 35 -24 56 -68 56s-69 -21 -69 -56zM635 48c51 0 81 26 81 66s-32 65 -81 65c-53 0 -82 -24 -82 -65c0 -40 30 -66 82 -66z" />
    <glyph glyph-name="threeeighths" unicode="&#x215c;" horiz-adv-x="907" 
d="M313 417c0 -77 -58 -129 -146 -129c-68 0 -115 28 -142 84l52 30c17 -36 47 -54 90 -54c53 0 84 26 84 69c0 41 -32 69 -84 69h-4l-31 47l90 107h-184v60h258v-60l-89 -106c67 -13 106 -56 106 -117zM232 0l400 700h60l-400 -700h-60zM817 211c44 -23 66 -58 66 -105
c0 -72 -58 -118 -143 -118s-144 46 -144 118c0 47 22 82 66 104c-35 21 -53 51 -53 88c0 71 56 114 131 114c73 0 130 -43 130 -114c0 -37 -18 -66 -53 -87zM671 298c0 -36 25 -59 69 -59c43 0 68 23 68 59c0 35 -24 56 -68 56s-69 -21 -69 -56zM740 48c51 0 81 26 81 66
s-32 65 -81 65c-53 0 -82 -24 -82 -65c0 -40 30 -66 82 -66z" />
    <glyph glyph-name="fiveeighths" unicode="&#x215d;" horiz-adv-x="896" 
d="M303 417c0 -79 -54 -129 -143 -129c-68 0 -115 28 -140 85l53 29c17 -36 46 -54 87 -54c51 0 81 28 81 69c0 45 -30 73 -81 73h-122l15 210h234v-58h-181l-6 -92h62c84 0 141 -53 141 -133zM221 0l400 700h60l-400 -700h-60zM806 211c44 -23 66 -58 66 -105
c0 -72 -58 -118 -143 -118s-144 46 -144 118c0 47 22 82 66 104c-35 21 -53 51 -53 88c0 71 56 114 131 114c73 0 130 -43 130 -114c0 -37 -18 -66 -53 -87zM660 298c0 -36 25 -59 69 -59c43 0 68 23 68 59c0 35 -24 56 -68 56s-69 -21 -69 -56zM729 48c51 0 81 26 81 66
s-32 65 -81 65c-53 0 -82 -24 -82 -65c0 -40 30 -66 82 -66z" />
    <glyph glyph-name="seveneighths" unicode="&#x215e;" horiz-adv-x="851" 
d="M10 700h266v-50l-148 -350h-66l146 340h-198v60zM176 0l400 700h60l-400 -700h-60zM761 211c44 -23 66 -58 66 -105c0 -72 -58 -118 -143 -118s-144 46 -144 118c0 47 22 82 66 104c-35 21 -53 51 -53 88c0 71 56 114 131 114c73 0 130 -43 130 -114
c0 -37 -18 -66 -53 -87zM615 298c0 -36 25 -59 69 -59c43 0 68 23 68 59c0 35 -24 56 -68 56s-69 -21 -69 -56zM684 48c51 0 81 26 81 66s-32 65 -81 65c-53 0 -82 -24 -82 -65c0 -40 30 -66 82 -66z" />
    <glyph glyph-name="arrowleft" unicode="&#x2190;" horiz-adv-x="820" 
d="M182 382h578v-64h-578l268 -268h-90l-300 300l300 300h90z" />
    <glyph glyph-name="arrowup" unicode="&#x2191;" horiz-adv-x="720" 
d="M360 700l300 -300v-90l-267 267v-577h-66v577l-267 -267v90z" />
    <glyph glyph-name="arrowright" unicode="&#x2192;" horiz-adv-x="820" 
d="M370 650h90l300 -300l-300 -300h-90l268 268h-578v64h578z" />
    <glyph glyph-name="arrowdown" unicode="&#x2193;" horiz-adv-x="720" 
d="M393 700v-577l267 267v-90l-300 -300l-300 300v90l267 -267v577h66z" />
    <glyph glyph-name="arrowboth" unicode="&#x2194;" horiz-adv-x="1040" 
d="M641 600h90l249 -250l-249 -250h-90l217 218h-676l217 -218h-90l-249 250l249 250h90l-217 -218h676z" />
    <glyph glyph-name="arrowupdn" unicode="&#x2195;" horiz-adv-x="620" 
d="M560 561v-90l-217 216v-674l217 216v-90l-250 -249l-250 249v90l217 -216v674l-217 -216v90l250 249z" />
    <glyph glyph-name="uni2196" unicode="&#x2196;" horiz-adv-x="638" 
d="M170 524l408 -408l-47 -47l-408 408v-377l-63 63v424h424l63 -63h-377z" />
    <glyph glyph-name="uni2197" unicode="&#x2197;" horiz-adv-x="638" 
d="M91 524l63 63h424v-424l-63 -63v377l-408 -408l-47 47l408 408h-377z" />
    <glyph glyph-name="uni2198" unicode="&#x2198;" horiz-adv-x="638" 
d="M515 199v377l63 -63v-424h-424l-63 63h377l-408 408l47 47z" />
    <glyph glyph-name="uni2199" unicode="&#x2199;" horiz-adv-x="638" 
d="M531 607l47 -47l-408 -408h377l-63 -63h-424v424l63 63v-377z" />
    <glyph glyph-name="partialdiff" unicode="&#x2202;" horiz-adv-x="576" 
d="M232 712c81 0 148 -33 202 -100c55 -67 82 -154 82 -262c0 -113 -24 -202 -73 -266s-111 -96 -186 -96c-64 0 -115 20 -152 60s-55 91 -55 152c0 69 20 124 61 166c41 43 97 64 168 64c62 0 119 -18 170 -53c-4 76 -25 140 -63 192s-89 78 -154 78
c-48 0 -92 -12 -131 -35v64c37 24 81 36 131 36zM257 52c108 0 183 97 192 258c-48 37 -105 56 -170 56c-100 0 -163 -59 -163 -166c0 -87 49 -148 141 -148z" />
    <glyph glyph-name="emptyset" unicode="&#x2205;" horiz-adv-x="804" 
d="M744 720l-91 -109c74 -71 111 -158 111 -261c0 -100 -35 -185 -106 -256s-156 -106 -256 -106c-77 0 -147 22 -210 67l-62 -75h-70l91 109c-74 71 -111 158 -111 261c0 100 35 185 106 256s156 106 256 106c77 0 147 -22 210 -67l62 75h70zM100 350
c0 -84 29 -156 88 -216l387 466c-52 36 -110 54 -173 54c-84 0 -155 -30 -214 -89s-88 -130 -88 -215zM402 46c84 0 155 29 214 88s88 131 88 216c0 84 -29 156 -88 216l-387 -466c52 -36 110 -54 173 -54z" />
    <glyph glyph-name="product" unicode="&#x220f;" horiz-adv-x="640" 
d="M146 -200h-66v900h480v-900h-66v836h-348v-836z" />
    <glyph glyph-name="summation" unicode="&#x2211;" horiz-adv-x="540" 
d="M510 -200h-460v65l240 395l-225 374v66h430v-64h-355l227 -376l-241 -396h384v-64z" />
    <glyph glyph-name="minus" unicode="&#x2212;" horiz-adv-x="540" 
d="M480 318h-420v64h420v-64z" />
    <glyph glyph-name="radical" unicode="&#x221a;" horiz-adv-x="644" 
d="M355 0h-70l-137 236h-88v64h126l127 -220l241 720h70z" />
    <glyph glyph-name="infinity" unicode="&#x221e;" horiz-adv-x="800" 
d="M584 510c46 0 84 -15 115 -46s46 -69 46 -114s-15 -83 -46 -114s-69 -46 -115 -46c-65 0 -126 37 -184 110c-58 -73 -119 -110 -184 -110c-46 0 -84 15 -115 46s-46 69 -46 114s15 83 46 114s69 46 115 46c65 0 126 -37 184 -110c58 73 119 110 184 110zM217 250
c49 0 97 33 145 100c-48 67 -96 100 -145 100c-57 0 -97 -41 -97 -100s40 -100 97 -100zM584 250c57 0 97 41 97 100s-40 100 -97 100c-49 0 -97 -33 -145 -100c48 -67 96 -100 145 -100z" />
    <glyph glyph-name="integral" unicode="&#x222b;" horiz-adv-x="439" 
d="M0 -202v64c72 -27 115 0 126 68l109 640c20 119 92 163 204 132v-64c-80 27 -126 4 -138 -68l-109 -640c-20 -117 -92 -163 -192 -132z" />
    <glyph glyph-name="approxequal" unicode="&#x2248;" horiz-adv-x="594" 
d="M282 402c-51 29 -89 40 -112 33s-39 -30 -50 -69l-60 28c35 112 120 141 252 64c103 -64 141 -37 162 36l60 -28c-35 -113 -116 -143 -252 -64zM120 206l-60 28c35 112 120 141 252 64c103 -64 141 -37 162 36l60 -28c-35 -113 -116 -143 -252 -64c-51 29 -89 40 -112 33
s-39 -30 -50 -69z" />
    <glyph glyph-name="notequal" unicode="&#x2260;" horiz-adv-x="540" 
d="M480 482v-64h-155l-60 -136h215v-64h-244l-66 -148h-50l66 148h-126v64h155l60 136h-215v64h244l66 148h50l-66 -148h126z" />
    <glyph glyph-name="lessequal" unicode="&#x2264;" horiz-adv-x="520" 
d="M60 444l400 156v-74l-317 -115l317 -115v-74l-400 156v66zM460 100h-400v64h400v-64z" />
    <glyph glyph-name="greaterequal" unicode="&#x2265;" horiz-adv-x="520" 
d="M60 526v74l400 -156v-66l-400 -156v74l317 115zM460 100h-400v64h400v-64z" />
    <glyph glyph-name="lozenge" unicode="&#x25ca;" horiz-adv-x="540" 
d="M304 0h-68l-186 350l186 350h68l186 -350zM121 350l149 -279l149 279l-149 279z" />
    <glyph glyph-name="i.loclTRK" horiz-adv-x="206" 
d="M142 586c-21 -21 -57 -21 -78 0s-21 57 0 78s57 21 78 0s21 -57 0 -78zM136 0h-66v500h66v-500z" />
    <glyph glyph-name="f_f_j" horiz-adv-x="786" 
d="M446 500h270v-540c0 -120 -65 -183 -180 -172v64c79 -8 114 23 114 108v476h-204v-436h-66v436h-204v-436h-66v436h-85v64h85v20c0 131 75 201 210 192v-64c-97 8 -144 -32 -144 -128v-20h204v30c0 128 70 192 210 192c28 0 60 -4 96 -12v-60c-31 5 -63 8 -96 8
c-100 0 -144 -35 -144 -128v-30z" />
    <glyph glyph-name="f_j" horiz-adv-x="516" 
d="M176 500h270v-540c0 -120 -65 -183 -180 -172v64c79 -8 114 23 114 108v476h-204v-436h-66v436h-85v64h85v20c0 128 70 192 210 192c28 0 60 -4 96 -12v-60c-31 5 -63 8 -96 8c-100 0 -144 -35 -144 -128v-20z" />
    <glyph glyph-name="uni0414.loclBGR" horiz-adv-x="700" 
d="M386 700l225 -634h64v-200h-70v134h-510v-134h-70v200h64l225 634h72zM350 613l-187 -547h374z" />
    <glyph glyph-name="uni041B.loclBGR" horiz-adv-x="608" 
d="M10 0l258 700h72l258 -700h-76l-218 607l-218 -607h-76z" />
    <glyph glyph-name="uni0424.loclBGR" horiz-adv-x="844" 
d="M457 -11v-89h-70v89c-103 7 -187 44 -251 109s-96 149 -96 252s32 187 96 252s148 102 251 109v89h70v-89c103 -7 187 -44 251 -109s96 -149 96 -252s-32 -187 -96 -252s-148 -102 -251 -109zM387 53v594c-84 -7 -151 -38 -202 -91c-50 -53 -75 -121 -75 -206
s25 -154 75 -207c51 -53 118 -83 202 -90zM457 647v-594c84 7 151 37 201 90c51 53 76 122 76 207s-25 153 -76 206c-50 53 -117 84 -201 91z" />
    <glyph glyph-name="uni0414.ss01" horiz-adv-x="690" 
d="M580 700v-634h75v-66h-640v66h57c46 54 69 137 69 250v384h439zM155 66h355v568h-299v-320c0 -111 -19 -193 -56 -248z" />
    <glyph glyph-name="uni0426.ss01" horiz-adv-x="690" 
d="M580 700v-634h75v-66h-575v700h70v-634h360v634h70z" />
    <glyph glyph-name="uni0429.ss01" horiz-adv-x="980" 
d="M870 700v-634h75v-66h-865v700h70v-634h290v634h70v-634h290v634h70z" />
    <glyph glyph-name="uni0414.loclBGR.ss01" horiz-adv-x="700" 
d="M386 700l225 -634h64v-66h-650v66h64l225 634h72zM350 613l-187 -547h374z" />
    <glyph glyph-name="uni0432.loclBGR" horiz-adv-x="570" 
d="M399 400c83 -27 131 -99 131 -200c0 -133 -85 -212 -230 -212s-230 90 -230 242v235c0 152 82 247 218 247c112 0 182 -68 182 -168c0 -53 -24 -101 -71 -144zM288 648c-95 0 -152 -71 -152 -183v-81l103 21c26 5 53 8 82 8c55 40 83 84 83 131c0 60 -44 104 -116 104z
M464 200c0 56 -21 97 -62 123s-96 32 -163 18l-103 -21v-90c0 -112 61 -178 164 -178s164 55 164 148z" />
    <glyph glyph-name="uni0433.loclBGR" horiz-adv-x="454" 
d="M363 141l56 -33c-27 -68 -98 -120 -193 -120c-53 0 -97 13 -131 40c-33 27 -50 61 -50 104c0 68 45 110 101 127c82 27 186 39 186 110c0 51 -48 79 -100 79c-56 0 -105 -26 -125 -75l-55 32c31 64 96 107 180 107c47 0 87 -14 118 -42c32 -27 48 -61 48 -101
c0 -68 -45 -109 -101 -128c-82 -25 -186 -38 -186 -109c0 -55 50 -80 115 -80s118 37 137 89z" />
    <glyph glyph-name="uni0434.loclBGR" 
d="M500 402v98h66v-480c0 -72 -25 -129 -74 -170s-108 -62 -177 -62c-117 0 -196 41 -237 122l58 33c30 -61 90 -91 179 -91c115 0 185 65 185 168v78c-46 -73 -113 -110 -202 -110c-71 0 -132 25 -183 76c-50 51 -75 113 -75 186s25 135 75 186c51 51 112 76 183 76
c89 0 156 -37 202 -110zM163 109c38 -38 85 -57 140 -57s102 19 140 57c38 39 57 86 57 141s-19 102 -57 140c-38 39 -85 58 -140 58s-102 -19 -140 -58c-38 -38 -57 -85 -57 -140s19 -102 57 -141z" />
    <glyph glyph-name="uni0436.loclBGR" horiz-adv-x="674" 
d="M430 260l224 -260h-80l-204 241v-241h-66v241l-204 -241h-80l224 260l-214 240h80l194 -222v422h66v-422l194 222h80z" />
    <glyph glyph-name="uni0438.loclBGR" horiz-adv-x="558" 
d="M422 238v262h66v-500h-66v78c-37 -60 -93 -90 -168 -90c-121 0 -196 80 -196 205v307h66v-307c0 -89 49 -141 136 -141c96 0 162 59 162 186z" />
    <glyph glyph-name="uni0439.loclBGR" horiz-adv-x="558" 
d="M141 638h260v-58h-260v58zM422 238v262h66v-500h-66v78c-37 -60 -93 -90 -168 -90c-121 0 -196 80 -196 205v307h66v-307c0 -89 49 -141 136 -141c96 0 162 59 162 186z" />
    <glyph glyph-name="uni043A.loclBGR" horiz-adv-x="494" 
d="M206 260l268 -260h-88l-250 241v-241h-66v700h66v-421l238 221h90z" />
    <glyph glyph-name="uni043B.loclBGR" horiz-adv-x="510" 
d="M295 500l205 -500h-70l-175 431l-175 -431h-70l205 500h80z" />
    <glyph glyph-name="uni043F.loclBGR" horiz-adv-x="558" 
d="M304 512c121 0 196 -80 196 -205v-307h-66v307c0 89 -49 141 -136 141c-96 0 -162 -59 -162 -186v-262h-66v500h66v-78c37 60 93 90 168 90z" />
    <glyph glyph-name="uni0442.loclBGR" horiz-adv-x="848" 
d="M603 512c112 0 187 -77 187 -200v-312h-66v312c0 87 -49 136 -122 136c-83 0 -139 -54 -139 -171v-277h-66v312c0 88 -45 136 -117 136c-80 0 -144 -55 -144 -171v-277h-66v500h66v-73c36 57 87 85 153 85c72 0 123 -30 152 -91c36 61 90 91 162 91z" />
    <glyph glyph-name="uni0446.loclBGR" horiz-adv-x="594" 
d="M525 64h39v-198h-66v136c-40 7 -68 36 -75 79c-37 -62 -93 -93 -169 -93c-121 0 -196 80 -196 205v307h66v-307c0 -89 49 -141 136 -141c96 0 162 59 162 186v262h66v-400c0 -21 14 -36 37 -36z" />
    <glyph glyph-name="uni0448.loclBGR" horiz-adv-x="848" 
d="M712 223v277h66v-500h-66v73c-36 -57 -87 -85 -153 -85c-72 0 -123 30 -152 91c-36 -61 -90 -91 -162 -91c-112 0 -187 77 -187 200v312h66v-312c0 -87 49 -136 122 -136c83 0 139 54 139 171v277h66v-312c0 -88 45 -136 117 -136c80 0 144 55 144 171z" />
    <glyph glyph-name="uni0449.loclBGR" horiz-adv-x="884" 
d="M815 64h39v-198h-66v136c-39 5 -66 34 -74 74c-36 -59 -88 -88 -155 -88c-72 0 -123 30 -152 91c-36 -61 -90 -91 -162 -91c-112 0 -187 77 -187 200v312h66v-312c0 -87 49 -136 122 -136c83 0 139 54 139 171v277h66v-312c0 -88 45 -136 117 -136c80 0 144 55 144 171
v277h66v-400c0 -21 14 -36 37 -36z" />
    <glyph glyph-name="uni044C.loclBGR" horiz-adv-x="478" 
d="M124 338h129c123 0 195 -63 195 -170c0 -49 -18 -92 -55 -127c-36 -35 -83 -53 -140 -53c-60 0 -108 17 -143 51s-52 77 -52 129v332h66v-162zM253 52c37 0 68 12 92 35c25 23 37 50 37 81c0 67 -48 106 -129 106h-129v-106c0 -31 12 -59 35 -82c24 -23 55 -34 94 -34z
" />
    <glyph glyph-name="uni044A.loclBGR" horiz-adv-x="562" 
d="M206 338h129c123 0 195 -63 195 -170c0 -49 -18 -92 -55 -127c-36 -35 -83 -53 -140 -53c-60 0 -108 17 -143 51s-52 77 -52 129v268h-140v64h206v-162zM335 52c37 0 68 12 92 35c25 23 37 50 37 81c0 67 -48 106 -129 106h-129v-106c0 -31 12 -59 35 -82
c24 -23 55 -34 94 -34z" />
    <glyph glyph-name="uni044E.loclBGR" horiz-adv-x="800" 
d="M497 512c73 0 135 -25 186 -76c51 -50 77 -112 77 -186s-26 -136 -77 -187c-51 -50 -113 -75 -186 -75c-67 0 -125 22 -174 65c-48 44 -76 99 -83 165h-104v-218h-66v700h66v-418h104c7 66 35 121 83 164c49 44 107 66 174 66zM357 109c38 -38 85 -57 140 -57
s102 19 140 57c38 39 57 86 57 141s-19 102 -57 140c-38 39 -85 58 -140 58s-102 -19 -140 -58c-38 -38 -57 -85 -57 -140s19 -102 57 -141z" />
    <glyph glyph-name="zero.sinf" horiz-adv-x="410" 
d="M333 -114c-31 -39 -73 -58 -128 -58s-98 19 -129 58s-46 90 -46 154s15 115 46 154s74 58 129 58s97 -19 128 -58s47 -90 47 -154s-16 -115 -47 -154zM122 -73c20 -26 48 -39 83 -39s63 13 83 39s30 64 30 113s-10 87 -30 113s-48 39 -83 39s-63 -13 -83 -39
s-30 -64 -30 -113s10 -87 30 -113z" />
    <glyph glyph-name="one.sinf" horiz-adv-x="239" 
d="M10 198l116 42h53v-400h-62v332l-91 -27z" />
    <glyph glyph-name="two.sinf" horiz-adv-x="341" 
d="M311 -160h-280v51l168 154c28 25 42 53 42 85c0 37 -28 62 -72 62c-41 0 -70 -21 -87 -62l-52 29c25 62 72 93 139 93c80 0 134 -53 134 -122c0 -46 -21 -88 -62 -125l-118 -105h188v-60z" />
    <glyph glyph-name="three.sinf" horiz-adv-x="348" 
d="M296 180l-89 -106c67 -13 106 -56 106 -117c0 -77 -58 -129 -146 -129c-68 0 -115 28 -142 84l52 30c17 -36 47 -54 90 -54c53 0 84 26 84 69c0 41 -32 69 -84 69h-4l-31 47l90 107h-184v60h258v-60z" />
    <glyph glyph-name="four.sinf" horiz-adv-x="354" 
d="M283 -27h51v-58h-51v-75h-62v75h-206v58l149 267h67l-148 -267h138v96h62v-96z" />
    <glyph glyph-name="five.sinf" horiz-adv-x="328" 
d="M105 90h62c84 0 141 -53 141 -133c0 -79 -54 -129 -143 -129c-68 0 -115 28 -140 85l53 29c17 -36 46 -54 87 -54c51 0 81 28 81 69c0 45 -30 73 -81 73h-122l15 210h234v-58h-181z" />
    <glyph glyph-name="six.sinf" horiz-adv-x="335" 
d="M167 107c42 0 77 -13 105 -40c29 -27 43 -60 43 -99s-14 -72 -43 -99c-28 -27 -63 -41 -105 -41s-77 14 -105 41s-42 60 -42 99c0 25 6 49 19 70v1l3 3l1 2l125 196h75l-92 -134c3 1 9 1 16 1zM167 -112c52 0 86 33 86 80s-34 79 -86 79s-85 -32 -85 -79s34 -80 85 -80z
" />
    <glyph glyph-name="seven.sinf" horiz-adv-x="296" 
d="M10 180v60h266v-50l-148 -350h-66l146 340h-198z" />
    <glyph glyph-name="eight.sinf" horiz-adv-x="335" 
d="M245 51c44 -23 66 -58 66 -105c0 -72 -58 -118 -143 -118s-144 46 -144 118c0 47 22 82 66 104c-35 21 -53 51 -53 88c0 71 56 114 131 114c73 0 130 -43 130 -114c0 -37 -18 -66 -53 -87zM99 138c0 -36 25 -59 69 -59c43 0 68 23 68 59c0 35 -24 56 -68 56
s-69 -21 -69 -56zM168 -112c51 0 81 26 81 66s-32 65 -81 65c-53 0 -82 -24 -82 -65c0 -40 30 -66 82 -66z" />
    <glyph glyph-name="nine.sinf" horiz-adv-x="335" 
d="M296 42v-1l-2 -3l-2 -2l-125 -196h-75l92 134c-3 -1 -9 -1 -16 -1c-42 0 -77 13 -106 40c-28 27 -42 60 -42 99s14 72 42 99c29 27 64 41 106 41s77 -14 105 -41s42 -60 42 -99c0 -25 -6 -49 -19 -70zM168 192c-52 0 -86 -33 -86 -80s34 -79 86 -79s85 32 85 79
s-34 80 -85 80z" />
    <glyph glyph-name="zero.tf" horiz-adv-x="570" 
d="M480 86c-46 -65 -111 -98 -195 -98s-149 33 -196 98c-46 66 -69 154 -69 264s23 198 69 263c47 66 112 99 196 99s149 -33 195 -99c47 -65 70 -153 70 -263s-23 -198 -70 -264zM141 133c35 -51 83 -77 144 -77s109 26 143 77c35 51 52 124 52 217s-17 166 -52 217
c-34 51 -82 77 -143 77s-109 -26 -144 -77c-34 -51 -51 -124 -51 -217s17 -166 51 -217z" />
    <glyph glyph-name="one.tf" horiz-adv-x="570" 
d="M335 700v-634h205v-66h-500v66h225v557l-157 -47l-18 60l185 64h60z" />
    <glyph glyph-name="two.tf" horiz-adv-x="570" 
d="M530 0h-485v63l253 218c97 83 147 142 147 211c0 95 -64 152 -161 152c-77 0 -141 -43 -173 -118l-58 34c43 96 130 152 231 152c66 0 121 -20 165 -60s66 -93 66 -160c0 -92 -61 -172 -169 -260l-201 -164h385v-68z" />
    <glyph glyph-name="three.tf" horiz-adv-x="570" 
d="M500 634l-179 -225c125 -13 209 -86 209 -206c0 -67 -24 -120 -72 -158s-109 -57 -183 -57c-59 0 -111 14 -157 42c-45 29 -76 67 -92 116l59 34c20 -76 94 -124 190 -124c113 0 185 52 185 147s-72 147 -185 147v1l-1 -1h-18l-31 46l191 238h-366v66h450v-66z" />
    <glyph glyph-name="four.tf" horiz-adv-x="570" 
d="M460 206h90v-66h-90v-140h-70v140h-370v66l260 494h76l-260 -494h294v194h70v-194z" />
    <glyph glyph-name="five.tf" horiz-adv-x="570" 
d="M149 418h136c69 0 127 -19 174 -58c47 -38 71 -90 71 -157s-24 -119 -71 -158c-47 -38 -105 -57 -174 -57c-59 0 -111 14 -157 42c-45 29 -76 67 -92 116l59 34c20 -76 94 -124 190 -124c104 0 175 52 175 147s-71 147 -175 147h-210l25 350h405v-66h-341z" />
    <glyph glyph-name="six.tf" horiz-adv-x="570" 
d="M275 450c77 0 139 -21 185 -64c47 -42 70 -98 70 -167s-23 -125 -70 -168c-46 -42 -108 -63 -185 -63s-139 21 -186 63c-46 43 -69 99 -69 168c0 54 15 100 44 139l244 342h83l-182 -256c20 4 42 6 66 6zM138 100c33 -29 78 -44 137 -44s104 15 136 44
c33 29 49 69 49 119s-16 90 -49 119c-32 29 -77 44 -136 44s-104 -15 -137 -44c-32 -29 -48 -69 -48 -119s16 -90 48 -119z" />
    <glyph glyph-name="seven.tf" horiz-adv-x="570" 
d="M40 634v66h490v-66l-285 -634h-72l284 634h-417z" />
    <glyph glyph-name="eight.tf" horiz-adv-x="570" 
d="M418 361c73 -33 117 -95 117 -171c0 -64 -23 -114 -69 -149c-45 -35 -106 -53 -181 -53s-136 18 -182 53c-45 35 -68 85 -68 149c0 76 44 138 117 171c-62 37 -93 89 -93 157c0 62 21 110 64 143c43 34 97 51 162 51s119 -17 162 -51c43 -33 64 -81 64 -143
c0 -68 -31 -120 -93 -157zM129 518c0 -80 61 -126 156 -126s156 46 156 126c0 84 -59 126 -156 126s-156 -42 -156 -126zM151 91c31 -23 76 -35 134 -35s102 12 133 35s47 56 47 99s-16 76 -47 99s-75 35 -133 35s-103 -12 -134 -35s-46 -56 -46 -99s15 -76 46 -99z" />
    <glyph glyph-name="nine.tf" horiz-adv-x="570" 
d="M550 481c0 -54 -15 -100 -44 -139l-244 -342h-83l182 256c-20 -4 -42 -6 -66 -6c-77 0 -139 21 -186 63c-46 43 -69 99 -69 168s23 125 69 167c47 43 109 64 186 64s139 -21 185 -64c47 -42 70 -98 70 -167zM158 600c-32 -29 -48 -69 -48 -119s16 -90 48 -119
c33 -29 78 -44 137 -44s104 15 136 44c33 29 49 69 49 119s-16 90 -49 119c-32 29 -77 44 -136 44s-104 -15 -137 -44z" />
    <glyph glyph-name="zero.dnom" horiz-adv-x="410" 
d="M333 46c-31 -39 -73 -58 -128 -58s-98 19 -129 58s-46 90 -46 154s15 115 46 154s74 58 129 58s97 -19 128 -58s47 -90 47 -154s-16 -115 -47 -154zM122 87c20 -26 48 -39 83 -39s63 13 83 39s30 64 30 113s-10 87 -30 113s-48 39 -83 39s-63 -13 -83 -39
s-30 -64 -30 -113s10 -87 30 -113z" />
    <glyph glyph-name="one.dnom" horiz-adv-x="247" 
d="M10 358l116 42h53v-400h-62v332l-91 -27z" />
    <glyph glyph-name="two.dnom" horiz-adv-x="340" 
d="M311 0h-280v51l168 154c28 25 42 53 42 85c0 37 -28 62 -72 62c-41 0 -70 -21 -87 -62l-52 29c25 62 72 93 139 93c80 0 134 -53 134 -122c0 -46 -21 -88 -62 -125l-118 -105h188v-60z" />
    <glyph glyph-name="three.dnom" horiz-adv-x="352" 
d="M296 340l-89 -106c67 -13 106 -56 106 -117c0 -77 -58 -129 -146 -129c-68 0 -115 28 -142 84l52 30c17 -36 47 -54 90 -54c53 0 84 26 84 69c0 41 -32 69 -84 69h-4l-31 47l90 107h-184v60h258v-60z" />
    <glyph glyph-name="four.dnom" horiz-adv-x="354" 
d="M283 133h51v-58h-51v-75h-62v75h-206v58l149 267h67l-148 -267h138v96h62v-96z" />
    <glyph glyph-name="five.dnom" horiz-adv-x="341" 
d="M100 250h62c84 0 141 -53 141 -133c0 -79 -54 -129 -143 -129c-68 0 -115 28 -140 85l53 29c17 -36 46 -54 87 -54c51 0 81 28 81 69c0 45 -30 73 -81 73h-122l15 210h234v-58h-181z" />
    <glyph glyph-name="six.dnom" horiz-adv-x="335" 
d="M167 267c42 0 77 -13 105 -40c29 -27 43 -60 43 -99s-14 -73 -43 -100c-28 -27 -63 -40 -105 -40s-77 13 -105 40s-42 61 -42 100c0 25 6 49 19 70v1l3 3l1 2l125 196h75l-92 -134c3 1 9 1 16 1zM167 48c52 0 86 33 86 80s-34 79 -86 79s-85 -32 -85 -79s34 -80 85 -80z
" />
    <glyph glyph-name="seven.dnom" horiz-adv-x="296" 
d="M10 340v60h266v-50l-148 -350h-66l146 340h-198z" />
    <glyph glyph-name="eight.dnom" horiz-adv-x="335" 
d="M245 211c44 -23 66 -58 66 -105c0 -72 -58 -118 -143 -118s-144 46 -144 118c0 47 22 82 66 104c-35 21 -53 51 -53 88c0 71 56 114 131 114c73 0 130 -43 130 -114c0 -37 -18 -66 -53 -87zM99 298c0 -36 25 -59 69 -59c43 0 68 23 68 59c0 35 -24 56 -68 56
s-69 -21 -69 -56zM168 48c51 0 81 26 81 66s-32 65 -81 65c-53 0 -82 -24 -82 -65c0 -40 30 -66 82 -66z" />
    <glyph glyph-name="nine.dnom" horiz-adv-x="335" 
d="M296 202v-1l-2 -3l-2 -2l-125 -196h-75l92 134c-3 -1 -9 -1 -16 -1c-42 0 -77 13 -106 40c-28 27 -42 60 -42 99s14 72 42 99c29 27 64 41 106 41s77 -14 105 -41s42 -60 42 -99c0 -25 -6 -49 -19 -70zM168 352c-52 0 -86 -33 -86 -80s34 -79 86 -79s85 32 85 79
s-34 80 -85 80z" />
    <glyph glyph-name="zero.numr" horiz-adv-x="410" 
d="M333 346c-31 -39 -73 -58 -128 -58s-98 19 -129 58s-46 90 -46 154s15 115 46 154s74 58 129 58s97 -19 128 -58s47 -90 47 -154s-16 -115 -47 -154zM122 387c20 -26 48 -39 83 -39s63 13 83 39s30 64 30 113s-10 87 -30 113s-48 39 -83 39s-63 -13 -83 -39
s-30 -64 -30 -113s10 -87 30 -113z" />
    <glyph glyph-name="one.numr" horiz-adv-x="247" 
d="M10 658l116 42h53v-400h-62v332l-91 -27z" />
    <glyph glyph-name="two.numr" horiz-adv-x="340" 
d="M311 300h-280v51l168 154c28 25 42 53 42 85c0 37 -28 62 -72 62c-41 0 -70 -21 -87 -62l-52 29c25 62 72 93 139 93c80 0 134 -53 134 -122c0 -46 -21 -88 -62 -125l-118 -105h188v-60z" />
    <glyph glyph-name="three.numr" horiz-adv-x="352" 
d="M296 640l-89 -106c67 -13 106 -56 106 -117c0 -77 -58 -129 -146 -129c-68 0 -115 28 -142 84l52 30c17 -36 47 -54 90 -54c53 0 84 26 84 69c0 41 -32 69 -84 69h-4l-31 47l90 107h-184v60h258v-60z" />
    <glyph glyph-name="four.numr" horiz-adv-x="354" 
d="M283 433h51v-58h-51v-75h-62v75h-206v58l149 267h67l-148 -267h138v96h62v-96z" />
    <glyph glyph-name="five.numr" horiz-adv-x="341" 
d="M100 550h62c84 0 141 -53 141 -133c0 -79 -54 -129 -143 -129c-68 0 -115 28 -140 85l53 29c17 -36 46 -54 87 -54c51 0 81 28 81 69c0 45 -30 73 -81 73h-122l15 210h234v-58h-181z" />
    <glyph glyph-name="six.numr" horiz-adv-x="335" 
d="M167 567c42 0 77 -13 105 -40c29 -27 43 -60 43 -99s-14 -73 -43 -100c-28 -27 -63 -40 -105 -40s-77 13 -105 40s-42 61 -42 100c0 25 6 49 19 70v1l3 3l1 2l125 196h75l-92 -134c3 1 9 1 16 1zM167 348c52 0 86 33 86 80s-34 79 -86 79s-85 -32 -85 -79s34 -80 85 -80z
" />
    <glyph glyph-name="seven.numr" horiz-adv-x="296" 
d="M10 640v60h266v-50l-148 -350h-66l146 340h-198z" />
    <glyph glyph-name="eight.numr" horiz-adv-x="335" 
d="M245 511c44 -23 66 -58 66 -105c0 -72 -58 -118 -143 -118s-144 46 -144 118c0 47 22 82 66 104c-35 21 -53 51 -53 88c0 71 56 114 131 114c73 0 130 -43 130 -114c0 -37 -18 -66 -53 -87zM99 598c0 -36 25 -59 69 -59c43 0 68 23 68 59c0 35 -24 56 -68 56
s-69 -21 -69 -56zM168 348c51 0 81 26 81 66s-32 65 -81 65c-53 0 -82 -24 -82 -65c0 -40 30 -66 82 -66z" />
    <glyph glyph-name="nine.numr" horiz-adv-x="335" 
d="M296 502v-1l-2 -3l-2 -2l-125 -196h-75l92 134c-3 -1 -9 -1 -16 -1c-42 0 -77 13 -106 40c-28 27 -42 60 -42 99s14 72 42 99c29 27 64 41 106 41s77 -14 105 -41s42 -60 42 -99c0 -25 -6 -49 -19 -70zM168 652c-52 0 -86 -33 -86 -80s34 -79 86 -79s85 32 85 79
s-34 80 -85 80z" />
    <glyph glyph-name="zero.sups" horiz-adv-x="410" 
d="M333 506c-31 -39 -73 -58 -128 -58s-98 19 -129 58s-46 90 -46 154s15 115 46 154s74 58 129 58s97 -19 128 -58s47 -90 47 -154s-16 -115 -47 -154zM122 547c20 -26 48 -39 83 -39s63 13 83 39s30 64 30 113s-10 87 -30 113s-48 39 -83 39s-63 -13 -83 -39
s-30 -64 -30 -113s10 -87 30 -113z" />
    <glyph glyph-name="one.sups" horiz-adv-x="247" 
d="M10 818l116 42h53v-400h-62v332l-91 -27z" />
    <glyph glyph-name="two.sups" horiz-adv-x="340" 
d="M311 460h-280v51l168 154c28 25 42 53 42 85c0 37 -28 62 -72 62c-41 0 -70 -21 -87 -62l-52 29c25 62 72 93 139 93c80 0 134 -53 134 -122c0 -46 -21 -88 -62 -125l-118 -105h188v-60z" />
    <glyph glyph-name="three.sups" horiz-adv-x="352" 
d="M296 800l-89 -106c67 -13 106 -56 106 -117c0 -77 -58 -129 -146 -129c-68 0 -115 28 -142 84l52 30c17 -36 47 -54 90 -54c53 0 84 26 84 69c0 41 -32 69 -84 69h-4l-31 47l90 107h-184v60h258v-60z" />
    <glyph glyph-name="four.sups" horiz-adv-x="354" 
d="M283 593h51v-58h-51v-75h-62v75h-206v58l149 267h67l-148 -267h138v96h62v-96z" />
    <glyph glyph-name="five.sups" horiz-adv-x="341" 
d="M100 710h62c84 0 141 -53 141 -133c0 -79 -54 -129 -143 -129c-68 0 -115 28 -140 85l53 29c17 -36 46 -54 87 -54c51 0 81 28 81 69c0 45 -30 73 -81 73h-122l15 210h234v-58h-181z" />
    <glyph glyph-name="six.sups" horiz-adv-x="335" 
d="M167 727c42 0 77 -13 105 -40c29 -27 43 -60 43 -99s-14 -73 -43 -100c-28 -27 -63 -40 -105 -40s-77 13 -105 40s-42 61 -42 100c0 25 6 49 19 70v1l3 3l1 2l125 196h75l-92 -134c3 1 9 1 16 1zM167 508c52 0 86 33 86 80s-34 79 -86 79s-85 -32 -85 -79s34 -80 85 -80z
" />
    <glyph glyph-name="seven.sups" horiz-adv-x="296" 
d="M10 800v60h266v-50l-148 -350h-66l146 340h-198z" />
    <glyph glyph-name="eight.sups" horiz-adv-x="335" 
d="M245 671c44 -23 66 -58 66 -105c0 -72 -58 -118 -143 -118s-144 46 -144 118c0 47 22 82 66 104c-35 21 -53 51 -53 88c0 71 56 114 131 114c73 0 130 -43 130 -114c0 -37 -18 -66 -53 -87zM99 758c0 -36 25 -59 69 -59c43 0 68 23 68 59c0 35 -24 56 -68 56
s-69 -21 -69 -56zM168 508c51 0 81 26 81 66s-32 65 -81 65c-53 0 -82 -24 -82 -65c0 -40 30 -66 82 -66z" />
    <glyph glyph-name="nine.sups" horiz-adv-x="335" 
d="M296 662v-1l-2 -3l-2 -2l-125 -196h-75l92 134c-3 -1 -9 -1 -16 -1c-42 0 -77 13 -106 40c-28 27 -42 60 -42 99s14 72 42 99c29 27 64 41 106 41s77 -14 105 -41s42 -60 42 -99c0 -25 -6 -49 -19 -70zM168 812c-52 0 -86 -33 -86 -80s34 -79 86 -79s85 32 85 79
s-34 80 -85 80z" />
    <glyph glyph-name="cent.tf" horiz-adv-x="570" 
d="M480 250l55 -32c-41 -80 -127 -130 -224 -130c-22 0 -45 3 -68 8l-31 -96h-50l36 112c-92 40 -150 131 -150 238c0 74 25 136 75 186c50 51 113 76 188 76c18 0 34 -1 47 -4l30 92h50l-34 -105c59 -22 101 -60 126 -114l-54 -31c-19 39 -49 67 -91 84l-122 -376
c15 -4 31 -6 48 -6c75 0 136 38 169 98zM114 350c0 -76 41 -143 104 -176l120 372c-12 1 -21 2 -27 2c-55 0 -102 -19 -140 -58c-38 -38 -57 -85 -57 -140z" />
    <glyph glyph-name="dollar.tf" horiz-adv-x="570" 
d="M530 182c0 -107 -80 -181 -200 -192v-90h-60v89c-115 7 -191 59 -230 155l60 35c24 -75 81 -116 170 -122v275c-63 19 -98 34 -138 63c-39 29 -57 72 -57 131c0 52 18 94 54 127c37 33 84 53 141 58v89h60v-90c91 -9 152 -55 185 -139l-59 -33c-21 61 -63 96 -126 104
v-259c128 -39 200 -89 200 -201zM145 526c0 -64 38 -97 125 -125v242c-77 -8 -125 -52 -125 -117zM330 313v-255c83 9 130 57 130 124c0 68 -42 103 -130 131z" />
    <glyph glyph-name="Euro.tf" horiz-adv-x="570" 
d="M485 172l57 -32c-31 -99 -105 -152 -202 -152c-137 0 -227 106 -250 278h-65v58h60v26c0 15 0 27 1 34h-61v58h66c24 167 114 270 249 270c95 0 166 -50 198 -143l-58 -33c-23 71 -75 108 -140 108c-93 0 -158 -73 -178 -202h243v-58h-249c-1 -7 -1 -19 -1 -34v-26h250
v-58h-245c19 -135 84 -210 180 -210c67 0 121 40 145 116z" />
    <glyph glyph-name="florin.tf" horiz-adv-x="570" 
d="M540 703v-64c-78 27 -126 4 -143 -68l-47 -188h150v-64h-166l-96 -388c-29 -118 -99 -162 -208 -132v64c77 -27 125 -4 142 68l96 388h-149v64h165l47 188c29 119 99 163 209 132z" />
    <glyph glyph-name="uni20BD.tf" horiz-adv-x="570" 
d="M330 280h-160v-94h240v-58h-240v-128h-70v128h-90v58h90v94h-90v66h90v354h230c58 0 107 -21 148 -62s62 -90 62 -148c0 -57 -21 -107 -62 -148s-90 -62 -148 -62zM330 634h-160v-288h160c39 0 72 14 99 42c27 29 41 63 41 102c0 40 -14 74 -41 102s-60 42 -99 42z" />
    <glyph glyph-name="sterling.tf" horiz-adv-x="570" 
d="M194 289v-221h366v-68h-530v68h94v221h-74v62h74v151c0 67 20 119 61 155c41 37 89 55 144 55c91 0 155 -45 191 -134l-57 -32c-24 65 -69 98 -134 98c-76 0 -135 -47 -135 -142v-151h231v-62h-231z" />
    <glyph glyph-name="yen.tf" horiz-adv-x="570" 
d="M486 700h77l-229 -353h167v-58h-181v-60h181v-58h-181v-171h-70v171h-179v58h179v60h-179v58h166l-229 353h77l201 -309z" />
    <glyph glyph-name="brevecy" horiz-adv-x="300" 
d="M280 580h-260v58h260v-58z" />
    <glyph glyph-name="Ohorn" unicode="&#x1a0;" horiz-adv-x="804" 
d="M659 93c-70 -70 -156 -105 -257 -105s-187 35 -257 105c-70 71 -105 156 -105 257s35 186 105 256c70 71 156 106 257 106c34 0 66 -4 97 -12h67c48 0 58 21 58 70v5h61v-5c0 -67 -21 -109 -72 -124c16 -12 31 -26 46 -40c70 -70 105 -155 105 -256s-35 -186 -105 -257z
M194 141c56 -57 125 -85 208 -85s152 28 208 85s84 127 84 209s-28 151 -84 208s-125 86 -208 86s-152 -29 -208 -86s-84 -126 -84 -208s28 -152 84 -209z" />
    <glyph glyph-name="ohorn" unicode="&#x1a1;" horiz-adv-x="606" 
d="M489 63c-51 -50 -113 -75 -186 -75s-136 25 -187 75c-51 51 -76 113 -76 187s25 136 76 186c51 51 114 76 187 76c29 0 57 -4 82 -12h41c48 0 58 21 58 70v5h61v-5c0 -65 -20 -107 -68 -123c4 -4 8 -7 12 -11c51 -50 77 -112 77 -186s-26 -136 -77 -187zM163 109
c38 -38 85 -57 140 -57s102 19 140 57c38 39 57 86 57 141s-19 102 -57 140c-38 39 -85 58 -140 58s-102 -19 -140 -58c-38 -38 -57 -85 -57 -140s19 -102 57 -141z" />
    <glyph glyph-name="Uhorn" unicode="&#x1af;" horiz-adv-x="660" 
d="M70 238v462h70v-462c0 -112 70 -182 190 -182s190 70 190 182v462h37c48 0 58 21 58 70v5h61v-5c0 -73 -25 -117 -86 -128v-404c0 -76 -24 -137 -72 -182s-111 -68 -188 -68s-140 23 -188 68s-72 106 -72 182z" />
    <glyph glyph-name="uhorn" unicode="&#x1b0;" horiz-adv-x="558" 
d="M422 238v262h34c48 0 58 21 58 70v5h61v-5c0 -73 -25 -118 -87 -128v-442h-66v78c-37 -60 -93 -90 -168 -90c-121 0 -196 80 -196 205v307h66v-307c0 -89 49 -141 136 -141c96 0 162 59 162 186z" />
    <glyph glyph-name="Itilde" unicode="&#x128;" horiz-adv-x="230" 
d="M80 0v700h70v-700h-70zM33 780h-58c0 121 72 140 141 87c53 -41 81 -55 81 23h58c0 -121 -71 -140 -140 -87c-31 23 -44 32 -60 33s-22 -17 -22 -56z" />
    <glyph glyph-name="itilde" unicode="&#x129;" horiz-adv-x="206" 
d="M136 0h-66v500h66v-500zM35 579h-49c0 123 60 143 118 89c44 -42 68 -57 68 23h48c0 -124 -59 -143 -117 -89c-26 24 -36 33 -50 34c-13 1 -18 -17 -18 -57z" />
    <glyph glyph-name="Utilde" unicode="&#x168;" horiz-adv-x="660" 
d="M70 238v462h70v-462c0 -112 70 -182 190 -182s190 70 190 182v462h70v-462c0 -76 -24 -137 -72 -182s-111 -68 -188 -68s-140 23 -188 68s-72 106 -72 182zM248 780h-58c0 121 72 140 141 87c53 -41 81 -55 81 23h58c0 -121 -71 -140 -140 -87c-31 23 -44 32 -60 33
s-22 -17 -22 -56z" />
    <glyph glyph-name="utilde" unicode="&#x169;" horiz-adv-x="558" 
d="M422 238v262h66v-500h-66v78c-37 -60 -93 -90 -168 -90c-121 0 -196 80 -196 205v307h66v-307c0 -89 49 -141 136 -141c96 0 162 59 162 186zM189 580h-58c0 121 72 140 141 87c53 -41 81 -55 81 23h58c0 -121 -71 -140 -140 -87c-31 23 -44 32 -60 33s-22 -17 -22 -56z
" />
    <glyph glyph-name="uni1EA0" unicode="&#x1ea0;" horiz-adv-x="630" 
d="M348 -167c-19 -19 -49 -19 -68 0s-19 49 0 68s49 19 68 0s19 -49 0 -68zM620 0h-74l-65 172h-332l-65 -172h-74l269 700h72zM315 613l-141 -375h282z" />
    <glyph glyph-name="uni1EA1" unicode="&#x1ea1;" 
d="M338 -167c-19 -19 -49 -19 -68 0s-19 49 0 68s49 19 68 0s19 -49 0 -68zM500 402v98h66v-500h-66v98c-46 -73 -113 -110 -202 -110c-71 0 -132 25 -183 76c-50 51 -75 113 -75 186s25 135 75 186c51 51 112 76 183 76c89 0 156 -37 202 -110zM163 109
c38 -38 85 -57 140 -57s102 19 140 57c38 39 57 86 57 141s-19 102 -57 140c-38 39 -85 58 -140 58s-102 -19 -140 -58c-38 -38 -57 -85 -57 -140s19 -102 57 -141z" />
    <glyph glyph-name="uni1EA2" unicode="&#x1ea2;" horiz-adv-x="630" 
d="M339 770h-49c0 38 1 50 20 63c0 0 11 6 10 5c12 8 22 15 22 32c0 14 -12 23 -27 23c-16 0 -34 -11 -42 -36c1 1 -17 6 -44 23c16 42 50 62 86 62c41 0 79 -23 79 -71c0 -37 -17 -56 -34 -65c-14 -7 -23 -15 -21 -36zM620 0h-74l-65 172h-332l-65 -172h-74l269 700h72z
M315 613l-141 -375h282z" />
    <glyph glyph-name="uni1EA3" unicode="&#x1ea3;" 
d="M386 569h-49c0 38 1 50 20 63c0 0 11 6 10 5c12 8 22 15 22 32c0 14 -12 23 -27 23c-16 0 -34 -11 -42 -36c1 1 -17 6 -44 23c16 42 50 62 86 62c41 0 79 -23 79 -71c0 -37 -17 -56 -34 -65c-14 -7 -23 -15 -21 -36zM500 402v98h66v-500h-66v98
c-46 -73 -113 -110 -202 -110c-71 0 -132 25 -183 76c-50 51 -75 113 -75 186s25 135 75 186c51 51 112 76 183 76c89 0 156 -37 202 -110zM163 109c38 -38 85 -57 140 -57s102 19 140 57c38 39 57 86 57 141s-19 102 -57 140c-38 39 -85 58 -140 58s-102 -19 -140 -58
c-38 -38 -57 -85 -57 -140s19 -102 57 -141z" />
    <glyph glyph-name="uni1EB8" unicode="&#x1eb8;" horiz-adv-x="530" 
d="M315 -167c-19 -19 -49 -19 -68 0s-19 49 0 68s49 19 68 0s19 -49 0 -68zM150 320v-254h340v-66h-410v700h405v-66h-335v-248h310v-66h-310z" />
    <glyph glyph-name="uni1EB9" unicode="&#x1eb9;" horiz-adv-x="584" 
d="M338 -167c-19 -19 -49 -19 -68 0s-19 49 0 68s49 19 68 0s19 -49 0 -68zM301 512c74 0 134 -26 179 -79c46 -52 69 -114 69 -185c0 -7 -1 -18 -2 -31h-439c13 -101 92 -165 199 -165c76 0 133 34 161 85l58 -34c-44 -71 -123 -115 -220 -115c-79 0 -143 25 -192 74
s-74 112 -74 188c0 75 24 137 73 187s111 75 188 75zM301 448c-104 0 -180 -68 -193 -167h373c-7 53 -27 94 -61 123s-74 44 -119 44z" />
    <glyph glyph-name="uni1EBA" unicode="&#x1eba;" horiz-adv-x="530" 
d="M320 770h-49c0 38 1 50 20 63c0 0 11 6 10 5c12 8 22 15 22 32c0 14 -12 23 -27 23c-16 0 -34 -11 -42 -36c1 1 -17 6 -44 23c16 42 50 62 86 62c41 0 79 -23 79 -71c0 -37 -17 -56 -34 -65c-14 -7 -23 -15 -21 -36zM150 320v-254h340v-66h-410v700h405v-66h-335v-248
h310v-66h-310z" />
    <glyph glyph-name="uni1EBB" unicode="&#x1ebb;" horiz-adv-x="584" 
d="M341 569h-49c0 38 1 50 20 63c0 0 11 6 10 5c12 8 22 15 22 32c0 14 -12 23 -27 23c-16 0 -34 -11 -42 -36c1 1 -17 6 -44 23c16 42 50 62 86 62c41 0 79 -23 79 -71c0 -37 -17 -56 -34 -65c-14 -7 -23 -15 -21 -36zM301 512c74 0 134 -26 179 -79
c46 -52 69 -114 69 -185c0 -7 -1 -18 -2 -31h-439c13 -101 92 -165 199 -165c76 0 133 34 161 85l58 -34c-44 -71 -123 -115 -220 -115c-79 0 -143 25 -192 74s-74 112 -74 188c0 75 24 137 73 187s111 75 188 75zM301 448c-104 0 -180 -68 -193 -167h373
c-7 53 -27 94 -61 123s-74 44 -119 44z" />
    <glyph glyph-name="uni1EC8" unicode="&#x1ec8;" horiz-adv-x="230" 
d="M140 770h-49c0 38 1 50 20 63c0 0 11 6 10 5c12 8 22 15 22 32c0 14 -12 23 -27 23c-16 0 -34 -11 -42 -36c1 1 -17 6 -44 23c16 42 50 62 86 62c41 0 79 -23 79 -71c0 -37 -17 -56 -34 -65c-14 -7 -23 -15 -21 -36zM80 0v700h70v-700h-70z" />
    <glyph glyph-name="uni1EC9" unicode="&#x1ec9;" horiz-adv-x="206" 
d="M136 0h-66v500h66v-500zM128 569h-49c0 38 1 50 20 63c0 0 11 6 10 5c12 8 22 15 22 32c0 14 -12 23 -27 23c-16 0 -34 -11 -42 -36c1 1 -17 6 -44 23c16 42 50 62 86 62c41 0 79 -23 79 -71c0 -37 -17 -56 -34 -65c-14 -7 -23 -15 -21 -36z" />
    <glyph glyph-name="uni1ECA" unicode="&#x1eca;" horiz-adv-x="230" 
d="M149 -167c-19 -19 -49 -19 -68 0s-19 49 0 68s49 19 68 0s19 -49 0 -68zM80 0v700h70v-700h-70z" />
    <glyph glyph-name="uni1ECB" unicode="&#x1ecb;" horiz-adv-x="206" 
d="M138 -167c-19 -19 -49 -19 -68 0s-19 49 0 68s49 19 68 0s19 -49 0 -68zM137 587c-19 -19 -49 -19 -68 0s-19 49 0 68s49 19 68 0s19 -49 0 -68zM136 0h-66v500h66v-500z" />
    <glyph glyph-name="uni1ECC" unicode="&#x1ecc;" horiz-adv-x="804" 
d="M434 -167c-19 -19 -49 -19 -68 0s-19 49 0 68s49 19 68 0s19 -49 0 -68zM659 93c-70 -70 -156 -105 -257 -105s-187 35 -257 105c-70 71 -105 156 -105 257s35 186 105 256c70 71 156 106 257 106s187 -35 257 -106c70 -70 105 -155 105 -256s-35 -186 -105 -257z
M194 141c56 -57 125 -85 208 -85s152 28 208 85s84 127 84 209s-28 151 -84 208s-125 86 -208 86s-152 -29 -208 -86s-84 -126 -84 -208s28 -152 84 -209z" />
    <glyph glyph-name="uni1ECD" unicode="&#x1ecd;" horiz-adv-x="606" 
d="M335 -167c-19 -19 -49 -19 -68 0s-19 49 0 68s49 19 68 0s19 -49 0 -68zM489 63c-51 -50 -113 -75 -186 -75s-136 25 -187 75c-51 51 -76 113 -76 187s25 136 76 186c51 51 114 76 187 76s135 -25 186 -76c51 -50 77 -112 77 -186s-26 -136 -77 -187zM163 109
c38 -38 85 -57 140 -57s102 19 140 57c38 39 57 86 57 141s-19 102 -57 140c-38 39 -85 58 -140 58s-102 -19 -140 -58c-38 -38 -57 -85 -57 -140s19 -102 57 -141z" />
    <glyph glyph-name="uni1ECE" unicode="&#x1ece;" horiz-adv-x="804" 
d="M659 93c-70 -70 -156 -105 -257 -105s-187 35 -257 105c-70 71 -105 156 -105 257s35 186 105 256c70 71 156 106 257 106s187 -35 257 -106c70 -70 105 -155 105 -256s-35 -186 -105 -257zM194 141c56 -57 125 -85 208 -85s152 28 208 85s84 127 84 209s-28 151 -84 208
s-125 86 -208 86s-152 -29 -208 -86s-84 -126 -84 -208s28 -152 84 -209zM449 770h-49c0 38 1 50 20 63c0 0 11 6 10 5c12 8 22 15 22 32c0 14 -12 23 -27 23c-16 0 -34 -11 -42 -36c1 1 -17 6 -44 23c16 42 50 62 86 62c41 0 79 -23 79 -71c0 -37 -17 -56 -34 -65
c-14 -7 -23 -15 -21 -36z" />
    <glyph glyph-name="uni1ECF" unicode="&#x1ecf;" horiz-adv-x="606" 
d="M489 63c-51 -50 -113 -75 -186 -75s-136 25 -187 75c-51 51 -76 113 -76 187s25 136 76 186c51 51 114 76 187 76s135 -25 186 -76c51 -50 77 -112 77 -186s-26 -136 -77 -187zM163 109c38 -38 85 -57 140 -57s102 19 140 57c38 39 57 86 57 141s-19 102 -57 140
c-38 39 -85 58 -140 58s-102 -19 -140 -58c-38 -38 -57 -85 -57 -140s19 -102 57 -141zM344 569h-49c0 38 1 50 20 63c0 0 11 6 10 5c12 8 22 15 22 32c0 14 -12 23 -27 23c-16 0 -34 -11 -42 -36c1 1 -17 6 -44 23c16 42 50 62 86 62c41 0 79 -23 79 -71
c0 -37 -17 -56 -34 -65c-14 -7 -23 -15 -21 -36z" />
    <glyph glyph-name="uni1EDE" unicode="&#x1ede;" horiz-adv-x="804" 
d="M449 770h-49c0 38 1 50 20 63c0 0 11 6 10 5c12 8 22 15 22 32c0 14 -12 23 -27 23c-16 0 -34 -11 -42 -36c1 1 -17 6 -44 23c16 42 50 62 86 62c41 0 79 -23 79 -71c0 -37 -17 -56 -34 -65c-14 -7 -23 -15 -21 -36zM659 93c-70 -70 -156 -105 -257 -105
s-187 35 -257 105c-70 71 -105 156 -105 257s35 186 105 256c70 71 156 106 257 106c34 0 66 -4 97 -12h67c48 0 58 21 58 70v5h61v-5c0 -67 -21 -109 -72 -124c16 -12 31 -26 46 -40c70 -70 105 -155 105 -256s-35 -186 -105 -257zM194 141c56 -57 125 -85 208 -85
s152 28 208 85s84 127 84 209s-28 151 -84 208s-125 86 -208 86s-152 -29 -208 -86s-84 -126 -84 -208s28 -152 84 -209z" />
    <glyph glyph-name="uni1EDF" unicode="&#x1edf;" horiz-adv-x="606" 
d="M344 569h-49c0 38 1 50 20 63c0 0 11 6 10 5c12 8 22 15 22 32c0 14 -12 23 -27 23c-16 0 -34 -11 -42 -36c1 1 -17 6 -44 23c16 42 50 62 86 62c41 0 79 -23 79 -71c0 -37 -17 -56 -34 -65c-14 -7 -23 -15 -21 -36zM489 63c-51 -50 -113 -75 -186 -75s-136 25 -187 75
c-51 51 -76 113 -76 187s25 136 76 186c51 51 114 76 187 76c29 0 57 -4 82 -12h41c48 0 58 21 58 70v5h61v-5c0 -65 -20 -107 -68 -123c4 -4 8 -7 12 -11c51 -50 77 -112 77 -186s-26 -136 -77 -187zM163 109c38 -38 85 -57 140 -57s102 19 140 57c38 39 57 86 57 141
s-19 102 -57 140c-38 39 -85 58 -140 58s-102 -19 -140 -58c-38 -38 -57 -85 -57 -140s19 -102 57 -141z" />
    <glyph glyph-name="uni1EE2" unicode="&#x1ee2;" horiz-adv-x="804" 
d="M434 -167c-19 -19 -49 -19 -68 0s-19 49 0 68s49 19 68 0s19 -49 0 -68zM659 93c-70 -70 -156 -105 -257 -105s-187 35 -257 105c-70 71 -105 156 -105 257s35 186 105 256c70 71 156 106 257 106c34 0 66 -4 97 -12h67c48 0 58 21 58 70v5h61v-5
c0 -67 -21 -109 -72 -124c16 -12 31 -26 46 -40c70 -70 105 -155 105 -256s-35 -186 -105 -257zM194 141c56 -57 125 -85 208 -85s152 28 208 85s84 127 84 209s-28 151 -84 208s-125 86 -208 86s-152 -29 -208 -86s-84 -126 -84 -208s28 -152 84 -209z" />
    <glyph glyph-name="uni1EE3" unicode="&#x1ee3;" horiz-adv-x="606" 
d="M335 -167c-19 -19 -49 -19 -68 0s-19 49 0 68s49 19 68 0s19 -49 0 -68zM489 63c-51 -50 -113 -75 -186 -75s-136 25 -187 75c-51 51 -76 113 -76 187s25 136 76 186c51 51 114 76 187 76c29 0 57 -4 82 -12h41c48 0 58 21 58 70v5h61v-5c0 -65 -20 -107 -68 -123
c4 -4 8 -7 12 -11c51 -50 77 -112 77 -186s-26 -136 -77 -187zM163 109c38 -38 85 -57 140 -57s102 19 140 57c38 39 57 86 57 141s-19 102 -57 140c-38 39 -85 58 -140 58s-102 -19 -140 -58c-38 -38 -57 -85 -57 -140s19 -102 57 -141z" />
    <glyph glyph-name="uni1EE4" unicode="&#x1ee4;" horiz-adv-x="660" 
d="M70 238v462h70v-462c0 -112 70 -182 190 -182s190 70 190 182v462h70v-462c0 -76 -24 -137 -72 -182s-111 -68 -188 -68s-140 23 -188 68s-72 106 -72 182zM364 -167c-19 -19 -49 -19 -68 0s-19 49 0 68s49 19 68 0s19 -49 0 -68z" />
    <glyph glyph-name="uni1EE5" unicode="&#x1ee5;" horiz-adv-x="558" 
d="M289 -167c-19 -19 -49 -19 -68 0s-19 49 0 68s49 19 68 0s19 -49 0 -68zM422 238v262h66v-500h-66v78c-37 -60 -93 -90 -168 -90c-121 0 -196 80 -196 205v307h66v-307c0 -89 49 -141 136 -141c96 0 162 59 162 186z" />
    <glyph glyph-name="uni1EE6" unicode="&#x1ee6;" horiz-adv-x="660" 
d="M374 770h-49c0 38 1 50 20 63c0 0 11 6 10 5c12 8 22 15 22 32c0 14 -12 23 -27 23c-16 0 -34 -11 -42 -36c1 1 -17 6 -44 23c16 42 50 62 86 62c41 0 79 -23 79 -71c0 -37 -17 -56 -34 -65c-14 -7 -23 -15 -21 -36zM70 238v462h70v-462c0 -112 70 -182 190 -182
s190 70 190 182v462h70v-462c0 -76 -24 -137 -72 -182s-111 -68 -188 -68s-140 23 -188 68s-72 106 -72 182z" />
    <glyph glyph-name="uni1EE7" unicode="&#x1ee7;" horiz-adv-x="558" 
d="M313 569h-49c0 38 1 50 20 63c0 0 11 6 10 5c12 8 22 15 22 32c0 14 -12 23 -27 23c-16 0 -34 -11 -42 -36c1 1 -17 6 -44 23c16 42 50 62 86 62c41 0 79 -23 79 -71c0 -37 -17 -56 -34 -65c-14 -7 -23 -15 -21 -36zM422 238v262h66v-500h-66v78
c-37 -60 -93 -90 -168 -90c-121 0 -196 80 -196 205v307h66v-307c0 -89 49 -141 136 -141c96 0 162 59 162 186z" />
    <glyph glyph-name="uni1EEC" unicode="&#x1eec;" horiz-adv-x="660" 
d="M374 770h-50c1 40 3 52 22 66h-1c18 11 44 24 44 49c0 21 -16 32 -39 32s-42 -14 -51 -42c-7 3 -12 6 -20 10h1c-8 4 -16 9 -24 13c16 46 53 69 94 69c47 0 90 -27 90 -82c0 -41 -19 -62 -38 -72c-20 -11 -30 -21 -28 -43zM70 238v462h70v-462c0 -112 70 -182 190 -182
s190 70 190 182v462h37c48 0 58 21 58 70v5h61v-5c0 -73 -25 -117 -86 -128v-404c0 -76 -24 -137 -72 -182s-111 -68 -188 -68s-140 23 -188 68s-72 106 -72 182z" />
    <glyph glyph-name="uni1EED" unicode="&#x1eed;" horiz-adv-x="558" 
d="M313 569h-49c0 38 1 50 20 63c0 0 11 6 10 5c12 8 22 15 22 32c0 14 -12 23 -27 23c-16 0 -34 -11 -42 -36c1 1 -17 6 -44 23c16 42 50 62 86 62c41 0 79 -23 79 -71c0 -37 -17 -56 -34 -65c-14 -7 -23 -15 -21 -36zM422 238v262h34c48 0 58 21 58 70v5h61v-5
c0 -73 -25 -118 -87 -128v-442h-66v78c-37 -60 -93 -90 -168 -90c-121 0 -196 80 -196 205v307h66v-307c0 -89 49 -141 136 -141c96 0 162 59 162 186z" />
    <glyph glyph-name="uni1EF0" unicode="&#x1ef0;" horiz-adv-x="660" 
d="M364 -167c-19 -19 -49 -19 -68 0s-19 49 0 68s49 19 68 0s19 -49 0 -68zM70 238v462h70v-462c0 -112 70 -182 190 -182s190 70 190 182v462h37c48 0 58 21 58 70v5h61v-5c0 -73 -25 -117 -86 -128v-404c0 -76 -24 -137 -72 -182s-111 -68 -188 -68s-140 23 -188 68
s-72 106 -72 182z" />
    <glyph glyph-name="uni1EF1" unicode="&#x1ef1;" horiz-adv-x="558" 
d="M289 -167c-19 -19 -49 -19 -68 0s-19 49 0 68s49 19 68 0s19 -49 0 -68zM422 238v262h34c48 0 58 21 58 70v5h61v-5c0 -73 -25 -118 -87 -128v-442h-66v78c-37 -60 -93 -90 -168 -90c-121 0 -196 80 -196 205v307h66v-307c0 -89 49 -141 136 -141c96 0 162 59 162 186z
" />
    <glyph glyph-name="uni1EF4" unicode="&#x1ef4;" horiz-adv-x="595" 
d="M329 -167c-19 -19 -49 -19 -68 0s-19 49 0 68s49 19 68 0s19 -49 0 -68zM506 700h79l-253 -413v-287h-70v289l-252 411h79l209 -343z" />
    <glyph glyph-name="uni1EF5" unicode="&#x1ef5;" horiz-adv-x="510" 
d="M424 -167c-19 -19 -49 -19 -68 0s-19 49 0 68s49 19 68 0s19 -49 0 -68zM268 81l162 419h70l-214 -546c-39 -99 -114 -161 -202 -154v62c60 -7 106 28 137 104l13 31l-224 503h70z" />
    <glyph glyph-name="uni1EF6" unicode="&#x1ef6;" horiz-adv-x="595" 
d="M330 770h-49c0 38 1 50 20 63c0 0 11 6 10 5c12 8 22 15 22 32c0 14 -12 23 -27 23c-16 0 -34 -11 -42 -36c1 1 -17 6 -44 23c16 42 50 62 86 62c41 0 79 -23 79 -71c0 -37 -17 -56 -34 -65c-14 -7 -23 -15 -21 -36zM506 700h79l-253 -413v-287h-70v289l-252 411h79
l209 -343z" />
    <glyph glyph-name="uni1EF7" unicode="&#x1ef7;" horiz-adv-x="510" 
d="M297 569h-49c0 38 1 50 20 63c0 0 11 6 10 5c12 8 22 15 22 32c0 14 -12 23 -27 23c-16 0 -34 -11 -42 -36c1 1 -17 6 -44 23c16 42 50 62 86 62c41 0 79 -23 79 -71c0 -37 -17 -56 -34 -65c-14 -7 -23 -15 -21 -36zM268 81l162 419h70l-214 -546
c-39 -99 -114 -161 -202 -154v62c60 -7 106 28 137 104l13 31l-224 503h70z" />
    <glyph glyph-name="uni1EF8" unicode="&#x1ef8;" horiz-adv-x="595" 
d="M506 700h79l-253 -413v-287h-70v289l-252 411h79l209 -343zM212 780h-58c0 121 72 140 141 87c53 -41 81 -55 81 23h58c0 -121 -71 -140 -140 -87c-31 23 -44 32 -60 33s-22 -17 -22 -56z" />
    <glyph glyph-name="uni1EF9" unicode="&#x1ef9;" horiz-adv-x="510" 
d="M268 81l162 419h70l-214 -546c-39 -99 -114 -161 -202 -154v62c60 -7 106 28 137 104l13 31l-224 503h70zM171 580h-58c0 121 72 140 141 87c53 -41 81 -55 81 23h58c0 -121 -71 -140 -140 -87c-31 23 -44 32 -60 33s-22 -17 -22 -56z" />
    <glyph glyph-name="uni1EA6" unicode="&#x1ea6;" horiz-adv-x="630" 
d="M620 0h-74l-65 172h-332l-65 -172h-74l269 700h72zM315 613l-141 -375h282zM380 770l-65 81l-65 -81h-70l99 121h72l99 -121h-70zM491 857h-60l-89 121h74z" />
    <glyph glyph-name="uni1EA7" unicode="&#x1ea7;" 
d="M500 402v98h66v-500h-66v98c-46 -73 -113 -110 -202 -110c-71 0 -132 25 -183 76c-50 51 -75 113 -75 186s25 135 75 186c51 51 112 76 183 76c89 0 156 -37 202 -110zM163 109c38 -38 85 -57 140 -57s102 19 140 57c38 39 57 86 57 141s-19 102 -57 140
c-38 39 -85 58 -140 58s-102 -19 -140 -58c-38 -38 -57 -85 -57 -140s19 -102 57 -141zM408 570l-65 81l-65 -81h-70l99 121h72l99 -121h-70zM519 657h-60l-89 121h74z" />
    <glyph glyph-name="uni1EAE" unicode="&#x1eae;" horiz-adv-x="630" 
d="M620 0h-74l-65 172h-332l-65 -172h-74l269 700h72zM315 613l-141 -375h282zM315 762c-74 0 -121 42 -121 111h56c0 -41 21 -61 65 -61s65 20 65 61h56c0 -70 -46 -111 -121 -111zM360 1012h74l-89 -121h-60z" />
    <glyph glyph-name="uni1EAF" unicode="&#x1eaf;" 
d="M348 561c-74 0 -121 42 -121 111h56c0 -41 21 -61 65 -61s65 20 65 61h56c0 -70 -46 -111 -121 -111zM500 402v98h66v-500h-66v98c-46 -73 -113 -110 -202 -110c-71 0 -132 25 -183 76c-50 51 -75 113 -75 186s25 135 75 186c51 51 112 76 183 76c89 0 156 -37 202 -110z
M163 109c38 -38 85 -57 140 -57s102 19 140 57c38 39 57 86 57 141s-19 102 -57 140c-38 39 -85 58 -140 58s-102 -19 -140 -58c-38 -38 -57 -85 -57 -140s19 -102 57 -141zM393 811h74l-89 -121h-60z" />
    <glyph glyph-name="uni1EBE" unicode="&#x1ebe;" horiz-adv-x="530" 
d="M348 770l-65 81l-65 -81h-70l99 121h72l99 -121h-70zM150 320v-254h340v-66h-410v700h405v-66h-335v-248h310v-66h-310zM453 978h74l-89 -121h-60z" />
    <glyph glyph-name="uni1EBF" unicode="&#x1ebf;" horiz-adv-x="584" 
d="M301 512c74 0 134 -26 179 -79c46 -52 69 -114 69 -185c0 -7 -1 -18 -2 -31h-439c13 -101 92 -165 199 -165c76 0 133 34 161 85l58 -34c-44 -71 -123 -115 -220 -115c-79 0 -143 25 -192 74s-74 112 -74 188c0 75 24 137 73 187s111 75 188 75zM301 448
c-104 0 -180 -68 -193 -167h373c-7 53 -27 94 -61 123s-74 44 -119 44zM370 570l-65 81l-65 -81h-70l99 121h72l99 -121h-70zM475 778h74l-89 -121h-60z" />
    <glyph glyph-name="uni1ED0" unicode="&#x1ed0;" horiz-adv-x="804" 
d="M467 770l-65 81l-65 -81h-70l99 121h72l99 -121h-70zM145 606c70 71 156 106 257 106s187 -35 257 -106c70 -70 105 -155 105 -256s-35 -186 -105 -257c-70 -70 -156 -105 -257 -105s-187 35 -257 105c-70 71 -105 156 -105 257s35 186 105 256zM194 141
c56 -57 125 -85 208 -85s152 28 208 85s84 127 84 209s-28 151 -84 208s-125 86 -208 86s-152 -29 -208 -86s-84 -126 -84 -208s28 -152 84 -209zM572 978h74l-89 -121h-60z" />
    <glyph glyph-name="uni1ED1" unicode="&#x1ed1;" horiz-adv-x="606" 
d="M368 570l-65 81l-65 -81h-70l99 121h72l99 -121h-70zM116 436c51 51 114 76 187 76s135 -25 186 -76c51 -50 77 -112 77 -186s-26 -136 -77 -187c-51 -50 -113 -75 -186 -75s-136 25 -187 75c-51 51 -76 113 -76 187s25 136 76 186zM163 109c38 -38 85 -57 140 -57
s102 19 140 57c38 39 57 86 57 141s-19 102 -57 140c-38 39 -85 58 -140 58s-102 -19 -140 -58c-38 -38 -57 -85 -57 -140s19 -102 57 -141zM473 778h74l-89 -121h-60z" />
    <glyph glyph-name="uni1ED8" unicode="&#x1ed8;" horiz-adv-x="804" 
d="M472 770l-70 87l-70 -87h-75l106 130h78l106 -130h-75zM145 606c70 71 156 106 257 106s187 -35 257 -106c70 -70 105 -155 105 -256s-35 -186 -105 -257c-70 -70 -156 -105 -257 -105s-187 35 -257 105c-70 71 -105 156 -105 257s35 186 105 256zM194 141
c56 -57 125 -85 208 -85s152 28 208 85s84 127 84 209s-28 151 -84 208s-125 86 -208 86s-152 -29 -208 -86s-84 -126 -84 -208s28 -152 84 -209zM434 -167c-19 -19 -49 -19 -68 0s-19 49 0 68s49 19 68 0s19 -49 0 -68z" />
    <glyph glyph-name="uni1EDA" unicode="&#x1eda;" horiz-adv-x="804" 
d="M352 770l80 130h80l-96 -130h-64zM659 93c-70 -70 -156 -105 -257 -105s-187 35 -257 105c-70 71 -105 156 -105 257s35 186 105 256c70 71 156 106 257 106c34 0 66 -4 97 -12h67c48 0 58 21 58 70v5h61v-5c0 -67 -21 -109 -72 -124c16 -12 31 -26 46 -40
c70 -70 105 -155 105 -256s-35 -186 -105 -257zM194 141c56 -57 125 -85 208 -85s152 28 208 85s84 127 84 209s-28 151 -84 208s-125 86 -208 86s-152 -29 -208 -86s-84 -126 -84 -208s28 -152 84 -209z" />
    <glyph glyph-name="uni1EDB" unicode="&#x1edb;" horiz-adv-x="606" 
d="M277 570l80 130h80l-96 -130h-64zM489 63c-51 -50 -113 -75 -186 -75s-136 25 -187 75c-51 51 -76 113 -76 187s25 136 76 186c51 51 114 76 187 76c29 0 57 -4 82 -12h41c48 0 58 21 58 70v5h61v-5c0 -65 -20 -107 -68 -123c4 -4 8 -7 12 -11c51 -50 77 -112 77 -186
s-26 -136 -77 -187zM163 109c38 -38 85 -57 140 -57s102 19 140 57c38 39 57 86 57 141s-19 102 -57 140c-38 39 -85 58 -140 58s-102 -19 -140 -58c-38 -38 -57 -85 -57 -140s19 -102 57 -141z" />
    <glyph glyph-name="uni1EDC" unicode="&#x1edc;" horiz-adv-x="804" 
d="M462 770h-64l-96 130h80zM659 93c-70 -70 -156 -105 -257 -105s-187 35 -257 105c-70 71 -105 156 -105 257s35 186 105 256c70 71 156 106 257 106c34 0 66 -4 97 -12h67c48 0 58 21 58 70v5h61v-5c0 -67 -21 -109 -72 -124c16 -12 31 -26 46 -40
c70 -70 105 -155 105 -256s-35 -186 -105 -257zM194 141c56 -57 125 -85 208 -85s152 28 208 85s84 127 84 209s-28 151 -84 208s-125 86 -208 86s-152 -29 -208 -86s-84 -126 -84 -208s28 -152 84 -209z" />
    <glyph glyph-name="uni1EDD" unicode="&#x1edd;" horiz-adv-x="606" 
d="M377 570h-64l-96 130h80zM489 63c-51 -50 -113 -75 -186 -75s-136 25 -187 75c-51 51 -76 113 -76 187s25 136 76 186c51 51 114 76 187 76c29 0 57 -4 82 -12h41c48 0 58 21 58 70v5h61v-5c0 -65 -20 -107 -68 -123c4 -4 8 -7 12 -11c51 -50 77 -112 77 -186
s-26 -136 -77 -187zM163 109c38 -38 85 -57 140 -57s102 19 140 57c38 39 57 86 57 141s-19 102 -57 140c-38 39 -85 58 -140 58s-102 -19 -140 -58c-38 -38 -57 -85 -57 -140s19 -102 57 -141z" />
    <glyph glyph-name="uni1EE0" unicode="&#x1ee0;" horiz-adv-x="804" 
d="M320 780h-58c0 121 72 140 141 87c53 -41 81 -55 81 23h58c0 -121 -71 -140 -140 -87c-31 23 -44 32 -60 33s-22 -17 -22 -56zM659 93c-70 -70 -156 -105 -257 -105s-187 35 -257 105c-70 71 -105 156 -105 257s35 186 105 256c70 71 156 106 257 106c34 0 66 -4 97 -12
h67c48 0 58 21 58 70v5h61v-5c0 -67 -21 -109 -72 -124c16 -12 31 -26 46 -40c70 -70 105 -155 105 -256s-35 -186 -105 -257zM194 141c56 -57 125 -85 208 -85s152 28 208 85s84 127 84 209s-28 151 -84 208s-125 86 -208 86s-152 -29 -208 -86s-84 -126 -84 -208
s28 -152 84 -209z" />
    <glyph glyph-name="uni1EE1" unicode="&#x1ee1;" horiz-adv-x="606" 
d="M221 580h-58c0 121 72 140 141 87c53 -41 81 -55 81 23h58c0 -121 -71 -140 -140 -87c-31 23 -44 32 -60 33s-22 -17 -22 -56zM489 63c-51 -50 -113 -75 -186 -75s-136 25 -187 75c-51 51 -76 113 -76 187s25 136 76 186c51 51 114 76 187 76c29 0 57 -4 82 -12h41
c48 0 58 21 58 70v5h61v-5c0 -65 -20 -107 -68 -123c4 -4 8 -7 12 -11c51 -50 77 -112 77 -186s-26 -136 -77 -187zM163 109c38 -38 85 -57 140 -57s102 19 140 57c38 39 57 86 57 141s-19 102 -57 140c-38 39 -85 58 -140 58s-102 -19 -140 -58c-38 -38 -57 -85 -57 -140
s19 -102 57 -141z" />
    <glyph glyph-name="uni1EE8" unicode="&#x1ee8;" horiz-adv-x="660" 
d="M298 770l80 130h80l-96 -130h-64zM70 238v462h70v-462c0 -112 70 -182 190 -182s190 70 190 182v462h37c48 0 58 21 58 70v5h61v-5c0 -73 -25 -117 -86 -128v-404c0 -76 -24 -137 -72 -182s-111 -68 -188 -68s-140 23 -188 68s-72 106 -72 182z" />
    <glyph glyph-name="uni1EE9" unicode="&#x1ee9;" horiz-adv-x="558" 
d="M322 700h80l-96 -130h-64zM422 238v262h34c48 0 58 21 58 70v5h61v-5c0 -73 -25 -118 -87 -128v-442h-66v78c-37 -60 -93 -90 -168 -90c-121 0 -196 80 -196 205v307h66v-307c0 -89 49 -141 136 -141c96 0 162 59 162 186z" />
    <glyph glyph-name="uni1EEA" unicode="&#x1eea;" horiz-adv-x="660" 
d="M390 770h-64l-96 130h80zM70 238v462h70v-462c0 -112 70 -182 190 -182s190 70 190 182v462h37c48 0 58 21 58 70v5h61v-5c0 -73 -25 -117 -86 -128v-404c0 -76 -24 -137 -72 -182s-111 -68 -188 -68s-140 23 -188 68s-72 106 -72 182z" />
    <glyph glyph-name="uni1EEB" unicode="&#x1eeb;" horiz-adv-x="558" 
d="M251 700l80 -130h-64l-96 130h80zM422 238v262h34c48 0 58 21 58 70v5h61v-5c0 -73 -25 -118 -87 -128v-442h-66v78c-37 -60 -93 -90 -168 -90c-121 0 -196 80 -196 205v307h66v-307c0 -89 49 -141 136 -141c96 0 162 59 162 186z" />
    <glyph glyph-name="uni1EEE" unicode="&#x1eee;" horiz-adv-x="660" 
d="M70 238v462h70v-462c0 -112 70 -182 190 -182s190 70 190 182v462h37c48 0 58 21 58 70v5h61v-5c0 -73 -25 -117 -86 -128v-404c0 -76 -24 -137 -72 -182s-111 -68 -188 -68s-140 23 -188 68s-72 106 -72 182zM248 780h-58c0 121 72 140 141 87c53 -41 81 -55 81 23h58
c0 -121 -71 -140 -140 -87c-31 23 -44 32 -60 33s-22 -17 -22 -56z" />
    <glyph glyph-name="uni1EEF" unicode="&#x1eef;" horiz-adv-x="558" 
d="M422 238v262h34c48 0 58 21 58 70v5h61v-5c0 -73 -25 -118 -87 -128v-442h-66v78c-37 -60 -93 -90 -168 -90c-121 0 -196 80 -196 205v307h66v-307c0 -89 49 -141 136 -141c96 0 162 59 162 186zM189 580h-58c0 121 72 140 141 87c53 -41 81 -55 81 23h58
c0 -121 -71 -140 -140 -87c-31 23 -44 32 -60 33s-22 -17 -22 -56z" />
    <glyph glyph-name="uni1EBC" unicode="&#x1ebc;" horiz-adv-x="530" 
d="M150 320v-254h340v-66h-410v700h405v-66h-335v-248h310v-66h-310zM201 780h-58c0 121 72 140 141 87c53 -41 81 -55 81 23h58c0 -121 -71 -140 -140 -87c-31 23 -44 32 -60 33s-22 -17 -22 -56z" />
    <glyph glyph-name="uni1EBD" unicode="&#x1ebd;" horiz-adv-x="584" 
d="M301 512c74 0 134 -26 179 -79c46 -52 69 -114 69 -185c0 -7 -1 -18 -2 -31h-439c13 -101 92 -165 199 -165c76 0 133 34 161 85l58 -34c-44 -71 -123 -115 -220 -115c-79 0 -143 25 -192 74s-74 112 -74 188c0 75 24 137 73 187s111 75 188 75zM301 448
c-104 0 -180 -68 -193 -167h373c-7 53 -27 94 -61 123s-74 44 -119 44zM213 580h-58c0 121 72 140 141 87c53 -41 81 -55 81 23h58c0 -121 -71 -140 -140 -87c-31 23 -44 32 -60 33s-22 -17 -22 -56z" />
    <glyph glyph-name="uni1EA8" unicode="&#x1ea8;" horiz-adv-x="630" 
d="M620 0h-74l-65 172h-332l-65 -172h-74l269 700h72zM315 613l-141 -375h282zM380 770l-65 81l-65 -81h-70l99 121h72l99 -121h-70zM458 857h-46c0 36 1 47 19 59c0 0 10 5 9 4c11 8 21 14 21 30c0 13 -11 22 -25 22c-15 0 -32 -11 -39 -34c0 1 -16 6 -41 21
c14 40 46 58 80 58c38 0 73 -21 73 -66c0 -34 -16 -52 -32 -60c-13 -7 -21 -14 -19 -34z" />
    <glyph glyph-name="uni1EA4" unicode="&#x1ea4;" horiz-adv-x="630" 
d="M620 0h-74l-65 172h-332l-65 -172h-74l269 700h72zM315 613l-141 -375h282zM380 770l-65 81l-65 -81h-70l99 121h72l99 -121h-70zM485 978h74l-89 -121h-60z" />
    <glyph glyph-name="uni1EAA" unicode="&#x1eaa;" horiz-adv-x="630" 
d="M620 0h-74l-65 172h-332l-65 -172h-74l269 700h72zM315 613l-141 -375h282zM380 770l-65 81l-65 -81h-70l99 121h72l99 -121h-70zM240 919h-54c0 113 67 131 131 81c49 -38 75 -51 75 22h54c0 -113 -66 -131 -130 -81c-29 21 -41 30 -56 30c-14 1 -20 -15 -20 -52z" />
    <glyph glyph-name="uni1EAC" unicode="&#x1eac;" horiz-adv-x="630" 
d="M620 0h-74l-65 172h-332l-65 -172h-74l269 700h72zM315 613l-141 -375h282zM380 770l-65 81l-65 -81h-70l99 121h72l99 -121h-70zM348 -167c-19 -19 -49 -19 -68 0s-19 49 0 68s49 19 68 0s19 -49 0 -68z" />
    <glyph glyph-name="uni1EC0" unicode="&#x1ec0;" horiz-adv-x="530" 
d="M348 770l-65 81l-65 -81h-70l99 121h72l99 -121h-70zM150 320v-254h340v-66h-410v700h405v-66h-335v-248h310v-66h-310zM459 857h-60l-89 121h74z" />
    <glyph glyph-name="uni1EC2" unicode="&#x1ec2;" horiz-adv-x="530" 
d="M348 770l-65 81l-65 -81h-70l99 121h72l99 -121h-70zM150 320v-254h340v-66h-410v700h405v-66h-335v-248h310v-66h-310zM426 857h-46c0 36 1 47 19 59c0 0 10 5 9 4c11 8 21 14 21 30c0 13 -11 22 -25 22c-15 0 -32 -11 -39 -34c0 1 -16 6 -41 21c14 40 46 58 80 58
c38 0 73 -21 73 -66c0 -34 -16 -52 -32 -60c-13 -7 -21 -14 -19 -34z" />
    <glyph glyph-name="uni1EC4" unicode="&#x1ec4;" horiz-adv-x="530" 
d="M348 770l-65 81l-65 -81h-70l99 121h72l99 -121h-70zM150 320v-254h340v-66h-410v700h405v-66h-335v-248h310v-66h-310zM208 919h-54c0 113 67 131 131 81c49 -38 75 -51 75 22h54c0 -113 -66 -131 -130 -81c-29 21 -41 30 -56 30c-14 1 -20 -15 -20 -52z" />
    <glyph glyph-name="uni1EC6" unicode="&#x1ec6;" horiz-adv-x="530" 
d="M348 770l-65 81l-65 -81h-70l99 121h72l99 -121h-70zM150 320v-254h340v-66h-410v700h405v-66h-335v-248h310v-66h-310zM315 -167c-19 -19 -49 -19 -68 0s-19 49 0 68s49 19 68 0s19 -49 0 -68z" />
    <glyph glyph-name="uni1ED2" unicode="&#x1ed2;" horiz-adv-x="804" 
d="M467 770l-65 81l-65 -81h-70l99 121h72l99 -121h-70zM145 606c70 71 156 106 257 106s187 -35 257 -106c70 -70 105 -155 105 -256s-35 -186 -105 -257c-70 -70 -156 -105 -257 -105s-187 35 -257 105c-70 71 -105 156 -105 257s35 186 105 256zM194 141
c56 -57 125 -85 208 -85s152 28 208 85s84 127 84 209s-28 151 -84 208s-125 86 -208 86s-152 -29 -208 -86s-84 -126 -84 -208s28 -152 84 -209zM578 857h-60l-89 121h74z" />
    <glyph glyph-name="uni1ED4" unicode="&#x1ed4;" horiz-adv-x="804" 
d="M467 770l-65 81l-65 -81h-70l99 121h72l99 -121h-70zM145 606c70 71 156 106 257 106s187 -35 257 -106c70 -70 105 -155 105 -256s-35 -186 -105 -257c-70 -70 -156 -105 -257 -105s-187 35 -257 105c-70 71 -105 156 -105 257s35 186 105 256zM194 141
c56 -57 125 -85 208 -85s152 28 208 85s84 127 84 209s-28 151 -84 208s-125 86 -208 86s-152 -29 -208 -86s-84 -126 -84 -208s28 -152 84 -209zM545 857h-46c0 36 1 47 19 59c0 0 10 5 9 4c11 8 21 14 21 30c0 13 -11 22 -25 22c-15 0 -32 -11 -39 -34c0 1 -16 6 -41 21
c14 40 46 58 80 58c38 0 73 -21 73 -66c0 -34 -16 -52 -32 -60c-13 -7 -21 -14 -19 -34z" />
    <glyph glyph-name="uni1ED6" unicode="&#x1ed6;" horiz-adv-x="804" 
d="M467 770l-65 81l-65 -81h-70l99 121h72l99 -121h-70zM145 606c70 71 156 106 257 106s187 -35 257 -106c70 -70 105 -155 105 -256s-35 -186 -105 -257c-70 -70 -156 -105 -257 -105s-187 35 -257 105c-70 71 -105 156 -105 257s35 186 105 256zM194 141
c56 -57 125 -85 208 -85s152 28 208 85s84 127 84 209s-28 151 -84 208s-125 86 -208 86s-152 -29 -208 -86s-84 -126 -84 -208s28 -152 84 -209zM327 919h-54c0 113 67 131 131 81c49 -38 75 -51 75 22h54c0 -113 -66 -131 -130 -81c-29 21 -41 30 -56 30
c-14 1 -20 -15 -20 -52z" />
    <glyph glyph-name="uni1EB0" unicode="&#x1eb0;" horiz-adv-x="630" 
d="M620 0h-74l-65 172h-332l-65 -172h-74l269 700h72zM315 613l-141 -375h282zM315 762c-74 0 -121 42 -121 111h56c0 -41 21 -61 65 -61s65 20 65 61h56c0 -70 -46 -111 -121 -111zM356 891h-60l-89 121h74z" />
    <glyph glyph-name="uni1EB2" unicode="&#x1eb2;" horiz-adv-x="630" 
d="M620 0h-74l-65 172h-332l-65 -172h-74l269 700h72zM315 613l-141 -375h282zM315 762c-74 0 -121 42 -121 111h56c0 -41 21 -61 65 -61s65 20 65 61h56c0 -70 -46 -111 -121 -111zM342 891h-49c0 38 1 50 20 63c0 0 11 6 10 5c12 8 22 15 22 32c0 14 -12 23 -27 23
c-16 0 -34 -11 -42 -36c1 1 -17 6 -44 23c16 42 50 62 86 62c41 0 79 -23 79 -71c0 -37 -17 -56 -34 -65c-14 -7 -23 -15 -21 -36z" />
    <glyph glyph-name="uni1EB4" unicode="&#x1eb4;" horiz-adv-x="630" 
d="M620 0h-74l-65 172h-332l-65 -172h-74l269 700h72zM315 613l-141 -375h282zM315 762c-74 0 -121 42 -121 111h56c0 -41 21 -61 65 -61s65 20 65 61h56c0 -70 -46 -111 -121 -111zM240 900h-54c0 113 67 131 131 81c49 -38 75 -51 75 22h54c0 -113 -66 -131 -130 -81
c-29 21 -41 30 -56 30c-14 1 -20 -15 -20 -52z" />
    <glyph glyph-name="uni1EB6" unicode="&#x1eb6;" horiz-adv-x="630" 
d="M620 0h-74l-65 172h-332l-65 -172h-74l269 700h72zM315 613l-141 -375h282zM315 762c-74 0 -121 42 -121 111h56c0 -41 21 -61 65 -61s65 20 65 61h56c0 -70 -46 -111 -121 -111zM348 -167c-19 -19 -49 -19 -68 0s-19 49 0 68s49 19 68 0s19 -49 0 -68z" />
    <glyph glyph-name="uni1EB1" unicode="&#x1eb1;" 
d="M348 561c-74 0 -121 42 -121 111h56c0 -41 21 -61 65 -61s65 20 65 61h56c0 -70 -46 -111 -121 -111zM500 402v98h66v-500h-66v98c-46 -73 -113 -110 -202 -110c-71 0 -132 25 -183 76c-50 51 -75 113 -75 186s25 135 75 186c51 51 112 76 183 76c89 0 156 -37 202 -110z
M163 109c38 -38 85 -57 140 -57s102 19 140 57c38 39 57 86 57 141s-19 102 -57 140c-38 39 -85 58 -140 58s-102 -19 -140 -58c-38 -38 -57 -85 -57 -140s19 -102 57 -141zM389 690h-60l-89 121h74z" />
    <glyph glyph-name="uni1EB3" unicode="&#x1eb3;" 
d="M348 561c-74 0 -121 42 -121 111h56c0 -41 21 -61 65 -61s65 20 65 61h56c0 -70 -46 -111 -121 -111zM500 402v98h66v-500h-66v98c-46 -73 -113 -110 -202 -110c-71 0 -132 25 -183 76c-50 51 -75 113 -75 186s25 135 75 186c51 51 112 76 183 76c89 0 156 -37 202 -110z
M163 109c38 -38 85 -57 140 -57s102 19 140 57c38 39 57 86 57 141s-19 102 -57 140c-38 39 -85 58 -140 58s-102 -19 -140 -58c-38 -38 -57 -85 -57 -140s19 -102 57 -141zM375 690h-49c0 38 1 50 20 63c0 0 11 6 10 5c12 8 22 15 22 32c0 14 -12 23 -27 23
c-16 0 -34 -11 -42 -36c1 1 -17 6 -44 23c16 42 50 62 86 62c41 0 79 -23 79 -71c0 -37 -17 -56 -34 -65c-14 -7 -23 -15 -21 -36z" />
    <glyph glyph-name="uni1EB5" unicode="&#x1eb5;" 
d="M348 561c-74 0 -121 42 -121 111h56c0 -41 21 -61 65 -61s65 20 65 61h56c0 -70 -46 -111 -121 -111zM500 402v98h66v-500h-66v98c-46 -73 -113 -110 -202 -110c-71 0 -132 25 -183 76c-50 51 -75 113 -75 186s25 135 75 186c51 51 112 76 183 76c89 0 156 -37 202 -110z
M163 109c38 -38 85 -57 140 -57s102 19 140 57c38 39 57 86 57 141s-19 102 -57 140c-38 39 -85 58 -140 58s-102 -19 -140 -58c-38 -38 -57 -85 -57 -140s19 -102 57 -141zM273 699h-54c0 113 67 131 131 81c49 -38 75 -51 75 22h54c0 -113 -66 -131 -130 -81
c-29 21 -41 30 -56 30c-14 1 -20 -15 -20 -52z" />
    <glyph glyph-name="uni1EB7" unicode="&#x1eb7;" 
d="M348 561c-74 0 -121 42 -121 111h56c0 -41 21 -61 65 -61s65 20 65 61h56c0 -70 -46 -111 -121 -111zM500 402v98h66v-500h-66v98c-46 -73 -113 -110 -202 -110c-71 0 -132 25 -183 76c-50 51 -75 113 -75 186s25 135 75 186c51 51 112 76 183 76c89 0 156 -37 202 -110z
M163 109c38 -38 85 -57 140 -57s102 19 140 57c38 39 57 86 57 141s-19 102 -57 140c-38 39 -85 58 -140 58s-102 -19 -140 -58c-38 -38 -57 -85 -57 -140s19 -102 57 -141zM338 -167c-19 -19 -49 -19 -68 0s-19 49 0 68s49 19 68 0s19 -49 0 -68z" />
    <glyph glyph-name="uni1EA9" unicode="&#x1ea9;" 
d="M500 402v98h66v-500h-66v98c-46 -73 -113 -110 -202 -110c-71 0 -132 25 -183 76c-50 51 -75 113 -75 186s25 135 75 186c51 51 112 76 183 76c89 0 156 -37 202 -110zM163 109c38 -38 85 -57 140 -57s102 19 140 57c38 39 57 86 57 141s-19 102 -57 140
c-38 39 -85 58 -140 58s-102 -19 -140 -58c-38 -38 -57 -85 -57 -140s19 -102 57 -141zM408 570l-65 81l-65 -81h-70l99 121h72l99 -121h-70zM486 657h-46c0 36 1 47 19 59c0 0 10 5 9 4c11 8 21 14 21 30c0 13 -11 22 -25 22c-15 0 -32 -11 -39 -34c0 1 -16 6 -41 21
c14 40 46 58 80 58c38 0 73 -21 73 -66c0 -34 -16 -52 -32 -60c-13 -7 -21 -14 -19 -34z" />
    <glyph glyph-name="uni1EAB" unicode="&#x1eab;" 
d="M500 402v98h66v-500h-66v98c-46 -73 -113 -110 -202 -110c-71 0 -132 25 -183 76c-50 51 -75 113 -75 186s25 135 75 186c51 51 112 76 183 76c89 0 156 -37 202 -110zM163 109c38 -38 85 -57 140 -57s102 19 140 57c38 39 57 86 57 141s-19 102 -57 140
c-38 39 -85 58 -140 58s-102 -19 -140 -58c-38 -38 -57 -85 -57 -140s19 -102 57 -141zM408 570l-65 81l-65 -81h-70l99 121h72l99 -121h-70zM268 719h-54c0 113 67 131 131 81c49 -38 75 -51 75 22h54c0 -113 -66 -131 -130 -81c-29 21 -41 30 -56 30
c-14 1 -20 -15 -20 -52z" />
    <glyph glyph-name="uni1EAD" unicode="&#x1ead;" 
d="M500 402v98h66v-500h-66v98c-46 -73 -113 -110 -202 -110c-71 0 -132 25 -183 76c-50 51 -75 113 -75 186s25 135 75 186c51 51 112 76 183 76c89 0 156 -37 202 -110zM163 109c38 -38 85 -57 140 -57s102 19 140 57c38 39 57 86 57 141s-19 102 -57 140
c-38 39 -85 58 -140 58s-102 -19 -140 -58c-38 -38 -57 -85 -57 -140s19 -102 57 -141zM408 570l-65 81l-65 -81h-70l99 121h72l99 -121h-70zM338 -167c-19 -19 -49 -19 -68 0s-19 49 0 68s49 19 68 0s19 -49 0 -68z" />
    <glyph glyph-name="uni1EA5" unicode="&#x1ea5;" 
d="M500 402v98h66v-500h-66v98c-46 -73 -113 -110 -202 -110c-71 0 -132 25 -183 76c-50 51 -75 113 -75 186s25 135 75 186c51 51 112 76 183 76c89 0 156 -37 202 -110zM163 109c38 -38 85 -57 140 -57s102 19 140 57c38 39 57 86 57 141s-19 102 -57 140
c-38 39 -85 58 -140 58s-102 -19 -140 -58c-38 -38 -57 -85 -57 -140s19 -102 57 -141zM408 570l-65 81l-65 -81h-70l99 121h72l99 -121h-70zM513 778h74l-89 -121h-60z" />
    <glyph glyph-name="uni1EC1" unicode="&#x1ec1;" horiz-adv-x="584" 
d="M301 512c74 0 134 -26 179 -79c46 -52 69 -114 69 -185c0 -7 -1 -18 -2 -31h-439c13 -101 92 -165 199 -165c76 0 133 34 161 85l58 -34c-44 -71 -123 -115 -220 -115c-79 0 -143 25 -192 74s-74 112 -74 188c0 75 24 137 73 187s111 75 188 75zM301 448
c-104 0 -180 -68 -193 -167h373c-7 53 -27 94 -61 123s-74 44 -119 44zM370 570l-65 81l-65 -81h-70l99 121h72l99 -121h-70zM481 657h-60l-89 121h74z" />
    <glyph glyph-name="uni1EC3" unicode="&#x1ec3;" horiz-adv-x="584" 
d="M301 512c74 0 134 -26 179 -79c46 -52 69 -114 69 -185c0 -7 -1 -18 -2 -31h-439c13 -101 92 -165 199 -165c76 0 133 34 161 85l58 -34c-44 -71 -123 -115 -220 -115c-79 0 -143 25 -192 74s-74 112 -74 188c0 75 24 137 73 187s111 75 188 75zM301 448
c-104 0 -180 -68 -193 -167h373c-7 53 -27 94 -61 123s-74 44 -119 44zM370 570l-65 81l-65 -81h-70l99 121h72l99 -121h-70zM448 657h-46c0 36 1 47 19 59c0 0 10 5 9 4c11 8 21 14 21 30c0 13 -11 22 -25 22c-15 0 -32 -11 -39 -34c0 1 -16 6 -41 21c14 40 46 58 80 58
c38 0 73 -21 73 -66c0 -34 -16 -52 -32 -60c-13 -7 -21 -14 -19 -34z" />
    <glyph glyph-name="uni1EC5" unicode="&#x1ec5;" horiz-adv-x="584" 
d="M301 512c74 0 134 -26 179 -79c46 -52 69 -114 69 -185c0 -7 -1 -18 -2 -31h-439c13 -101 92 -165 199 -165c76 0 133 34 161 85l58 -34c-44 -71 -123 -115 -220 -115c-79 0 -143 25 -192 74s-74 112 -74 188c0 75 24 137 73 187s111 75 188 75zM301 448
c-104 0 -180 -68 -193 -167h373c-7 53 -27 94 -61 123s-74 44 -119 44zM370 570l-65 81l-65 -81h-70l99 121h72l99 -121h-70zM230 719h-54c0 113 67 131 131 81c49 -38 75 -51 75 22h54c0 -113 -66 -131 -130 -81c-29 21 -41 30 -56 30c-14 1 -20 -15 -20 -52z" />
    <glyph glyph-name="uni1EC7" unicode="&#x1ec7;" horiz-adv-x="584" 
d="M301 512c74 0 134 -26 179 -79c46 -52 69 -114 69 -185c0 -7 -1 -18 -2 -31h-439c13 -101 92 -165 199 -165c76 0 133 34 161 85l58 -34c-44 -71 -123 -115 -220 -115c-79 0 -143 25 -192 74s-74 112 -74 188c0 75 24 137 73 187s111 75 188 75zM301 448
c-104 0 -180 -68 -193 -167h373c-7 53 -27 94 -61 123s-74 44 -119 44zM370 570l-65 81l-65 -81h-70l99 121h72l99 -121h-70zM338 -167c-19 -19 -49 -19 -68 0s-19 49 0 68s49 19 68 0s19 -49 0 -68z" />
    <glyph glyph-name="uni1ED3" unicode="&#x1ed3;" horiz-adv-x="606" 
d="M368 570l-65 81l-65 -81h-70l99 121h72l99 -121h-70zM116 436c51 51 114 76 187 76s135 -25 186 -76c51 -50 77 -112 77 -186s-26 -136 -77 -187c-51 -50 -113 -75 -186 -75s-136 25 -187 75c-51 51 -76 113 -76 187s25 136 76 186zM163 109c38 -38 85 -57 140 -57
s102 19 140 57c38 39 57 86 57 141s-19 102 -57 140c-38 39 -85 58 -140 58s-102 -19 -140 -58c-38 -38 -57 -85 -57 -140s19 -102 57 -141zM479 657h-60l-89 121h74z" />
    <glyph glyph-name="uni1ED5" unicode="&#x1ed5;" horiz-adv-x="606" 
d="M368 570l-65 81l-65 -81h-70l99 121h72l99 -121h-70zM116 436c51 51 114 76 187 76s135 -25 186 -76c51 -50 77 -112 77 -186s-26 -136 -77 -187c-51 -50 -113 -75 -186 -75s-136 25 -187 75c-51 51 -76 113 -76 187s25 136 76 186zM163 109c38 -38 85 -57 140 -57
s102 19 140 57c38 39 57 86 57 141s-19 102 -57 140c-38 39 -85 58 -140 58s-102 -19 -140 -58c-38 -38 -57 -85 -57 -140s19 -102 57 -141zM446 657h-46c0 36 1 47 19 59c0 0 10 5 9 4c11 8 21 14 21 30c0 13 -11 22 -25 22c-15 0 -32 -11 -39 -34c0 1 -16 6 -41 21
c14 40 46 58 80 58c38 0 73 -21 73 -66c0 -34 -16 -52 -32 -60c-13 -7 -21 -14 -19 -34z" />
    <glyph glyph-name="uni1ED7" unicode="&#x1ed7;" horiz-adv-x="606" 
d="M368 570l-65 81l-65 -81h-70l99 121h72l99 -121h-70zM116 436c51 51 114 76 187 76s135 -25 186 -76c51 -50 77 -112 77 -186s-26 -136 -77 -187c-51 -50 -113 -75 -186 -75s-136 25 -187 75c-51 51 -76 113 -76 187s25 136 76 186zM163 109c38 -38 85 -57 140 -57
s102 19 140 57c38 39 57 86 57 141s-19 102 -57 140c-38 39 -85 58 -140 58s-102 -19 -140 -58c-38 -38 -57 -85 -57 -140s19 -102 57 -141zM228 719h-54c0 113 67 131 131 81c49 -38 75 -51 75 22h54c0 -113 -66 -131 -130 -81c-29 21 -41 30 -56 30c-14 1 -20 -15 -20 -52
z" />
    <glyph glyph-name="uni1ED9" unicode="&#x1ed9;" horiz-adv-x="606" 
d="M368 570l-65 81l-65 -81h-70l99 121h72l99 -121h-70zM116 436c51 51 114 76 187 76s135 -25 186 -76c51 -50 77 -112 77 -186s-26 -136 -77 -187c-51 -50 -113 -75 -186 -75s-136 25 -187 75c-51 51 -76 113 -76 187s25 136 76 186zM163 109c38 -38 85 -57 140 -57
s102 19 140 57c38 39 57 86 57 141s-19 102 -57 140c-38 39 -85 58 -140 58s-102 -19 -140 -58c-38 -38 -57 -85 -57 -140s19 -102 57 -141zM335 -167c-19 -19 -49 -19 -68 0s-19 49 0 68s49 19 68 0s19 -49 0 -68z" />
    </font>
</defs>
</svg>
